# Blender 4.4.1
# www.blender.org
mtllib player.mtl
o 球
v 0.000000 0.405018 -0.270624
v 0.000000 0.270624 -0.405018
v 0.000000 0.095031 -0.477751
v 0.000000 0.000000 -0.487111
v 0.000000 -0.095031 -0.477751
v 0.000000 -0.270624 -0.405018
v 0.018540 0.477751 -0.093205
v 0.036367 0.450032 -0.182827
v 0.052796 0.405018 -0.265424
v 0.067197 0.344439 -0.337821
v 0.079015 0.270624 -0.397235
v 0.087797 0.186409 -0.441384
v 0.093205 0.095031 -0.468571
v 0.095031 0.000000 -0.477751
v 0.093205 -0.095031 -0.468571
v 0.087797 -0.186409 -0.441384
v 0.079015 -0.270624 -0.397235
v 0.067197 -0.344439 -0.337821
v 0.052796 -0.405018 -0.265424
v 0.036367 -0.450032 -0.182827
v 0.018540 -0.477751 -0.093205
v 0.036367 0.477751 -0.087797
v 0.071336 0.450032 -0.172220
v 0.103563 0.405018 -0.250024
v 0.131811 0.344439 -0.318220
v 0.154994 0.270624 -0.374188
v 0.172220 0.186409 -0.415775
v 0.182827 0.095031 -0.441384
v 0.186409 0.000000 -0.450032
v 0.182827 -0.095031 -0.441384
v 0.172220 -0.186409 -0.415775
v 0.154994 -0.270624 -0.374188
v 0.131811 -0.344439 -0.318220
v 0.103563 -0.405018 -0.250024
v 0.071336 -0.450032 -0.172220
v 0.036367 -0.477751 -0.087797
v 0.052796 0.477751 -0.079015
v 0.103563 0.450032 -0.154994
v 0.150351 0.405018 -0.225016
v 0.191360 0.344439 -0.286391
v 0.225016 0.270624 -0.336760
v 0.250024 0.186409 -0.374188
v 0.265424 0.095031 -0.397235
v 0.270624 0.000000 -0.405018
v 0.265424 -0.095031 -0.397235
v 0.250024 -0.186409 -0.374188
v 0.225016 -0.270624 -0.336760
v 0.191360 -0.344439 -0.286391
v 0.150351 -0.405018 -0.225016
v 0.103563 -0.450032 -0.154994
v 0.052796 -0.477751 -0.079015
v 0.067197 0.477751 -0.067197
v 0.131811 0.450032 -0.131811
v 0.191360 0.405018 -0.191360
v 0.243555 0.344439 -0.243555
v 0.286391 0.270624 -0.286391
v 0.318220 0.186409 -0.318220
v 0.337821 0.095031 -0.337821
v 0.344439 0.000000 -0.344439
v 0.337821 -0.095031 -0.337821
v 0.318220 -0.186409 -0.318220
v 0.286391 -0.270624 -0.286391
v 0.243555 -0.344439 -0.243555
v 0.191360 -0.405018 -0.191360
v 0.131811 -0.450032 -0.131811
v 0.067197 -0.477751 -0.067197
v 0.079015 0.477751 -0.052796
v 0.154994 0.450032 -0.103563
v 0.225016 0.405018 -0.150351
v 0.286391 0.344439 -0.191360
v 0.336760 0.270624 -0.225016
v 0.374188 0.186409 -0.250024
v 0.397235 0.095031 -0.265424
v 0.405018 0.000000 -0.270624
v 0.397235 -0.095031 -0.265424
v 0.374188 -0.186409 -0.250024
v 0.336760 -0.270624 -0.225016
v 0.286391 -0.344439 -0.191360
v 0.225016 -0.405018 -0.150351
v 0.154994 -0.450032 -0.103563
v 0.079015 -0.477751 -0.052796
v 0.000000 0.487111 0.000000
v 0.087797 0.477751 -0.036367
v 0.172220 0.450032 -0.071336
v 0.250024 0.405018 -0.103563
v 0.318220 0.344439 -0.131811
v 0.374188 0.270624 -0.154994
v 0.415775 0.186409 -0.172220
v 0.441384 0.095031 -0.182827
v 0.450032 0.000000 -0.186409
v 0.441384 -0.095031 -0.182827
v 0.415775 -0.186409 -0.172220
v 0.374188 -0.270624 -0.154994
v 0.318220 -0.344439 -0.131811
v 0.250024 -0.405018 -0.103563
v 0.172220 -0.450032 -0.071336
v 0.087797 -0.477751 -0.036367
v 0.093205 0.477751 -0.018540
v 0.182827 0.450032 -0.036367
v 0.265424 0.405018 -0.052796
v 0.337821 0.344439 -0.067197
v 0.397235 0.270624 -0.079015
v 0.441384 0.186409 -0.087797
v 0.468571 0.095031 -0.093205
v 0.477751 0.000000 -0.095030
v 0.468571 -0.095031 -0.093205
v 0.441384 -0.186409 -0.087797
v 0.397235 -0.270624 -0.079015
v 0.337821 -0.344439 -0.067197
v 0.265424 -0.405018 -0.052796
v 0.182827 -0.450032 -0.036367
v 0.093205 -0.477751 -0.018540
v 0.095031 0.477751 0.000000
v 0.186409 0.450032 0.000000
v 0.270624 0.405018 0.000000
v 0.344439 0.344439 -0.000000
v 0.405018 0.270624 0.000000
v 0.450032 0.186409 -0.000000
v 0.477751 0.095031 0.000000
v 0.487111 0.000000 0.000000
v 0.477751 -0.095031 0.000000
v 0.450032 -0.186409 -0.000000
v 0.405018 -0.270624 0.000000
v 0.344439 -0.344439 -0.000000
v 0.270624 -0.405018 0.000000
v 0.186409 -0.450032 0.000000
v 0.095031 -0.477751 0.000000
v 0.093205 0.477751 0.018540
v 0.182827 0.450032 0.036367
v 0.265424 0.405018 0.052796
v 0.337821 0.344439 0.067197
v 0.397235 0.270624 0.079015
v 0.641236 0.370275 0.011790
v 0.468571 0.095031 0.093205
v 0.477751 0.000000 0.095031
v 0.468571 -0.095031 0.093205
v 0.441384 -0.186409 0.087797
v 0.397235 -0.270624 0.079015
v 0.337821 -0.344439 0.067197
v 0.265424 -0.405018 0.052796
v 0.182827 -0.450032 0.036367
v 0.093205 -0.477751 0.018540
v 0.087797 0.477751 0.036367
v 0.172220 0.450032 0.071336
v 0.250024 0.405018 0.103563
v 0.318220 0.344439 0.131811
v 0.374187 0.270624 0.154994
v 0.415775 0.186409 0.172220
v 0.441384 0.095031 0.182827
v 0.450031 0.000000 0.186409
v 0.441384 -0.095031 0.182827
v 0.415775 -0.186409 0.172220
v 0.374187 -0.270624 0.154994
v 0.318220 -0.344439 0.131811
v 0.250024 -0.405018 0.103563
v 0.172220 -0.450032 0.071336
v 0.087797 -0.477751 0.036367
v 0.079015 0.477751 0.052796
v 0.154994 0.450032 0.103563
v 0.225016 0.405018 0.150351
v 0.286391 0.344439 0.191360
v 0.336760 0.270624 0.225016
v 0.374188 0.186409 0.250024
v 0.397235 0.095031 0.265424
v 0.405018 0.000000 0.270624
v 0.397235 -0.095031 0.265424
v 0.374188 -0.186409 0.250024
v 0.336760 -0.270624 0.225016
v 0.286391 -0.344439 0.191360
v 0.225016 -0.405018 0.150351
v 0.154994 -0.450032 0.103563
v 0.079015 -0.477751 0.052796
v 0.067197 0.477751 0.067197
v 0.131811 0.450032 0.131811
v 0.191360 0.405018 0.191360
v 0.243555 0.344439 0.243555
v 0.286391 0.270624 0.286391
v 0.318220 0.186409 0.318220
v 0.337821 0.095031 0.337821
v 0.344439 0.000000 0.344439
v 0.337821 -0.095031 0.337821
v 0.318220 -0.186409 0.318220
v 0.286391 -0.270624 0.286391
v 0.243555 -0.344439 0.243555
v 0.191360 -0.405018 0.191360
v 0.131811 -0.450032 0.131811
v 0.067197 -0.477751 0.067197
v 0.052796 0.477751 0.079015
v 0.103563 0.450032 0.154994
v 0.150351 0.405018 0.225016
v 0.191360 0.344439 0.286391
v 0.225016 0.270624 0.336760
v 0.250024 0.186409 0.374188
v 0.265424 0.095031 0.397235
v 0.270624 0.000000 0.405018
v 0.265424 -0.095031 0.397235
v 0.250024 -0.186409 0.374188
v 0.225016 -0.270624 0.336760
v 0.191360 -0.344439 0.286391
v 0.150351 -0.405018 0.225016
v 0.103563 -0.450032 0.154994
v 0.052796 -0.477751 0.079015
v 0.036367 0.477751 0.087797
v 0.071336 0.450032 0.172220
v 0.103563 0.405018 0.250024
v 0.131811 0.344439 0.318220
v 0.154993 0.270624 0.374187
v 0.172220 0.186409 0.415775
v 0.182827 0.095031 0.441384
v 0.186409 0.000000 0.450031
v 0.182827 -0.095031 0.441384
v 0.172220 -0.186409 0.415775
v 0.154993 -0.270624 0.374187
v 0.131811 -0.344439 0.318220
v 0.103563 -0.405018 0.250024
v 0.071336 -0.450032 0.172220
v 0.036367 -0.477751 0.087797
v 0.018540 0.477751 0.093205
v 0.036367 0.450032 0.182827
v 0.052796 0.405018 0.265424
v 0.067197 0.344439 0.337821
v 0.079015 0.270624 0.397235
v 0.087797 0.186409 0.441384
v 0.093205 0.095031 0.468571
v 0.095030 0.000000 0.477751
v 0.093205 -0.095031 0.468571
v 0.087797 -0.186409 0.441384
v 0.079015 -0.270624 0.397235
v 0.067197 -0.344439 0.337821
v 0.052796 -0.405018 0.265424
v 0.036367 -0.450032 0.182827
v 0.018540 -0.477751 0.093205
v -0.000000 0.477751 0.095031
v -0.000000 0.450032 0.186409
v -0.000000 0.405018 0.270624
v -0.000000 0.344439 0.344439
v -0.000000 0.270624 0.405018
v 0.000000 0.186409 0.450032
v -0.000000 0.095031 0.477751
v 0.000260 -0.057020 0.576872
v -0.000000 -0.095031 0.477751
v 0.000000 -0.186543 0.450675
v -0.000000 -0.270624 0.405018
v -0.000000 -0.344439 0.344439
v -0.000000 -0.405018 0.270624
v -0.000000 -0.450032 0.186409
v -0.000000 -0.477751 0.095031
v -0.018540 0.477751 0.093205
v -0.036367 0.450032 0.182827
v -0.052796 0.405018 0.265424
v -0.067197 0.344439 0.337821
v -0.079015 0.270624 0.397235
v -0.087797 0.186409 0.441384
v -0.093205 0.095031 0.468571
v -0.095031 0.000000 0.477751
v -0.093205 -0.095031 0.468571
v -0.087797 -0.186409 0.441384
v -0.079015 -0.270624 0.397235
v -0.067197 -0.344439 0.337821
v -0.052796 -0.405018 0.265424
v -0.036367 -0.450032 0.182827
v -0.018540 -0.477751 0.093205
v -0.036367 0.477751 0.087797
v -0.071336 0.450032 0.172220
v -0.103563 0.405018 0.250024
v -0.131811 0.344439 0.318220
v -0.154994 0.270624 0.374187
v -0.172220 0.186409 0.415775
v -0.182827 0.095031 0.441384
v -0.186409 0.000000 0.450031
v -0.182827 -0.095031 0.441384
v -0.172220 -0.186409 0.415775
v -0.154994 -0.270624 0.374187
v -0.131811 -0.344439 0.318220
v -0.103563 -0.405018 0.250024
v -0.071336 -0.450032 0.172220
v -0.036367 -0.477751 0.087797
v -0.052796 0.477751 0.079015
v -0.103563 0.450032 0.154994
v -0.150351 0.405018 0.225016
v -0.191360 0.344439 0.286391
v -0.225016 0.270624 0.336760
v -0.250024 0.186409 0.374187
v -0.265424 0.095031 0.397235
v -0.270624 0.000000 0.405017
v -0.265424 -0.095031 0.397235
v -0.250024 -0.186409 0.374187
v -0.225016 -0.270624 0.336760
v -0.191360 -0.344439 0.286391
v -0.150351 -0.405018 0.225016
v -0.103563 -0.450032 0.154994
v -0.052796 -0.477751 0.079015
v -0.067197 0.477751 0.067197
v -0.131811 0.450032 0.131811
v -0.191360 0.405018 0.191360
v -0.243555 0.344439 0.243555
v -0.286391 0.270624 0.286391
v -0.318220 0.186409 0.318220
v -0.337821 0.095031 0.337821
v -0.344439 0.000000 0.344439
v -0.337821 -0.095031 0.337821
v -0.318220 -0.186409 0.318220
v -0.286391 -0.270624 0.286391
v -0.243555 -0.344439 0.243555
v -0.191360 -0.405018 0.191360
v -0.131811 -0.450032 0.131811
v -0.067197 -0.477751 0.067197
v 0.000000 -0.487111 0.000000
v -0.079015 0.477751 0.052796
v -0.154994 0.450032 0.103563
v -0.225016 0.405018 0.150351
v -0.286391 0.344439 0.191360
v -0.336760 0.270624 0.225016
v -0.374187 0.186409 0.250024
v -0.397235 0.095031 0.265424
v -0.405018 0.000000 0.270624
v -0.397235 -0.095031 0.265424
v -0.374187 -0.186409 0.250024
v -0.336760 -0.270624 0.225016
v -0.286391 -0.344439 0.191360
v -0.225016 -0.405018 0.150351
v -0.154994 -0.450032 0.103563
v -0.079015 -0.477751 0.052796
v -0.087797 0.477751 0.036367
v -0.172220 0.450032 0.071336
v -0.250024 0.405018 0.103563
v -0.318220 0.344439 0.131811
v -0.374187 0.270624 0.154993
v -0.415775 0.186409 0.172220
v -0.441384 0.095031 0.182827
v -0.450031 0.000000 0.186409
v -0.441384 -0.095031 0.182827
v -0.415775 -0.186409 0.172220
v -0.374187 -0.270624 0.154993
v -0.318220 -0.344439 0.131811
v -0.250024 -0.405018 0.103563
v -0.172220 -0.450032 0.071336
v -0.087797 -0.477751 0.036367
v -0.093205 0.477751 0.018540
v -0.182827 0.450032 0.036367
v -0.265424 0.405018 0.052796
v -0.337821 0.344439 0.067197
v -0.397235 0.270624 0.079015
v -0.441384 0.186409 0.087797
v -0.468571 0.095031 0.093204
v -0.477751 0.000000 0.095030
v -0.468571 -0.095031 0.093204
v -0.441384 -0.186409 0.087797
v -0.397235 -0.270624 0.079015
v -0.337821 -0.344439 0.067197
v -0.265424 -0.405018 0.052796
v -0.182827 -0.450032 0.036367
v -0.093205 -0.477751 0.018540
v -0.095031 0.477751 -0.000000
v -0.186409 0.450032 -0.000000
v -0.270624 0.405018 -0.000000
v -0.344439 0.344439 -0.000000
v -0.405018 0.270624 -0.000000
v -0.679340 0.337802 -0.206676
v -0.477751 0.095031 -0.000000
v -0.487110 0.000000 -0.000000
v -0.477751 -0.095031 -0.000000
v -0.450031 -0.186409 -0.000000
v -0.405018 -0.270624 -0.000000
v -0.344439 -0.344439 -0.000000
v -0.270624 -0.405018 -0.000000
v -0.186409 -0.450032 -0.000000
v -0.095031 -0.477751 -0.000000
v -0.093205 0.477751 -0.018540
v -0.182827 0.450032 -0.036367
v -0.265424 0.405018 -0.052796
v -0.337821 0.344439 -0.067197
v -0.397235 0.270624 -0.079015
v -0.441384 0.186409 -0.087797
v -0.468571 0.095031 -0.093205
v -0.477751 0.000000 -0.095031
v -0.468571 -0.095031 -0.093205
v -0.441384 -0.186409 -0.087797
v -0.397235 -0.270624 -0.079015
v -0.337821 -0.344439 -0.067197
v -0.265424 -0.405018 -0.052796
v -0.182827 -0.450032 -0.036367
v -0.093205 -0.477751 -0.018540
v -0.087797 0.477751 -0.036367
v -0.172220 0.450032 -0.071336
v -0.250024 0.405018 -0.103563
v -0.318220 0.344439 -0.131811
v -0.374187 0.270624 -0.154994
v -0.415775 0.186409 -0.172220
v -0.441384 0.095031 -0.182827
v -0.450031 0.000000 -0.186409
v -0.441384 -0.095031 -0.182827
v -0.415775 -0.186409 -0.172220
v -0.374187 -0.270624 -0.154994
v -0.318220 -0.344439 -0.131811
v -0.250024 -0.405018 -0.103563
v -0.172220 -0.450032 -0.071336
v -0.087797 -0.477751 -0.036367
v -0.079015 0.477751 -0.052796
v -0.154993 0.450032 -0.103563
v -0.225016 0.405018 -0.150351
v -0.286391 0.344439 -0.191360
v -0.336760 0.270624 -0.225016
v -0.374187 0.186409 -0.250024
v -0.397235 0.095031 -0.265424
v -0.405017 0.000000 -0.270624
v -0.397235 -0.095031 -0.265424
v -0.374187 -0.186409 -0.250024
v -0.336760 -0.270624 -0.225016
v -0.286391 -0.344439 -0.191360
v -0.225016 -0.405018 -0.150351
v -0.154993 -0.450032 -0.103563
v -0.079015 -0.477751 -0.052796
v -0.067197 0.477751 -0.067197
v -0.131811 0.450032 -0.131811
v -0.191360 0.405018 -0.191360
v -0.243555 0.344439 -0.243555
v -0.286391 0.270624 -0.286391
v -0.318220 0.186409 -0.318220
v -0.337821 0.095031 -0.337821
v -0.344439 0.000000 -0.344439
v -0.337821 -0.095031 -0.337821
v -0.318220 -0.186409 -0.318220
v -0.286391 -0.270624 -0.286391
v -0.243555 -0.344439 -0.243555
v -0.191360 -0.405018 -0.191360
v -0.131811 -0.450032 -0.131811
v -0.067197 -0.477751 -0.067197
v -0.052796 0.477751 -0.079015
v -0.103563 0.450032 -0.154994
v -0.150351 0.405018 -0.225016
v -0.191360 0.344439 -0.286391
v -0.225016 0.270624 -0.336760
v -0.250024 0.186409 -0.374187
v -0.265424 0.095031 -0.397235
v -0.270624 0.000000 -0.405017
v -0.265424 -0.095031 -0.397235
v -0.250024 -0.186409 -0.374187
v -0.225016 -0.270624 -0.336760
v -0.191360 -0.344439 -0.286391
v -0.150351 -0.405018 -0.225016
v -0.103563 -0.450032 -0.154994
v -0.052796 -0.477751 -0.079015
v -0.036367 0.477751 -0.087797
v -0.071336 0.450032 -0.172220
v -0.103563 0.405018 -0.250024
v -0.131811 0.344439 -0.318220
v -0.154993 0.270624 -0.374187
v -0.172220 0.186409 -0.415775
v -0.182827 0.095031 -0.441384
v -0.186409 0.000000 -0.450031
v -0.182827 -0.095031 -0.441384
v -0.172220 -0.186409 -0.415775
v -0.154993 -0.270624 -0.374187
v -0.131811 -0.344439 -0.318220
v -0.103563 -0.405018 -0.250024
v -0.071336 -0.450032 -0.172220
v -0.036367 -0.477751 -0.087797
v -0.018540 0.477751 -0.093204
v -0.036367 0.450032 -0.182827
v -0.052796 0.405018 -0.265424
v -0.067197 0.344439 -0.337821
v -0.079015 0.270624 -0.397235
v -0.087797 0.186409 -0.441384
v -0.093204 0.095031 -0.468571
v -0.095030 0.000000 -0.477751
v -0.093204 -0.095031 -0.468571
v -0.087797 -0.186409 -0.441384
v -0.079015 -0.270624 -0.397235
v -0.067197 -0.344439 -0.337821
v -0.052796 -0.405018 -0.265424
v -0.036367 -0.450032 -0.182827
v -0.018540 -0.477751 -0.093204
v 0.000000 0.477751 -0.095030
v 0.000000 0.450032 -0.186409
v 0.000000 0.344439 -0.344439
v 0.000000 0.186409 -0.450031
v 0.000000 -0.186409 -0.450031
v 0.000000 -0.344439 -0.344439
v 0.000000 -0.405018 -0.270624
v 0.000000 -0.450032 -0.186409
v 0.000000 -0.477751 -0.095030
vn 0.0975 -0.0976 -0.9904
vn 0.0286 0.9565 -0.2902
vn 0.0938 -0.2890 -0.9527
vn 0.0464 0.8810 -0.4709
vn 0.0865 -0.4696 -0.8786
vn 0.0624 0.7715 -0.6332
vn 0.0759 -0.6326 -0.7708
vn 0.0759 0.6326 -0.7708
vn 0.0624 -0.7715 -0.6332
vn 0.0865 0.4696 -0.8786
vn 0.0464 -0.8810 -0.4709
vn 0.0938 0.2890 -0.9527
vn 0.0286 -0.9565 -0.2902
vn 0.0975 0.0975 -0.9904
vn 0.0097 0.9951 -0.0980
vn 0.0097 -0.9951 -0.0980
vn 0.0846 -0.9565 -0.2790
vn 0.2889 0.0976 -0.9524
vn 0.0286 0.9951 -0.0942
vn 0.0286 -0.9951 -0.0942
vn 0.2889 -0.0976 -0.9524
vn 0.0846 0.9565 -0.2790
vn 0.2779 -0.2890 -0.9161
vn 0.1374 0.8810 -0.4528
vn 0.2563 -0.4696 -0.8448
vn 0.1847 0.7715 -0.6088
vn 0.2248 -0.6326 -0.7412
vn 0.2248 0.6326 -0.7412
vn 0.1847 -0.7715 -0.6088
vn 0.2563 0.4696 -0.8448
vn 0.1374 -0.8810 -0.4528
vn 0.2779 0.2890 -0.9161
vn 0.3651 -0.6326 -0.6831
vn 0.3651 0.6326 -0.6831
vn 0.2999 -0.7715 -0.5611
vn 0.4162 0.4696 -0.7786
vn 0.2230 -0.8810 -0.4173
vn 0.4513 0.2890 -0.8443
vn 0.1374 -0.9565 -0.2571
vn 0.4691 0.0975 -0.8777
vn 0.0464 0.9951 -0.0869
vn 0.0464 -0.9951 -0.0869
vn 0.4691 -0.0975 -0.8777
vn 0.1374 0.9565 -0.2571
vn 0.4513 -0.2890 -0.8443
vn 0.2231 0.8810 -0.4173
vn 0.4162 -0.4696 -0.7786
vn 0.2999 0.7715 -0.5611
vn 0.0625 0.9951 -0.0761
vn 0.0625 -0.9951 -0.0761
vn 0.6314 -0.0975 -0.7693
vn 0.1850 0.9565 -0.2254
vn 0.6073 -0.2890 -0.7400
vn 0.3002 0.8810 -0.3658
vn 0.5601 -0.4696 -0.6825
vn 0.4036 0.7715 -0.4918
vn 0.4913 -0.6326 -0.5987
vn 0.4913 0.6326 -0.5987
vn 0.4036 -0.7715 -0.4918
vn 0.5601 0.4696 -0.6825
vn 0.3002 -0.8810 -0.3658
vn 0.6073 0.2890 -0.7400
vn 0.1850 -0.9565 -0.2254
vn 0.6314 0.0975 -0.7693
vn 0.5987 0.6326 -0.4913
vn 0.4918 -0.7715 -0.4036
vn 0.6825 0.4696 -0.5601
vn 0.3658 -0.8810 -0.3002
vn 0.7400 0.2890 -0.6073
vn 0.2254 -0.9566 -0.1850
vn 0.7693 0.0975 -0.6314
vn 0.0761 0.9951 -0.0625
vn 0.0761 -0.9951 -0.0625
vn 0.7693 -0.0975 -0.6314
vn 0.2254 0.9565 -0.1850
vn 0.7400 -0.2890 -0.6073
vn 0.3658 0.8810 -0.3002
vn 0.6825 -0.4696 -0.5601
vn 0.4918 0.7715 -0.4036
vn 0.5987 -0.6326 -0.4913
vn 0.8777 -0.0975 -0.4691
vn 0.2571 0.9565 -0.1374
vn 0.8443 -0.2890 -0.4513
vn 0.4173 0.8810 -0.2230
vn 0.7786 -0.4696 -0.4162
vn 0.5611 0.7715 -0.2999
vn 0.6831 -0.6326 -0.3651
vn 0.6831 0.6326 -0.3651
vn 0.5611 -0.7715 -0.2999
vn 0.7786 0.4696 -0.4162
vn 0.4173 -0.8810 -0.2230
vn 0.8443 0.2890 -0.4513
vn 0.2571 -0.9565 -0.1374
vn 0.8777 0.0975 -0.4691
vn 0.0869 0.9951 -0.0464
vn 0.0869 -0.9951 -0.0464
vn 0.6088 -0.7715 -0.1847
vn 0.8448 0.4696 -0.2563
vn 0.4528 -0.8810 -0.1374
vn 0.9161 0.2890 -0.2779
vn 0.2790 -0.9565 -0.0846
vn 0.9524 0.0975 -0.2889
vn 0.0942 0.9951 -0.0286
vn 0.0942 -0.9951 -0.0286
vn 0.9524 -0.0975 -0.2889
vn 0.2790 0.9565 -0.0846
vn 0.9161 -0.2890 -0.2779
vn 0.4528 0.8810 -0.1374
vn 0.8448 -0.4696 -0.2563
vn 0.6088 0.7715 -0.1847
vn 0.7412 -0.6326 -0.2248
vn 0.7412 0.6326 -0.2248
vn 0.2902 0.9565 -0.0286
vn 0.9527 -0.2890 -0.0938
vn 0.4709 0.8810 -0.0464
vn 0.8786 -0.4696 -0.0865
vn 0.6332 0.7715 -0.0624
vn 0.7708 -0.6326 -0.0759
vn 0.7708 0.6326 -0.0759
vn 0.6332 -0.7715 -0.0624
vn 0.8786 0.4696 -0.0865
vn 0.4709 -0.8810 -0.0464
vn 0.9527 0.2890 -0.0938
vn 0.2902 -0.9565 -0.0286
vn 0.9904 0.0975 -0.0975
vn 0.0980 0.9951 -0.0097
vn 0.0980 -0.9951 -0.0097
vn 0.9904 -0.0975 -0.0975
vn 0.0407 0.0217 -0.9989
vn 0.4709 -0.8810 0.0464
vn 0.9527 0.2890 0.0938
vn 0.2902 -0.9565 0.0286
vn 0.9904 0.0975 0.0976
vn 0.0980 0.9951 0.0097
vn 0.0980 -0.9951 0.0097
vn 0.9904 -0.0975 0.0976
vn 0.2902 0.9565 0.0286
vn 0.9527 -0.2890 0.0938
vn 0.4709 0.8810 0.0464
vn 0.8786 -0.4696 0.0865
vn 0.6332 0.7715 0.0624
vn 0.7708 -0.6326 0.0759
vn 0.7708 0.6326 0.0759
vn 0.6332 -0.7715 0.0624
vn 0.9161 -0.2890 0.2779
vn 0.4528 0.8810 0.1374
vn 0.8448 -0.4696 0.2563
vn 0.6088 0.7715 0.1847
vn 0.7412 -0.6326 0.2248
vn 0.7412 0.6326 0.2248
vn 0.6088 -0.7715 0.1847
vn -0.1098 0.7265 0.6783
vn 0.4528 -0.8810 0.1374
vn 0.9161 0.2890 0.2779
vn 0.2790 -0.9565 0.0846
vn 0.9524 0.0975 0.2889
vn 0.0942 0.9951 0.0286
vn 0.0942 -0.9951 0.0286
vn 0.9524 -0.0975 0.2889
vn 0.2790 0.9565 0.0846
vn 0.4173 -0.8810 0.2230
vn 0.8443 0.2890 0.4513
vn 0.2571 -0.9565 0.1374
vn 0.8777 0.0975 0.4691
vn 0.0869 0.9951 0.0464
vn 0.0869 -0.9951 0.0464
vn 0.8777 -0.0975 0.4691
vn 0.2571 0.9565 0.1374
vn 0.8443 -0.2890 0.4513
vn 0.4173 0.8810 0.2231
vn 0.7786 -0.4696 0.4162
vn 0.5611 0.7715 0.2999
vn 0.6831 -0.6326 0.3651
vn 0.6831 0.6326 0.3651
vn 0.5611 -0.7715 0.2999
vn 0.7786 0.4696 0.4162
vn 0.6825 -0.4696 0.5601
vn 0.4918 0.7715 0.4036
vn 0.5987 -0.6326 0.4913
vn 0.5987 0.6326 0.4913
vn 0.4918 -0.7715 0.4036
vn 0.6825 0.4696 0.5601
vn 0.3658 -0.8810 0.3002
vn 0.7400 0.2890 0.6073
vn 0.2254 -0.9565 0.1850
vn 0.7693 0.0975 0.6314
vn 0.0761 0.9951 0.0625
vn 0.0761 -0.9951 0.0625
vn 0.7693 -0.0975 0.6314
vn 0.2254 0.9565 0.1850
vn 0.7400 -0.2890 0.6073
vn 0.3658 0.8810 0.3002
vn 0.1850 -0.9565 0.2254
vn 0.6314 0.0975 0.7693
vn 0.0625 0.9951 0.0761
vn 0.0625 -0.9951 0.0761
vn 0.6314 -0.0975 0.7693
vn 0.1850 0.9565 0.2254
vn 0.6073 -0.2890 0.7400
vn 0.3002 0.8810 0.3658
vn 0.5601 -0.4696 0.6825
vn 0.4036 0.7715 0.4918
vn 0.4913 -0.6326 0.5987
vn 0.4913 0.6326 0.5987
vn 0.4036 -0.7715 0.4918
vn 0.5601 0.4696 0.6825
vn 0.3002 -0.8810 0.3658
vn 0.6073 0.2890 0.7400
vn 0.2999 0.7715 0.5611
vn 0.3651 -0.6326 0.6831
vn 0.3651 0.6326 0.6831
vn 0.2999 -0.7715 0.5611
vn 0.4162 0.4696 0.7786
vn 0.2230 -0.8810 0.4173
vn 0.4513 0.2890 0.8443
vn 0.1374 -0.9565 0.2571
vn 0.4691 0.0975 0.8777
vn 0.0464 0.9951 0.0869
vn 0.0464 -0.9951 0.0869
vn 0.4691 -0.0975 0.8777
vn 0.1374 0.9565 0.2571
vn 0.4513 -0.2890 0.8443
vn 0.2230 0.8810 0.4173
vn 0.4162 -0.4696 0.7786
vn 0.2889 0.0975 0.9524
vn 0.0286 0.9951 0.0942
vn 0.0286 -0.9951 0.0942
vn 0.2889 -0.0975 0.9524
vn 0.0846 0.9565 0.2790
vn 0.2779 -0.2890 0.9161
vn 0.1374 0.8810 0.4528
vn 0.2563 -0.4696 0.8448
vn 0.1847 0.7715 0.6088
vn 0.2248 -0.6326 0.7412
vn 0.2248 0.6326 0.7412
vn 0.1847 -0.7715 0.6088
vn 0.2563 0.4696 0.8448
vn 0.1374 -0.8810 0.4528
vn 0.2779 0.2890 0.9161
vn 0.0846 -0.9565 0.2790
vn 0.0759 -0.6326 0.7708
vn 0.0759 0.6326 0.7708
vn 0.0624 -0.7715 0.6332
vn 0.0865 0.4696 0.8786
vn 0.0464 -0.8810 0.4709
vn 0.0938 0.2890 0.9527
vn 0.0286 -0.9565 0.2902
vn 0.4797 0.4797 0.7346
vn 0.0097 0.9951 0.0980
vn 0.0097 -0.9951 0.0980
vn 0.0975 -0.0975 0.9904
vn 0.0286 0.9565 0.2902
vn 0.1014 -0.2822 0.9540
vn 0.0464 0.8810 0.4709
vn 0.0865 -0.4696 0.8786
vn 0.0624 0.7715 0.6332
vn -0.0097 0.9951 0.0980
vn -0.0097 -0.9951 0.0980
vn -0.0975 -0.0975 0.9904
vn -0.0286 0.9565 0.2902
vn -0.1014 -0.2823 0.9540
vn -0.0464 0.8810 0.4709
vn -0.0865 -0.4696 0.8786
vn -0.0624 0.7715 0.6332
vn -0.0759 -0.6326 0.7708
vn -0.0759 0.6326 0.7708
vn -0.0624 -0.7715 0.6332
vn -0.0865 0.4696 0.8786
vn -0.0464 -0.8810 0.4709
vn -0.0938 0.2890 0.9527
vn -0.0286 -0.9565 0.2902
vn -0.4789 0.4788 0.7358
vn -0.2248 0.6326 0.7412
vn -0.1847 -0.7715 0.6088
vn -0.2563 0.4696 0.8448
vn -0.1374 -0.8810 0.4528
vn -0.2779 0.2890 0.9161
vn -0.0846 -0.9565 0.2790
vn -0.2889 0.0975 0.9524
vn -0.0286 0.9951 0.0942
vn -0.0286 -0.9951 0.0942
vn -0.2889 -0.0975 0.9524
vn -0.0846 0.9565 0.2790
vn -0.2779 -0.2890 0.9161
vn -0.1374 0.8810 0.4528
vn -0.2563 -0.4696 0.8448
vn -0.1847 0.7715 0.6088
vn -0.2248 -0.6326 0.7412
vn -0.4691 -0.0975 0.8777
vn -0.1374 0.9565 0.2571
vn -0.4513 -0.2890 0.8443
vn -0.2230 0.8810 0.4173
vn -0.4162 -0.4696 0.7786
vn -0.2999 0.7715 0.5611
vn -0.3651 -0.6326 0.6831
vn -0.3651 0.6326 0.6831
vn -0.2999 -0.7715 0.5611
vn -0.4162 0.4696 0.7786
vn -0.2230 -0.8810 0.4173
vn -0.4513 0.2890 0.8443
vn -0.1374 -0.9565 0.2571
vn -0.4691 0.0975 0.8777
vn -0.0464 0.9951 0.0869
vn -0.0464 -0.9951 0.0869
vn -0.4036 -0.7715 0.4918
vn -0.5601 0.4696 0.6825
vn -0.3002 -0.8810 0.3658
vn -0.6073 0.2890 0.7400
vn -0.1850 -0.9565 0.2254
vn -0.6314 0.0975 0.7693
vn -0.0625 0.9951 0.0761
vn -0.0625 -0.9951 0.0761
vn -0.6314 -0.0975 0.7693
vn -0.1850 0.9565 0.2254
vn -0.6073 -0.2890 0.7400
vn -0.3002 0.8810 0.3658
vn -0.5601 -0.4696 0.6825
vn -0.4036 0.7715 0.4918
vn -0.4913 -0.6326 0.5987
vn -0.4913 0.6326 0.5987
vn -0.7400 -0.2890 0.6073
vn -0.3658 0.8810 0.3002
vn -0.6825 -0.4696 0.5601
vn -0.4918 0.7715 0.4036
vn -0.5987 -0.6326 0.4913
vn -0.5987 0.6326 0.4913
vn -0.4918 -0.7715 0.4036
vn -0.6825 0.4696 0.5601
vn -0.3658 -0.8810 0.3002
vn -0.7400 0.2890 0.6073
vn -0.2254 -0.9566 0.1850
vn -0.7693 0.0975 0.6314
vn -0.0761 0.9951 0.0625
vn -0.0761 -0.9951 0.0625
vn -0.7693 -0.0975 0.6314
vn -0.2254 0.9565 0.1850
vn -0.4173 -0.8810 0.2231
vn -0.8443 0.2890 0.4513
vn -0.2571 -0.9565 0.1374
vn -0.8777 0.0975 0.4691
vn -0.0869 0.9951 0.0464
vn -0.0869 -0.9951 0.0464
vn -0.8777 -0.0975 0.4691
vn -0.2571 0.9565 0.1374
vn -0.8443 -0.2890 0.4513
vn -0.4173 0.8810 0.2230
vn -0.7786 -0.4696 0.4162
vn -0.5611 0.7715 0.2999
vn -0.6831 -0.6326 0.3651
vn -0.6831 0.6326 0.3651
vn -0.5611 -0.7715 0.2999
vn -0.7786 0.4696 0.4162
vn -0.4528 0.8810 0.1374
vn -0.8448 -0.4696 0.2563
vn -0.6088 0.7715 0.1847
vn -0.7412 -0.6326 0.2248
vn -0.7412 0.6326 0.2248
vn -0.6088 -0.7715 0.1847
vn -0.8448 0.4696 0.2563
vn -0.4528 -0.8810 0.1374
vn -0.9161 0.2890 0.2779
vn -0.2790 -0.9565 0.0846
vn -0.9524 0.0975 0.2889
vn -0.0942 0.9951 0.0286
vn -0.0942 -0.9951 0.0286
vn -0.9524 -0.0975 0.2889
vn -0.2790 0.9565 0.0846
vn -0.9161 -0.2890 0.2779
vn -0.9527 0.2890 0.0938
vn -0.2902 -0.9565 0.0286
vn -0.9904 0.0975 0.0975
vn -0.0980 0.9951 0.0097
vn -0.0980 -0.9951 0.0097
vn -0.9904 -0.0975 0.0976
vn -0.2902 0.9565 0.0286
vn -0.9527 -0.2890 0.0938
vn -0.4709 0.8810 0.0464
vn -0.8786 -0.4696 0.0865
vn -0.6332 0.7715 0.0624
vn -0.7708 -0.6326 0.0759
vn -0.7708 0.6326 0.0759
vn -0.6332 -0.7715 0.0624
vn -0.2725 0.7483 0.6049
vn -0.4709 -0.8810 0.0464
vn -0.8786 -0.4696 -0.0865
vn -0.6332 0.7715 -0.0624
vn -0.7708 -0.6326 -0.0759
vn -0.7708 0.6326 -0.0759
vn -0.6332 -0.7715 -0.0624
vn 0.3884 -0.1082 -0.9151
vn -0.4709 -0.8810 -0.0464
vn -0.9527 0.2890 -0.0938
vn -0.2902 -0.9565 -0.0286
vn -0.9904 0.0975 -0.0975
vn -0.0980 0.9951 -0.0097
vn -0.0980 -0.9951 -0.0097
vn -0.9904 -0.0975 -0.0976
vn -0.2902 0.9565 -0.0286
vn -0.9527 -0.2890 -0.0938
vn -0.4709 0.8810 -0.0464
vn -0.2790 -0.9565 -0.0846
vn -0.9524 0.0975 -0.2889
vn -0.0942 0.9951 -0.0286
vn -0.0942 -0.9951 -0.0286
vn -0.9524 -0.0975 -0.2889
vn -0.2790 0.9565 -0.0846
vn -0.9161 -0.2890 -0.2779
vn -0.4528 0.8810 -0.1374
vn -0.8448 -0.4696 -0.2563
vn -0.6088 0.7715 -0.1847
vn -0.7412 -0.6326 -0.2248
vn -0.7412 0.6326 -0.2248
vn -0.6088 -0.7715 -0.1847
vn -0.8448 0.4696 -0.2563
vn -0.4528 -0.8810 -0.1374
vn -0.9161 0.2890 -0.2779
vn -0.5611 0.7715 -0.2999
vn -0.6831 -0.6326 -0.3651
vn -0.6831 0.6326 -0.3651
vn -0.5611 -0.7715 -0.2999
vn -0.7786 0.4696 -0.4162
vn -0.4173 -0.8810 -0.2231
vn -0.8443 0.2890 -0.4513
vn -0.2571 -0.9565 -0.1374
vn -0.8777 0.0975 -0.4691
vn -0.0869 0.9951 -0.0464
vn -0.0869 -0.9951 -0.0464
vn -0.8777 -0.0975 -0.4691
vn -0.2571 0.9565 -0.1374
vn -0.8443 -0.2890 -0.4513
vn -0.4173 0.8810 -0.2231
vn -0.7786 -0.4696 -0.4162
vn -0.7693 0.0975 -0.6314
vn -0.0761 0.9951 -0.0625
vn -0.0761 -0.9951 -0.0625
vn -0.7693 -0.0975 -0.6314
vn -0.2254 0.9565 -0.1850
vn -0.7400 -0.2890 -0.6073
vn -0.3658 0.8810 -0.3002
vn -0.6825 -0.4696 -0.5601
vn -0.4918 0.7715 -0.4036
vn -0.5987 -0.6326 -0.4913
vn -0.5987 0.6326 -0.4913
vn -0.4918 -0.7715 -0.4036
vn -0.6825 0.4696 -0.5601
vn -0.3658 -0.8810 -0.3002
vn -0.7400 0.2890 -0.6073
vn -0.2254 -0.9565 -0.1850
vn -0.4913 -0.6326 -0.5987
vn -0.4913 0.6326 -0.5987
vn -0.4036 -0.7715 -0.4918
vn -0.5601 0.4696 -0.6825
vn -0.3002 -0.8810 -0.3658
vn -0.6073 0.2890 -0.7400
vn -0.1850 -0.9565 -0.2254
vn -0.6314 0.0975 -0.7693
vn -0.0625 0.9951 -0.0761
vn -0.0625 -0.9951 -0.0761
vn -0.6314 -0.0975 -0.7693
vn -0.1850 0.9565 -0.2254
vn -0.6073 -0.2890 -0.7400
vn -0.3002 0.8810 -0.3658
vn -0.5601 -0.4696 -0.6825
vn -0.4036 0.7715 -0.4918
vn -0.0464 -0.9951 -0.0869
vn -0.4691 -0.0975 -0.8777
vn -0.1374 0.9565 -0.2571
vn -0.4513 -0.2890 -0.8443
vn -0.2230 0.8810 -0.4173
vn -0.4162 -0.4696 -0.7786
vn -0.2999 0.7715 -0.5611
vn -0.3651 -0.6326 -0.6831
vn -0.3651 0.6326 -0.6831
vn -0.2999 -0.7715 -0.5611
vn -0.4162 0.4696 -0.7786
vn -0.2230 -0.8810 -0.4173
vn -0.4513 0.2890 -0.8443
vn -0.1374 -0.9565 -0.2571
vn -0.4691 0.0975 -0.8777
vn -0.0464 0.9951 -0.0869
vn -0.1847 -0.7715 -0.6088
vn -0.2563 0.4696 -0.8448
vn -0.1374 -0.8810 -0.4528
vn -0.2779 0.2890 -0.9161
vn -0.0846 -0.9565 -0.2790
vn -0.2889 0.0975 -0.9524
vn -0.0286 0.9951 -0.0942
vn -0.0286 -0.9951 -0.0942
vn -0.2889 -0.0975 -0.9524
vn -0.0846 0.9565 -0.2790
vn -0.2779 -0.2890 -0.9161
vn -0.1374 0.8810 -0.4528
vn -0.2563 -0.4696 -0.8448
vn -0.1847 0.7715 -0.6088
vn -0.2248 -0.6326 -0.7412
vn -0.2248 0.6326 -0.7412
vn -0.0286 0.9565 -0.2902
vn -0.0938 -0.2890 -0.9527
vn -0.0464 0.8810 -0.4709
vn -0.0865 -0.4696 -0.8786
vn -0.0624 0.7715 -0.6332
vn -0.0759 -0.6326 -0.7708
vn -0.0759 0.6326 -0.7708
vn -0.0624 -0.7715 -0.6332
vn -0.0865 0.4696 -0.8786
vn -0.0464 -0.8810 -0.4709
vn -0.0938 0.2890 -0.9527
vn -0.0286 -0.9565 -0.2902
vn -0.0976 0.0975 -0.9904
vn -0.0097 0.9951 -0.0980
vn -0.0097 -0.9951 -0.0980
vn -0.0976 -0.0975 -0.9904
vn 0.0975 -0.0975 -0.9904
vn 0.0975 0.0976 -0.9904
vn 0.2231 -0.8810 -0.4173
vn 0.2230 0.8810 -0.4173
vn 0.2254 -0.9565 -0.1850
vn -0.3868 0.9214 -0.0381
vn 0.5549 -0.5362 -0.6361
vn 0.8448 0.4696 0.2563
vn 0.6772 -0.2168 0.7032
vn 0.4173 -0.8810 0.2231
vn 0.4173 0.8810 0.2230
vn 0.2231 -0.8810 0.4173
vn 0.0975 0.0975 0.9904
vn 0.6828 -0.6828 0.2600
vn 0.0938 -0.2890 0.9527
vn 0.0933 -0.4751 0.8750
vn -0.6821 -0.6821 0.2634
vn -0.0938 -0.2890 0.9527
vn -0.0933 -0.4751 0.8750
vn -0.0975 0.0975 0.9904
vn -0.2231 0.8810 0.4173
vn -0.2231 -0.8810 0.4173
vn -0.2254 -0.9565 0.1850
vn -0.4173 -0.8810 0.2230
vn -0.8101 -0.2052 0.5491
vn -0.9904 0.0975 0.0976
vn -0.9904 -0.0975 0.0975
vn -0.8786 0.4696 0.0865
vn 0.2222 0.9748 0.0219
vn -0.0653 -0.6777 -0.7324
vn -0.9904 0.0975 -0.0976
vn -0.9904 -0.0975 -0.0975
vt 0.208290 0.428812
vt 0.192640 0.447024
vt 0.190614 0.430286
vt 0.333633 0.462770
vt 0.362125 0.492172
vt 0.327945 0.473269
vt 0.176070 0.449405
vt 0.172835 0.433311
vt 0.307950 0.448697
vt 0.302506 0.461721
vt 0.158769 0.453092
vt 0.154589 0.438031
vt 0.285373 0.439451
vt 0.280634 0.454361
vt 0.140307 0.458451
vt 0.135306 0.444737
vt 0.264287 0.433666
vt 0.261018 0.449698
vt 0.120061 0.466120
vt 0.114697 0.454156
vt 0.244862 0.430143
vt 0.242769 0.447057
vt 0.096431 0.477427
vt 0.091059 0.467753
vt 0.226308 0.428579
vt 0.225661 0.445849
vt 0.065071 0.494977
vt 0.061169 0.488242
vt 0.209061 0.445856
vt 0.366278 0.484810
vt 0.401757 0.509676
vt 0.028762 0.511515
vt 0.068349 0.502033
vt 0.209623 0.461761
vt 0.397454 0.516267
vt 0.358119 0.499490
vt 0.030712 0.515226
vt 0.194194 0.462646
vt 0.323335 0.483756
vt 0.178504 0.464476
vt 0.298172 0.474359
vt 0.162033 0.467414
vt 0.276845 0.468565
vt 0.144541 0.471769
vt 0.258321 0.464870
vt 0.124418 0.477895
vt 0.241229 0.462716
vt 0.100886 0.487224
vt 0.225162 0.461797
vt 0.164705 0.481188
vt 0.147670 0.484620
vt 0.256268 0.479191
vt 0.128092 0.489467
vt 0.239995 0.477511
vt 0.104545 0.497089
vt 0.224764 0.476806
vt 0.071036 0.509350
vt 0.210062 0.476743
vt 0.394670 0.520526
vt 0.354730 0.506986
vt 0.032369 0.519398
vt 0.195403 0.477428
vt 0.319621 0.494168
vt 0.180445 0.478853
vt 0.294494 0.486676
vt 0.273919 0.482122
vt 0.392315 0.525175
vt 0.351914 0.514630
vt 0.033684 0.523974
vt 0.073164 0.516880
vt 0.196338 0.491560
vt 0.316386 0.504466
vt 0.181966 0.492653
vt 0.291748 0.498644
vt 0.166773 0.494465
vt 0.271780 0.495179
vt 0.150164 0.497143
vt 0.254583 0.492941
vt 0.130988 0.500889
vt 0.239013 0.491610
vt 0.107495 0.506989
vt 0.224434 0.491041
vt 0.210359 0.491064
vt 0.270177 0.507853
vt 0.253292 0.506219
vt 0.133215 0.512187
vt 0.238246 0.505185
vt 0.109812 0.516902
vt 0.224186 0.504747
vt 0.074765 0.524592
vt 0.210602 0.504791
vt 0.390299 0.530022
vt 0.349656 0.522376
vt 0.034624 0.528899
vt 0.197058 0.505166
vt 0.313838 0.514714
vt 0.183135 0.505991
vt 0.289689 0.510348
vt 0.168355 0.507365
vt 0.152090 0.509399
vt 0.197613 0.518375
vt 0.312270 0.524917
vt 0.184011 0.518985
vt 0.288140 0.521918
vt 0.169524 0.519984
vt 0.268856 0.520313
vt 0.153509 0.521450
vt 0.252447 0.519141
vt 0.134844 0.523380
vt 0.237665 0.518348
vt 0.111474 0.526802
vt 0.224011 0.518013
vt 0.076563 0.532225
vt 0.210807 0.518084
vt 0.388524 0.535007
vt 0.347943 0.530163
vt 0.036727 0.537583
vt 0.154465 0.533365
vt 0.135926 0.534498
vt 0.237165 0.531170
vt 0.112564 0.536659
vt 0.223916 0.530917
vt 0.077864 0.539858
vt 0.211008 0.531057
vt 0.387131 0.540190
vt 0.346742 0.537962
vt 0.038272 0.542677
vt 0.198046 0.531306
vt 0.311318 0.535011
vt 0.184640 0.531743
vt 0.287169 0.533392
vt 0.170332 0.532417
vt 0.268169 0.532644
vt 0.251693 0.531941
vt 0.346031 0.545769
vt 0.310666 0.545035
vt 0.185055 0.544380
vt 0.286891 0.544740
vt 0.170810 0.544755
vt 0.267961 0.545021
vt 0.154990 0.545213
vt 0.250863 0.544706
vt 0.136493 0.545579
vt 0.236604 0.543562
vt 0.113073 0.546483
vt 0.224005 0.543489
vt 0.078675 0.547469
vt 0.211282 0.543805
vt 0.386214 0.545494
vt 0.039445 0.547805
vt 0.198396 0.544078
vt 0.240666 0.553317
vt 0.113048 0.556306
vt 0.224717 0.555678
vt 0.078301 0.555115
vt 0.211750 0.556431
vt 0.385647 0.550783
vt 0.345811 0.553557
vt 0.039483 0.549383
vt 0.198690 0.556844
vt 0.310578 0.555009
vt 0.185268 0.557022
vt 0.287146 0.555883
vt 0.170969 0.557098
vt 0.268528 0.556813
vt 0.155095 0.557069
vt 0.252981 0.557570
vt 0.136562 0.556678
vt 0.185260 0.569813
vt 0.311389 0.564898
vt 0.287743 0.566978
vt 0.170796 0.569542
vt 0.269293 0.568464
vt 0.154773 0.569001
vt 0.253533 0.569362
vt 0.136136 0.567845
vt 0.239833 0.570000
vt 0.112423 0.566170
vt 0.225571 0.569528
vt 0.077447 0.562806
vt 0.212097 0.569780
vt 0.385332 0.556026
vt 0.346084 0.561277
vt 0.038640 0.554604
vt 0.198858 0.569890
vt 0.111454 0.576098
vt 0.239813 0.582594
vt 0.225830 0.582924
vt 0.076835 0.570544
vt 0.212275 0.583165
vt 0.385539 0.561217
vt 0.346846 0.568936
vt 0.037667 0.563551
vt 0.198820 0.583108
vt 0.312439 0.574789
vt 0.184984 0.582787
vt 0.288941 0.578142
vt 0.170270 0.582155
vt 0.270311 0.580410
vt 0.153996 0.581073
vt 0.254248 0.581761
vt 0.135077 0.579092
vt 0.184434 0.596029
vt 0.169369 0.595014
vt 0.271784 0.592522
vt 0.152746 0.593333
vt 0.255287 0.594452
vt 0.133558 0.590452
vt 0.240406 0.595675
vt 0.109598 0.586052
vt 0.226214 0.596387
vt 0.075025 0.578082
vt 0.212396 0.596722
vt 0.386107 0.566210
vt 0.348123 0.576507
vt 0.037472 0.565081
vt 0.198614 0.596577
vt 0.314096 0.584691
vt 0.290670 0.589387
vt 0.072685 0.585565
vt 0.226773 0.610208
vt 0.212499 0.610641
vt 0.386932 0.570987
vt 0.349933 0.583938
vt 0.035684 0.569889
vt 0.198260 0.610435
vt 0.316720 0.594518
vt 0.183597 0.609657
vt 0.292901 0.600750
vt 0.168058 0.608222
vt 0.273627 0.604876
vt 0.150967 0.605882
vt 0.256875 0.607531
vt 0.131423 0.602020
vt 0.241420 0.609201
vt 0.107072 0.596055
vt 0.276264 0.617603
vt 0.148580 0.618800
vt 0.258861 0.621026
vt 0.128497 0.613838
vt 0.242806 0.623231
vt 0.104120 0.606173
vt 0.227523 0.624561
vt 0.069802 0.592950
vt 0.212586 0.625074
vt 0.388242 0.575518
vt 0.352297 0.591215
vt 0.033570 0.574546
vt 0.197765 0.624842
vt 0.319760 0.604387
vt 0.182437 0.623825
vt 0.295958 0.612333
vt 0.166285 0.621894
vt 0.228499 0.639697
vt 0.212564 0.640074
vt 0.389855 0.579677
vt 0.355252 0.598288
vt 0.030180 0.582062
vt 0.066934 0.600436
vt 0.197172 0.639996
vt 0.323622 0.614238
vt 0.180875 0.638754
vt 0.299813 0.624113
vt 0.163975 0.636132
vt 0.279607 0.630726
vt 0.145495 0.632143
vt 0.261470 0.635106
vt 0.124787 0.625893
vt 0.244636 0.637957
vt 0.100307 0.616373
vt 0.141577 0.646011
vt 0.283821 0.644336
vt 0.264826 0.649902
vt 0.120244 0.638175
vt 0.247022 0.653564
vt 0.095376 0.626497
vt 0.230012 0.655657
vt 0.062890 0.607373
vt 0.209645 0.656087
vt 0.391762 0.583392
vt 0.358839 0.605093
vt 0.029521 0.583278
vt 0.196496 0.656065
vt 0.328394 0.624043
vt 0.179119 0.654246
vt 0.304626 0.636110
vt 0.160888 0.651136
vt 0.393839 0.586630
vt 0.363090 0.611538
vt 0.026586 0.586662
vt 0.058178 0.614028
vt 0.212999 0.674263
vt 0.195063 0.673396
vt 0.334453 0.633613
vt 0.176440 0.671044
vt 0.310465 0.648276
vt 0.157099 0.666981
vt 0.289101 0.658511
vt 0.136644 0.660515
vt 0.269064 0.665559
vt 0.114565 0.650801
vt 0.249991 0.670192
vt 0.089462 0.636579
vt 0.231462 0.672972
vt 0.295751 0.673403
vt 0.274454 0.682323
vt 0.130445 0.675788
vt 0.107543 0.663766
vt 0.253801 0.688237
vt 0.082400 0.646540
vt 0.233539 0.691820
vt 0.052770 0.620315
vt 0.213389 0.693234
vt 0.394837 0.587391
vt 0.368382 0.617242
vt 0.023402 0.589582
vt 0.193386 0.692332
vt 0.341375 0.643036
vt 0.173083 0.689277
vt 0.317833 0.660750
vt 0.152207 0.683996
vt 0.191289 0.713226
vt 0.374375 0.622466
vt 0.349688 0.652121
vt 0.168752 0.709239
vt 0.326876 0.673404
vt 0.145927 0.702390
vt 0.304120 0.689064
vt 0.122633 0.691924
vt 0.281355 0.700448
vt 0.098895 0.677033
vt 0.258714 0.708077
vt 0.074012 0.656258
vt 0.236183 0.712690
vt 0.046641 0.626124
vt 0.213708 0.714439
vt 0.398029 0.589282
vt 0.020070 0.591956
vt 0.112751 0.709010
vt 0.088256 0.690507
vt 0.265134 0.730242
vt 0.064102 0.665544
vt 0.239606 0.736261
vt 0.039779 0.631319
vt 0.213994 0.738435
vt 0.401170 0.590593
vt 0.381074 0.627062
vt 0.016710 0.593713
vt 0.188466 0.736728
vt 0.359735 0.660547
vt 0.163072 0.731413
vt 0.337808 0.685964
vt 0.137813 0.722446
vt 0.314706 0.705527
vt 0.290292 0.720241
vt 0.155493 0.756411
vt 0.351521 0.698438
vt 0.127213 0.744507
vt 0.328282 0.722828
vt 0.100168 0.727089
vt 0.302076 0.742095
vt 0.075165 0.703992
vt 0.273693 0.755539
vt 0.052462 0.674120
vt 0.244060 0.763472
vt 0.032189 0.635732
vt 0.214187 0.766112
vt 0.405494 0.592043
vt 0.388338 0.631137
vt 0.013473 0.594806
vt 0.184569 0.763628
vt 0.371323 0.668205
vt 0.038893 0.681589
vt 0.285502 0.785381
vt 0.249808 0.795712
vt 0.023912 0.639163
vt 0.214084 0.798658
vt 0.407473 0.592238
vt 0.396255 0.634112
vt 0.010544 0.595222
vt 0.179076 0.794987
vt 0.384872 0.674493
vt 0.145196 0.785033
vt 0.368015 0.709998
vt 0.113176 0.768955
vt 0.345753 0.740668
vt 0.083998 0.746121
vt 0.318005 0.766330
vt 0.059055 0.717126
vt 0.388471 0.720144
vt 0.130899 0.818443
vt 0.094310 0.796160
vt 0.368501 0.758535
vt 0.062966 0.765914
vt 0.340072 0.792414
vt 0.039267 0.729246
vt 0.303275 0.823556
vt 0.023231 0.687399
vt 0.256486 0.834600
vt 0.015039 0.641385
vt 0.213271 0.837505
vt 0.408959 0.591872
vt 0.404698 0.635775
vt 0.008141 0.595011
vt 0.171255 0.832264
vt 0.400107 0.678896
vt 0.263239 0.882112
vt 0.005737 0.642146
vt 0.211358 0.884129
vt 0.409679 0.591222
vt 0.413443 0.635894
vt 0.006505 0.594312
vt 0.160330 0.877626
vt 0.417039 0.680581
vt 0.110269 0.858870
vt 0.413064 0.727435
vt 0.068675 0.826055
vt 0.398205 0.775484
vt 0.035031 0.786089
vt 0.370233 0.818779
vt 0.015207 0.739125
vt 0.435301 0.999934
vt 0.005410 0.690805
vt 0.038256 0.278453
vt 0.099433 0.274003
vt 0.068608 0.302661
vt 0.435301 0.355713
vt 0.391983 0.311617
vt 0.430029 0.304911
vt 0.043979 0.336499
vt 0.015527 0.322379
vt 0.426389 0.249312
vt 0.368716 0.242710
vt 0.001824 0.368565
vt 0.026434 0.374874
vt 0.399844 0.000066
vt 0.290538 0.208579
vt 0.016841 0.416075
vt 0.000066 0.415217
vt 0.206713 0.173690
vt 0.222841 0.219277
vt 0.014438 0.459139
vt 0.005856 0.459484
vt 0.158514 0.188253
vt 0.176207 0.233052
vt 0.427479 0.454947
vt 0.419979 0.503131
vt 0.417981 0.454407
vt 0.011910 0.503094
vt 0.135332 0.250963
vt 0.112205 0.211112
vt 0.416159 0.406487
vt 0.434652 0.406207
vt 0.072327 0.241751
vt 0.407611 0.359762
vt 0.022909 0.460360
vt 0.229484 0.266743
vt 0.188549 0.273999
vt 0.418826 0.502433
vt 0.408673 0.455485
vt 0.012442 0.502959
vt 0.152553 0.286429
vt 0.398904 0.409993
vt 0.120287 0.303568
vt 0.383659 0.368447
vt 0.091666 0.325629
vt 0.361144 0.328225
vt 0.066891 0.352184
vt 0.327274 0.290665
vt 0.046634 0.383710
vt 0.278441 0.268581
vt 0.032324 0.419659
vt 0.337706 0.349086
vt 0.085321 0.368417
vt 0.305666 0.324773
vt 0.063809 0.394261
vt 0.268343 0.309930
vt 0.045870 0.425234
vt 0.230659 0.306125
vt 0.030859 0.462683
vt 0.196244 0.309641
vt 0.416976 0.501964
vt 0.399806 0.457982
vt 0.015035 0.502078
vt 0.164904 0.317950
vt 0.383435 0.415906
vt 0.136026 0.330524
vt 0.363618 0.380246
vt 0.109499 0.347440
vt 0.230062 0.338438
vt 0.200978 0.340171
vt 0.414493 0.501868
vt 0.391565 0.461669
vt 0.015895 0.502058
vt 0.038219 0.466338
vt 0.173678 0.345776
vt 0.370021 0.423626
vt 0.147847 0.355007
vt 0.347092 0.393716
vt 0.123355 0.367989
vt 0.320713 0.369725
vt 0.100111 0.384606
vt 0.291621 0.352520
vt 0.078089 0.405743
vt 0.260769 0.341995
vt 0.057809 0.432282
vt 0.111986 0.400450
vt 0.308081 0.389081
vt 0.281677 0.376322
vt 0.089947 0.417715
vt 0.255106 0.368560
vt 0.068164 0.440336
vt 0.229034 0.365613
vt 0.044909 0.470916
vt 0.203979 0.366504
vt 0.411578 0.502341
vt 0.384049 0.466328
vt 0.018206 0.502753
vt 0.179972 0.370386
vt 0.358545 0.432574
vt 0.156760 0.377233
vt 0.333834 0.407698
vt 0.134162 0.387247
vt 0.020695 0.504149
vt 0.050900 0.476250
vt 0.184571 0.392338
vt 0.377300 0.471759
vt 0.348875 0.442282
vt 0.163532 0.397484
vt 0.323146 0.421684
vt 0.142638 0.405272
vt 0.298493 0.407051
vt 0.121531 0.415792
vt 0.274299 0.397346
vt 0.099779 0.429887
vt 0.250816 0.391449
vt 0.077073 0.449078
vt 0.228003 0.389087
vt 0.205964 0.389572
vt 0.408379 0.503470
vt 0.129200 0.430567
vt 0.107929 0.442076
vt 0.247541 0.411683
vt 0.084688 0.458276
vt 0.227096 0.409836
vt 0.056195 0.482198
vt 0.207328 0.410132
vt 0.407355 0.504138
vt 0.371586 0.478211
vt 0.023205 0.506237
vt 0.187993 0.412144
vt 0.340404 0.452359
vt 0.168711 0.416037
vt 0.314690 0.435311
vt 0.149352 0.422192
vt 0.291167 0.423724
vt 0.268631 0.416321
vt 0.402597 0.508586
vt 0.027850 0.510594
s 0
usemtl マテリアル
f 4/1/1 15/2/1 5/3/1
f 475/4/2 7/5/2 8/6/2
f 5/3/3 16/7/3 478/8/3
f 1/9/4 8/6/4 9/10/4
f 478/8/5 17/11/5 6/12/5
f 476/13/6 9/10/6 10/14/6
f 6/12/7 18/15/7 479/16/7
f 2/17/8 10/14/8 11/18/8
f 479/16/9 19/19/9 480/20/9
f 477/21/10 11/18/10 12/22/10
f 480/20/11 20/23/11 481/24/11
f 3/25/12 12/22/12 13/26/12
f 481/24/13 21/27/13 482/28/13
f 3/25/14 14/29/14 4/1/14
f 474/30/15 82/31/15 7/5/15
f 308/32/16 482/28/16 21/27/16
f 20/23/17 36/33/17 21/27/17
f 13/26/18 29/34/18 14/29/18
f 7/5/19 82/35/19 22/36/19
f 308/37/20 21/27/20 36/33/20
f 14/29/21 30/38/21 15/2/21
f 7/5/22 23/39/22 8/6/22
f 15/2/23 31/40/23 16/7/23
f 8/6/24 24/41/24 9/10/24
f 16/7/25 32/42/25 17/11/25
f 9/10/26 25/43/26 10/14/26
f 17/11/27 33/44/27 18/15/27
f 10/14/28 26/45/28 11/18/28
f 19/19/29 33/44/29 34/46/29
f 11/18/30 27/47/30 12/22/30
f 20/23/31 34/46/31 35/48/31
f 13/26/32 27/47/32 28/49/32
f 33/44/33 47/50/33 48/51/33
f 25/43/34 41/52/34 26/45/34
f 34/46/35 48/51/35 49/53/35
f 26/45/36 42/54/36 27/47/36
f 34/46/37 50/55/37 35/48/37
f 27/47/38 43/56/38 28/49/38
f 35/48/39 51/57/39 36/33/39
f 28/49/40 44/58/40 29/34/40
f 22/36/41 82/59/41 37/60/41
f 308/61/42 36/33/42 51/57/42
f 30/38/43 44/58/43 45/62/43
f 22/36/44 38/63/44 23/39/44
f 30/38/45 46/64/45 31/40/45
f 23/39/46 39/65/46 24/41/46
f 32/42/47 46/64/47 47/50/47
f 24/41/48 40/66/48 25/43/48
f 37/60/49 82/67/49 52/68/49
f 308/69/50 51/57/50 66/70/50
f 44/58/51 60/71/51 45/62/51
f 37/60/52 53/72/52 38/63/52
f 45/62/53 61/73/53 46/64/53
f 38/63/54 54/74/54 39/65/54
f 47/50/55 61/73/55 62/75/55
f 39/65/56 55/76/56 40/66/56
f 47/50/57 63/77/57 48/51/57
f 40/66/58 56/78/58 41/52/58
f 48/51/59 64/79/59 49/53/59
f 41/52/60 57/80/60 42/54/60
f 49/53/61 65/81/61 50/55/61
f 43/56/62 57/80/62 58/82/62
f 50/55/63 66/70/63 51/57/63
f 44/58/64 58/82/64 59/83/64
f 56/78/65 70/84/65 71/85/65
f 63/77/66 79/86/66 64/79/66
f 56/78/67 72/87/67 57/80/67
f 65/81/68 79/86/68 80/88/68
f 58/82/69 72/87/69 73/89/69
f 65/81/70 81/90/70 66/70/70
f 59/83/71 73/89/71 74/91/71
f 52/68/72 82/92/72 67/93/72
f 308/94/73 66/70/73 81/90/73
f 59/83/74 75/95/74 60/71/74
f 52/68/75 68/96/75 53/72/75
f 60/71/76 76/97/76 61/73/76
f 53/72/77 69/98/77 54/74/77
f 62/75/78 76/97/78 77/99/78
f 54/74/79 70/84/79 55/76/79
f 62/75/80 78/100/80 63/77/80
f 74/91/81 91/101/81 75/95/81
f 67/93/82 84/102/82 68/96/82
f 75/95/83 92/103/83 76/97/83
f 68/96/84 85/104/84 69/98/84
f 77/99/85 92/103/85 93/105/85
f 69/98/86 86/106/86 70/84/86
f 77/99/87 94/107/87 78/100/87
f 71/85/88 86/106/88 87/108/88
f 78/100/89 95/109/89 79/86/89
f 71/85/90 88/110/90 72/87/90
f 79/86/91 96/111/91 80/88/91
f 73/89/92 88/110/92 89/112/92
f 81/90/93 96/111/93 97/113/93
f 74/91/94 89/112/94 90/114/94
f 67/93/95 82/115/95 83/116/95
f 308/117/96 81/90/96 97/113/96
f 95/109/97 109/118/97 110/119/97
f 87/108/98 103/120/98 88/110/98
f 96/111/99 110/119/99 111/121/99
f 89/112/100 103/120/100 104/122/100
f 96/111/101 112/123/101 97/113/101
f 90/114/102 104/122/102 105/124/102
f 83/116/103 82/125/103 98/126/103
f 308/127/104 97/113/104 112/123/104
f 90/114/105 106/128/105 91/101/105
f 84/102/106 98/126/106 99/129/106
f 91/101/107 107/130/107 92/103/107
f 84/102/108 100/131/108 85/104/108
f 93/105/109 107/130/109 108/132/109
f 85/104/110 101/133/110 86/106/110
f 93/105/111 109/118/111 94/107/111
f 87/108/112 101/133/112 102/134/112
f 99/129/113 113/135/113 114/136/113
f 106/128/114 122/137/114 107/130/114
f 99/129/115 115/138/115 100/131/115
f 108/132/116 122/137/116 123/139/116
f 100/131/117 116/140/117 101/133/117
f 108/132/118 124/141/118 109/118/118
f 102/134/119 116/140/119 117/142/119
f 110/119/120 124/141/120 125/143/120
f 102/134/121 118/144/121 103/120/121
f 110/119/122 126/145/122 111/121/122
f 104/122/123 118/144/123 119/146/123
f 111/121/124 127/147/124 112/123/124
f 105/124/125 119/146/125 120/148/125
f 98/126/126 82/149/126 113/135/126
f 308/150/127 112/123/127 127/147/127
f 105/124/128 121/151/128 106/128/128
f 117/142/129 133/152/129 118/144/129
f 125/143/130 141/153/130 126/145/130
f 118/144/131 134/154/131 119/146/131
f 126/145/132 142/155/132 127/147/132
f 120/148/133 134/154/133 135/156/133
f 113/135/134 82/157/134 128/158/134
f 308/159/135 127/147/135 142/155/135
f 120/148/136 136/160/136 121/151/136
f 113/135/137 129/161/137 114/136/137
f 121/151/138 137/162/138 122/137/138
f 114/136/139 130/163/139 115/138/139
f 123/139/140 137/162/140 138/164/140
f 115/138/141 131/165/141 116/140/141
f 123/139/142 139/166/142 124/141/142
f 117/142/143 131/165/143 132/167/143
f 125/143/144 139/166/144 140/168/144
f 136/160/145 152/169/145 137/162/145
f 130/163/146 144/170/146 145/171/146
f 138/164/147 152/169/147 153/172/147
f 130/163/148 146/173/148 131/165/148
f 138/164/149 154/174/149 139/166/149
f 132/167/150 146/173/150 147/175/150
f 140/168/151 154/174/151 155/176/151
f 132/167/152 148/177/152 133/152/152
f 140/168/153 156/178/153 141/153/153
f 134/154/154 148/177/154 149/179/154
f 142/155/155 156/178/155 157/180/155
f 135/156/156 149/179/156 150/181/156
f 128/158/157 82/182/157 143/183/157
f 308/184/158 142/155/158 157/180/158
f 135/156/159 151/185/159 136/160/159
f 128/158/160 144/170/160 129/161/160
f 155/176/161 171/186/161 156/178/161
f 149/179/162 163/187/162 164/188/162
f 156/178/163 172/189/163 157/180/163
f 150/181/164 164/188/164 165/190/164
f 143/183/165 82/191/165 158/192/165
f 308/193/166 157/180/166 172/189/166
f 150/181/167 166/194/167 151/185/167
f 143/183/168 159/195/168 144/170/168
f 151/185/169 167/196/169 152/169/169
f 145/171/170 159/195/170 160/197/170
f 153/172/171 167/196/171 168/198/171
f 145/171/172 161/199/172 146/173/172
f 153/172/173 169/200/173 154/174/173
f 147/175/174 161/199/174 162/201/174
f 155/176/175 169/200/175 170/202/175
f 147/175/176 163/187/176 148/177/176
f 168/198/177 182/203/177 183/204/177
f 160/197/178 176/205/178 161/199/178
f 168/198/179 184/206/179 169/200/179
f 162/201/180 176/205/180 177/207/180
f 169/200/181 185/208/181 170/202/181
f 162/201/182 178/209/182 163/187/182
f 171/186/183 185/208/183 186/210/183
f 164/188/184 178/209/184 179/211/184
f 172/189/185 186/210/185 187/212/185
f 165/190/186 179/211/186 180/213/186
f 158/192/187 82/214/187 173/215/187
f 308/216/188 172/189/188 187/212/188
f 165/190/189 181/217/189 166/194/189
f 158/192/190 174/218/190 159/195/190
f 166/194/191 182/203/191 167/196/191
f 159/195/192 175/219/192 160/197/192
f 186/210/193 202/220/193 187/212/193
f 180/213/194 194/221/194 195/222/194
f 173/215/195 82/223/195 188/224/195
f 308/225/196 187/212/196 202/220/196
f 180/213/197 196/226/197 181/217/197
f 174/218/198 188/224/198 189/227/198
f 181/217/199 197/228/199 182/203/199
f 175/219/200 189/227/200 190/229/200
f 183/204/201 197/228/201 198/230/201
f 175/219/202 191/231/202 176/205/202
f 183/204/203 199/232/203 184/206/203
f 177/207/204 191/231/204 192/233/204
f 185/208/205 199/232/205 200/234/205
f 177/207/206 193/235/206 178/209/206
f 185/208/207 201/236/207 186/210/207
f 179/211/208 193/235/208 194/221/208
f 190/229/209 206/237/209 191/231/209
f 198/230/210 214/238/210 199/232/210
f 192/233/211 206/237/211 207/239/211
f 200/234/212 214/238/212 215/240/212
f 192/233/213 208/241/213 193/235/213
f 200/234/214 216/242/214 201/236/214
f 194/221/215 208/241/215 209/243/215
f 201/236/216 217/244/216 202/220/216
f 195/222/217 209/243/217 210/245/217
f 188/224/218 82/246/218 203/247/218
f 308/248/219 202/220/219 217/244/219
f 195/222/220 211/249/220 196/226/220
f 188/224/221 204/250/221 189/227/221
f 196/226/222 212/251/222 197/228/222
f 189/227/223 205/252/223 190/229/223
f 198/230/224 212/251/224 213/253/224
f 210/245/225 224/254/225 225/255/225
f 203/247/226 82/256/226 218/257/226
f 308/258/227 217/244/227 232/259/227
f 210/245/228 226/260/228 211/249/228
f 203/247/229 219/261/229 204/250/229
f 211/249/230 227/262/230 212/251/230
f 204/250/231 220/263/231 205/252/231
f 213/253/232 227/262/232 228/264/232
f 205/252/233 221/265/233 206/237/233
f 213/253/234 229/266/234 214/238/234
f 207/239/235 221/265/235 222/267/235
f 215/240/236 229/266/236 230/268/236
f 207/239/237 223/269/237 208/241/237
f 215/240/238 231/270/238 216/242/238
f 209/243/239 223/269/239 224/254/239
f 216/242/240 232/259/240 217/244/240
f 228/264/241 244/271/241 229/266/241
f 222/267/242 236/272/242 237/273/242
f 230/268/243 244/271/243 245/274/243
f 222/267/244 238/275/244 223/269/244
f 230/268/245 246/276/245 231/270/245
f 224/254/246 238/275/246 239/277/246
f 232/259/247 246/276/247 247/278/247
f 225/255/248 239/277/248 240/279/248
f 218/257/249 82/280/249 233/281/249
f 308/282/250 232/259/250 247/278/250
f 225/255/251 241/283/251 226/260/251
f 218/257/252 234/284/252 219/261/252
f 227/262/253 241/283/253 242/285/253
f 220/263/254 234/284/254 235/286/254
f 227/262/255 243/287/255 228/264/255
f 220/263/256 236/272/256 221/265/256
f 233/281/257 82/288/257 248/289/257
f 308/290/258 247/278/258 262/291/258
f 241/283/259 255/292/259 256/293/259
f 233/281/260 249/294/260 234/284/260
f 241/283/261 257/295/261 242/285/261
f 234/284/262 250/296/262 235/286/262
f 243/287/263 257/295/263 258/297/263
f 235/286/264 251/298/264 236/272/264
f 243/287/265 259/299/265 244/271/265
f 237/273/266 251/298/266 252/300/266
f 245/274/267 259/299/267 260/301/267
f 237/273/268 253/302/268 238/275/268
f 245/274/269 261/303/269 246/276/269
f 239/277/270 253/302/270 254/304/270
f 246/276/271 262/291/271 247/278/271
f 239/277/272 255/292/272 240/279/272
f 252/300/273 266/305/273 267/306/273
f 260/301/274 274/307/274 275/308/274
f 252/300/275 268/309/275 253/302/275
f 260/301/276 276/310/276 261/303/276
f 254/304/277 268/309/277 269/311/277
f 261/303/278 277/312/278 262/291/278
f 255/292/279 269/311/279 270/313/279
f 248/289/280 82/314/280 263/315/280
f 308/316/281 262/291/281 277/312/281
f 255/292/282 271/317/282 256/293/282
f 249/294/283 263/315/283 264/318/283
f 256/293/284 272/319/284 257/295/284
f 249/294/285 265/320/285 250/296/285
f 258/297/286 272/319/286 273/321/286
f 250/296/287 266/305/287 251/298/287
f 258/297/288 274/307/288 259/299/288
f 270/313/289 286/322/289 271/317/289
f 264/318/290 278/323/290 279/324/290
f 271/317/291 287/325/291 272/319/291
f 264/318/292 280/326/292 265/320/292
f 273/321/293 287/325/293 288/327/293
f 265/320/294 281/328/294 266/305/294
f 273/321/295 289/329/295 274/307/295
f 267/306/296 281/328/296 282/330/296
f 275/308/297 289/329/297 290/331/297
f 267/306/298 283/332/298 268/309/298
f 275/308/299 291/333/299 276/310/299
f 269/311/300 283/332/300 284/334/300
f 277/312/301 291/333/301 292/335/301
f 270/313/302 284/334/302 285/336/302
f 263/315/303 82/337/303 278/323/303
f 308/338/304 277/312/304 292/335/304
f 290/331/305 304/339/305 305/340/305
f 282/330/306 298/341/306 283/332/306
f 290/331/307 306/342/307 291/333/307
f 284/334/308 298/341/308 299/343/308
f 292/335/309 306/342/309 307/344/309
f 285/336/310 299/343/310 300/345/310
f 278/323/311 82/346/311 293/347/311
f 308/348/312 292/335/312 307/344/312
f 285/336/313 301/349/313 286/322/313
f 278/323/314 294/350/314 279/324/314
f 286/322/315 302/351/315 287/325/315
f 279/324/316 295/352/316 280/326/316
f 288/327/317 302/351/317 303/353/317
f 280/326/318 296/354/318 281/328/318
f 288/327/319 304/339/319 289/329/319
f 282/330/320 296/354/320 297/355/320
f 301/349/321 318/356/321 302/351/321
f 294/350/322 311/357/322 295/352/322
f 303/353/323 318/356/323 319/358/323
f 295/352/324 312/359/324 296/354/324
f 303/353/325 320/360/325 304/339/325
f 297/355/326 312/359/326 313/361/326
f 305/340/327 320/360/327 321/362/327
f 297/355/328 314/363/328 298/341/328
f 305/340/329 322/364/329 306/342/329
f 299/343/330 314/363/330 315/365/330
f 306/342/331 323/366/331 307/344/331
f 300/345/332 315/365/332 316/367/332
f 293/347/333 82/368/333 309/369/333
f 308/370/334 307/344/334 323/366/334
f 300/345/335 317/371/335 301/349/335
f 293/347/336 310/372/336 294/350/336
f 321/362/337 337/373/337 322/364/337
f 315/365/338 329/374/338 330/375/338
f 322/364/339 338/376/339 323/366/339
f 316/367/340 330/375/340 331/377/340
f 309/369/341 82/378/341 324/379/341
f 308/380/342 323/366/342 338/376/342
f 316/367/343 332/381/343 317/371/343
f 309/369/344 325/382/344 310/372/344
f 317/371/345 333/383/345 318/356/345
f 310/372/346 326/384/346 311/357/346
f 319/358/347 333/383/347 334/385/347
f 311/357/348 327/386/348 312/359/348
f 319/358/349 335/387/349 320/360/349
f 312/359/350 328/388/350 313/361/350
f 321/362/351 335/387/351 336/389/351
f 313/361/352 329/374/352 314/363/352
f 325/382/353 341/390/353 326/384/353
f 334/385/354 348/391/354 349/392/354
f 326/384/355 342/393/355 327/386/355
f 334/385/356 350/394/356 335/387/356
f 328/388/357 342/393/357 343/395/357
f 336/389/358 350/394/358 351/396/358
f 328/388/359 344/397/359 329/374/359
f 336/389/360 352/398/360 337/373/360
f 330/375/361 344/397/361 345/399/361
f 337/373/362 353/400/362 338/376/362
f 331/377/363 345/399/363 346/401/363
f 324/379/364 82/402/364 339/403/364
f 308/404/365 338/376/365 353/400/365
f 331/377/366 347/405/366 332/381/366
f 324/379/367 340/406/367 325/382/367
f 332/381/368 348/391/368 333/383/368
f 344/397/369 360/407/369 345/399/369
f 352/398/370 368/408/370 353/400/370
f 346/401/371 360/407/371 361/409/371
f 339/403/372 82/410/372 354/411/372
f 308/412/373 353/400/373 368/408/373
f 346/401/374 362/413/374 347/405/374
f 339/403/375 355/414/375 340/406/375
f 347/405/376 363/415/376 348/391/376
f 341/390/377 355/414/377 356/416/377
f 349/392/378 363/415/378 364/417/378
f 341/390/379 357/418/379 342/393/379
f 349/392/380 365/419/380 350/394/380
f 343/395/381 357/418/381 358/420/381
f 351/396/382 365/419/382 366/421/382
f 344/397/383 358/420/383 359/422/383
f 351/396/384 367/423/384 352/398/384
f 364/424/385 378/425/385 379/426/385
f 356/427/386 372/428/386 357/429/386
f 364/424/387 380/430/387 365/431/387
f 358/432/388 372/428/388 373/433/388
f 366/434/389 380/430/389 381/435/389
f 359/436/390 373/433/390 374/437/390
f 366/434/391 382/438/391 367/439/391
f 360/440/392 374/437/392 375/441/392
f 367/439/393 383/442/393 368/443/393
f 361/444/394 375/441/394 376/445/394
f 354/446/395 82/447/395 369/448/395
f 308/449/396 368/443/396 383/442/396
f 361/444/397 377/450/397 362/451/397
f 354/446/398 370/452/398 355/453/398
f 362/451/399 378/425/399 363/454/399
f 356/427/400 370/452/400 371/455/400
f 382/438/401 398/456/401 383/442/401
f 376/445/402 390/457/402 391/458/402
f 369/448/403 82/459/403 384/460/403
f 308/461/404 383/442/404 398/456/404
f 376/445/405 392/462/405 377/450/405
f 369/448/406 385/463/406 370/452/406
f 377/450/407 393/464/407 378/425/407
f 371/455/408 385/463/408 386/465/408
f 379/426/409 393/464/409 394/466/409
f 371/455/410 387/467/410 372/428/410
f 379/426/411 395/468/411 380/430/411
f 373/433/412 387/467/412 388/469/412
f 381/435/413 395/468/413 396/470/413
f 373/433/414 389/471/414 374/437/414
f 381/435/415 397/472/415 382/438/415
f 375/441/416 389/471/416 390/457/416
f 386/465/417 402/473/417 387/467/417
f 394/466/418 410/474/418 395/468/418
f 388/469/419 402/473/419 403/475/419
f 396/470/420 410/474/420 411/476/420
f 388/469/421 404/477/421 389/471/421
f 397/472/422 411/476/422 412/478/422
f 390/457/423 404/477/423 405/479/423
f 397/472/424 413/480/424 398/456/424
f 391/458/425 405/479/425 406/481/425
f 384/460/426 82/482/426 399/483/426
f 308/484/427 398/456/427 413/480/427
f 391/458/428 407/485/428 392/462/428
f 385/463/429 399/483/429 400/486/429
f 392/462/430 408/487/430 393/464/430
f 385/463/431 401/488/431 386/465/431
f 394/466/432 408/487/432 409/489/432
f 406/481/433 420/490/433 421/491/433
f 399/483/434 82/492/434 414/493/434
f 308/494/435 413/480/435 428/495/435
f 406/481/436 422/496/436 407/485/436
f 399/483/437 415/497/437 400/486/437
f 407/485/438 423/498/438 408/487/438
f 401/488/439 415/497/439 416/499/439
f 409/489/440 423/498/440 424/500/440
f 401/488/441 417/501/441 402/473/441
f 409/489/442 425/502/442 410/474/442
f 403/475/443 417/501/443 418/503/443
f 411/476/444 425/502/444 426/504/444
f 403/475/445 419/505/445 404/477/445
f 411/476/446 427/506/446 412/478/446
f 405/479/447 419/505/447 420/490/447
f 412/478/448 428/495/448 413/480/448
f 424/500/449 440/507/449 425/502/449
f 418/503/450 432/508/450 433/509/450
f 426/504/451 440/507/451 441/510/451
f 418/503/452 434/511/452 419/505/452
f 426/504/453 442/512/453 427/506/453
f 420/490/454 434/511/454 435/513/454
f 427/506/455 443/514/455 428/495/455
f 421/491/456 435/513/456 436/515/456
f 414/493/457 82/516/457 429/517/457
f 308/518/458 428/495/458 443/514/458
f 421/491/459 437/519/459 422/496/459
f 414/493/460 430/520/460 415/497/460
f 422/496/461 438/521/461 423/498/461
f 416/499/462 430/520/462 431/522/462
f 424/500/463 438/521/463 439/523/463
f 416/499/464 432/508/464 417/501/464
f 308/524/465 443/514/465 458/525/465
f 436/515/466 452/526/466 437/519/466
f 430/520/467 444/527/467 445/528/467
f 437/519/468 453/529/468 438/521/468
f 430/520/469 446/530/469 431/522/469
f 439/523/470 453/529/470 454/531/470
f 431/522/471 447/532/471 432/508/471
f 439/523/472 455/533/472 440/507/472
f 433/509/473 447/532/473 448/534/473
f 441/510/474 455/533/474 456/535/474
f 433/509/475 449/536/475 434/511/475
f 441/510/476 457/537/476 442/512/476
f 435/513/477 449/536/477 450/538/477
f 442/512/478 458/525/478 443/514/478
f 436/515/479 450/538/479 451/539/479
f 429/517/480 82/540/480 444/527/480
f 456/535/481 470/541/481 471/542/481
f 448/534/482 464/543/482 449/536/482
f 456/535/483 472/544/483 457/537/483
f 450/538/484 464/543/484 465/545/484
f 458/525/485 472/544/485 473/546/485
f 451/539/486 465/545/486 466/547/486
f 444/527/487 82/548/487 459/549/487
f 308/550/488 458/525/488 473/546/488
f 451/539/489 467/551/489 452/526/489
f 444/527/490 460/552/490 445/528/490
f 452/526/491 468/553/491 453/529/491
f 446/530/492 460/552/492 461/554/492
f 454/531/493 468/553/493 469/555/493
f 446/530/494 462/556/494 447/532/494
f 454/531/495 470/541/495 455/533/495
f 448/534/496 462/556/496 463/557/496
f 460/552/497 474/30/497 475/4/497
f 467/551/498 478/8/498 468/553/498
f 461/554/499 475/4/499 1/9/499
f 468/553/500 6/12/500 469/555/500
f 462/556/501 1/9/501 476/13/501
f 469/555/502 479/16/502 470/541/502
f 463/557/503 476/13/503 2/17/503
f 471/542/504 479/16/504 480/20/504
f 464/543/505 2/17/505 477/21/505
f 471/542/506 481/24/506 472/544/506
f 465/545/507 477/21/507 3/25/507
f 472/544/508 482/28/508 473/546/508
f 466/547/509 3/25/509 4/1/509
f 459/549/510 82/558/510 474/30/510
f 308/559/511 473/546/511 482/28/511
f 466/547/512 5/3/512 467/551/512
f 4/1/513 14/29/513 15/2/513
f 475/4/2 474/30/2 7/5/2
f 5/3/3 15/2/3 16/7/3
f 1/9/4 475/4/4 8/6/4
f 478/8/5 16/7/5 17/11/5
f 476/13/6 1/9/6 9/10/6
f 6/12/7 17/11/7 18/15/7
f 2/17/8 476/13/8 10/14/8
f 479/16/9 18/15/9 19/19/9
f 477/21/10 2/17/10 11/18/10
f 480/20/11 19/19/11 20/23/11
f 3/25/12 477/21/12 12/22/12
f 481/24/13 20/23/13 21/27/13
f 3/25/514 13/26/514 14/29/514
f 20/23/17 35/48/17 36/33/17
f 13/26/18 28/49/18 29/34/18
f 14/29/21 29/34/21 30/38/21
f 7/5/22 22/36/22 23/39/22
f 15/2/23 30/38/23 31/40/23
f 8/6/24 23/39/24 24/41/24
f 16/7/25 31/40/25 32/42/25
f 9/10/26 24/41/26 25/43/26
f 17/11/27 32/42/27 33/44/27
f 10/14/28 25/43/28 26/45/28
f 19/19/29 18/15/29 33/44/29
f 11/18/30 26/45/30 27/47/30
f 20/23/31 19/19/31 34/46/31
f 13/26/32 12/22/32 27/47/32
f 33/44/33 32/42/33 47/50/33
f 25/43/34 40/66/34 41/52/34
f 34/46/35 33/44/35 48/51/35
f 26/45/36 41/52/36 42/54/36
f 34/46/515 49/53/515 50/55/515
f 27/47/38 42/54/38 43/56/38
f 35/48/39 50/55/39 51/57/39
f 28/49/40 43/56/40 44/58/40
f 30/38/43 29/34/43 44/58/43
f 22/36/44 37/60/44 38/63/44
f 30/38/45 45/62/45 46/64/45
f 23/39/516 38/63/516 39/65/516
f 32/42/47 31/40/47 46/64/47
f 24/41/48 39/65/48 40/66/48
f 44/58/51 59/83/51 60/71/51
f 37/60/52 52/68/52 53/72/52
f 45/62/53 60/71/53 61/73/53
f 38/63/54 53/72/54 54/74/54
f 47/50/55 46/64/55 61/73/55
f 39/65/56 54/74/56 55/76/56
f 47/50/57 62/75/57 63/77/57
f 40/66/58 55/76/58 56/78/58
f 48/51/59 63/77/59 64/79/59
f 41/52/60 56/78/60 57/80/60
f 49/53/61 64/79/61 65/81/61
f 43/56/62 42/54/62 57/80/62
f 50/55/63 65/81/63 66/70/63
f 44/58/64 43/56/64 58/82/64
f 56/78/65 55/76/65 70/84/65
f 63/77/66 78/100/66 79/86/66
f 56/78/67 71/85/67 72/87/67
f 65/81/68 64/79/68 79/86/68
f 58/82/69 57/80/69 72/87/69
f 65/81/517 80/88/517 81/90/517
f 59/83/71 58/82/71 73/89/71
f 59/83/74 74/91/74 75/95/74
f 52/68/75 67/93/75 68/96/75
f 60/71/76 75/95/76 76/97/76
f 53/72/77 68/96/77 69/98/77
f 62/75/78 61/73/78 76/97/78
f 54/74/79 69/98/79 70/84/79
f 62/75/80 77/99/80 78/100/80
f 74/91/81 90/114/81 91/101/81
f 67/93/82 83/116/82 84/102/82
f 75/95/83 91/101/83 92/103/83
f 68/96/84 84/102/84 85/104/84
f 77/99/85 76/97/85 92/103/85
f 69/98/86 85/104/86 86/106/86
f 77/99/87 93/105/87 94/107/87
f 71/85/88 70/84/88 86/106/88
f 78/100/89 94/107/89 95/109/89
f 71/85/90 87/108/90 88/110/90
f 79/86/91 95/109/91 96/111/91
f 73/89/92 72/87/92 88/110/92
f 81/90/93 80/88/93 96/111/93
f 74/91/94 73/89/94 89/112/94
f 95/109/97 94/107/97 109/118/97
f 87/108/98 102/134/98 103/120/98
f 96/111/99 95/109/99 110/119/99
f 89/112/100 88/110/100 103/120/100
f 96/111/101 111/121/101 112/123/101
f 90/114/102 89/112/102 104/122/102
f 90/114/105 105/124/105 106/128/105
f 84/102/106 83/116/106 98/126/106
f 91/101/107 106/128/107 107/130/107
f 84/102/108 99/129/108 100/131/108
f 93/105/109 92/103/109 107/130/109
f 85/104/110 100/131/110 101/133/110
f 93/105/111 108/132/111 109/118/111
f 87/108/112 86/106/112 101/133/112
f 99/129/113 98/126/113 113/135/113
f 106/128/114 121/151/114 122/137/114
f 99/129/115 114/136/115 115/138/115
f 108/132/116 107/130/116 122/137/116
f 100/131/117 115/138/117 116/140/117
f 108/132/118 123/139/118 124/141/118
f 102/134/119 101/133/119 116/140/119
f 110/119/120 109/118/120 124/141/120
f 102/134/121 117/142/121 118/144/121
f 110/119/122 125/143/122 126/145/122
f 104/122/123 103/120/123 118/144/123
f 111/121/124 126/145/124 127/147/124
f 105/124/125 104/122/125 119/146/125
f 105/124/128 120/148/128 121/151/128
f 117/142/518 132/167/518 133/152/518
f 125/143/130 140/168/130 141/153/130
f 118/144/519 133/152/519 134/154/519
f 126/145/132 141/153/132 142/155/132
f 120/148/133 119/146/133 134/154/133
f 120/148/136 135/156/136 136/160/136
f 113/135/137 128/158/137 129/161/137
f 121/151/138 136/160/138 137/162/138
f 114/136/139 129/161/139 130/163/139
f 123/139/140 122/137/140 137/162/140
f 115/138/141 130/163/141 131/165/141
f 123/139/142 138/164/142 139/166/142
f 117/142/143 116/140/143 131/165/143
f 125/143/144 124/141/144 139/166/144
f 136/160/145 151/185/145 152/169/145
f 130/163/146 129/161/146 144/170/146
f 138/164/147 137/162/147 152/169/147
f 130/163/148 145/171/148 146/173/148
f 138/164/149 153/172/149 154/174/149
f 132/167/150 131/165/150 146/173/150
f 140/168/151 139/166/151 154/174/151
f 132/167/520 147/175/520 148/177/520
f 140/168/153 155/176/153 156/178/153
f 134/154/521 133/152/521 148/177/521
f 142/155/155 141/153/155 156/178/155
f 135/156/156 134/154/156 149/179/156
f 135/156/159 150/181/159 151/185/159
f 128/158/160 143/183/160 144/170/160
f 155/176/522 170/202/522 171/186/522
f 149/179/162 148/177/162 163/187/162
f 156/178/163 171/186/163 172/189/163
f 150/181/164 149/179/164 164/188/164
f 150/181/167 165/190/167 166/194/167
f 143/183/168 158/192/168 159/195/168
f 151/185/169 166/194/169 167/196/169
f 145/171/523 144/170/523 159/195/523
f 153/172/171 152/169/171 167/196/171
f 145/171/172 160/197/172 161/199/172
f 153/172/173 168/198/173 169/200/173
f 147/175/174 146/173/174 161/199/174
f 155/176/175 154/174/175 169/200/175
f 147/175/176 162/201/176 163/187/176
f 168/198/177 167/196/177 182/203/177
f 160/197/178 175/219/178 176/205/178
f 168/198/179 183/204/179 184/206/179
f 162/201/180 161/199/180 176/205/180
f 169/200/181 184/206/181 185/208/181
f 162/201/182 177/207/182 178/209/182
f 171/186/183 170/202/183 185/208/183
f 164/188/184 163/187/184 178/209/184
f 172/189/185 171/186/185 186/210/185
f 165/190/186 164/188/186 179/211/186
f 165/190/189 180/213/189 181/217/189
f 158/192/190 173/215/190 174/218/190
f 166/194/191 181/217/191 182/203/191
f 159/195/192 174/218/192 175/219/192
f 186/210/193 201/236/193 202/220/193
f 180/213/194 179/211/194 194/221/194
f 180/213/197 195/222/197 196/226/197
f 174/218/198 173/215/198 188/224/198
f 181/217/199 196/226/199 197/228/199
f 175/219/200 174/218/200 189/227/200
f 183/204/201 182/203/201 197/228/201
f 175/219/202 190/229/202 191/231/202
f 183/204/203 198/230/203 199/232/203
f 177/207/204 176/205/204 191/231/204
f 185/208/205 184/206/205 199/232/205
f 177/207/206 192/233/206 193/235/206
f 185/208/207 200/234/207 201/236/207
f 179/211/208 178/209/208 193/235/208
f 190/229/209 205/252/209 206/237/209
f 198/230/210 213/253/210 214/238/210
f 192/233/211 191/231/211 206/237/211
f 200/234/212 199/232/212 214/238/212
f 192/233/213 207/239/213 208/241/213
f 200/234/524 215/240/524 216/242/524
f 194/221/215 193/235/215 208/241/215
f 201/236/216 216/242/216 217/244/216
f 195/222/217 194/221/217 209/243/217
f 195/222/220 210/245/220 211/249/220
f 188/224/221 203/247/221 204/250/221
f 196/226/222 211/249/222 212/251/222
f 189/227/223 204/250/223 205/252/223
f 198/230/224 197/228/224 212/251/224
f 210/245/225 209/243/225 224/254/225
f 210/245/228 225/255/228 226/260/228
f 203/247/229 218/257/229 219/261/229
f 211/249/230 226/260/230 227/262/230
f 204/250/231 219/261/231 220/263/231
f 213/253/232 212/251/232 227/262/232
f 205/252/233 220/263/233 221/265/233
f 213/253/234 228/264/234 229/266/234
f 207/239/235 206/237/235 221/265/235
f 215/240/236 214/238/236 229/266/236
f 207/239/237 222/267/237 223/269/237
f 215/240/238 230/268/238 231/270/238
f 209/243/239 208/241/239 223/269/239
f 216/242/240 231/270/240 232/259/240
f 228/264/241 243/287/241 244/271/241
f 222/267/242 221/265/242 236/272/242
f 230/268/243 229/266/243 244/271/243
f 222/267/244 237/273/244 238/275/244
f 230/268/245 245/274/245 246/276/245
f 224/254/246 223/269/246 238/275/246
f 232/259/247 231/270/247 246/276/247
f 225/255/525 224/254/525 239/277/525
f 225/255/526 240/279/526 241/283/526
f 218/257/252 233/281/252 234/284/252
f 227/262/527 226/260/527 241/283/527
f 220/263/254 219/261/254 234/284/254
f 227/262/528 242/285/528 243/287/528
f 220/263/256 235/286/256 236/272/256
f 241/283/529 240/279/529 255/292/529
f 233/281/260 248/289/260 249/294/260
f 241/283/530 256/293/530 257/295/530
f 234/284/262 249/294/262 250/296/262
f 243/287/531 242/285/531 257/295/531
f 235/286/264 250/296/264 251/298/264
f 243/287/265 258/297/265 259/299/265
f 237/273/266 236/272/266 251/298/266
f 245/274/267 244/271/267 259/299/267
f 237/273/268 252/300/268 253/302/268
f 245/274/269 260/301/269 261/303/269
f 239/277/270 238/275/270 253/302/270
f 246/276/271 261/303/271 262/291/271
f 239/277/532 254/304/532 255/292/532
f 252/300/273 251/298/273 266/305/273
f 260/301/274 259/299/274 274/307/274
f 252/300/275 267/306/275 268/309/275
f 260/301/276 275/308/276 276/310/276
f 254/304/277 253/302/277 268/309/277
f 261/303/278 276/310/278 277/312/278
f 255/292/279 254/304/279 269/311/279
f 255/292/282 270/313/282 271/317/282
f 249/294/283 248/289/283 263/315/283
f 256/293/284 271/317/284 272/319/284
f 249/294/285 264/318/285 265/320/285
f 258/297/286 257/295/286 272/319/286
f 250/296/287 265/320/287 266/305/287
f 258/297/288 273/321/288 274/307/288
f 270/313/289 285/336/289 286/322/289
f 264/318/290 263/315/290 278/323/290
f 271/317/291 286/322/291 287/325/291
f 264/318/533 279/324/533 280/326/533
f 273/321/293 272/319/293 287/325/293
f 265/320/294 280/326/294 281/328/294
f 273/321/295 288/327/295 289/329/295
f 267/306/296 266/305/296 281/328/296
f 275/308/297 274/307/297 289/329/297
f 267/306/298 282/330/298 283/332/298
f 275/308/534 290/331/534 291/333/534
f 269/311/300 268/309/300 283/332/300
f 277/312/301 276/310/301 291/333/301
f 270/313/302 269/311/302 284/334/302
f 290/331/305 289/329/305 304/339/305
f 282/330/306 297/355/306 298/341/306
f 290/331/307 305/340/307 306/342/307
f 284/334/308 283/332/308 298/341/308
f 292/335/309 291/333/309 306/342/309
f 285/336/310 284/334/310 299/343/310
f 285/336/313 300/345/313 301/349/313
f 278/323/314 293/347/314 294/350/314
f 286/322/315 301/349/315 302/351/315
f 279/324/316 294/350/316 295/352/316
f 288/327/317 287/325/317 302/351/317
f 280/326/318 295/352/318 296/354/318
f 288/327/319 303/353/319 304/339/319
f 282/330/320 281/328/320 296/354/320
f 301/349/321 317/371/321 318/356/321
f 294/350/322 310/372/322 311/357/322
f 303/353/323 302/351/323 318/356/323
f 295/352/324 311/357/324 312/359/324
f 303/353/325 319/358/325 320/360/325
f 297/355/326 296/354/326 312/359/326
f 305/340/327 304/339/327 320/360/327
f 297/355/328 313/361/328 314/363/328
f 305/340/329 321/362/329 322/364/329
f 299/343/330 298/341/330 314/363/330
f 306/342/535 322/364/535 323/366/535
f 300/345/332 299/343/332 315/365/332
f 300/345/335 316/367/335 317/371/335
f 293/347/336 309/369/336 310/372/336
f 321/362/536 336/389/536 337/373/536
f 315/365/338 314/363/338 329/374/338
f 322/364/339 337/373/339 338/376/339
f 316/367/340 315/365/340 330/375/340
f 316/367/343 331/377/343 332/381/343
f 309/369/344 324/379/344 325/382/344
f 317/371/345 332/381/345 333/383/345
f 310/372/346 325/382/346 326/384/346
f 319/358/347 318/356/347 333/383/347
f 311/357/348 326/384/348 327/386/348
f 319/358/349 334/385/349 335/387/349
f 312/359/350 327/386/350 328/388/350
f 321/362/351 320/360/351 335/387/351
f 313/361/352 328/388/352 329/374/352
f 325/382/353 340/406/353 341/390/353
f 334/385/354 333/383/354 348/391/354
f 326/384/355 341/390/355 342/393/355
f 334/385/356 349/392/356 350/394/356
f 328/388/357 327/386/357 342/393/357
f 336/389/358 335/387/358 350/394/358
f 328/388/359 343/395/359 344/397/359
f 336/389/360 351/396/360 352/398/360
f 330/375/361 329/374/361 344/397/361
f 337/373/362 352/398/362 353/400/362
f 331/377/363 330/375/363 345/399/363
f 331/377/366 346/401/366 347/405/366
f 324/379/367 339/403/367 340/406/367
f 332/381/368 347/405/368 348/391/368
f 344/397/537 359/422/537 360/407/537
f 352/398/370 367/423/370 368/408/370
f 346/401/538 345/399/538 360/407/538
f 346/401/539 361/409/539 362/413/539
f 339/403/375 354/411/375 355/414/375
f 347/405/376 362/413/376 363/415/376
f 341/390/377 340/406/377 355/414/377
f 349/392/378 348/391/378 363/415/378
f 341/390/379 356/416/379 357/418/379
f 349/392/380 364/417/380 365/419/380
f 343/395/381 342/393/381 357/418/381
f 351/396/382 350/394/382 365/419/382
f 344/397/540 343/395/540 358/420/540
f 351/396/384 366/421/384 367/423/384
f 364/424/385 363/454/385 378/425/385
f 356/427/386 371/455/386 372/428/386
f 364/424/387 379/426/387 380/430/387
f 358/432/388 357/429/388 372/428/388
f 366/434/389 365/431/389 380/430/389
f 359/436/541 358/432/541 373/433/541
f 366/434/391 381/435/391 382/438/391
f 360/440/542 359/436/542 374/437/542
f 367/439/393 382/438/393 383/442/393
f 361/444/543 360/440/543 375/441/543
f 361/444/544 376/445/544 377/450/544
f 354/446/398 369/448/398 370/452/398
f 362/451/399 377/450/399 378/425/399
f 356/427/400 355/453/400 370/452/400
f 382/438/401 397/472/401 398/456/401
f 376/445/402 375/441/402 390/457/402
f 376/445/405 391/458/405 392/462/405
f 369/448/406 384/460/406 385/463/406
f 377/450/407 392/462/407 393/464/407
f 371/455/408 370/452/408 385/463/408
f 379/426/409 378/425/409 393/464/409
f 371/455/410 386/465/410 387/467/410
f 379/426/411 394/466/411 395/468/411
f 373/433/412 372/428/412 387/467/412
f 381/435/413 380/430/413 395/468/413
f 373/433/414 388/469/414 389/471/414
f 381/435/415 396/470/415 397/472/415
f 375/441/416 374/437/416 389/471/416
f 386/465/417 401/488/417 402/473/417
f 394/466/418 409/489/418 410/474/418
f 388/469/419 387/467/419 402/473/419
f 396/470/420 395/468/420 410/474/420
f 388/469/421 403/475/421 404/477/421
f 397/472/422 396/470/422 411/476/422
f 390/457/423 389/471/423 404/477/423
f 397/472/424 412/478/424 413/480/424
f 391/458/425 390/457/425 405/479/425
f 391/458/428 406/481/428 407/485/428
f 385/463/429 384/460/429 399/483/429
f 392/462/430 407/485/430 408/487/430
f 385/463/431 400/486/431 401/488/431
f 394/466/432 393/464/432 408/487/432
f 406/481/433 405/479/433 420/490/433
f 406/481/436 421/491/436 422/496/436
f 399/483/437 414/493/437 415/497/437
f 407/485/438 422/496/438 423/498/438
f 401/488/439 400/486/439 415/497/439
f 409/489/440 408/487/440 423/498/440
f 401/488/441 416/499/441 417/501/441
f 409/489/442 424/500/442 425/502/442
f 403/475/443 402/473/443 417/501/443
f 411/476/444 410/474/444 425/502/444
f 403/475/445 418/503/445 419/505/445
f 411/476/446 426/504/446 427/506/446
f 405/479/447 404/477/447 419/505/447
f 412/478/448 427/506/448 428/495/448
f 424/500/449 439/523/449 440/507/449
f 418/503/450 417/501/450 432/508/450
f 426/504/451 425/502/451 440/507/451
f 418/503/452 433/509/452 434/511/452
f 426/504/453 441/510/453 442/512/453
f 420/490/454 419/505/454 434/511/454
f 427/506/455 442/512/455 443/514/455
f 421/491/456 420/490/456 435/513/456
f 421/491/459 436/515/459 437/519/459
f 414/493/460 429/517/460 430/520/460
f 422/496/461 437/519/461 438/521/461
f 416/499/462 415/497/462 430/520/462
f 424/500/463 423/498/463 438/521/463
f 416/499/464 431/522/464 432/508/464
f 436/515/466 451/539/466 452/526/466
f 430/520/467 429/517/467 444/527/467
f 437/519/468 452/526/468 453/529/468
f 430/520/469 445/528/469 446/530/469
f 439/523/470 438/521/470 453/529/470
f 431/522/471 446/530/471 447/532/471
f 439/523/472 454/531/472 455/533/472
f 433/509/473 432/508/473 447/532/473
f 441/510/474 440/507/474 455/533/474
f 433/509/475 448/534/475 449/536/475
f 441/510/476 456/535/476 457/537/476
f 435/513/477 434/511/477 449/536/477
f 442/512/478 457/537/478 458/525/478
f 436/515/479 435/513/479 450/538/479
f 456/535/481 455/533/481 470/541/481
f 448/534/482 463/557/482 464/543/482
f 456/535/483 471/542/483 472/544/483
f 450/538/484 449/536/484 464/543/484
f 458/525/485 457/537/485 472/544/485
f 451/539/486 450/538/486 465/545/486
f 451/539/489 466/547/489 467/551/489
f 444/527/490 459/549/490 460/552/490
f 452/526/491 467/551/491 468/553/491
f 446/530/492 445/528/492 460/552/492
f 454/531/493 453/529/493 468/553/493
f 446/530/494 461/554/494 462/556/494
f 454/531/495 469/555/495 470/541/495
f 448/534/496 447/532/496 462/556/496
f 460/552/497 459/549/497 474/30/497
f 467/551/498 5/3/498 478/8/498
f 461/554/499 460/552/499 475/4/499
f 468/553/500 478/8/500 6/12/500
f 462/556/501 461/554/501 1/9/501
f 469/555/502 6/12/502 479/16/502
f 463/557/503 462/556/503 476/13/503
f 471/542/504 470/541/504 479/16/504
f 464/543/505 463/557/505 2/17/505
f 471/542/506 480/20/506 481/24/506
f 465/545/507 464/543/507 477/21/507
f 472/544/508 481/24/508 482/28/508
f 466/547/509 465/545/509 3/25/509
f 466/547/512 4/1/512 5/3/512
