# Blender 4.4.1
# www.blender.org
mtllib titleFont.mtl
o テキスト.001
v -13.525141 1.721148 0.409051
v -10.781313 1.739582 0.402782
v -10.778605 1.324370 0.394021
v -11.914644 1.316738 0.396616
v -11.896349 -1.485941 0.337476
v -12.368092 -1.489111 0.338553
v -12.386389 1.313568 0.397694
v -13.522430 1.305936 0.400289
v -10.414265 1.558025 0.398063
v -10.356348 1.594590 0.398694
v -10.297672 1.628013 0.399256
v -10.238308 1.658297 0.399751
v -10.178324 1.685438 0.400178
v -10.117781 1.709437 0.400537
v -10.056751 1.730294 0.400828
v -9.995300 1.748008 0.401053
v -9.933491 1.762579 0.401210
v -9.871401 1.774006 0.401300
v -9.809082 1.782289 0.401324
v -9.746613 1.787428 0.401281
v -9.684057 1.789420 0.401171
v -9.538008 1.783507 0.400692
v -9.401140 1.764080 0.399950
v -9.274118 1.731645 0.398958
v -9.157598 1.686703 0.397728
v -9.052229 1.629759 0.396271
v -8.958673 1.561317 0.394601
v -8.877577 1.481879 0.392729
v -8.809601 1.391949 0.390668
v -8.755404 1.292031 0.388430
v -8.715631 1.182629 0.386027
v -8.690948 1.064244 0.383471
v -8.682007 0.937382 0.380774
v -8.708612 0.732613 0.376521
v -8.784716 0.556283 0.372987
v -8.900419 0.403606 0.370049
v -9.045830 0.269800 0.367580
v -9.211056 0.150083 0.365457
v -9.386202 0.039670 0.363554
v -9.561382 -0.066221 0.361746
v -9.726698 -0.172373 0.359909
v -9.872259 -0.283570 0.357917
v -9.988169 -0.404595 0.355647
v -10.064535 -0.540230 0.352972
v -10.091465 -0.695259 0.349769
v -10.087643 -0.740884 0.348797
v -10.076693 -0.787477 0.347788
v -10.058519 -0.834087 0.346761
v -10.033028 -0.879763 0.345736
v -10.000132 -0.923554 0.344733
v -9.959732 -0.964509 0.343772
v -9.911734 -1.001678 0.342871
v -9.856045 -1.034110 0.342052
v -9.792568 -1.060853 0.341335
v -9.721216 -1.080957 0.340738
v -9.641890 -1.093471 0.340281
v -9.554493 -1.097444 0.339985
v -9.474308 -1.093481 0.339874
v -9.395123 -1.082742 0.339909
v -9.317085 -1.065326 0.340087
v -9.240345 -1.041333 0.340406
v -9.165049 -1.010861 0.340866
v -9.091354 -0.974010 0.341464
v -9.019396 -0.930880 0.342199
v -8.949341 -0.881569 0.343069
v -8.881330 -0.826178 0.344072
v -8.815516 -0.764804 0.345206
v -8.752041 -0.697549 0.346470
v -8.691071 -0.624510 0.347863
v -8.687248 -1.209581 0.335517
v -8.755861 -1.258513 0.334651
v -8.825287 -1.302978 0.333882
v -8.895710 -1.343026 0.333209
v -8.967318 -1.378708 0.332630
v -9.040287 -1.410073 0.332146
v -9.114805 -1.437173 0.331755
v -9.191059 -1.460057 0.331458
v -9.269230 -1.478776 0.331253
v -9.349495 -1.493381 0.331139
v -9.432049 -1.503922 0.331118
v -9.517067 -1.510449 0.331186
v -9.604733 -1.513012 0.331345
v -9.734108 -1.506347 0.331799
v -9.856892 -1.485106 0.332545
v -9.972210 -1.450085 0.333563
v -10.079184 -1.402081 0.334835
v -10.176947 -1.341891 0.336341
v -10.264624 -1.270313 0.338063
v -10.341335 -1.188142 0.339982
v -10.406210 -1.096176 0.342079
v -10.458374 -0.995212 0.344334
v -10.496954 -0.886047 0.346730
v -10.521070 -0.769477 0.349246
v -10.529852 -0.646301 0.351865
v -10.503448 -0.410711 0.356768
v -10.427492 -0.212077 0.360772
v -10.311892 -0.044699 0.364021
v -10.166527 0.097123 0.366659
v -10.001318 0.219090 0.368829
v -9.826149 0.326903 0.370678
v -9.650928 0.426263 0.372348
v -9.485552 0.522870 0.373983
v -9.339916 0.622424 0.375729
v -9.223923 0.730626 0.377729
v -9.147470 0.853177 0.380128
v -9.120459 0.995777 0.383069
v -9.125257 1.050843 0.384242
v -9.138609 1.102608 0.385366
v -9.160057 1.150780 0.386433
v -9.189156 1.195066 0.387438
v -9.225449 1.235176 0.388372
v -9.268475 1.270816 0.389228
v -9.317795 1.301696 0.389998
v -9.372950 1.327523 0.390677
v -9.433481 1.348005 0.391255
v -9.498943 1.362852 0.391727
v -9.568876 1.371770 0.392085
v -9.642834 1.374467 0.392321
v -9.699162 1.372454 0.392416
v -9.757338 1.366904 0.392440
v -9.817226 1.357445 0.392386
v -9.878693 1.343698 0.392245
v -9.941601 1.325289 0.392009
v -10.005810 1.301841 0.391671
v -10.071192 1.272979 0.391221
v -10.137604 1.238326 0.390651
v -10.204910 1.197507 0.389954
v -10.272978 1.150145 0.389120
v -10.341669 1.095867 0.388142
v -10.410851 1.034293 0.387012
v -8.311865 1.756173 0.397141
v -6.448952 1.768689 0.392885
v -6.427944 -1.449202 0.324983
v -8.334183 -1.462009 0.329338
v -8.336895 -1.046797 0.338099
v -6.902401 -1.037160 0.334822
v -6.908932 -0.036877 0.355929
v -8.251961 -0.045900 0.358998
v -8.254671 0.369312 0.367759
v -6.911640 0.378335 0.364691
v -6.917984 1.350308 0.385201
v -8.309155 1.340961 0.388379
v -3.551080 1.788158 0.386264
v -3.530074 -1.429733 0.318362
v -4.001821 -1.432902 0.319440
v -4.010938 -0.036281 0.348910
v -4.208302 -0.037607 0.349361
v -4.267720 -0.039874 0.349458
v -4.326270 -0.047050 0.349449
v -4.384911 -0.060912 0.349298
v -4.444599 -0.083234 0.348973
v -4.506294 -0.115794 0.348436
v -4.570953 -0.160366 0.347653
v -4.639532 -0.218727 0.346589
v -4.712994 -0.292652 0.345208
v -4.792288 -0.383918 0.343476
v -4.878380 -0.494301 0.341358
v -4.972225 -0.625575 0.338817
v -5.074783 -0.779518 0.335820
v -5.503708 -1.442993 0.322871
v -6.066912 -1.446776 0.324158
v -6.013720 -1.373692 0.325570
v -5.965792 -1.307818 0.326842
v -5.922440 -1.248070 0.327997
v -5.882963 -1.193362 0.329055
v -5.846672 -1.142607 0.330037
v -5.812870 -1.094720 0.330965
v -5.780857 -1.048614 0.331859
v -5.749949 -1.003203 0.332742
v -5.719442 -0.957402 0.333633
v -5.688644 -0.910125 0.334556
v -5.656858 -0.860285 0.335529
v -5.623394 -0.806796 0.336576
v -5.562754 -0.708283 0.338506
v -5.504257 -0.614109 0.340350
v -5.447273 -0.524271 0.342106
v -5.391161 -0.438764 0.343773
v -5.335289 -0.357584 0.345349
v -5.279022 -0.280727 0.346833
v -5.221722 -0.208188 0.348223
v -5.162754 -0.139963 0.349519
v -5.101488 -0.076048 0.350718
v -5.037285 -0.016438 0.351819
v -4.969511 0.038870 0.352821
v -4.897528 0.089881 0.353722
v -4.982386 0.126442 0.354699
v -5.060715 0.168781 0.355781
v -5.132359 0.216736 0.356966
v -5.197168 0.270143 0.358250
v -5.254995 0.328839 0.359628
v -5.305681 0.392663 0.361096
v -5.349081 0.461451 0.362652
v -5.385038 0.535040 0.364291
v -5.413403 0.613267 0.366009
v -5.434027 0.695971 0.367803
v -5.446756 0.782987 0.369669
v -5.451437 0.874153 0.371603
v -5.443785 1.008901 0.374425
v -5.419394 1.134455 0.377013
v -5.378826 1.250353 0.379359
v -5.322647 1.356132 0.381453
v -5.251421 1.451331 0.383287
v -5.165712 1.535486 0.384854
v -5.066095 1.608134 0.386144
v -4.953123 1.668814 0.387149
v -4.827366 1.717063 0.387862
v -4.689390 1.752417 0.388272
v -4.539764 1.774416 0.388373
v -4.379043 1.782595 0.388156
v -4.020240 1.388650 0.378978
v -4.323505 1.386613 0.379671
v -4.432146 1.382087 0.379840
v -4.529640 1.370198 0.379825
v -4.616322 1.351173 0.379635
v -4.692532 1.325239 0.379273
v -4.758596 1.292623 0.378745
v -4.814863 1.253552 0.378058
v -4.861656 1.208253 0.377216
v -4.899321 1.156953 0.376226
v -4.928190 1.099881 0.375093
v -4.948595 1.037262 0.373822
v -4.960878 0.969323 0.372419
v -4.965374 0.896292 0.370890
v -4.962908 0.829504 0.369476
v -4.953501 0.764188 0.368076
v -4.936419 0.701184 0.366706
v -4.910933 0.641334 0.365382
v -4.876314 0.585477 0.364120
v -4.831829 0.534453 0.362936
v -4.776752 0.489104 0.361847
v -4.710352 0.450270 0.360867
v -4.631897 0.418792 0.360013
v -4.540659 0.395509 0.359300
v -4.435907 0.381263 0.358746
v -4.316914 0.376893 0.358365
v -4.013648 0.378931 0.357672
v 0.575164 0.206864 0.342910
v 0.562596 -0.009090 0.338387
v 0.522694 -0.218920 0.334060
v 0.456427 -0.420244 0.329975
v 0.364764 -0.610679 0.326182
v 0.248678 -0.787844 0.322728
v 0.109139 -0.949356 0.319661
v -0.052882 -1.092833 0.317029
v -0.236415 -1.215893 0.314880
v -0.440489 -1.316153 0.313261
v -0.664136 -1.391233 0.312220
v -0.906381 -1.438749 0.311806
v -1.166255 -1.456318 0.312066
v -1.434900 -1.442209 0.313016
v -1.684338 -1.397759 0.314558
v -1.913798 -1.325388 0.316641
v -2.122516 -1.227516 0.319211
v -2.309720 -1.106562 0.322215
v -2.474644 -0.964946 0.325602
v -2.616520 -0.805087 0.329317
v -2.734581 -0.629405 0.333307
v -2.828059 -0.440320 0.337521
v -2.896182 -0.240251 0.341905
v -2.938188 -0.031619 0.346406
v -2.953304 0.183158 0.350971
v -2.940669 0.404069 0.355599
v -2.900486 0.617136 0.359994
v -2.833728 0.820224 0.364114
v -2.741368 1.011196 0.367917
v -2.624376 1.187917 0.371359
v -2.483726 1.348249 0.374399
v -2.320389 1.490055 0.376992
v -2.135340 1.611200 0.379098
v -1.929547 1.709547 0.380672
v -1.703985 1.782960 0.381673
v -1.459626 1.829302 0.382057
v -1.197443 1.846437 0.381782
v -0.939197 1.832709 0.380866
v -0.697156 1.789397 0.379366
v -0.472486 1.718673 0.377329
v -0.266356 1.622708 0.374806
v -0.079932 1.503674 0.371844
v 0.085615 1.363741 0.368491
v 0.229122 1.205081 0.364798
v 0.349421 1.029865 0.360811
v 0.445338 0.840264 0.356581
v 0.515714 0.638449 0.352155
v 0.559380 0.426592 0.347582
v 0.088976 0.203597 0.344021
v 0.076723 0.376336 0.347693
v 0.043100 0.539921 0.351224
v -0.010648 0.693212 0.354586
v -0.083277 0.835071 0.357754
v -0.173540 0.964361 0.360699
v -0.280195 1.079942 0.363395
v -0.401999 1.180675 0.365814
v -0.537705 1.265423 0.367931
v -0.686069 1.333047 0.369716
v -0.845848 1.382408 0.371145
v -1.015798 1.412368 0.372189
v -1.194671 1.421789 0.372822
v -1.374513 1.409958 0.373009
v -1.544977 1.377711 0.372742
v -1.704852 1.326203 0.372044
v -1.852924 1.256587 0.370935
v -1.987982 1.170020 0.369438
v -2.108813 1.067657 0.367573
v -2.214206 0.950651 0.365361
v -2.302942 0.820159 0.362825
v -2.373816 0.677335 0.359985
v -2.425610 0.523335 0.356864
v -2.457116 0.359313 0.353482
v -2.467115 0.186424 0.349861
v -2.454865 0.014677 0.346210
v -2.421227 -0.148260 0.342692
v -2.367429 -0.301199 0.339337
v -2.294697 -0.442951 0.336172
v -2.204263 -0.572330 0.333224
v -2.097352 -0.688146 0.330523
v -1.975193 -0.789213 0.328095
v -1.839014 -0.874343 0.325970
v -1.690042 -0.942348 0.324174
v -1.529507 -0.992040 0.322737
v -1.358636 -1.022231 0.321686
v -1.178655 -1.031735 0.321049
v -0.999919 -1.019822 0.320866
v -0.830379 -0.987343 0.321140
v -0.671262 -0.935504 0.321847
v -0.523794 -0.865507 0.322965
v -0.389211 -0.778559 0.324472
v -0.268734 -0.675861 0.326345
v -0.163597 -0.558620 0.328562
v -0.075031 -0.428039 0.331100
v -0.004261 -0.285322 0.333938
v 0.047484 -0.131674 0.337052
v 0.078974 0.031700 0.340421
v 0.920877 1.818202 0.376047
v 2.673077 1.829974 0.372044
v 2.694083 -1.387917 0.304142
v 2.222337 -1.391086 0.305220
v 2.212573 0.104620 0.336782
v 0.932118 0.096017 0.339707
v 0.929411 0.511229 0.348468
v 2.209863 0.519832 0.345543
v 2.204041 1.411593 0.364361
v 0.923590 1.402990 0.367286
v 4.516736 1.842361 0.367832
v 6.268936 1.854133 0.363829
v 6.289944 -1.363758 0.295927
v 5.818198 -1.366927 0.297005
v 5.808432 0.128778 0.328566
v 4.527978 0.120176 0.331492
v 4.525269 0.535388 0.340253
v 5.805721 0.543990 0.337328
v 5.799901 1.435752 0.356145
v 4.519447 1.427149 0.359071
v 8.165546 1.866875 0.359496
v 8.637294 1.870045 0.358418
v 8.658301 -1.347846 0.290516
v 6.703926 -1.360977 0.294981
v 6.701213 -0.945765 0.303743
v 8.183842 -0.935804 0.300356
v 9.176432 1.873667 0.357187
v 11.039346 1.886182 0.352931
v 11.060353 -1.331708 0.285029
v 9.154116 -1.344515 0.289384
v 9.151403 -0.929303 0.298145
v 10.585896 -0.919666 0.294868
v 10.579365 0.080617 0.315975
v 9.236335 0.071594 0.319044
v 9.233625 0.486805 0.327805
v 10.576655 0.495828 0.324737
v 10.570312 1.467801 0.345247
v 9.179142 1.458455 0.348425
v -13.526064 1.729225 0.028108
v -10.782238 1.747659 0.021840
v -10.779530 1.332447 0.013078
v -11.915565 1.324815 0.015674
v -11.897274 -1.477864 -0.043467
v -12.369017 -1.481033 -0.042389
v -12.387312 1.321646 0.016751
v -13.523355 1.314013 0.019347
v -10.415190 1.566102 0.017121
v -10.357271 1.602666 0.017751
v -10.298597 1.636091 0.018314
v -10.239231 1.666374 0.018808
v -10.179247 1.693515 0.019235
v -10.118702 1.717515 0.019594
v -10.057676 1.738371 0.019886
v -9.996223 1.756085 0.020110
v -9.934416 1.770656 0.020268
v -9.872326 1.782083 0.020358
v -9.810005 1.790366 0.020381
v -9.747538 1.795504 0.020338
v -9.684982 1.797497 0.020228
v -9.538933 1.791584 0.019749
v -9.402065 1.772157 0.019008
v -9.275040 1.739722 0.018016
v -9.158520 1.694780 0.016785
v -9.053152 1.637837 0.015329
v -8.959597 1.569394 0.013659
v -8.878500 1.489956 0.011787
v -8.810526 1.400026 0.009726
v -8.756329 1.300109 0.007488
v -8.716557 1.190705 0.005084
v -8.691874 1.072321 0.002528
v -8.682932 0.945459 -0.000169
v -8.709536 0.740691 -0.004422
v -8.785639 0.564360 -0.007955
v -8.901340 0.411683 -0.010894
v -9.046755 0.277878 -0.013362
v -9.211981 0.158160 -0.015486
v -9.387127 0.047747 -0.017389
v -9.562305 -0.058144 -0.019196
v -9.727623 -0.164296 -0.021034
v -9.873182 -0.275493 -0.023025
v -9.989090 -0.396518 -0.025296
v -10.065458 -0.532153 -0.027970
v -10.092390 -0.687182 -0.031174
v -10.088566 -0.732807 -0.032145
v -10.077616 -0.779400 -0.033154
v -10.059443 -0.826010 -0.034181
v -10.033951 -0.871686 -0.035206
v -10.001055 -0.915477 -0.036209
v -9.960657 -0.956432 -0.037171
v -9.912657 -0.993601 -0.038071
v -9.856968 -1.026033 -0.038890
v -9.793491 -1.052776 -0.039608
v -9.722139 -1.072880 -0.040205
v -9.642815 -1.085394 -0.040661
v -9.555414 -1.089367 -0.040957
v -9.475233 -1.085404 -0.041068
v -9.396048 -1.074665 -0.041034
v -9.318008 -1.057249 -0.040856
v -9.241268 -1.033256 -0.040536
v -9.165972 -1.002784 -0.040076
v -9.092278 -0.965933 -0.039478
v -9.020321 -0.922803 -0.038743
v -8.950266 -0.873492 -0.037874
v -8.882254 -0.818101 -0.036871
v -8.816439 -0.756727 -0.035736
v -8.752964 -0.689471 -0.034472
v -8.691996 -0.616433 -0.033080
v -8.688173 -1.201504 -0.045426
v -8.756786 -1.250436 -0.046291
v -8.826212 -1.294901 -0.047060
v -8.896631 -1.334949 -0.047734
v -8.968241 -1.370631 -0.048312
v -9.041212 -1.401996 -0.048797
v -9.115730 -1.429096 -0.049187
v -9.191984 -1.451980 -0.049485
v -9.270151 -1.470699 -0.049690
v -9.350420 -1.485304 -0.049803
v -9.432974 -1.495845 -0.049825
v -9.517990 -1.502372 -0.049756
v -9.605658 -1.504935 -0.049598
v -9.735033 -1.498270 -0.049143
v -9.857817 -1.477029 -0.048397
v -9.973133 -1.442008 -0.047379
v -10.080107 -1.394004 -0.046107
v -10.177872 -1.333814 -0.044601
v -10.265547 -1.262235 -0.042879
v -10.342258 -1.180065 -0.040960
v -10.407131 -1.088099 -0.038864
v -10.459297 -0.987135 -0.036608
v -10.497877 -0.877970 -0.034213
v -10.521994 -0.761400 -0.031697
v -10.530777 -0.638223 -0.029078
v -10.504374 -0.402633 -0.024174
v -10.428417 -0.204000 -0.020170
v -10.312813 -0.036622 -0.016922
v -10.167452 0.105200 -0.014284
v -10.002241 0.227168 -0.012113
v -9.827074 0.334981 -0.010265
v -9.651854 0.434340 -0.008595
v -9.486477 0.530947 -0.006959
v -9.340839 0.630501 -0.005213
v -9.224844 0.738703 -0.003213
v -9.148394 0.861254 -0.000815
v -9.121382 1.003854 0.002127
v -9.126181 1.058920 0.003299
v -9.139530 1.110685 0.004423
v -9.160982 1.158857 0.005491
v -9.190079 1.203143 0.006495
v -9.226374 1.243253 0.007429
v -9.269400 1.278893 0.008285
v -9.318720 1.309773 0.009056
v -9.373873 1.335600 0.009734
v -9.434406 1.356082 0.010313
v -9.499866 1.370929 0.010785
v -9.569799 1.379847 0.011143
v -9.643759 1.382544 0.011379
v -9.700087 1.380531 0.011473
v -9.758263 1.374981 0.011497
v -9.818151 1.365521 0.011443
v -9.879614 1.351775 0.011302
v -9.942524 1.333366 0.011067
v -10.006735 1.309918 0.010728
v -10.072117 1.281056 0.010278
v -10.138527 1.246403 0.009709
v -10.205835 1.205584 0.009011
v -10.273903 1.158222 0.008178
v -10.342592 1.103943 0.007200
v -10.411772 1.042369 0.006069
v -8.312788 1.764250 0.016198
v -6.449875 1.776766 0.011942
v -6.428869 -1.441125 -0.055960
v -8.335108 -1.453932 -0.051605
v -8.337816 -1.038720 -0.042843
v -6.903324 -1.029083 -0.046121
v -6.909857 -0.028800 -0.025013
v -8.252886 -0.037823 -0.021945
v -8.255592 0.377389 -0.013183
v -6.912565 0.386412 -0.016252
v -6.918911 1.358385 0.004258
v -8.310080 1.349038 0.007437
v -3.552005 1.796235 0.005322
v -3.530999 -1.421656 -0.062580
v -4.002746 -1.424825 -0.061503
v -4.011862 -0.028204 -0.032032
v -4.209227 -0.029530 -0.031581
v -4.268644 -0.031797 -0.031485
v -4.327195 -0.038973 -0.031494
v -4.385836 -0.052835 -0.031644
v -4.445523 -0.075157 -0.031970
v -4.507220 -0.107717 -0.032507
v -4.571878 -0.152289 -0.033290
v -4.640457 -0.210650 -0.034354
v -4.713917 -0.284575 -0.035734
v -4.793213 -0.375841 -0.037466
v -4.879305 -0.486224 -0.039585
v -4.973150 -0.617498 -0.042125
v -5.075708 -0.771441 -0.045122
v -5.504631 -1.434916 -0.058071
v -6.067837 -1.438699 -0.056785
v -6.014643 -1.365614 -0.055373
v -5.966717 -1.299741 -0.054100
v -5.923363 -1.239993 -0.052945
v -5.883888 -1.185285 -0.051888
v -5.847595 -1.134530 -0.050905
v -5.813795 -1.086643 -0.049978
v -5.781784 -1.040536 -0.049083
v -5.750874 -0.995126 -0.048201
v -5.720366 -0.949325 -0.047309
v -5.689569 -0.902048 -0.046387
v -5.657784 -0.852208 -0.045413
v -5.624319 -0.798719 -0.044366
v -5.563677 -0.700206 -0.042436
v -5.505182 -0.606032 -0.040593
v -5.448198 -0.516194 -0.038837
v -5.392088 -0.430687 -0.037170
v -5.336212 -0.349507 -0.035594
v -5.279945 -0.272650 -0.034110
v -5.222647 -0.200110 -0.032719
v -5.163679 -0.131886 -0.031424
v -5.102413 -0.067970 -0.030225
v -5.038212 -0.008361 -0.029123
v -4.970436 0.046947 -0.028122
v -4.898451 0.097958 -0.027221
v -4.983313 0.134519 -0.026244
v -5.061640 0.176858 -0.025161
v -5.133282 0.224813 -0.023976
v -5.198095 0.278220 -0.022693
v -5.255919 0.336916 -0.021315
v -5.306608 0.400740 -0.019846
v -5.350006 0.469528 -0.018290
v -5.385963 0.543117 -0.016651
v -5.414330 0.621345 -0.014933
v -5.434950 0.704048 -0.013139
v -5.447680 0.791064 -0.011274
v -5.452362 0.882230 -0.009340
v -5.444712 1.016977 -0.006517
v -5.420319 1.142532 -0.003929
v -5.379749 1.258430 -0.001584
v -5.323572 1.364209 0.000510
v -5.252344 1.459408 0.002345
v -5.166639 1.543563 0.003911
v -5.067019 1.616211 0.005201
v -4.954048 1.676891 0.006207
v -4.828291 1.725140 0.006919
v -4.690317 1.760494 0.007330
v -4.540689 1.782493 0.007431
v -4.379969 1.790672 0.007213
v -4.021165 1.396727 -0.001964
v -4.324430 1.394689 -0.001271
v -4.433071 1.390164 -0.001103
v -4.530564 1.378275 -0.001117
v -4.617247 1.359250 -0.001308
v -4.693455 1.333316 -0.001670
v -4.759523 1.300700 -0.002197
v -4.815786 1.261629 -0.002885
v -4.862583 1.216330 -0.003726
v -4.900246 1.165031 -0.004717
v -4.929117 1.107958 -0.005850
v -4.949522 1.045339 -0.007121
v -4.961803 0.977400 -0.008523
v -4.966297 0.904369 -0.010052
v -4.963835 0.837582 -0.011467
v -4.954424 0.772265 -0.012867
v -4.937344 0.709262 -0.014237
v -4.911856 0.649411 -0.015561
v -4.877239 0.593553 -0.016822
v -4.832754 0.542530 -0.018006
v -4.777678 0.497181 -0.019096
v -4.711275 0.458347 -0.020076
v -4.632820 0.426869 -0.020930
v -4.541585 0.403586 -0.021642
v -4.436831 0.389340 -0.022197
v -4.317839 0.384970 -0.022578
v -4.014573 0.387008 -0.023270
v 0.574239 0.214941 -0.038032
v 0.561671 -0.001013 -0.042555
v 0.521769 -0.210843 -0.046883
v 0.455502 -0.412167 -0.050967
v 0.363839 -0.602602 -0.054760
v 0.247753 -0.779767 -0.058214
v 0.108214 -0.941279 -0.061281
v -0.053807 -1.084756 -0.063913
v -0.237340 -1.207816 -0.066063
v -0.441414 -1.308076 -0.067682
v -0.665061 -1.383156 -0.068722
v -0.907305 -1.430671 -0.069136
v -1.167180 -1.448241 -0.068876
v -1.435824 -1.434132 -0.067927
v -1.685263 -1.389682 -0.066384
v -1.914723 -1.317311 -0.064302
v -2.123442 -1.219439 -0.061732
v -2.310646 -1.098485 -0.058727
v -2.475569 -0.956868 -0.055341
v -2.617445 -0.797010 -0.051626
v -2.735505 -0.621328 -0.047635
v -2.828983 -0.432243 -0.043421
v -2.897107 -0.232174 -0.039037
v -2.939112 -0.023542 -0.034536
v -2.954228 0.191235 -0.029971
v -2.941594 0.412146 -0.025344
v -2.901410 0.625213 -0.020949
v -2.834653 0.828301 -0.016828
v -2.742294 1.019274 -0.013026
v -2.625301 1.195994 -0.009583
v -2.484651 1.356326 -0.006544
v -2.321314 1.498133 -0.003950
v -2.136264 1.619278 -0.001845
v -1.930472 1.717625 -0.000270
v -1.704910 1.791037 0.000730
v -1.460551 1.837379 0.001115
v -1.198368 1.854514 0.000840
v -0.940122 1.840786 -0.000076
v -0.698081 1.797474 -0.001577
v -0.473411 1.726750 -0.003613
v -0.267282 1.630785 -0.006137
v -0.080857 1.511751 -0.009099
v 0.084691 1.371818 -0.012451
v 0.228197 1.213158 -0.016145
v 0.348495 1.037942 -0.020131
v 0.444414 0.848341 -0.024362
v 0.514790 0.646526 -0.028788
v 0.558455 0.434669 -0.033361
v 0.088052 0.211674 -0.036922
v 0.075799 0.384414 -0.033249
v 0.042175 0.547998 -0.029719
v -0.011573 0.701289 -0.026356
v -0.084201 0.843148 -0.023189
v -0.174465 0.972438 -0.020243
v -0.281120 1.088019 -0.017548
v -0.402925 1.188752 -0.015128
v -0.538631 1.273500 -0.013012
v -0.686995 1.341124 -0.011226
v -0.846773 1.390485 -0.009797
v -1.016722 1.420445 -0.008753
v -1.195596 1.429866 -0.008121
v -1.375438 1.418036 -0.007934
v -1.545902 1.385788 -0.008200
v -1.705777 1.334280 -0.008898
v -1.853848 1.264664 -0.010007
v -1.988907 1.178097 -0.011505
v -2.109738 1.075734 -0.013370
v -2.215130 0.958728 -0.015581
v -2.303867 0.828236 -0.018118
v -2.374740 0.685413 -0.020957
v -2.426535 0.531412 -0.024079
v -2.458041 0.367390 -0.027461
v -2.468040 0.194502 -0.031082
v -2.455790 0.022754 -0.034733
v -2.422152 -0.140183 -0.038250
v -2.368354 -0.293122 -0.041606
v -2.295622 -0.434874 -0.044771
v -2.205188 -0.564253 -0.047718
v -2.098276 -0.680069 -0.050420
v -1.976117 -0.781136 -0.052847
v -1.839938 -0.866266 -0.054973
v -1.690966 -0.934271 -0.056768
v -1.530432 -0.983963 -0.058205
v -1.359561 -1.014154 -0.059256
v -1.179580 -1.023658 -0.059894
v -1.000844 -1.011745 -0.060076
v -0.831303 -0.979266 -0.059803
v -0.672187 -0.927427 -0.059096
v -0.524719 -0.857430 -0.057977
v -0.390136 -0.770481 -0.056471
v -0.269659 -0.667784 -0.054597
v -0.164522 -0.550543 -0.052380
v -0.075956 -0.419962 -0.049842
v -0.005185 -0.277245 -0.047004
v 0.046559 -0.123597 -0.043890
v 0.078050 0.039777 -0.040522
v 0.919952 1.826280 -0.004895
v 2.672153 1.838051 -0.008898
v 2.693158 -1.379839 -0.076800
v 2.221412 -1.383009 -0.075722
v 2.211647 0.112697 -0.044161
v 0.931193 0.104094 -0.041236
v 0.928485 0.519306 -0.032474
v 2.208939 0.527909 -0.035399
v 2.203116 1.419670 -0.016582
v 0.922665 1.411067 -0.013657
v 4.515811 1.850438 -0.013110
v 6.268012 1.862210 -0.017113
v 6.289019 -1.355681 -0.085015
v 5.817273 -1.358850 -0.083937
v 5.807507 0.136855 -0.052376
v 4.527053 0.128253 -0.049451
v 4.524343 0.543465 -0.040689
v 5.804796 0.552068 -0.043614
v 5.798975 1.443829 -0.024797
v 4.518522 1.435226 -0.021872
v 8.164621 1.874952 -0.021446
v 8.636369 1.878121 -0.022524
v 8.657377 -1.339769 -0.090426
v 6.703001 -1.352900 -0.085961
v 6.700289 -0.937688 -0.077199
v 8.182918 -0.927727 -0.080587
v 9.175507 1.881744 -0.023756
v 11.038421 1.894259 -0.028012
v 11.059429 -1.323631 -0.095914
v 9.153191 -1.336438 -0.091559
v 9.150478 -0.921226 -0.082797
v 10.584970 -0.911589 -0.086074
v 10.578440 0.088694 -0.064967
v 9.235411 0.079671 -0.061899
v 9.232700 0.494883 -0.053137
v 10.575730 0.503906 -0.056206
v 10.569386 1.475878 -0.035696
v 9.178218 1.466532 -0.032517
vn 0.0024 -0.0211 0.9998
vn -0.0000 -0.0000 -1.0000
vn -0.0055 0.7071 -0.7071
vn -0.0024 0.0211 -0.9998
vn -0.0022 0.0431 -0.9991
vn 0.0024 -0.0957 0.9954
vn -0.1863 0.9823 0.0213
vn 0.0067 -0.9998 -0.0212
vn -0.0067 0.9998 0.0212
vn -0.9938 0.1113 0.0048
vn 0.1762 0.9841 0.0204
vn -1.0000 -0.0066 0.0023
vn 0.9852 -0.1710 -0.0060
vn -0.9803 -0.1973 -0.0018
vn 0.3430 -0.9391 -0.0207
vn -0.7832 -0.6217 -0.0113
vn 0.9824 -0.1867 -0.0063
vn 0.1348 0.9907 0.0207
vn 1.0000 0.0066 -0.0023
vn 0.4039 -0.9146 -0.0204
vn -0.3095 0.9507 0.0209
vn 0.3004 0.9536 0.0195
vn 0.0368 0.9991 0.0211
vn -0.7677 0.6406 0.0154
vn -0.9477 0.3190 0.0091
vn 0.4627 -0.8863 -0.0199
vn 0.9434 0.3317 0.0047
vn -0.9975 -0.0711 0.0009
vn 0.5186 -0.8548 -0.0194
vn -0.4312 0.9020 0.0202
vn 0.9965 0.0835 -0.0006
vn 0.4222 0.9063 0.0182
vn -0.9466 -0.3222 -0.0045
vn 0.5712 -0.8206 -0.0188
vn 0.9499 -0.3125 -0.0089
vn -0.7273 0.6861 0.0163
vn 0.6201 -0.7843 -0.0181
vn -0.5478 0.8364 0.0191
vn 0.9735 0.2287 0.0025
vn 0.8898 0.4564 0.0075
vn 0.5383 0.8426 0.0166
vn -0.7125 -0.7016 -0.0131
vn 0.6649 -0.7467 -0.0174
vn -0.6361 -0.7715 -0.0148
vn -0.9793 -0.2026 -0.0019
vn -0.8959 0.4440 0.0116
vn 0.6999 0.7142 0.0134
vn -0.6556 0.7549 0.0176
vn 0.6457 0.7635 0.0146
vn -0.5564 -0.8308 -0.0163
vn -0.6821 0.7311 0.0172
vn -0.8965 -0.4430 -0.0072
vn 0.9317 0.3632 0.0054
vn 0.9011 -0.4335 -0.0114
vn 0.1560 -0.9875 -0.0213
vn -0.4756 -0.8795 -0.0175
vn 0.8197 0.5727 0.0102
vn 0.2183 -0.9757 -0.0212
vn -0.3958 -0.9182 -0.0185
vn -0.6316 0.7751 0.0180
vn 0.7978 0.6028 0.0108
vn -0.0527 -0.9984 -0.0210
vn -0.0508 0.9985 0.0213
vn 0.8733 0.4872 0.0082
vn 0.0656 -0.9976 -0.0213
vn -0.5782 0.8157 0.0187
vn -0.8276 0.5611 0.0139
vn -0.1454 0.9891 0.0213
vn 0.7996 0.6004 0.0108
vn 0.7349 0.6781 0.0126
vn 0.0357 -0.9991 -0.0213
vn 0.1859 -0.9823 -0.0213
vn -0.6323 0.7745 0.0180
vn -0.2482 0.9685 0.0211
vn 0.0949 -0.9953 -0.0213
vn -0.9429 -0.3331 -0.0048
vn -0.7445 0.6674 0.0160
vn 0.8791 0.4766 0.0080
vn -0.1737 -0.9846 -0.0205
vn 0.0381 -0.9990 -0.0213
vn -0.3582 0.9334 0.0207
vn 0.3067 -0.9516 -0.0209
vn -0.5756 0.8175 0.0187
vn -0.8301 -0.5576 -0.0098
vn -0.4732 0.8807 0.0198
vn 0.7120 0.7020 0.0132
vn 0.8365 -0.5478 -0.0136
vn -0.0365 -0.9991 -0.0211
vn -0.6805 0.7326 0.0172
vn -0.2953 -0.9552 -0.0195
vn -0.5893 0.8077 0.0186
vn 0.6376 0.7703 0.0148
vn -0.1266 -0.9917 -0.0207
vn -0.5142 0.8575 0.0194
vn -0.7518 0.6592 0.0158
vn 0.1216 -0.9923 -0.0213
vn -0.7007 0.7133 0.0168
vn 0.6124 0.7904 0.0153
vn -0.2213 -0.9750 -0.0201
vn 0.7417 0.6706 0.0124
vn -0.6488 0.7608 0.0177
vn 0.2300 -0.9730 -0.0212
vn 0.5302 0.8477 0.0167
vn -0.3206 -0.9470 -0.0193
vn 0.4255 -0.9047 -0.0202
vn -0.4473 0.8942 0.0200
vn 0.3503 -0.9364 -0.0207
vn -0.8007 0.5988 0.0146
vn -0.4242 -0.9054 -0.0182
vn -0.8885 -0.4589 -0.0076
vn -0.5427 0.8397 0.0191
vn -0.4149 -0.9097 -0.0183
vn 0.5034 0.8639 0.0171
vn -0.5308 -0.8473 -0.0167
vn 0.5397 -0.8417 -0.0192
vn -0.7220 0.6917 0.0164
vn 0.0416 -0.9989 -0.0213
vn -0.7480 -0.6636 -0.0123
vn 0.9398 0.3416 0.0050
vn 0.4668 -0.8842 -0.0199
vn 0.7568 -0.6535 -0.0157
vn 0.1210 -0.9924 -0.0213
vn -0.3752 0.9267 0.0206
vn -0.5298 -0.8480 -0.0167
vn 0.5676 -0.8231 -0.0188
vn 0.3884 0.9213 0.0186
vn 0.4154 0.9095 0.0183
vn -0.6380 -0.7699 -0.0148
vn 0.2144 -0.9765 -0.0212
vn -0.8339 0.5518 0.0137
vn -0.7416 -0.6707 -0.0124
vn 0.8245 0.5658 0.0100
vn -0.7566 0.6537 0.0157
vn -0.2984 0.9542 0.0210
vn -0.4288 0.9032 0.0202
vn 0.6482 -0.7613 -0.0177
vn -0.8832 0.4688 0.0121
vn 0.2713 0.9623 0.0197
vn 0.2958 0.9550 0.0195
vn -0.8358 -0.5489 -0.0096
vn 0.6464 -0.7628 -0.0177
vn 0.3222 -0.9464 -0.0209
vn 0.9790 0.2041 0.0020
vn -0.7848 0.6196 0.0150
vn 0.4427 -0.8964 -0.0201
vn -0.2178 0.9758 0.0212
vn -0.3098 0.9506 0.0209
vn -0.6374 -0.7704 -0.0148
vn 0.7094 -0.7046 -0.0167
vn 0.1559 0.9876 0.0206
vn -0.9136 -0.4066 -0.0064
vn 0.7431 -0.6690 -0.0160
vn 0.5704 -0.8211 -0.0188
vn -0.6516 -0.7585 -0.0145
vn 0.6630 -0.7484 -0.0175
vn -0.9683 -0.2497 -0.0029
vn -0.8069 0.5905 0.0145
vn -0.1344 0.9907 0.0213
vn 0.9975 0.0703 -0.0009
vn -0.7350 -0.6779 -0.0126
vn 0.7549 -0.6556 -0.0157
vn -0.9439 0.3302 0.0093
vn 0.1741 0.9845 0.0205
vn 0.6956 -0.7183 -0.0169
vn -0.8172 -0.5762 -0.0102
vn -0.9003 0.4352 0.0114
vn 0.0455 0.9987 0.0211
vn -0.9962 -0.0868 0.0006
vn 0.8924 0.4513 0.0074
vn -0.8238 0.5667 0.0140
vn 0.8061 -0.5916 -0.0145
vn -0.1881 0.9819 0.0213
vn 0.7886 -0.6148 -0.0150
vn 0.0528 0.9984 0.0210
vn -0.9825 0.1860 0.0063
vn 0.8270 -0.5621 -0.0139
vn 0.8924 -0.4512 -0.0117
vn -0.0493 0.9986 0.0213
vn 0.9917 -0.1287 -0.0051
vn -0.8361 0.5484 0.0137
vn -0.0665 0.9976 0.0213
vn -0.8200 -0.5723 -0.0101
vn 0.8136 -0.5813 -0.0143
vn -0.9817 0.1906 0.0064
vn -0.7311 -0.6822 -0.0127
vn -0.8485 0.5291 0.0133
vn 0.9508 -0.3096 -0.0089
vn 0.5807 -0.8139 -0.0187
vn -0.9500 0.3121 0.0089
vn -0.5428 -0.8397 -0.0165
vn -0.6822 0.7310 0.0172
vn 0.9443 0.3292 0.0047
vn 0.0405 0.9990 0.0211
vn -0.8445 0.5354 0.0134
vn 0.9841 -0.1778 -0.0062
vn 0.5394 -0.8418 -0.0192
vn 0.5570 -0.8303 -0.0190
vn 0.9182 -0.3961 -0.0106
vn 0.8958 -0.4443 -0.0116
vn -0.0318 0.9993 0.0213
vn -0.8495 0.5274 0.0132
vn 0.8323 -0.5542 -0.0138
vn -0.9984 0.0566 0.0036
vn -0.6325 -0.7744 -0.0149
vn -0.4247 -0.9052 -0.0182
vn -0.5644 0.8253 0.0189
vn -0.0819 0.9964 0.0213
vn 0.9981 -0.0613 -0.0037
vn 0.4944 -0.8690 -0.0196
vn 0.4410 -0.8973 -0.0201
vn 0.7970 -0.6037 -0.0147
vn -0.8902 -0.4556 -0.0075
vn 0.9478 -0.3186 -0.0091
vn -0.1317 0.9911 0.0213
vn -0.8516 0.5240 0.0132
vn 0.9993 0.0369 -0.0016
vn 0.1406 0.9898 0.0206
vn 0.8398 -0.5427 -0.0135
vn -0.5244 -0.8513 -0.0168
vn -0.3009 -0.9535 -0.0195
vn -0.5045 0.8632 0.0195
vn 0.4460 -0.8948 -0.0201
vn 0.3183 -0.9478 -0.0209
vn -0.9437 -0.3308 -0.0047
vn -0.9987 -0.0513 0.0013
vn -0.4933 0.8696 0.0196
vn -0.1810 0.9833 0.0213
vn -0.8478 0.5302 0.0133
vn 0.9898 0.1426 0.0006
vn 0.3949 -0.9185 -0.0204
vn 0.6772 -0.7356 -0.0172
vn -0.9827 0.1852 0.0063
vn -0.1755 -0.9843 -0.0204
vn 0.9794 0.2018 0.0019
vn -0.2294 0.9731 0.0212
vn -0.8432 0.5375 0.0134
vn 0.1925 -0.9811 -0.0213
vn 0.2475 0.9687 0.0199
vn -0.9895 -0.1447 -0.0007
vn -0.4095 -0.9121 -0.0183
vn -0.5242 0.8514 0.0193
vn 0.9821 -0.1885 -0.0064
vn -0.8379 0.5456 0.0136
vn 0.9652 0.2616 0.0032
vn 0.3418 -0.9395 -0.0208
vn 0.0674 -0.9975 -0.0213
vn 0.5868 -0.8095 -0.0186
vn -0.0525 -0.9984 -0.0210
vn -0.2770 0.9606 0.0210
vn -0.8323 0.5541 0.0138
vn 0.9201 0.3917 0.0061
vn 0.2874 -0.9576 -0.0210
vn -0.9795 -0.2013 -0.0019
vn -0.5940 0.8043 0.0185
vn -0.3234 0.9460 0.0208
vn -0.8267 0.5624 0.0139
vn 0.5333 -0.8457 -0.0192
vn -0.9984 0.0570 0.0036
vn 0.3600 0.9328 0.0189
vn -0.9703 -0.2419 -0.0028
vn -0.2907 -0.9566 -0.0196
vn 0.9974 0.0717 -0.0009
vn -0.8215 0.5701 0.0141
vn 0.8501 0.5266 0.0091
vn 0.2329 -0.9723 -0.0212
vn -0.6984 0.7155 0.0169
vn 0.9983 -0.0577 -0.0036
vn -0.3685 0.9294 0.0206
vn -0.8170 0.5764 0.0142
vn 0.1790 -0.9836 -0.0213
vn 0.5174 -0.8555 -0.0194
vn -0.9401 -0.3408 -0.0049
vn -0.4123 0.9108 0.0203
vn -0.8135 0.5814 0.0143
vn 0.7538 0.6570 0.0121
vn -0.9975 -0.0708 0.0009
vn 0.4756 0.8795 0.0175
vn -0.1706 -0.9851 -0.0205
vn -0.8229 0.5681 0.0140
vn 0.9983 -0.0580 -0.0037
vn -0.8110 0.5849 0.0144
vn 0.1266 -0.9917 -0.0213
vn 0.5404 -0.8412 -0.0191
vn -0.8985 -0.4389 -0.0071
vn -0.4545 0.8905 0.0200
vn -0.8094 0.5870 0.0144
vn 0.6357 0.7718 0.0148
vn 0.0765 -0.9968 -0.0213
vn 0.6071 -0.7944 -0.0183
vn -0.9983 0.0580 0.0037
vn 0.9975 0.0712 -0.0009
vn -0.4950 0.8687 0.0196
vn -0.8087 0.5881 0.0144
vn 0.5049 0.8630 0.0171
vn 0.0292 -0.9993 -0.0213
vn 0.5906 0.8068 0.0157
vn -0.0515 -0.9985 -0.0210
vn -0.9341 0.3570 0.0098
vn -0.8086 0.5882 0.0144
vn 0.7223 -0.6914 -0.0164
vn -0.9975 -0.0702 0.0009
vn 0.0531 0.9984 0.0210
vn -0.8458 -0.5334 -0.0093
vn -0.5339 0.8453 0.0192
vn 0.3725 0.9278 0.0188
vn 0.8714 -0.4904 -0.0125
vn -0.9819 0.1891 0.0064
vn -0.0652 0.9976 0.0213
vn 0.9794 0.2021 0.0019
vn 0.2474 0.9687 0.0199
vn 0.2809 -0.9595 -0.0210
vn 0.4626 -0.8863 -0.0199
vn 0.6200 -0.7844 -0.0181
vn -0.6360 -0.7715 -0.0148
vn 0.4668 -0.8841 -0.0199
vn -0.7416 -0.6708 -0.0124
vn 0.3222 -0.9465 -0.0208
vn 0.9790 0.2041 0.0019
vn -0.9135 -0.4067 -0.0064
vn -0.9683 -0.2497 -0.0030
vn 0.6956 -0.7182 -0.0169
vn 0.7886 -0.6148 -0.0149
vn -0.9816 0.1906 0.0064
vn -0.8485 0.5290 0.0133
vn -0.6822 0.7310 0.0171
vn 0.9840 -0.1778 -0.0062
vn 0.9981 -0.0614 -0.0037
vn 0.1406 0.9899 0.0206
vn 0.9898 0.1425 0.0006
vn -0.2295 0.9731 0.0212
vn -0.8380 0.5456 0.0136
vn 0.2875 -0.9576 -0.0210
vn -0.8267 0.5625 0.0139
vn 0.8500 0.5266 0.0091
vn 0.5174 -0.8556 -0.0194
vn 0.4755 0.8795 0.0175
vn -0.4544 0.8906 0.0200
vn -0.8094 0.5871 0.0144
vn 0.5050 0.8630 0.0171
vn 0.5905 0.8069 0.0157
vt 0.285714 0.000000
vt 0.142857 0.000000
vt 0.000000 0.000000
vt 1.000000 0.000000
vt 0.428571 0.000000
vt 0.571429 0.000000
vt 0.857143 0.000000
vt 0.714286 0.000000
vt 0.107438 0.000000
vt 0.099174 0.000000
vt 0.090909 0.000000
vt 0.082645 0.000000
vt 0.074380 0.000000
vt 0.115702 0.000000
vt 0.066116 0.000000
vt 0.057851 0.000000
vt 0.123967 0.000000
vt 0.049587 0.000000
vt 0.041322 0.000000
vt 0.132231 0.000000
vt 0.033058 0.000000
vt 0.024793 0.000000
vt 0.140496 0.000000
vt 0.016529 0.000000
vt 0.008264 0.000000
vt 0.148760 0.000000
vt 0.933884 0.000000
vt 0.942149 0.000000
vt 0.950413 0.000000
vt 0.958678 0.000000
vt 0.966942 0.000000
vt 0.975207 0.000000
vt 0.983471 0.000000
vt 0.991736 0.000000
vt 0.157025 0.000000
vt 0.917355 0.000000
vt 0.925620 0.000000
vt 0.165289 0.000000
vt 0.900826 0.000000
vt 0.909091 0.000000
vt 0.173554 0.000000
vt 0.892562 0.000000
vt 0.884298 0.000000
vt 0.876033 0.000000
vt 0.867769 0.000000
vt 0.859504 0.000000
vt 0.851240 0.000000
vt 0.181818 0.000000
vt 0.842975 0.000000
vt 0.834711 0.000000
vt 0.826446 0.000000
vt 0.190083 0.000000
vt 0.818182 0.000000
vt 0.809917 0.000000
vt 0.198347 0.000000
vt 0.801653 0.000000
vt 0.793388 0.000000
vt 0.206612 0.000000
vt 0.785124 0.000000
vt 0.776860 0.000000
vt 0.214876 0.000000
vt 0.768595 0.000000
vt 0.223140 0.000000
vt 0.760331 0.000000
vt 0.752066 0.000000
vt 0.231405 0.000000
vt 0.743802 0.000000
vt 0.239669 0.000000
vt 0.735537 0.000000
vt 0.247934 0.000000
vt 0.727273 0.000000
vt 0.256198 0.000000
vt 0.719008 0.000000
vt 0.264463 0.000000
vt 0.272727 0.000000
vt 0.710744 0.000000
vt 0.280992 0.000000
vt 0.289256 0.000000
vt 0.702479 0.000000
vt 0.297521 0.000000
vt 0.504132 0.000000
vt 0.495868 0.000000
vt 0.487603 0.000000
vt 0.694215 0.000000
vt 0.305785 0.000000
vt 0.479339 0.000000
vt 0.314050 0.000000
vt 0.685950 0.000000
vt 0.471074 0.000000
vt 0.322314 0.000000
vt 0.462810 0.000000
vt 0.330579 0.000000
vt 0.338843 0.000000
vt 0.677686 0.000000
vt 0.454545 0.000000
vt 0.347107 0.000000
vt 0.446281 0.000000
vt 0.355372 0.000000
vt 0.438017 0.000000
vt 0.669421 0.000000
vt 0.363636 0.000000
vt 0.429752 0.000000
vt 0.371901 0.000000
vt 0.421488 0.000000
vt 0.380165 0.000000
vt 0.413223 0.000000
vt 0.388430 0.000000
vt 0.404959 0.000000
vt 0.661157 0.000000
vt 0.396694 0.000000
vt 0.652893 0.000000
vt 0.512397 0.000000
vt 0.520661 0.000000
vt 0.644628 0.000000
vt 0.528926 0.000000
vt 0.636364 0.000000
vt 0.537190 0.000000
vt 0.545455 0.000000
vt 0.628099 0.000000
vt 0.553719 0.000000
vt 0.561983 0.000000
vt 0.619835 0.000000
vt 0.570248 0.000000
vt 0.578512 0.000000
vt 0.611570 0.000000
vt 0.586777 0.000000
vt 0.595041 0.000000
vt 0.603306 0.000000
vt 0.010753 0.000000
vt 0.720430 0.000000
vt 0.709677 0.000000
vt 0.698925 0.000000
vt 0.688172 0.000000
vt 0.677419 0.000000
vt 0.666667 0.000000
vt 0.655914 0.000000
vt 0.645161 0.000000
vt 0.634409 0.000000
vt 0.731183 0.000000
vt 0.623656 0.000000
vt 0.741935 0.000000
vt 0.752688 0.000000
vt 0.763441 0.000000
vt 0.612903 0.000000
vt 0.774194 0.000000
vt 0.784946 0.000000
vt 0.795699 0.000000
vt 0.602151 0.000000
vt 0.806452 0.000000
vt 0.817204 0.000000
vt 0.827957 0.000000
vt 0.591398 0.000000
vt 0.838710 0.000000
vt 0.849462 0.000000
vt 0.580645 0.000000
vt 0.860215 0.000000
vt 0.870968 0.000000
vt 0.569892 0.000000
vt 0.881720 0.000000
vt 0.559140 0.000000
vt 0.892473 0.000000
vt 0.903226 0.000000
vt 0.548387 0.000000
vt 0.913979 0.000000
vt 0.537634 0.000000
vt 0.924731 0.000000
vt 0.526882 0.000000
vt 0.935484 0.000000
vt 0.946237 0.000000
vt 0.516129 0.000000
vt 0.956989 0.000000
vt 0.967742 0.000000
vt 0.505376 0.000000
vt 0.978495 0.000000
vt 0.989247 0.000000
vt 0.032258 0.000000
vt 0.494624 0.000000
vt 0.483871 0.000000
vt 0.473118 0.000000
vt 0.462366 0.000000
vt 0.451613 0.000000
vt 0.440860 0.000000
vt 0.430108 0.000000
vt 0.043011 0.000000
vt 0.053763 0.000000
vt 0.419355 0.000000
vt 0.021505 0.000000
vt 0.064516 0.000000
vt 0.075269 0.000000
vt 0.086022 0.000000
vt 0.408602 0.000000
vt 0.096774 0.000000
vt 0.107527 0.000000
vt 0.397849 0.000000
vt 0.118280 0.000000
vt 0.387097 0.000000
vt 0.129032 0.000000
vt 0.376344 0.000000
vt 0.139785 0.000000
vt 0.365591 0.000000
vt 0.150538 0.000000
vt 0.354839 0.000000
vt 0.161290 0.000000
vt 0.344086 0.000000
vt 0.333333 0.000000
vt 0.172043 0.000000
vt 0.322581 0.000000
vt 0.182796 0.000000
vt 0.311828 0.000000
vt 0.301075 0.000000
vt 0.290323 0.000000
vt 0.279570 0.000000
vt 0.268817 0.000000
vt 0.258065 0.000000
vt 0.247312 0.000000
vt 0.236559 0.000000
vt 0.225806 0.000000
vt 0.215054 0.000000
vt 0.204301 0.000000
vt 0.193548 0.000000
vt 0.389474 0.000000
vt 0.378947 0.000000
vt 0.368421 0.000000
vt 0.357895 0.000000
vt 0.400000 0.000000
vt 0.347368 0.000000
vt 0.410526 0.000000
vt 0.336842 0.000000
vt 0.421053 0.000000
vt 0.326316 0.000000
vt 0.431579 0.000000
vt 0.315789 0.000000
vt 0.442105 0.000000
vt 0.631579 0.000000
vt 0.621053 0.000000
vt 0.642105 0.000000
vt 0.652632 0.000000
vt 0.610526 0.000000
vt 0.663158 0.000000
vt 0.600000 0.000000
vt 0.305263 0.000000
vt 0.452632 0.000000
vt 0.673684 0.000000
vt 0.589474 0.000000
vt 0.684211 0.000000
vt 0.578947 0.000000
vt 0.294737 0.000000
vt 0.463158 0.000000
vt 0.694737 0.000000
vt 0.568421 0.000000
vt 0.705263 0.000000
vt 0.557895 0.000000
vt 0.284211 0.000000
vt 0.473684 0.000000
vt 0.715789 0.000000
vt 0.547368 0.000000
vt 0.273684 0.000000
vt 0.484211 0.000000
vt 0.726316 0.000000
vt 0.536842 0.000000
vt 0.736842 0.000000
vt 0.526316 0.000000
vt 0.263158 0.000000
vt 0.494737 0.000000
vt 0.747368 0.000000
vt 0.515789 0.000000
vt 0.252632 0.000000
vt 0.757895 0.000000
vt 0.505263 0.000000
vt 0.010526 0.000000
vt 0.768421 0.000000
vt 0.242105 0.000000
vt 0.989474 0.000000
vt 0.778947 0.000000
vt 0.231579 0.000000
vt 0.021053 0.000000
vt 0.978947 0.000000
vt 0.789474 0.000000
vt 0.221053 0.000000
vt 0.031579 0.000000
vt 0.800000 0.000000
vt 0.968421 0.000000
vt 0.210526 0.000000
vt 0.042105 0.000000
vt 0.810526 0.000000
vt 0.957895 0.000000
vt 0.821053 0.000000
vt 0.947368 0.000000
vt 0.200000 0.000000
vt 0.052632 0.000000
vt 0.831579 0.000000
vt 0.936842 0.000000
vt 0.842105 0.000000
vt 0.926316 0.000000
vt 0.189474 0.000000
vt 0.063158 0.000000
vt 0.852632 0.000000
vt 0.915789 0.000000
vt 0.863158 0.000000
vt 0.905263 0.000000
vt 0.178947 0.000000
vt 0.073684 0.000000
vt 0.873684 0.000000
vt 0.894737 0.000000
vt 0.884211 0.000000
vt 0.168421 0.000000
vt 0.084211 0.000000
vt 0.157895 0.000000
vt 0.094737 0.000000
vt 0.147368 0.000000
vt 0.105263 0.000000
vt 0.136842 0.000000
vt 0.115789 0.000000
vt 0.126316 0.000000
vt 0.222222 0.000000
vt 0.111111 0.000000
vt 0.888889 0.000000
vt 0.777778 0.000000
vt 0.444444 0.000000
vt 0.555556 0.000000
s 0
f 3/1/1 2/2/1 1/3/1
f 3/1/1 1/3/1 8/4/1
f 4/5/2 3/1/2 8/4/2
f 5/6/1 4/5/1 7/7/1
f 7/7/3 4/5/3 8/4/3
f 5/6/1 7/7/1 6/8/1
f 22/9/1 21/10/1 20/11/1
f 22/9/1 20/11/1 19/12/1
f 22/9/1 19/12/1 18/13/1
f 23/14/1 22/9/1 18/13/1
f 23/14/1 18/13/1 17/15/1
f 23/14/1 17/15/1 16/16/1
f 24/17/1 23/14/1 16/16/1
f 24/17/1 16/16/1 15/18/1
f 24/17/1 15/18/1 14/19/1
f 25/20/1 24/17/1 14/19/1
f 25/20/1 14/19/1 13/21/1
f 25/20/1 13/21/1 12/22/1
f 26/23/1 25/20/1 12/22/1
f 26/23/1 12/22/1 11/24/1
f 26/23/1 11/24/1 10/25/1
f 27/26/1 26/23/1 10/25/1
f 27/26/1 10/25/1 9/3/1
f 27/26/1 9/3/1 122/27/1
f 122/27/1 9/3/1 123/28/1
f 123/28/1 9/3/1 124/29/1
f 124/29/1 9/3/1 125/30/1
f 125/30/1 9/3/1 126/31/1
f 126/31/1 9/3/1 127/32/1
f 127/32/1 9/3/1 128/33/1
f 128/33/1 9/3/1 129/34/1
f 129/34/1 9/3/1 130/4/1
f 28/35/1 27/26/1 120/36/1
f 120/36/1 27/26/1 121/37/1
f 121/37/1 27/26/1 122/27/1
f 29/38/1 28/35/1 118/39/1
f 118/39/1 28/35/1 119/40/1
f 119/40/1 28/35/1 120/36/1
f 30/41/1 29/38/1 117/42/1
f 117/42/1 29/38/1 118/39/1
f 30/41/1 117/42/1 116/43/1
f 30/41/1 116/43/1 115/44/1
f 30/41/1 115/44/1 114/45/1
f 30/41/1 114/45/1 113/46/1
f 30/41/1 113/46/1 112/47/1
f 31/48/1 30/41/1 112/47/1
f 31/48/1 112/47/1 111/49/1
f 31/48/1 111/49/1 110/50/1
f 31/48/1 110/50/1 109/51/1
f 32/52/1 31/48/1 109/51/1
f 32/52/1 109/51/1 108/53/1
f 32/52/1 108/53/1 107/54/1
f 33/55/1 32/52/1 107/54/1
f 33/55/1 107/54/1 106/56/1
f 33/55/1 106/56/1 105/57/1
f 34/58/1 33/55/1 105/57/1
f 34/58/1 105/57/1 104/59/1
f 34/58/1 104/59/1 103/60/1
f 35/61/1 34/58/1 103/60/1
f 35/61/1 103/60/1 102/62/1
f 36/63/1 35/61/1 102/62/1
f 36/63/1 102/62/1 101/64/1
f 36/63/1 101/64/1 100/65/1
f 37/66/1 36/63/1 100/65/1
f 37/66/1 100/65/1 99/67/1
f 38/68/1 37/66/1 99/67/1
f 38/68/1 99/67/1 98/69/1
f 39/70/1 38/68/1 98/69/1
f 39/70/1 98/69/1 97/71/1
f 40/72/1 39/70/1 97/71/1
f 40/72/1 97/71/1 96/73/1
f 41/74/1 40/72/1 96/73/1
f 42/75/1 41/74/1 96/73/1
f 42/75/1 96/73/1 95/76/1
f 43/77/1 42/75/1 95/76/1
f 44/78/1 43/77/1 95/76/1
f 44/78/1 95/76/1 94/79/1
f 45/80/1 44/78/1 94/79/1
f 70/81/1 69/82/1 68/83/1
f 45/80/1 94/79/1 93/84/1
f 46/85/1 45/80/1 93/84/1
f 70/81/1 68/83/1 67/86/1
f 47/87/1 46/85/1 93/84/1
f 47/87/1 93/84/1 92/88/1
f 70/81/1 67/86/1 66/89/1
f 48/90/1 47/87/1 92/88/1
f 70/81/1 66/89/1 65/91/1
f 49/92/1 48/90/1 92/88/1
f 50/93/1 49/92/1 92/88/1
f 50/93/1 92/88/1 91/94/1
f 70/81/1 65/91/1 64/95/1
f 51/96/1 50/93/1 91/94/1
f 70/81/1 64/95/1 63/97/1
f 52/98/1 51/96/1 91/94/1
f 70/81/1 63/97/1 62/99/1
f 52/98/1 91/94/1 90/100/1
f 53/101/1 52/98/1 90/100/1
f 70/81/1 62/99/1 61/102/1
f 54/103/1 53/101/1 90/100/1
f 70/81/1 61/102/1 60/104/1
f 55/105/1 54/103/1 90/100/1
f 70/81/1 60/104/1 59/106/1
f 56/107/1 55/105/1 90/100/1
f 70/81/1 59/106/1 58/108/1
f 56/107/1 90/100/1 89/109/1
f 57/110/1 56/107/1 89/109/1
f 70/81/1 58/108/1 57/110/1
f 70/81/1 57/110/1 89/109/1
f 70/81/1 89/109/1 88/111/1
f 71/112/1 70/81/1 88/111/1
f 72/113/1 71/112/1 88/111/1
f 72/113/1 88/111/1 87/114/1
f 73/115/1 72/113/1 87/114/1
f 73/115/1 87/114/1 86/116/1
f 74/117/1 73/115/1 86/116/1
f 75/118/1 74/117/1 86/116/1
f 75/118/1 86/116/1 85/119/1
f 76/120/1 75/118/1 85/119/1
f 77/121/1 76/120/1 85/119/1
f 77/121/1 85/119/1 84/122/1
f 78/123/1 77/121/1 84/122/1
f 79/124/1 78/123/1 84/122/1
f 79/124/1 84/122/1 83/125/1
f 80/126/1 79/124/1 83/125/1
f 81/127/1 80/126/1 83/125/1
f 81/127/1 83/125/1 82/128/1
f 133/48/1 132/11/1 141/40/1
f 141/40/1 132/11/1 131/3/1
f 141/40/1 131/3/1 142/4/1
f 133/48/1 141/40/1 140/53/1
f 133/48/1 140/53/1 137/118/1
f 137/118/1 140/53/1 139/71/1
f 137/118/1 139/71/1 138/116/1
f 133/48/1 137/118/1 136/95/1
f 133/48/1 136/95/1 135/101/1
f 133/48/1 135/101/1 134/75/1
f 144/129/1 143/3/1 210/130/1
f 210/130/1 143/3/1 209/131/1
f 210/130/1 209/131/1 208/132/1
f 210/130/1 208/132/1 207/133/1
f 210/130/1 207/133/1 206/134/1
f 210/130/1 206/134/1 205/135/1
f 210/130/1 205/135/1 204/136/1
f 210/130/1 204/136/1 203/137/1
f 210/130/1 203/137/1 202/138/1
f 210/130/1 202/138/1 211/139/1
f 211/139/1 202/138/1 201/140/1
f 144/129/1 210/130/1 236/4/1
f 212/141/1 211/139/1 201/140/1
f 213/142/1 212/141/1 201/140/1
f 214/143/1 213/142/1 201/140/1
f 214/143/1 201/140/1 200/144/1
f 215/145/1 214/143/1 200/144/1
f 216/146/1 215/145/1 200/144/1
f 217/147/1 216/146/1 200/144/1
f 217/147/1 200/144/1 199/148/1
f 218/149/1 217/147/1 199/148/1
f 219/150/1 218/149/1 199/148/1
f 220/151/1 219/150/1 199/148/1
f 220/151/1 199/148/1 198/152/1
f 221/153/1 220/151/1 198/152/1
f 222/154/1 221/153/1 198/152/1
f 222/154/1 198/152/1 197/155/1
f 223/156/1 222/154/1 197/155/1
f 224/157/1 223/156/1 197/155/1
f 224/157/1 197/155/1 196/158/1
f 225/159/1 224/157/1 196/158/1
f 225/159/1 196/158/1 195/160/1
f 226/161/1 225/159/1 195/160/1
f 227/162/1 226/161/1 195/160/1
f 227/162/1 195/160/1 194/163/1
f 228/164/1 227/162/1 194/163/1
f 228/164/1 194/163/1 193/165/1
f 229/166/1 228/164/1 193/165/1
f 229/166/1 193/165/1 192/167/1
f 230/168/1 229/166/1 192/167/1
f 231/169/1 230/168/1 192/167/1
f 231/169/1 192/167/1 191/170/1
f 232/171/1 231/169/1 191/170/1
f 233/172/1 232/171/1 191/170/1
f 233/172/1 191/170/1 190/173/1
f 234/174/1 233/172/1 190/173/1
f 235/175/1 234/174/1 190/173/1
f 144/129/1 236/4/1 146/176/1
f 146/176/1 236/4/1 235/175/1
f 146/176/1 235/175/1 190/173/1
f 146/176/1 190/173/1 189/177/1
f 146/176/1 189/177/1 188/178/1
f 146/176/1 188/178/1 187/179/1
f 146/176/1 187/179/1 186/180/1
f 146/176/1 186/180/1 185/181/1
f 146/176/1 185/181/1 184/182/1
f 146/176/1 184/182/1 183/183/1
f 146/176/1 183/183/1 147/184/1
f 147/184/1 183/183/1 148/185/1
f 148/185/1 183/183/1 182/186/1
f 144/129/1 146/176/1 145/187/1
f 149/188/1 148/185/1 182/186/1
f 150/189/1 149/188/1 182/186/1
f 151/190/1 150/189/1 182/186/1
f 151/190/1 182/186/1 181/191/1
f 152/192/1 151/190/1 181/191/1
f 153/193/1 152/192/1 181/191/1
f 153/193/1 181/191/1 180/194/1
f 154/195/1 153/193/1 180/194/1
f 154/195/1 180/194/1 179/196/1
f 155/197/1 154/195/1 179/196/1
f 155/197/1 179/196/1 178/198/1
f 156/199/1 155/197/1 178/198/1
f 156/199/1 178/198/1 177/200/1
f 157/201/1 156/199/1 177/200/1
f 157/201/1 177/200/1 176/202/1
f 158/203/1 157/201/1 176/202/1
f 158/203/1 176/202/1 175/204/1
f 158/203/1 175/204/1 174/205/1
f 159/206/1 158/203/1 174/205/1
f 159/206/1 174/205/1 173/207/1
f 160/208/1 159/206/1 173/207/1
f 160/208/1 173/207/1 172/209/1
f 160/208/1 172/209/1 171/210/1
f 160/208/1 171/210/1 170/211/1
f 160/208/1 170/211/1 169/212/1
f 160/208/1 169/212/1 168/213/1
f 160/208/1 168/213/1 167/214/1
f 160/208/1 167/214/1 166/215/1
f 160/208/1 166/215/1 165/216/1
f 160/208/1 165/216/1 164/217/1
f 160/208/1 164/217/1 163/218/1
f 160/208/1 163/218/1 162/219/1
f 160/208/1 162/219/1 161/220/1
f 274/221/1 273/222/1 272/223/1
f 274/221/1 272/223/1 271/224/1
f 275/225/1 274/221/1 271/224/1
f 275/225/1 271/224/1 270/226/1
f 276/227/1 275/225/1 270/226/1
f 276/227/1 270/226/1 269/228/1
f 277/229/1 276/227/1 269/228/1
f 277/229/1 269/228/1 268/230/1
f 278/231/1 277/229/1 268/230/1
f 278/231/1 268/230/1 267/232/1
f 279/233/1 278/231/1 297/234/1
f 297/234/1 278/231/1 267/232/1
f 279/233/1 297/234/1 296/235/1
f 298/236/1 297/234/1 267/232/1
f 299/237/1 298/236/1 267/232/1
f 279/233/1 296/235/1 295/238/1
f 300/239/1 299/237/1 267/232/1
f 279/233/1 295/238/1 294/240/1
f 300/239/1 267/232/1 266/241/1
f 280/242/1 279/233/1 294/240/1
f 301/243/1 300/239/1 266/241/1
f 280/242/1 294/240/1 293/244/1
f 302/245/1 301/243/1 266/241/1
f 280/242/1 293/244/1 292/246/1
f 302/245/1 266/241/1 265/247/1
f 281/248/1 280/242/1 292/246/1
f 303/249/1 302/245/1 265/247/1
f 281/248/1 292/246/1 291/250/1
f 304/251/1 303/249/1 265/247/1
f 281/248/1 291/250/1 290/252/1
f 304/251/1 265/247/1 264/253/1
f 282/254/1 281/248/1 290/252/1
f 305/255/1 304/251/1 264/253/1
f 282/254/1 290/252/1 289/256/1
f 305/255/1 264/253/1 263/257/1
f 283/258/1 282/254/1 289/256/1
f 306/259/1 305/255/1 263/257/1
f 283/258/1 289/256/1 288/260/1
f 307/261/1 306/259/1 263/257/1
f 283/258/1 288/260/1 287/262/1
f 307/261/1 263/257/1 262/263/1
f 284/264/1 283/258/1 287/262/1
f 308/265/1 307/261/1 262/263/1
f 284/264/1 287/262/1 286/266/1
f 308/265/1 262/263/1 261/267/1
f 237/3/1 284/264/1 286/266/1
f 309/268/1 308/265/1 261/267/1
f 237/3/1 286/266/1 285/269/1
f 238/270/1 237/3/1 285/269/1
f 238/270/1 285/269/1 332/4/1
f 310/271/1 309/268/1 261/267/1
f 310/271/1 261/267/1 260/272/1
f 238/270/1 332/4/1 331/273/1
f 311/274/1 310/271/1 260/272/1
f 311/274/1 260/272/1 259/275/1
f 239/276/1 238/270/1 331/273/1
f 239/276/1 331/273/1 330/277/1
f 312/278/1 311/274/1 259/275/1
f 312/278/1 259/275/1 258/279/1
f 240/280/1 239/276/1 330/277/1
f 313/281/1 312/278/1 258/279/1
f 240/280/1 330/277/1 329/282/1
f 313/281/1 258/279/1 257/283/1
f 241/284/1 240/280/1 329/282/1
f 314/285/1 313/281/1 257/283/1
f 241/284/1 329/282/1 328/286/1
f 315/287/1 314/285/1 257/283/1
f 241/284/1 328/286/1 327/288/1
f 315/287/1 257/283/1 256/289/1
f 242/290/1 241/284/1 327/288/1
f 316/291/1 315/287/1 256/289/1
f 242/290/1 327/288/1 326/292/1
f 317/293/1 316/291/1 256/289/1
f 242/290/1 326/292/1 325/294/1
f 317/293/1 256/289/1 255/295/1
f 243/296/1 242/290/1 325/294/1
f 318/297/1 317/293/1 255/295/1
f 243/296/1 325/294/1 324/298/1
f 319/299/1 318/297/1 255/295/1
f 243/296/1 324/298/1 323/300/1
f 319/299/1 255/295/1 254/301/1
f 244/302/1 243/296/1 323/300/1
f 320/303/1 319/299/1 254/301/1
f 244/302/1 323/300/1 322/304/1
f 321/305/1 320/303/1 254/301/1
f 244/302/1 322/304/1 321/305/1
f 244/302/1 321/305/1 254/301/1
f 244/302/1 254/301/1 253/306/1
f 245/307/1 244/302/1 253/306/1
f 245/307/1 253/306/1 252/308/1
f 246/309/1 245/307/1 252/308/1
f 246/309/1 252/308/1 251/310/1
f 247/311/1 246/309/1 251/310/1
f 247/311/1 251/310/1 250/312/1
f 248/313/1 247/311/1 250/312/1
f 248/313/1 250/312/1 249/314/1
f 335/315/1 334/316/1 341/317/1
f 341/317/1 334/316/1 333/3/1
f 341/317/1 333/3/1 342/4/1
f 335/315/1 341/317/1 340/318/1
f 335/315/1 340/318/1 337/319/1
f 337/319/1 340/318/1 339/135/1
f 337/319/1 339/135/1 338/320/1
f 335/315/1 337/319/1 336/205/1
f 345/315/1 344/316/1 351/317/1
f 351/317/1 344/316/1 343/3/1
f 351/317/1 343/3/1 352/4/1
f 345/315/1 351/317/1 350/318/1
f 345/315/1 350/318/1 347/319/1
f 347/319/1 350/318/1 349/135/1
f 347/319/1 349/135/1 348/320/1
f 345/315/1 347/319/1 346/205/1
f 355/225/1 354/289/1 353/3/1
f 355/225/1 353/3/1 358/4/1
f 355/225/1 358/4/1 357/281/1
f 355/225/1 357/281/1 356/240/1
f 361/48/1 360/11/1 369/40/1
f 369/40/1 360/11/1 359/3/1
f 369/40/1 359/3/1 370/4/1
f 361/48/1 369/40/1 368/53/1
f 361/48/1 368/53/1 365/118/1
f 365/118/1 368/53/1 367/71/1
f 365/118/1 367/71/1 366/116/1
f 361/48/1 365/118/1 364/95/1
f 361/48/1 364/95/1 363/101/1
f 361/48/1 363/101/1 362/75/1
f 373/1/4 371/3/4 372/2/4
f 373/1/4 378/4/4 371/3/4
f 374/5/5 378/4/5 373/1/5
f 375/6/4 377/7/4 374/5/4
f 377/7/6 378/4/6 374/5/6
f 375/6/4 376/8/4 377/7/4
f 392/9/4 390/11/4 391/10/4
f 392/9/4 389/12/4 390/11/4
f 392/9/4 388/13/4 389/12/4
f 393/14/4 388/13/4 392/9/4
f 393/14/4 387/15/4 388/13/4
f 393/14/4 386/16/4 387/15/4
f 394/17/4 386/16/4 393/14/4
f 394/17/4 385/18/4 386/16/4
f 394/17/4 384/19/4 385/18/4
f 395/20/4 384/19/4 394/17/4
f 395/20/4 383/21/4 384/19/4
f 395/20/4 382/22/4 383/21/4
f 396/23/4 382/22/4 395/20/4
f 396/23/4 381/24/4 382/22/4
f 396/23/4 380/25/4 381/24/4
f 397/26/4 380/25/4 396/23/4
f 397/26/4 379/3/4 380/25/4
f 397/26/4 492/27/4 379/3/4
f 492/27/4 493/28/4 379/3/4
f 493/28/4 494/29/4 379/3/4
f 494/29/4 495/30/4 379/3/4
f 495/30/4 496/31/4 379/3/4
f 496/31/4 497/32/4 379/3/4
f 497/32/4 498/33/4 379/3/4
f 498/33/4 499/34/4 379/3/4
f 499/34/4 500/4/4 379/3/4
f 398/35/4 490/36/4 397/26/4
f 490/36/4 491/37/4 397/26/4
f 491/37/4 492/27/4 397/26/4
f 399/38/4 488/39/4 398/35/4
f 488/39/4 489/40/4 398/35/4
f 489/40/4 490/36/4 398/35/4
f 400/41/4 487/42/4 399/38/4
f 487/42/4 488/39/4 399/38/4
f 400/41/4 486/43/4 487/42/4
f 400/41/4 485/44/4 486/43/4
f 400/41/4 484/45/4 485/44/4
f 400/41/4 483/46/4 484/45/4
f 400/41/4 482/47/4 483/46/4
f 401/48/4 482/47/4 400/41/4
f 401/48/4 481/49/4 482/47/4
f 401/48/4 480/50/4 481/49/4
f 401/48/4 479/51/4 480/50/4
f 402/52/4 479/51/4 401/48/4
f 402/52/4 478/53/4 479/51/4
f 402/52/4 477/54/4 478/53/4
f 403/55/4 477/54/4 402/52/4
f 403/55/4 476/56/4 477/54/4
f 403/55/4 475/57/4 476/56/4
f 404/58/4 475/57/4 403/55/4
f 404/58/4 474/59/4 475/57/4
f 404/58/4 473/60/4 474/59/4
f 405/61/4 473/60/4 404/58/4
f 405/61/4 472/62/4 473/60/4
f 406/63/4 472/62/4 405/61/4
f 406/63/4 471/64/4 472/62/4
f 406/63/4 470/65/4 471/64/4
f 407/66/4 470/65/4 406/63/4
f 407/66/4 469/67/4 470/65/4
f 408/68/4 469/67/4 407/66/4
f 408/68/4 468/69/4 469/67/4
f 409/70/4 468/69/4 408/68/4
f 409/70/4 467/71/4 468/69/4
f 410/72/4 467/71/4 409/70/4
f 410/72/4 466/73/4 467/71/4
f 411/74/4 466/73/4 410/72/4
f 412/75/4 466/73/4 411/74/4
f 412/75/4 465/76/4 466/73/4
f 413/77/4 465/76/4 412/75/4
f 414/78/4 465/76/4 413/77/4
f 414/78/4 464/79/4 465/76/4
f 415/80/4 464/79/4 414/78/4
f 440/81/4 438/83/4 439/82/4
f 415/80/4 463/84/4 464/79/4
f 416/85/4 463/84/4 415/80/4
f 440/81/4 437/86/4 438/83/4
f 417/87/4 463/84/4 416/85/4
f 417/87/4 462/88/4 463/84/4
f 440/81/4 436/89/4 437/86/4
f 418/90/4 462/88/4 417/87/4
f 440/81/4 435/91/4 436/89/4
f 419/92/4 462/88/4 418/90/4
f 420/93/4 462/88/4 419/92/4
f 420/93/4 461/94/4 462/88/4
f 440/81/4 434/95/4 435/91/4
f 421/96/4 461/94/4 420/93/4
f 440/81/4 433/97/4 434/95/4
f 422/98/4 461/94/4 421/96/4
f 440/81/4 432/99/4 433/97/4
f 422/98/4 460/100/4 461/94/4
f 423/101/4 460/100/4 422/98/4
f 440/81/4 431/102/4 432/99/4
f 424/103/4 460/100/4 423/101/4
f 440/81/4 430/104/4 431/102/4
f 425/105/4 460/100/4 424/103/4
f 440/81/4 429/106/4 430/104/4
f 426/107/4 460/100/4 425/105/4
f 440/81/4 428/108/4 429/106/4
f 426/107/4 459/109/4 460/100/4
f 427/110/4 459/109/4 426/107/4
f 440/81/4 427/110/4 428/108/4
f 440/81/4 459/109/4 427/110/4
f 440/81/4 458/111/4 459/109/4
f 441/112/4 458/111/4 440/81/4
f 442/113/4 458/111/4 441/112/4
f 442/113/4 457/114/4 458/111/4
f 443/115/4 457/114/4 442/113/4
f 443/115/4 456/116/4 457/114/4
f 444/117/4 456/116/4 443/115/4
f 445/118/4 456/116/4 444/117/4
f 445/118/4 455/119/4 456/116/4
f 446/120/4 455/119/4 445/118/4
f 447/121/4 455/119/4 446/120/4
f 447/121/4 454/122/4 455/119/4
f 448/123/4 454/122/4 447/121/4
f 449/124/4 454/122/4 448/123/4
f 449/124/4 453/125/4 454/122/4
f 450/126/4 453/125/4 449/124/4
f 451/127/4 453/125/4 450/126/4
f 451/127/4 452/128/4 453/125/4
f 503/48/4 511/40/4 502/11/4
f 511/40/4 501/3/4 502/11/4
f 511/40/4 512/4/4 501/3/4
f 503/48/4 510/53/4 511/40/4
f 503/48/4 507/118/4 510/53/4
f 507/118/4 509/71/4 510/53/4
f 507/118/4 508/116/4 509/71/4
f 503/48/4 506/95/4 507/118/4
f 503/48/4 505/101/4 506/95/4
f 503/48/4 504/75/4 505/101/4
f 514/129/4 580/130/4 513/3/4
f 580/130/4 579/131/4 513/3/4
f 580/130/4 578/132/4 579/131/4
f 580/130/4 577/133/4 578/132/4
f 580/130/4 576/134/4 577/133/4
f 580/130/4 575/135/4 576/134/4
f 580/130/4 574/136/4 575/135/4
f 580/130/4 573/137/4 574/136/4
f 580/130/4 572/138/4 573/137/4
f 580/130/4 581/139/4 572/138/4
f 581/139/4 571/140/4 572/138/4
f 514/129/4 606/4/4 580/130/4
f 582/141/4 571/140/4 581/139/4
f 583/142/4 571/140/4 582/141/4
f 584/143/4 571/140/4 583/142/4
f 584/143/4 570/144/4 571/140/4
f 585/145/4 570/144/4 584/143/4
f 586/146/4 570/144/4 585/145/4
f 587/147/4 570/144/4 586/146/4
f 587/147/4 569/148/4 570/144/4
f 588/149/4 569/148/4 587/147/4
f 589/150/4 569/148/4 588/149/4
f 590/151/4 569/148/4 589/150/4
f 590/151/4 568/152/4 569/148/4
f 591/153/4 568/152/4 590/151/4
f 592/154/4 568/152/4 591/153/4
f 592/154/4 567/155/4 568/152/4
f 593/156/4 567/155/4 592/154/4
f 594/157/4 567/155/4 593/156/4
f 594/157/4 566/158/4 567/155/4
f 595/159/4 566/158/4 594/157/4
f 595/159/4 565/160/4 566/158/4
f 596/161/4 565/160/4 595/159/4
f 597/162/4 565/160/4 596/161/4
f 597/162/4 564/163/4 565/160/4
f 598/164/4 564/163/4 597/162/4
f 598/164/4 563/165/4 564/163/4
f 599/166/4 563/165/4 598/164/4
f 599/166/4 562/167/4 563/165/4
f 600/168/4 562/167/4 599/166/4
f 601/169/4 562/167/4 600/168/4
f 601/169/4 561/170/4 562/167/4
f 602/171/4 561/170/4 601/169/4
f 603/172/4 561/170/4 602/171/4
f 603/172/4 560/173/4 561/170/4
f 604/174/4 560/173/4 603/172/4
f 605/175/4 560/173/4 604/174/4
f 514/129/4 516/176/4 606/4/4
f 516/176/4 605/175/4 606/4/4
f 516/176/4 560/173/4 605/175/4
f 516/176/4 559/177/4 560/173/4
f 516/176/4 558/178/4 559/177/4
f 516/176/4 557/179/4 558/178/4
f 516/176/4 556/180/4 557/179/4
f 516/176/4 555/181/4 556/180/4
f 516/176/4 554/182/4 555/181/4
f 516/176/4 553/183/4 554/182/4
f 516/176/4 517/184/4 553/183/4
f 517/184/4 518/185/4 553/183/4
f 518/185/4 552/186/4 553/183/4
f 514/129/4 515/187/4 516/176/4
f 519/188/4 552/186/4 518/185/4
f 520/189/4 552/186/4 519/188/4
f 521/190/4 552/186/4 520/189/4
f 521/190/4 551/191/4 552/186/4
f 522/192/4 551/191/4 521/190/4
f 523/193/4 551/191/4 522/192/4
f 523/193/4 550/194/4 551/191/4
f 524/195/4 550/194/4 523/193/4
f 524/195/4 549/196/4 550/194/4
f 525/197/4 549/196/4 524/195/4
f 525/197/4 548/198/4 549/196/4
f 526/199/4 548/198/4 525/197/4
f 526/199/4 547/200/4 548/198/4
f 527/201/4 547/200/4 526/199/4
f 527/201/4 546/202/4 547/200/4
f 528/203/4 546/202/4 527/201/4
f 528/203/4 545/204/4 546/202/4
f 528/203/4 544/205/4 545/204/4
f 529/206/4 544/205/4 528/203/4
f 529/206/4 543/207/4 544/205/4
f 530/208/4 543/207/4 529/206/4
f 530/208/4 542/209/4 543/207/4
f 530/208/4 541/210/4 542/209/4
f 530/208/4 540/211/4 541/210/4
f 530/208/4 539/212/4 540/211/4
f 530/208/4 538/213/4 539/212/4
f 530/208/4 537/214/4 538/213/4
f 530/208/4 536/215/4 537/214/4
f 530/208/4 535/216/4 536/215/4
f 530/208/4 534/217/4 535/216/4
f 530/208/4 533/218/4 534/217/4
f 530/208/4 532/219/4 533/218/4
f 530/208/4 531/220/4 532/219/4
f 644/221/4 642/223/4 643/222/4
f 644/221/4 641/224/4 642/223/4
f 645/225/4 641/224/4 644/221/4
f 645/225/4 640/226/4 641/224/4
f 646/227/4 640/226/4 645/225/4
f 646/227/4 639/228/4 640/226/4
f 647/229/4 639/228/4 646/227/4
f 647/229/4 638/230/4 639/228/4
f 648/231/4 638/230/4 647/229/4
f 648/231/4 637/232/4 638/230/4
f 649/233/4 667/234/4 648/231/4
f 667/234/4 637/232/4 648/231/4
f 649/233/4 666/235/4 667/234/4
f 668/236/4 637/232/4 667/234/4
f 669/237/4 637/232/4 668/236/4
f 649/233/4 665/238/4 666/235/4
f 670/239/4 637/232/4 669/237/4
f 649/233/4 664/240/4 665/238/4
f 670/239/4 636/241/4 637/232/4
f 650/242/4 664/240/4 649/233/4
f 671/243/4 636/241/4 670/239/4
f 650/242/4 663/244/4 664/240/4
f 672/245/4 636/241/4 671/243/4
f 650/242/4 662/246/4 663/244/4
f 672/245/4 635/247/4 636/241/4
f 651/248/4 662/246/4 650/242/4
f 673/249/4 635/247/4 672/245/4
f 651/248/4 661/250/4 662/246/4
f 674/251/4 635/247/4 673/249/4
f 651/248/4 660/252/4 661/250/4
f 674/251/4 634/253/4 635/247/4
f 652/254/4 660/252/4 651/248/4
f 675/255/4 634/253/4 674/251/4
f 652/254/4 659/256/4 660/252/4
f 675/255/4 633/257/4 634/253/4
f 653/258/4 659/256/4 652/254/4
f 676/259/4 633/257/4 675/255/4
f 653/258/4 658/260/4 659/256/4
f 677/261/4 633/257/4 676/259/4
f 653/258/4 657/262/4 658/260/4
f 677/261/4 632/263/4 633/257/4
f 654/264/4 657/262/4 653/258/4
f 678/265/4 632/263/4 677/261/4
f 654/264/4 656/266/4 657/262/4
f 678/265/4 631/267/4 632/263/4
f 607/3/4 656/266/4 654/264/4
f 679/268/4 631/267/4 678/265/4
f 607/3/4 655/269/4 656/266/4
f 608/270/4 655/269/4 607/3/4
f 608/270/4 702/4/4 655/269/4
f 680/271/4 631/267/4 679/268/4
f 680/271/4 630/272/4 631/267/4
f 608/270/4 701/273/4 702/4/4
f 681/274/4 630/272/4 680/271/4
f 681/274/4 629/275/4 630/272/4
f 609/276/4 701/273/4 608/270/4
f 609/276/4 700/277/4 701/273/4
f 682/278/4 629/275/4 681/274/4
f 682/278/4 628/279/4 629/275/4
f 610/280/4 700/277/4 609/276/4
f 683/281/4 628/279/4 682/278/4
f 610/280/4 699/282/4 700/277/4
f 683/281/4 627/283/4 628/279/4
f 611/284/4 699/282/4 610/280/4
f 684/285/4 627/283/4 683/281/4
f 611/284/4 698/286/4 699/282/4
f 685/287/4 627/283/4 684/285/4
f 611/284/4 697/288/4 698/286/4
f 685/287/4 626/289/4 627/283/4
f 612/290/4 697/288/4 611/284/4
f 686/291/4 626/289/4 685/287/4
f 612/290/4 696/292/4 697/288/4
f 687/293/4 626/289/4 686/291/4
f 612/290/4 695/294/4 696/292/4
f 687/293/4 625/295/4 626/289/4
f 613/296/4 695/294/4 612/290/4
f 688/297/4 625/295/4 687/293/4
f 613/296/4 694/298/4 695/294/4
f 689/299/4 625/295/4 688/297/4
f 613/296/4 693/300/4 694/298/4
f 689/299/4 624/301/4 625/295/4
f 614/302/4 693/300/4 613/296/4
f 690/303/4 624/301/4 689/299/4
f 614/302/4 692/304/4 693/300/4
f 691/305/4 624/301/4 690/303/4
f 614/302/4 691/305/4 692/304/4
f 614/302/4 624/301/4 691/305/4
f 614/302/4 623/306/4 624/301/4
f 615/307/4 623/306/4 614/302/4
f 615/307/4 622/308/4 623/306/4
f 616/309/4 622/308/4 615/307/4
f 616/309/4 621/310/4 622/308/4
f 617/311/4 621/310/4 616/309/4
f 617/311/4 620/312/4 621/310/4
f 618/313/4 620/312/4 617/311/4
f 618/313/4 619/314/4 620/312/4
f 705/315/4 711/317/4 704/316/4
f 711/317/4 703/3/4 704/316/4
f 711/317/4 712/4/4 703/3/4
f 705/315/4 710/318/4 711/317/4
f 705/315/4 707/319/4 710/318/4
f 707/319/4 709/135/4 710/318/4
f 707/319/4 708/320/4 709/135/4
f 705/315/4 706/205/4 707/319/4
f 715/315/4 721/317/4 714/316/4
f 721/317/4 713/3/4 714/316/4
f 721/317/4 722/4/4 713/3/4
f 715/315/4 720/318/4 721/317/4
f 715/315/4 717/319/4 720/318/4
f 717/319/4 719/135/4 720/318/4
f 717/319/4 718/320/4 719/135/4
f 715/315/4 716/205/4 717/319/4
f 725/225/4 723/3/4 724/289/4
f 725/225/4 728/4/4 723/3/4
f 725/225/4 727/281/4 728/4/4
f 725/225/4 726/240/4 727/281/4
f 731/48/4 739/40/4 730/11/4
f 739/40/4 729/3/4 730/11/4
f 739/40/4 740/4/4 729/3/4
f 731/48/4 738/53/4 739/40/4
f 731/48/4 735/118/4 738/53/4
f 735/118/4 737/71/4 738/53/4
f 735/118/4 736/116/4 737/71/4
f 731/48/4 734/95/4 735/118/4
f 731/48/4 733/101/4 734/95/4
f 731/48/4 732/75/4 733/101/4
f 272/223/7 641/224/7 271/224/7
f 142/4/8 511/40/8 141/40/8
f 343/3/9 714/316/9 713/3/9
f 95/76/10 464/79/10 94/79/10
f 274/221/11 645/225/11 644/221/11
f 131/3/12 512/4/12 142/4/12
f 352/4/8 721/317/8 351/317/8
f 44/78/13 415/80/13 414/78/13
f 260/272/14 629/275/14 259/275/14
f 123/28/15 494/29/15 493/28/15
f 191/170/16 560/173/16 190/173/16
f 343/3/12 722/4/12 352/4/12
f 238/270/17 609/276/17 608/270/17
f 233/172/18 604/174/18 603/172/18
f 141/40/12 510/53/12 140/53/12
f 69/82/19 440/81/19 439/82/19
f 124/29/20 495/30/20 494/29/20
f 271/224/21 640/226/21 270/226/21
f 351/317/12 720/318/12 350/318/12
f 275/225/22 646/227/22 645/225/22
f 234/174/23 605/175/23 604/174/23
f 69/82/24 438/83/24 68/83/24
f 331/273/25 700/277/25 330/277/25
f 125/30/26 496/31/26 495/30/26
f 311/274/27 682/278/27 681/274/27
f 139/71/9 510/53/9 509/71/9
f 94/79/28 463/84/28 93/84/28
f 126/31/29 497/32/29 496/31/29
f 270/226/30 639/228/30 269/228/30
f 138/116/8 507/118/8 137/118/8
f 349/135/9 720/318/9 719/135/9
f 45/80/31 416/85/31 415/80/31
f 276/227/32 647/229/32 646/227/32
f 139/71/12 508/116/12 138/116/12
f 348/320/8 717/319/8 347/319/8
f 259/275/33 628/279/33 258/279/33
f 127/32/34 498/33/34 497/32/34
f 235/175/9 606/4/9 605/175/9
f 349/135/12 718/320/12 348/320/12
f 239/276/35 610/280/35 609/276/35
f 137/118/12 506/95/12 136/95/12
f 346/205/8 715/315/8 345/315/8
f 68/83/36 437/86/36 67/86/36
f 128/33/37 499/34/37 498/33/37
f 269/228/38 638/230/38 268/230/38
f 347/319/12 716/205/12 346/205/12
f 46/85/39 417/87/39 416/85/39
f 312/278/40 683/281/40 682/278/40
f 277/229/41 648/231/41 647/229/41
f 190/173/42 559/177/42 189/177/42
f 135/101/9 506/95/9 505/101/9
f 354/289/19 725/225/19 724/289/19
f 129/34/43 500/4/43 499/34/43
f 134/75/8 503/48/8 133/48/8
f 9/3/12 500/4/12 130/4/12
f 189/177/44 558/178/44 188/178/44
f 135/101/12 504/75/12 134/75/12
f 353/3/9 724/289/9 723/3/9
f 93/84/45 462/88/45 92/88/45
f 330/277/46 699/282/46 329/282/46
f 27/26/47 398/35/47 397/26/47
f 268/230/48 637/232/48 267/232/48
f 143/3/19 514/129/19 513/3/19
f 278/231/49 649/233/49 648/231/49
f 188/178/50 557/179/50 187/179/50
f 353/3/12 728/4/12 358/4/12
f 67/86/51 436/89/51 66/89/51
f 258/279/52 627/283/52 257/283/52
f 47/87/53 418/90/53 417/87/53
f 240/280/54 611/284/54 610/280/54
f 120/36/55 491/37/55 490/36/55
f 187/179/56 556/180/56 186/180/56
f 357/281/9 728/4/9 727/281/9
f 209/131/9 513/3/9 579/131/9
f 356/240/8 725/225/8 355/225/8
f 313/281/57 684/285/57 683/281/57
f 121/37/58 492/27/58 491/37/58
f 186/180/59 555/181/59 185/181/59
f 357/281/12 726/240/12 356/240/12
f 66/89/60 435/91/60 65/91/60
f 28/35/61 399/38/61 398/35/61
f 297/234/62 666/235/62 296/235/62
f 208/132/63 579/131/63 578/132/63
f 360/11/19 731/48/19 730/11/19
f 48/90/64 419/92/64 418/90/64
f 298/236/65 667/234/65 297/234/65
f 185/181/66 554/182/66 184/182/66
f 329/282/67 698/286/67 328/286/67
f 208/132/68 577/133/68 207/133/68
f 49/92/69 420/93/69 419/92/69
f 314/285/70 685/287/70 684/285/70
f 119/40/71 488/39/71 118/39/71
f 298/236/72 669/237/72 668/236/72
f 184/182/73 553/183/73 183/183/73
f 147/184/8 516/176/8 146/176/8
f 207/133/74 576/134/74 206/134/74
f 359/3/9 730/11/9 729/3/9
f 120/36/75 489/40/75 119/40/75
f 370/4/8 739/40/8 369/40/8
f 92/88/76 461/94/76 91/94/76
f 328/286/77 697/288/77 327/288/77
f 29/38/78 400/41/78 399/38/78
f 296/235/79 665/238/79 295/238/79
f 148/185/80 517/184/80 147/184/80
f 206/134/81 575/135/81 205/135/81
f 359/3/12 740/4/12 370/4/12
f 299/237/82 670/239/82 669/237/82
f 65/91/83 434/95/83 64/95/83
f 257/283/84 626/289/84 256/289/84
f 205/135/85 574/136/85 204/136/85
f 369/40/12 738/53/12 368/53/12
f 50/93/86 421/96/86 420/93/86
f 241/284/87 612/290/87 611/284/87
f 118/39/88 487/42/88 117/42/88
f 183/183/89 552/186/89 182/186/89
f 295/238/90 664/240/90 294/240/90
f 145/187/8 514/129/8 144/129/8
f 204/136/91 573/137/91 203/137/91
f 315/287/92 686/291/92 685/287/92
f 117/42/93 486/43/93 116/43/93
f 146/176/12 515/187/12 145/187/12
f 64/95/94 433/97/94 63/97/94
f 267/232/95 636/241/95 266/241/95
f 148/185/96 519/188/96 518/185/96
f 203/137/97 572/138/97 202/138/97
f 367/71/9 738/53/9 737/71/9
f 51/96/98 422/98/98 421/96/98
f 116/43/99 485/44/99 115/44/99
f 279/233/100 650/242/100 649/233/100
f 211/139/8 580/130/8 210/130/8
f 366/116/8 735/118/8 365/118/8
f 327/288/101 696/292/101 326/292/101
f 149/188/102 520/189/102 519/188/102
f 367/71/12 736/116/12 366/116/12
f 316/291/103 687/293/103 686/291/103
f 115/44/104 484/45/104 114/45/104
f 300/239/105 671/243/105 670/239/105
f 63/97/106 432/99/106 62/99/106
f 150/189/107 521/190/107 520/189/107
f 202/138/108 571/140/108 201/140/108
f 365/118/12 734/95/12 364/95/12
f 114/45/109 483/46/109 113/46/109
f 91/94/110 460/100/110 90/100/110
f 326/292/111 695/294/111 325/294/111
f 294/240/112 663/244/112 293/244/112
f 210/130/12 606/4/12 236/4/12
f 363/101/9 734/95/9 733/101/9
f 52/98/113 423/101/113 422/98/113
f 113/46/114 482/47/114 112/47/114
f 301/243/115 672/245/115 671/243/115
f 182/186/116 551/191/116 181/191/116
f 212/141/117 581/139/117 211/139/117
f 362/75/8 731/48/8 361/48/8
f 256/289/118 625/295/118 255/295/118
f 30/41/119 401/48/119 400/41/119
f 151/190/120 522/192/120 521/190/120
f 363/101/12 732/75/12 362/75/12
f 242/290/121 613/296/121 612/290/121
f 212/141/122 583/142/122 582/141/122
f 62/99/123 431/102/123 61/102/123
f 293/244/124 662/246/124 292/246/124
f 152/192/125 523/193/125 522/192/125
f 53/101/126 424/103/126 423/101/126
f 317/293/127 688/297/127 687/293/127
f 112/47/128 481/49/128 111/49/128
f 213/142/129 584/143/129 583/142/129
f 266/241/130 635/247/130 265/247/130
f 111/49/131 480/50/131 110/50/131
f 280/242/132 651/248/132 650/242/132
f 181/191/133 550/194/133 180/194/133
f 61/102/134 430/104/134 60/104/134
f 325/294/135 694/298/135 324/298/135
f 153/193/136 524/195/136 523/193/136
f 201/140/137 570/144/137 200/144/137
f 54/103/138 425/105/138 424/103/138
f 318/297/139 689/299/139 688/297/139
f 110/50/140 479/51/140 109/51/140
f 302/245/141 673/249/141 672/245/141
f 214/143/142 585/145/142 584/143/142
f 31/48/143 402/52/143 401/48/143
f 180/194/144 549/196/144 179/196/144
f 215/145/145 586/146/145 585/145/145
f 60/104/146 429/106/146 59/106/146
f 324/298/147 693/300/147 323/300/147
f 292/246/148 661/250/148 291/250/148
f 154/195/149 525/197/149 524/195/149
f 55/105/150 426/107/150 425/105/150
f 109/51/151 478/53/151 108/53/151
f 303/249/152 674/251/152 673/249/152
f 216/146/153 587/147/153 586/146/153
f 255/295/154 624/301/154 254/301/154
f 2/2/19 373/1/19 372/2/19
f 243/296/155 614/302/155 613/296/155
f 108/53/156 477/54/156 107/54/156
f 179/196/157 548/198/157 178/198/157
f 59/106/158 428/108/158 58/108/158
f 32/52/159 403/55/159 402/52/159
f 291/250/160 660/252/160 290/252/160
f 1/3/9 372/2/9 371/3/9
f 155/197/161 526/199/161 525/197/161
f 200/144/162 569/148/162 199/148/162
f 319/299/163 690/303/163 689/299/163
f 217/147/164 588/149/164 587/147/164
f 90/100/165 459/109/165 89/109/165
f 265/247/166 634/253/166 264/253/166
f 1/3/12 378/4/12 8/4/12
f 56/107/167 427/110/167 426/107/167
f 107/54/168 476/56/168 106/56/168
f 281/248/169 652/254/169 651/248/169
f 4/5/8 373/1/8 3/1/8
f 178/198/170 547/200/170 177/200/170
f 218/149/171 589/150/171 588/149/171
f 323/300/172 692/304/172 322/304/172
f 156/199/173 527/201/173 526/199/173
f 320/303/174 691/305/174 690/303/174
f 106/56/175 475/57/175 105/57/175
f 304/251/176 675/255/176 674/251/176
f 4/5/19 375/6/19 374/5/19
f 219/150/177 590/151/177 589/150/177
f 57/110/178 428/108/178 427/110/178
f 33/55/179 404/58/179 403/55/179
f 177/200/180 546/202/180 176/202/180
f 321/305/181 692/304/181 691/305/181
f 290/252/182 659/256/182 289/256/182
f 8/4/8 377/7/8 7/7/8
f 157/201/183 528/203/183 527/201/183
f 199/148/184 568/152/184 198/152/184
f 89/109/185 458/111/185 88/111/185
f 105/57/186 474/59/186 104/59/186
f 6/8/8 375/6/8 5/6/8
f 220/151/187 591/153/187 590/151/187
f 70/81/188 441/112/188 440/81/188
f 264/253/189 633/257/189 263/257/189
f 7/7/12 376/8/12 6/8/12
f 254/301/190 623/306/190 253/306/190
f 104/59/191 473/60/191 103/60/191
f 282/254/192 653/258/192 652/254/192
f 21/10/193 392/9/193 391/10/193
f 176/202/194 545/204/194 175/204/194
f 221/153/195 592/154/195 591/153/195
f 71/112/196 442/113/196 441/112/196
f 244/302/197 615/307/197 614/302/197
f 34/58/198 405/61/198 404/58/198
f 305/255/199 676/259/199 675/255/199
f 20/11/200 391/10/200 390/11/200
f 175/204/201 544/205/201 174/205/201
f 158/203/202 529/206/202 528/203/202
f 198/152/203 567/155/203 197/155/203
f 88/111/204 457/114/204 87/114/204
f 253/306/205 622/308/205 252/308/205
f 103/60/206 472/62/206 102/62/206
f 19/12/207 390/11/207 389/12/207
f 222/154/208 593/156/208 592/154/208
f 72/113/209 443/115/209 442/113/209
f 245/307/210 616/309/210 615/307/210
f 35/61/211 406/63/211 405/61/211
f 289/256/212 658/260/212 288/260/212
f 306/259/213 677/261/213 676/259/213
f 19/12/214 388/13/214 18/13/214
f 174/205/215 543/207/215 173/207/215
f 223/156/216 594/157/216 593/156/216
f 22/9/217 393/14/217 392/9/217
f 159/206/218 530/208/218 529/206/218
f 87/114/219 456/116/219 86/116/219
f 252/308/220 621/310/220 251/310/220
f 102/62/221 471/64/221 101/64/221
f 73/115/222 444/117/222 443/115/222
f 246/309/223 617/311/223 616/309/223
f 288/260/224 657/262/224 287/262/224
f 197/155/225 566/158/225 196/158/225
f 101/64/226 470/65/226 100/65/226
f 18/13/227 387/15/227 17/15/227
f 173/207/228 542/209/228 172/209/228
f 224/157/229 595/159/229 594/157/229
f 74/117/230 445/118/230 444/117/230
f 36/63/231 407/66/231 406/63/231
f 263/257/232 632/263/232 262/263/232
f 251/310/233 620/312/233 250/312/233
f 283/258/234 654/264/234 653/258/234
f 17/15/235 386/16/235 16/16/235
f 172/209/236 541/210/236 171/210/236
f 247/311/237 618/313/237 617/311/237
f 23/14/238 394/17/238 393/14/238
f 196/158/239 565/160/239 195/160/239
f 86/116/240 455/119/240 85/119/240
f 100/65/241 469/67/241 99/67/241
f 307/261/242 678/265/242 677/261/242
f 171/210/243 540/211/243 170/211/243
f 225/159/244 596/161/244 595/159/244
f 75/118/245 446/120/245 445/118/245
f 249/314/246 618/313/246 248/313/246
f 37/66/247 408/68/247 407/66/247
f 250/312/248 619/314/248 249/314/248
f 16/16/249 385/18/249 15/18/249
f 170/211/250 539/212/250 169/212/250
f 226/161/251 597/162/251 596/161/251
f 76/120/252 447/121/252 446/120/252
f 334/316/19 705/315/19 704/316/19
f 287/262/253 656/266/253 286/266/253
f 99/67/254 468/69/254 98/69/254
f 15/18/255 384/19/255 14/19/255
f 169/212/256 538/213/256 168/213/256
f 38/68/257 409/70/257 408/68/257
f 262/263/258 631/267/258 261/267/258
f 24/17/259 395/20/259 394/17/259
f 195/160/260 564/163/260 194/163/260
f 85/119/261 454/122/261 84/122/261
f 284/264/262 607/3/262 654/264/262
f 168/213/263 537/214/263 167/214/263
f 227/162/264 598/164/264 597/162/264
f 77/121/265 448/123/265 447/121/265
f 333/3/9 704/316/9 703/3/9
f 342/4/8 711/317/8 341/317/8
f 98/69/266 467/71/266 97/71/266
f 308/265/267 679/268/267 678/265/267
f 14/19/268 383/21/268 13/21/268
f 167/214/269 536/215/269 166/215/269
f 78/123/270 449/124/270 448/123/270
f 333/3/12 712/4/12 342/4/12
f 39/70/271 410/72/271 409/70/271
f 194/163/272 563/165/272 193/165/272
f 13/21/273 382/22/273 12/22/273
f 166/215/274 535/216/274 165/216/274
f 228/164/275 599/166/275 598/164/275
f 341/317/12 710/318/12 340/318/12
f 286/266/276 655/269/276 285/269/276
f 25/20/277 396/23/277 395/20/277
f 84/122/278 453/125/278 83/125/278
f 97/71/279 466/73/279 96/73/279
f 237/3/280 608/270/280 607/3/280
f 165/216/281 534/217/281 164/217/281
f 79/124/282 450/126/282 449/124/282
f 40/72/283 411/74/283 410/72/283
f 193/165/284 562/167/284 192/167/284
f 12/22/285 381/24/285 11/24/285
f 164/217/286 533/218/286 163/218/286
f 229/166/287 600/168/287 599/166/287
f 81/127/288 450/126/288 80/126/288
f 339/135/9 710/318/9 709/135/9
f 41/74/289 412/75/289 411/74/289
f 285/269/290 702/4/290 332/4/290
f 338/320/8 707/319/8 337/319/8
f 309/268/291 680/271/291 679/268/291
f 11/24/292 380/25/292 10/25/292
f 163/218/293 532/219/293 162/219/293
f 230/168/294 601/169/294 600/168/294
f 82/128/295 451/127/295 81/127/295
f 339/135/12 708/320/12 338/320/12
f 26/23/296 397/26/296 396/23/296
f 161/220/8 530/208/8 160/208/8
f 83/125/297 452/128/297 82/128/297
f 336/205/8 705/315/8 335/315/8
f 96/73/298 465/76/298 95/76/298
f 162/219/299 531/220/299 161/220/299
f 132/11/19 503/48/19 502/11/19
f 337/319/12 706/205/12 336/205/12
f 42/75/300 413/77/300 412/75/300
f 261/267/301 630/272/301 260/272/301
f 273/222/302 644/221/302 643/222/302
f 192/167/303 561/170/303 191/170/303
f 344/316/19 715/315/19 714/316/19
f 10/25/304 379/3/304 9/3/304
f 231/169/305 602/171/305 601/169/305
f 43/77/306 414/78/306 413/77/306
f 332/4/307 701/273/307 331/273/307
f 272/223/308 643/222/308 642/223/308
f 310/271/309 681/274/309 680/271/309
f 232/171/310 603/172/310 602/171/310
f 131/3/9 502/11/9 501/3/9
f 122/27/311 493/28/311 492/27/311
f 272/223/7 642/223/7 641/224/7
f 142/4/8 512/4/8 511/40/8
f 343/3/9 344/316/9 714/316/9
f 95/76/10 465/76/10 464/79/10
f 274/221/11 275/225/11 645/225/11
f 131/3/12 501/3/12 512/4/12
f 352/4/8 722/4/8 721/317/8
f 44/78/13 45/80/13 415/80/13
f 260/272/14 630/272/14 629/275/14
f 123/28/15 124/29/15 494/29/15
f 191/170/16 561/170/16 560/173/16
f 343/3/12 713/3/12 722/4/12
f 238/270/17 239/276/17 609/276/17
f 233/172/18 234/174/18 604/174/18
f 141/40/12 511/40/12 510/53/12
f 69/82/19 70/81/19 440/81/19
f 124/29/20 125/30/20 495/30/20
f 271/224/21 641/224/21 640/226/21
f 351/317/12 721/317/12 720/318/12
f 275/225/22 276/227/22 646/227/22
f 234/174/23 235/175/23 605/175/23
f 69/82/24 439/82/24 438/83/24
f 331/273/25 701/273/25 700/277/25
f 125/30/312 126/31/312 496/31/312
f 311/274/27 312/278/27 682/278/27
f 139/71/9 140/53/9 510/53/9
f 94/79/28 464/79/28 463/84/28
f 126/31/29 127/32/29 497/32/29
f 270/226/30 640/226/30 639/228/30
f 138/116/8 508/116/8 507/118/8
f 349/135/9 350/318/9 720/318/9
f 45/80/31 46/85/31 416/85/31
f 276/227/32 277/229/32 647/229/32
f 139/71/12 509/71/12 508/116/12
f 348/320/8 718/320/8 717/319/8
f 259/275/33 629/275/33 628/279/33
f 127/32/34 128/33/34 498/33/34
f 235/175/9 236/4/9 606/4/9
f 349/135/12 719/135/12 718/320/12
f 239/276/35 240/280/35 610/280/35
f 137/118/12 507/118/12 506/95/12
f 346/205/8 716/205/8 715/315/8
f 68/83/36 438/83/36 437/86/36
f 128/33/313 129/34/313 499/34/313
f 269/228/38 639/228/38 638/230/38
f 347/319/12 717/319/12 716/205/12
f 46/85/39 47/87/39 417/87/39
f 312/278/40 313/281/40 683/281/40
f 277/229/41 278/231/41 648/231/41
f 190/173/42 560/173/42 559/177/42
f 135/101/9 136/95/9 506/95/9
f 354/289/19 355/225/19 725/225/19
f 129/34/43 130/4/43 500/4/43
f 134/75/8 504/75/8 503/48/8
f 9/3/12 379/3/12 500/4/12
f 189/177/314 559/177/314 558/178/314
f 135/101/12 505/101/12 504/75/12
f 353/3/9 354/289/9 724/289/9
f 93/84/45 463/84/45 462/88/45
f 330/277/46 700/277/46 699/282/46
f 27/26/47 28/35/47 398/35/47
f 268/230/48 638/230/48 637/232/48
f 143/3/19 144/129/19 514/129/19
f 278/231/49 279/233/49 649/233/49
f 188/178/50 558/178/50 557/179/50
f 353/3/12 723/3/12 728/4/12
f 67/86/51 437/86/51 436/89/51
f 258/279/52 628/279/52 627/283/52
f 47/87/53 48/90/53 418/90/53
f 240/280/54 241/284/54 611/284/54
f 120/36/55 121/37/55 491/37/55
f 187/179/56 557/179/56 556/180/56
f 357/281/9 358/4/9 728/4/9
f 209/131/9 143/3/9 513/3/9
f 356/240/8 726/240/8 725/225/8
f 313/281/57 314/285/57 684/285/57
f 121/37/58 122/27/58 492/27/58
f 186/180/59 556/180/59 555/181/59
f 357/281/12 727/281/12 726/240/12
f 66/89/60 436/89/60 435/91/60
f 28/35/61 29/38/61 399/38/61
f 297/234/62 667/234/62 666/235/62
f 208/132/63 209/131/63 579/131/63
f 360/11/19 361/48/19 731/48/19
f 48/90/64 49/92/64 419/92/64
f 298/236/65 668/236/65 667/234/65
f 185/181/66 555/181/66 554/182/66
f 329/282/67 699/282/67 698/286/67
f 208/132/68 578/132/68 577/133/68
f 49/92/69 50/93/69 420/93/69
f 314/285/70 315/287/70 685/287/70
f 119/40/71 489/40/71 488/39/71
f 298/236/72 299/237/72 669/237/72
f 184/182/73 554/182/73 553/183/73
f 147/184/8 517/184/8 516/176/8
f 207/133/74 577/133/74 576/134/74
f 359/3/9 360/11/9 730/11/9
f 120/36/75 490/36/75 489/40/75
f 370/4/8 740/4/8 739/40/8
f 92/88/76 462/88/76 461/94/76
f 328/286/77 698/286/77 697/288/77
f 29/38/78 30/41/78 400/41/78
f 296/235/79 666/235/79 665/238/79
f 148/185/80 518/185/80 517/184/80
f 206/134/81 576/134/81 575/135/81
f 359/3/12 729/3/12 740/4/12
f 299/237/82 300/239/82 670/239/82
f 65/91/83 435/91/83 434/95/83
f 257/283/84 627/283/84 626/289/84
f 205/135/85 575/135/85 574/136/85
f 369/40/12 739/40/12 738/53/12
f 50/93/86 51/96/86 421/96/86
f 241/284/87 242/290/87 612/290/87
f 118/39/88 488/39/88 487/42/88
f 183/183/89 553/183/89 552/186/89
f 295/238/90 665/238/90 664/240/90
f 145/187/8 515/187/8 514/129/8
f 204/136/91 574/136/91 573/137/91
f 315/287/92 316/291/92 686/291/92
f 117/42/93 487/42/93 486/43/93
f 146/176/12 516/176/12 515/187/12
f 64/95/94 434/95/94 433/97/94
f 267/232/95 637/232/95 636/241/95
f 148/185/96 149/188/96 519/188/96
f 203/137/97 573/137/97 572/138/97
f 367/71/9 368/53/9 738/53/9
f 51/96/98 52/98/98 422/98/98
f 116/43/99 486/43/99 485/44/99
f 279/233/100 280/242/100 650/242/100
f 211/139/8 581/139/8 580/130/8
f 366/116/8 736/116/8 735/118/8
f 327/288/101 697/288/101 696/292/101
f 149/188/102 150/189/102 520/189/102
f 367/71/12 737/71/12 736/116/12
f 316/291/103 317/293/103 687/293/103
f 115/44/104 485/44/104 484/45/104
f 300/239/105 301/243/105 671/243/105
f 63/97/106 433/97/106 432/99/106
f 150/189/107 151/190/107 521/190/107
f 202/138/108 572/138/108 571/140/108
f 365/118/12 735/118/12 734/95/12
f 114/45/109 484/45/109 483/46/109
f 91/94/110 461/94/110 460/100/110
f 326/292/111 696/292/111 695/294/111
f 294/240/112 664/240/112 663/244/112
f 210/130/12 580/130/12 606/4/12
f 363/101/9 364/95/9 734/95/9
f 52/98/113 53/101/113 423/101/113
f 113/46/114 483/46/114 482/47/114
f 301/243/115 302/245/115 672/245/115
f 182/186/116 552/186/116 551/191/116
f 212/141/117 582/141/117 581/139/117
f 362/75/8 732/75/8 731/48/8
f 256/289/118 626/289/118 625/295/118
f 30/41/119 31/48/119 401/48/119
f 151/190/315 152/192/315 522/192/315
f 363/101/12 733/101/12 732/75/12
f 242/290/121 243/296/121 613/296/121
f 212/141/122 213/142/122 583/142/122
f 62/99/123 432/99/123 431/102/123
f 293/244/124 663/244/124 662/246/124
f 152/192/125 153/193/125 523/193/125
f 53/101/126 54/103/126 424/103/126
f 317/293/127 318/297/127 688/297/127
f 112/47/128 482/47/128 481/49/128
f 213/142/129 214/143/129 584/143/129
f 266/241/130 636/241/130 635/247/130
f 111/49/316 481/49/316 480/50/316
f 280/242/132 281/248/132 651/248/132
f 181/191/133 551/191/133 550/194/133
f 61/102/134 431/102/134 430/104/134
f 325/294/135 695/294/135 694/298/135
f 153/193/136 154/195/136 524/195/136
f 201/140/137 571/140/137 570/144/137
f 54/103/138 55/105/138 425/105/138
f 318/297/139 319/299/139 689/299/139
f 110/50/140 480/50/140 479/51/140
f 302/245/141 303/249/141 673/249/141
f 214/143/317 215/145/317 585/145/317
f 31/48/318 32/52/318 402/52/318
f 180/194/144 550/194/144 549/196/144
f 215/145/145 216/146/145 586/146/145
f 60/104/146 430/104/146 429/106/146
f 324/298/147 694/298/147 693/300/147
f 292/246/148 662/246/148 661/250/148
f 154/195/149 155/197/149 525/197/149
f 55/105/150 56/107/150 426/107/150
f 109/51/319 479/51/319 478/53/319
f 303/249/152 304/251/152 674/251/152
f 216/146/153 217/147/153 587/147/153
f 255/295/154 625/295/154 624/301/154
f 2/2/19 3/1/19 373/1/19
f 243/296/155 244/302/155 614/302/155
f 108/53/320 478/53/320 477/54/320
f 179/196/157 549/196/157 548/198/157
f 59/106/158 429/106/158 428/108/158
f 32/52/159 33/55/159 403/55/159
f 291/250/160 661/250/160 660/252/160
f 1/3/9 2/2/9 372/2/9
f 155/197/161 156/199/161 526/199/161
f 200/144/162 570/144/162 569/148/162
f 319/299/163 320/303/163 690/303/163
f 217/147/321 218/149/321 588/149/321
f 90/100/165 460/100/165 459/109/165
f 265/247/166 635/247/166 634/253/166
f 1/3/12 371/3/12 378/4/12
f 56/107/167 57/110/167 427/110/167
f 107/54/168 477/54/168 476/56/168
f 281/248/169 282/254/169 652/254/169
f 4/5/8 374/5/8 373/1/8
f 178/198/170 548/198/170 547/200/170
f 218/149/171 219/150/171 589/150/171
f 323/300/172 693/300/172 692/304/172
f 156/199/322 157/201/322 527/201/322
f 320/303/174 321/305/174 691/305/174
f 106/56/175 476/56/175 475/57/175
f 304/251/176 305/255/176 675/255/176
f 4/5/19 5/6/19 375/6/19
f 219/150/177 220/151/177 590/151/177
f 57/110/178 58/108/178 428/108/178
f 33/55/179 34/58/179 404/58/179
f 177/200/180 547/200/180 546/202/180
f 321/305/181 322/304/181 692/304/181
f 290/252/182 660/252/182 659/256/182
f 8/4/8 378/4/8 377/7/8
f 157/201/183 158/203/183 528/203/183
f 199/148/323 569/148/323 568/152/323
f 89/109/185 459/109/185 458/111/185
f 105/57/324 475/57/324 474/59/324
f 6/8/8 376/8/8 375/6/8
f 220/151/187 221/153/187 591/153/187
f 70/81/188 71/112/188 441/112/188
f 264/253/189 634/253/189 633/257/189
f 7/7/12 377/7/12 376/8/12
f 254/301/190 624/301/190 623/306/190
f 104/59/325 474/59/325 473/60/325
f 282/254/192 283/258/192 653/258/192
f 21/10/193 22/9/193 392/9/193
f 176/202/194 546/202/194 545/204/194
f 221/153/326 222/154/326 592/154/326
f 71/112/196 72/113/196 442/113/196
f 244/302/197 245/307/197 615/307/197
f 34/58/198 35/61/198 405/61/198
f 305/255/199 306/259/199 676/259/199
f 20/11/200 21/10/200 391/10/200
f 175/204/201 545/204/201 544/205/201
f 158/203/202 159/206/202 529/206/202
f 198/152/203 568/152/203 567/155/203
f 88/111/204 458/111/204 457/114/204
f 253/306/205 623/306/205 622/308/205
f 103/60/206 473/60/206 472/62/206
f 19/12/207 20/11/207 390/11/207
f 222/154/327 223/156/327 593/156/327
f 72/113/209 73/115/209 443/115/209
f 245/307/210 246/309/210 616/309/210
f 35/61/211 36/63/211 406/63/211
f 289/256/212 659/256/212 658/260/212
f 306/259/213 307/261/213 677/261/213
f 19/12/214 389/12/214 388/13/214
f 174/205/215 544/205/215 543/207/215
f 223/156/216 224/157/216 594/157/216
f 22/9/328 23/14/328 393/14/328
f 159/206/218 160/208/218 530/208/218
f 87/114/219 457/114/219 456/116/219
f 252/308/220 622/308/220 621/310/220
f 102/62/221 472/62/221 471/64/221
f 73/115/222 74/117/222 444/117/222
f 246/309/223 247/311/223 617/311/223
f 288/260/224 658/260/224 657/262/224
f 197/155/225 567/155/225 566/158/225
f 101/64/226 471/64/226 470/65/226
f 18/13/227 388/13/227 387/15/227
f 173/207/228 543/207/228 542/209/228
f 224/157/329 225/159/329 595/159/329
f 74/117/230 75/118/230 445/118/230
f 36/63/231 37/66/231 407/66/231
f 263/257/232 633/257/232 632/263/232
f 251/310/233 621/310/233 620/312/233
f 283/258/234 284/264/234 654/264/234
f 17/15/330 387/15/330 386/16/330
f 172/209/236 542/209/236 541/210/236
f 247/311/237 248/313/237 618/313/237
f 23/14/238 24/17/238 394/17/238
f 196/158/239 566/158/239 565/160/239
f 86/116/240 456/116/240 455/119/240
f 100/65/241 470/65/241 469/67/241
f 307/261/242 308/265/242 678/265/242
f 171/210/331 541/210/331 540/211/331
f 225/159/244 226/161/244 596/161/244
f 75/118/245 76/120/245 446/120/245
f 249/314/246 619/314/246 618/313/246
f 37/66/247 38/68/247 408/68/247
f 250/312/248 620/312/248 619/314/248
f 16/16/249 386/16/249 385/18/249
f 170/211/250 540/211/250 539/212/250
f 226/161/251 227/162/251 597/162/251
f 76/120/332 77/121/332 447/121/332
f 334/316/19 335/315/19 705/315/19
f 287/262/253 657/262/253 656/266/253
f 99/67/254 469/67/254 468/69/254
f 15/18/255 385/18/255 384/19/255
f 169/212/333 539/212/333 538/213/333
f 38/68/257 39/70/257 409/70/257
f 262/263/258 632/263/258 631/267/258
f 24/17/259 25/20/259 395/20/259
f 195/160/260 565/160/260 564/163/260
f 85/119/261 455/119/261 454/122/261
f 284/264/262 237/3/262 607/3/262
f 168/213/263 538/213/263 537/214/263
f 227/162/334 228/164/334 598/164/334
f 77/121/265 78/123/265 448/123/265
f 333/3/9 334/316/9 704/316/9
f 342/4/8 712/4/8 711/317/8
f 98/69/266 468/69/266 467/71/266
f 308/265/267 309/268/267 679/268/267
f 14/19/268 384/19/268 383/21/268
f 167/214/269 537/214/269 536/215/269
f 78/123/270 79/124/270 449/124/270
f 333/3/12 703/3/12 712/4/12
f 39/70/335 40/72/335 410/72/335
f 194/163/272 564/163/272 563/165/272
f 13/21/273 383/21/273 382/22/273
f 166/215/274 536/215/274 535/216/274
f 228/164/275 229/166/275 599/166/275
f 341/317/12 711/317/12 710/318/12
f 286/266/276 656/266/276 655/269/276
f 25/20/336 26/23/336 396/23/336
f 84/122/278 454/122/278 453/125/278
f 97/71/279 467/71/279 466/73/279
f 237/3/280 238/270/280 608/270/280
f 165/216/281 535/216/281 534/217/281
f 79/124/282 80/126/282 450/126/282
f 40/72/283 41/74/283 411/74/283
f 193/165/284 563/165/284 562/167/284
f 12/22/337 382/22/337 381/24/337
f 164/217/338 534/217/338 533/218/338
f 229/166/287 230/168/287 600/168/287
f 81/127/288 451/127/288 450/126/288
f 339/135/9 340/318/9 710/318/9
f 41/74/289 42/75/289 412/75/289
f 285/269/290 655/269/290 702/4/290
f 338/320/8 708/320/8 707/319/8
f 309/268/291 310/271/291 680/271/291
f 11/24/292 381/24/292 380/25/292
f 163/218/293 533/218/293 532/219/293
f 230/168/339 231/169/339 601/169/339
f 82/128/295 452/128/295 451/127/295
f 339/135/12 709/135/12 708/320/12
f 26/23/340 27/26/340 397/26/340
f 161/220/8 531/220/8 530/208/8
f 83/125/297 453/125/297 452/128/297
f 336/205/8 706/205/8 705/315/8
f 96/73/298 466/73/298 465/76/298
f 162/219/299 532/219/299 531/220/299
f 132/11/19 133/48/19 503/48/19
f 337/319/12 707/319/12 706/205/12
f 42/75/300 43/77/300 413/77/300
f 261/267/301 631/267/301 630/272/301
f 273/222/302 274/221/302 644/221/302
f 192/167/303 562/167/303 561/170/303
f 344/316/19 345/315/19 715/315/19
f 10/25/304 380/25/304 379/3/304
f 231/169/305 232/171/305 602/171/305
f 43/77/306 44/78/306 414/78/306
f 332/4/307 702/4/307 701/273/307
f 272/223/308 273/222/308 643/222/308
f 310/271/309 311/274/309 681/274/309
f 232/171/310 233/172/310 603/172/310
f 131/3/9 132/11/9 502/11/9
f 122/27/311 123/28/311 493/28/311
