# Blender 4.4.1
# www.blender.org
mtllib GameOver.mtl
o テキスト
v -10.438727 2.075659 0.000002
v -10.438727 -1.216107 0.000002
v -10.911736 -1.216107 0.000002
v -10.911736 0.212577 0.000002
v -11.109628 0.212577 0.000002
v -11.169217 0.210666 0.000002
v -11.227967 0.203728 0.000002
v -11.286855 0.189952 0.000002
v -11.346847 0.167529 0.000002
v -11.408916 0.134647 0.000002
v -11.474038 0.089498 0.000002
v -11.543180 0.030271 0.000002
v -11.617316 -0.044844 0.000002
v -11.697417 -0.137656 0.000002
v -11.784459 -0.249976 0.000002
v -11.879411 -0.383613 0.000002
v -11.983249 -0.540378 0.000002
v -12.417645 -1.216107 0.000002
v -12.982364 -1.216107 0.000002
v -12.928550 -1.141713 0.000002
v -12.880065 -1.074660 0.000002
v -12.836207 -1.013841 0.000002
v -12.796271 -0.958150 0.000002
v -12.759553 -0.906482 0.000002
v -12.725348 -0.857730 0.000002
v -12.692952 -0.810787 0.000002
v -12.661662 -0.764549 0.000002
v -12.630776 -0.717908 0.000002
v -12.599589 -0.669759 0.000002
v -12.567395 -0.618995 0.000002
v -12.533486 -0.564511 0.000002
v -12.472043 -0.464158 0.000002
v -12.412776 -0.368228 0.000002
v -12.355052 -0.276723 0.000002
v -12.298232 -0.189643 0.000002
v -12.241681 -0.106986 0.000002
v -12.184762 -0.028755 0.000002
v -12.126838 0.045053 0.000002
v -12.067269 0.114436 0.000002
v -12.005424 0.179394 0.000002
v -11.940661 0.239928 0.000002
v -11.872346 0.296038 0.000002
v -11.799838 0.347723 0.000002
v -11.884681 0.385705 0.000002
v -11.962937 0.429552 0.000002
v -12.034457 0.479098 0.000002
v -12.099088 0.534174 0.000002
v -12.156682 0.594613 0.000002
v -12.207086 0.660248 0.000002
v -12.250146 0.730910 0.000002
v -12.285718 0.806432 0.000002
v -12.313647 0.886647 0.000002
v -12.333783 0.971387 0.000002
v -12.345975 1.060484 0.000002
v -12.350074 1.153771 0.000002
v -12.341521 1.291554 0.000002
v -12.316243 1.419817 0.000002
v -12.274810 1.538092 0.000002
v -12.217790 1.645909 0.000002
v -12.145755 1.742800 0.000002
v -12.059272 1.828294 0.000002
v -11.958913 1.901922 0.000002
v -11.845246 1.963216 0.000002
v -11.718843 2.011706 0.000002
v -11.580274 2.046922 0.000002
v -11.430106 2.068397 0.000002
v -11.268907 2.075659 0.000002
v -10.911736 1.670221 0.000002
v -11.215814 1.670221 0.000002
v -11.324769 1.666339 0.000002
v -11.422599 1.654847 0.000002
v -11.509635 1.635982 0.000002
v -11.586213 1.609978 0.000002
v -11.652669 1.577068 0.000002
v -11.709338 1.537489 0.000002
v -11.756553 1.491473 0.000002
v -11.794652 1.439258 0.000002
v -11.823970 1.381075 0.000002
v -11.844840 1.317161 0.000002
v -11.857600 1.247751 0.000002
v -11.862584 1.173078 0.000002
v -11.860549 1.104742 0.000002
v -11.851544 1.037865 0.000002
v -11.834830 0.973300 0.000002
v -11.809670 0.911903 0.000002
v -11.775325 0.854528 0.000002
v -11.731057 0.802030 0.000002
v -11.676131 0.755263 0.000002
v -11.609811 0.715083 0.000002
v -11.531356 0.682344 0.000002
v -11.440030 0.657901 0.000002
v -11.335095 0.642608 0.000002
v -11.215814 0.637321 0.000002
v -10.911736 0.637321 0.000002
v -9.883662 2.075659 0.000002
v -8.015754 2.075659 0.000002
v -8.015754 -1.216107 0.000002
v -9.927104 -1.216107 0.000002
v -9.927104 -0.791363 0.000002
v -8.488765 -0.791363 0.000002
v -8.488765 0.231884 0.000002
v -9.835397 0.231884 0.000002
v -9.835397 0.656628 0.000002
v -8.488765 0.656628 0.000002
v -8.488765 1.650915 0.000002
v -9.883662 1.650915 0.000002
v -7.653756 2.075659 0.000002
v -7.185575 2.075659 0.000002
v -6.200942 -0.236300 0.000002
v -5.211480 2.075659 0.000001
v -4.738469 2.075659 0.000001
v -6.162326 -1.245067 0.000002
v -6.258859 -1.245067 0.000002
v -0.983348 0.429776 0.000001
v -0.997361 0.208960 0.000001
v -1.038743 -0.005404 0.000001
v -1.106503 -0.210885 0.000001
v -1.199654 -0.405054 0.000001
v -1.317204 -0.585480 0.000001
v -1.458168 -0.749734 0.000001
v -1.621555 -0.895385 0.000001
v -1.806377 -1.020003 0.000001
v -2.011646 -1.121158 0.000001
v -2.236373 -1.196421 0.000001
v -2.479568 -1.243360 0.000001
v -2.740243 -1.259547 0.000001
v -3.009503 -1.243268 0.000001
v -3.259307 -1.196086 0.000001
v -3.488900 -1.120480 0.000001
v -3.697526 -1.018930 0.000001
v -3.884433 -0.893918 0.000002
v -4.048865 -0.747924 0.000002
v -4.190070 -0.583427 0.000002
v -4.307292 -0.402909 0.000002
v -4.399777 -0.208849 0.000002
v -4.466771 -0.003728 0.000002
v -4.507522 0.209974 0.000002
v -4.521272 0.429776 0.000002
v -4.507157 0.655661 0.000001
v -4.465474 0.873335 0.000001
v -4.397212 1.080617 0.000001
v -4.303359 1.275331 0.000001
v -4.184901 1.455296 0.000001
v -4.042830 1.618335 0.000001
v -3.878135 1.762268 0.000001
v -3.691804 1.884917 0.000001
v -3.484826 1.984103 0.000001
v -3.258189 2.057648 0.000001
v -3.012883 2.103373 0.000001
v -2.749896 2.119098 0.000001
v -2.491059 2.103281 0.000001
v -2.248663 2.057313 0.000001
v -2.023865 1.983425 0.000001
v -1.817819 1.883844 0.000001
v -1.631683 1.760801 0.000001
v -1.466614 1.616525 0.000001
v -1.323768 1.453243 0.000001
v -1.204300 1.273186 0.000001
v -1.109368 1.078581 0.000001
v -1.040129 0.871658 0.000001
v -0.997735 0.654647 0.000001
v -1.470837 0.429776 0.000001
v -1.481993 0.606557 0.000001
v -1.514633 0.774120 0.000001
v -1.567520 0.931293 0.000001
v -1.639412 1.076902 0.000001
v -1.729068 1.209774 0.000001
v -1.835248 1.328736 0.000001
v -1.956713 1.432615 0.000001
v -2.092222 1.520238 0.000001
v -2.240535 1.590430 0.000001
v -2.400412 1.642021 0.000001
v -2.570613 1.673835 0.000001
v -2.749896 1.684701 0.000001
v -2.930289 1.673835 0.000001
v -3.101415 1.642021 0.000001
v -3.262048 1.590431 0.000001
v -3.410966 1.520238 0.000001
v -3.546947 1.432616 0.000001
v -3.668765 1.328737 0.000001
v -3.775201 1.209775 0.000001
v -3.865027 1.076903 0.000001
v -3.937022 0.931293 0.000001
v -3.989961 0.774120 0.000001
v -4.022622 0.606557 0.000001
v -4.033782 0.429776 0.000001
v -4.022622 0.254009 0.000001
v -3.989961 0.087107 0.000001
v -3.937022 -0.069706 0.000001
v -3.865027 -0.215206 0.000001
v -3.775201 -0.348170 0.000001
v -3.668765 -0.467375 0.000001
v -3.546947 -0.571598 0.000001
v -3.410966 -0.659614 0.000001
v -3.262048 -0.730201 0.000001
v -3.101415 -0.782134 0.000001
v -2.930289 -0.814192 0.000001
v -2.749896 -0.825150 0.000001
v -2.570613 -0.814192 0.000001
v -2.400412 -0.782135 0.000001
v -2.240535 -0.730201 0.000001
v -2.092222 -0.659614 0.000001
v -1.956713 -0.571598 0.000001
v -1.835248 -0.467375 0.000001
v -1.729068 -0.348170 0.000001
v -1.639412 -0.215206 0.000001
v -1.567520 -0.069706 0.000001
v -1.514633 0.087107 0.000001
v -1.481993 0.254009 0.000001
v 0.759069 2.075659 0.000001
v 2.626977 2.075659 0.000001
v 2.626977 -1.216107 0.000001
v 0.715630 -1.216107 0.000001
v 0.715630 -0.791363 0.000001
v 2.153966 -0.791363 0.000001
v 2.153966 0.231884 0.000001
v 0.807335 0.231884 0.000001
v 0.807335 0.656628 0.000001
v 2.153966 0.656628 0.000001
v 2.153966 1.650915 0.000001
v 0.759069 1.650915 0.000001
v 3.336493 2.075659 0.000001
v 3.775717 2.075659 0.000001
v 4.871364 0.724200 0.000001
v 5.962183 2.075659 0.000001
v 6.406234 2.075659 0.000000
v 6.406234 -1.216107 0.000001
v 5.933223 -1.216107 0.000001
v 5.933223 1.346836 0.000001
v 5.923570 1.346836 0.000001
v 4.909976 0.072605 0.000001
v 4.832750 0.072605 0.000001
v 3.819157 1.346836 0.000001
v 3.809504 1.346836 0.000001
v 3.809504 -1.216107 0.000001
v 3.336493 -1.216107 0.000001
v 8.230702 2.094965 0.000000
v 8.563740 2.094965 0.000000
v 9.977944 -1.216107 0.000000
v 9.495281 -1.216107 0.000000
v 9.080191 -0.245953 0.000000
v 7.680465 -0.245953 0.000000
v 7.241242 -1.216107 0.000001
v 6.758578 -1.216107 0.000001
v 8.404461 1.370970 0.000000
v 7.873531 0.178791 0.000000
v 8.896778 0.178791 0.000000
v 10.301329 0.405643 0.000000
v 11.406629 0.405643 0.000000
v 11.406629 -0.019102 0.000000
v 10.774340 -0.019102 0.000000
v 10.774340 -0.694831 0.000000
v 10.831163 -0.712604 0.000000
v 10.888257 -0.729623 0.000000
v 10.945684 -0.745736 0.000000
v 11.003515 -0.760795 0.000000
v 11.061815 -0.774646 0.000000
v 11.120650 -0.787140 0.000000
v 11.180090 -0.798126 0.000000
v 11.240199 -0.807452 0.000000
v 11.301046 -0.814968 0.000000
v 11.362698 -0.820524 0.000000
v 11.425220 -0.823968 0.000000
v 11.488682 -0.825150 0.000000
v 11.679150 -0.814564 0.000000
v 11.858858 -0.783498 0.000000
v 12.026701 -0.732991 0.000000
v 12.181572 -0.664083 0.000000
v 12.322366 -0.577813 0.000000
v 12.447975 -0.475219 0.000000
v 12.557296 -0.357340 0.000000
v 12.649220 -0.225217 0.000000
v 12.722641 -0.079887 0.000000
v 12.776455 0.077610 0.000000
v 12.809554 0.246235 0.000000
v 12.820833 0.424949 -0.000000
v 12.809498 0.599797 -0.000000
v 12.776410 0.766299 -0.000000
v 12.722942 0.923149 -0.000000
v 12.650471 1.069037 -0.000000
v 12.560368 1.202658 -0.000000
v 12.454008 1.322703 -0.000000
v 12.332767 1.427867 -0.000000
v 12.198018 1.516842 -0.000000
v 12.051135 1.588319 0.000000
v 11.893494 1.640993 0.000000
v 11.726466 1.673556 0.000000
v 11.551428 1.684701 0.000000
v 11.452393 1.682394 0.000000
v 11.353223 1.675495 0.000000
v 11.253986 1.664037 0.000000
v 11.154750 1.648054 0.000000
v 11.055580 1.627580 0.000000
v 10.956545 1.602648 0.000000
v 10.857710 1.573292 0.000000
v 10.759144 1.539544 0.000000
v 10.660913 1.501440 0.000000
v 10.563085 1.459011 0.000000
v 10.465725 1.412292 0.000000
v 10.368902 1.361317 0.000000
v 10.368902 1.839153 0.000000
v 10.493095 1.890288 0.000000
v 10.608290 1.935306 0.000000
v 10.715740 1.974526 0.000000
v 10.816707 2.008265 0.000000
v 10.912443 2.036842 0.000000
v 11.004208 2.060575 0.000000
v 11.093258 2.079784 0.000000
v 11.180849 2.094787 0.000000
v 11.268240 2.105901 0.000000
v 11.356686 2.113445 0.000000
v 11.447445 2.117738 0.000000
v 11.541775 2.119098 0.000000
v 11.787430 2.104007 0.000000
v 12.021220 2.059905 -0.000000
v 12.241335 1.988553 -0.000000
v 12.445964 1.891710 -0.000000
v 12.633298 1.771136 -0.000000
v 12.801526 1.628592 -0.000000
v 12.948839 1.465835 -0.000000
v 13.073427 1.284627 -0.000000
v 13.173479 1.086726 -0.000000
v 13.247186 0.873893 -0.000000
v 13.292737 0.647888 -0.000000
v 13.308323 0.410469 -0.000000
v 13.293115 0.174824 -0.000000
v 13.248593 -0.048419 -0.000000
v 13.176420 -0.257718 -0.000000
v 13.078254 -0.451532 0.000000
v 12.955752 -0.628319 0.000000
v 12.810576 -0.786536 0.000000
v 12.644384 -0.924643 0.000000
v 12.458836 -1.041097 0.000000
v 12.255589 -1.134356 0.000000
v 12.036304 -1.202878 0.000000
v 11.802639 -1.245123 0.000000
v 11.556254 -1.259547 0.000000
v 11.443627 -1.257916 0.000000
v 11.334586 -1.252933 0.000000
v 11.228496 -1.244464 0.000000
v 11.124718 -1.232375 0.000000
v 11.022615 -1.216532 0.000000
v 10.921552 -1.196801 0.000000
v 10.820890 -1.173047 0.000000
v 10.719995 -1.145138 0.000000
v 10.618228 -1.112938 0.000000
v 10.514953 -1.076313 0.000000
v 10.409532 -1.035131 0.000000
v 10.301329 -0.989255 0.000000
v -10.438727 2.075659 -0.445735
v -10.438727 -1.216107 -0.445735
v -10.911736 -1.216107 -0.445735
v -10.911736 0.212577 -0.445735
v -11.109628 0.212577 -0.445735
v -11.169217 0.210666 -0.445735
v -11.227967 0.203728 -0.445735
v -11.286855 0.189952 -0.445735
v -11.346847 0.167528 -0.445735
v -11.408916 0.134647 -0.445735
v -11.474038 0.089498 -0.445735
v -11.543180 0.030271 -0.445735
v -11.617316 -0.044844 -0.445735
v -11.697417 -0.137656 -0.445735
v -11.784459 -0.249976 -0.445735
v -11.879411 -0.383613 -0.445735
v -11.983249 -0.540378 -0.445735
v -12.417645 -1.216107 -0.445735
v -12.982364 -1.216107 -0.445735
v -12.928550 -1.141713 -0.445735
v -12.880065 -1.074660 -0.445735
v -12.836207 -1.013841 -0.445735
v -12.796271 -0.958150 -0.445735
v -12.759553 -0.906482 -0.445735
v -12.725348 -0.857730 -0.445735
v -12.692952 -0.810787 -0.445735
v -12.661662 -0.764549 -0.445735
v -12.630776 -0.717908 -0.445735
v -12.599589 -0.669759 -0.445735
v -12.567395 -0.618995 -0.445735
v -12.533486 -0.564511 -0.445735
v -12.472043 -0.464158 -0.445735
v -12.412776 -0.368228 -0.445735
v -12.355052 -0.276723 -0.445735
v -12.298232 -0.189643 -0.445735
v -12.241681 -0.106986 -0.445735
v -12.184762 -0.028755 -0.445735
v -12.126838 0.045053 -0.445735
v -12.067269 0.114436 -0.445735
v -12.005424 0.179394 -0.445735
v -11.940661 0.239928 -0.445735
v -11.872346 0.296038 -0.445735
v -11.799838 0.347723 -0.445735
v -11.884681 0.385705 -0.445735
v -11.962937 0.429552 -0.445735
v -12.034457 0.479098 -0.445735
v -12.099088 0.534174 -0.445735
v -12.156682 0.594613 -0.445735
v -12.207086 0.660248 -0.445735
v -12.250146 0.730910 -0.445735
v -12.285718 0.806432 -0.445735
v -12.313647 0.886647 -0.445735
v -12.333783 0.971387 -0.445735
v -12.345975 1.060484 -0.445735
v -12.350074 1.153771 -0.445735
v -12.341521 1.291554 -0.445735
v -12.316243 1.419817 -0.445735
v -12.274810 1.538092 -0.445735
v -12.217790 1.645909 -0.445735
v -12.145755 1.742800 -0.445735
v -12.059272 1.828294 -0.445735
v -11.958913 1.901922 -0.445735
v -11.845246 1.963216 -0.445735
v -11.718843 2.011706 -0.445735
v -11.580274 2.046922 -0.445735
v -11.430106 2.068397 -0.445735
v -11.268907 2.075659 -0.445735
v -10.911736 1.670221 -0.445735
v -11.215814 1.670221 -0.445735
v -11.324769 1.666339 -0.445735
v -11.422599 1.654847 -0.445735
v -11.509635 1.635982 -0.445735
v -11.586213 1.609978 -0.445735
v -11.652669 1.577068 -0.445735
v -11.709338 1.537489 -0.445735
v -11.756553 1.491473 -0.445735
v -11.794652 1.439258 -0.445735
v -11.823970 1.381075 -0.445735
v -11.844840 1.317161 -0.445735
v -11.857600 1.247751 -0.445735
v -11.862584 1.173078 -0.445735
v -11.860549 1.104742 -0.445735
v -11.851544 1.037865 -0.445735
v -11.834830 0.973300 -0.445735
v -11.809670 0.911903 -0.445735
v -11.775325 0.854528 -0.445735
v -11.731057 0.802030 -0.445735
v -11.676131 0.755263 -0.445735
v -11.609811 0.715083 -0.445735
v -11.531356 0.682344 -0.445735
v -11.440030 0.657901 -0.445735
v -11.335095 0.642608 -0.445735
v -11.215814 0.637321 -0.445735
v -10.911736 0.637321 -0.445735
v -9.883662 2.075659 -0.445735
v -8.015754 2.075659 -0.445735
v -8.015754 -1.216107 -0.445735
v -9.927104 -1.216107 -0.445735
v -9.927104 -0.791363 -0.445735
v -8.488765 -0.791363 -0.445735
v -8.488765 0.231884 -0.445735
v -9.835397 0.231884 -0.445735
v -9.835397 0.656628 -0.445735
v -8.488765 0.656628 -0.445735
v -8.488765 1.650915 -0.445735
v -9.883662 1.650915 -0.445735
v -7.653756 2.075659 -0.445735
v -7.185575 2.075659 -0.445735
v -6.200942 -0.236300 -0.445735
v -5.211480 2.075659 -0.445735
v -4.738469 2.075659 -0.445735
v -6.162326 -1.245067 -0.445735
v -6.258859 -1.245067 -0.445735
v -0.983348 0.429776 -0.445736
v -0.997361 0.208960 -0.445736
v -1.038743 -0.005404 -0.445736
v -1.106503 -0.210885 -0.445736
v -1.199654 -0.405054 -0.445736
v -1.317204 -0.585480 -0.445736
v -1.458168 -0.749734 -0.445736
v -1.621555 -0.895385 -0.445736
v -1.806377 -1.020003 -0.445735
v -2.011646 -1.121158 -0.445735
v -2.236373 -1.196421 -0.445735
v -2.479568 -1.243360 -0.445735
v -2.740243 -1.259547 -0.445735
v -3.009503 -1.243268 -0.445735
v -3.259307 -1.196086 -0.445735
v -3.488900 -1.120480 -0.445735
v -3.697526 -1.018930 -0.445735
v -3.884433 -0.893918 -0.445735
v -4.048865 -0.747924 -0.445735
v -4.190070 -0.583427 -0.445735
v -4.307292 -0.402909 -0.445735
v -4.399777 -0.208849 -0.445735
v -4.466771 -0.003728 -0.445735
v -4.507522 0.209974 -0.445735
v -4.521272 0.429776 -0.445735
v -4.507157 0.655661 -0.445735
v -4.465474 0.873335 -0.445735
v -4.397212 1.080617 -0.445735
v -4.303359 1.275331 -0.445735
v -4.184901 1.455296 -0.445735
v -4.042830 1.618335 -0.445735
v -3.878135 1.762268 -0.445735
v -3.691804 1.884917 -0.445735
v -3.484826 1.984103 -0.445735
v -3.258189 2.057648 -0.445735
v -3.012883 2.103373 -0.445736
v -2.749896 2.119098 -0.445736
v -2.491059 2.103281 -0.445736
v -2.248663 2.057313 -0.445736
v -2.023865 1.983425 -0.445736
v -1.817819 1.883844 -0.445736
v -1.631683 1.760801 -0.445736
v -1.466614 1.616525 -0.445736
v -1.323768 1.453243 -0.445736
v -1.204300 1.273186 -0.445736
v -1.109368 1.078581 -0.445736
v -1.040129 0.871658 -0.445736
v -0.997735 0.654647 -0.445736
v -1.470837 0.429776 -0.445736
v -1.481993 0.606557 -0.445736
v -1.514633 0.774120 -0.445736
v -1.567520 0.931293 -0.445736
v -1.639412 1.076902 -0.445736
v -1.729068 1.209774 -0.445736
v -1.835248 1.328736 -0.445736
v -1.956713 1.432615 -0.445736
v -2.092222 1.520238 -0.445736
v -2.240535 1.590430 -0.445736
v -2.400412 1.642021 -0.445736
v -2.570613 1.673835 -0.445736
v -2.749896 1.684701 -0.445736
v -2.930289 1.673835 -0.445736
v -3.101415 1.642021 -0.445735
v -3.262048 1.590431 -0.445735
v -3.410966 1.520238 -0.445735
v -3.546947 1.432616 -0.445735
v -3.668765 1.328737 -0.445735
v -3.775201 1.209775 -0.445735
v -3.865027 1.076903 -0.445735
v -3.937022 0.931293 -0.445735
v -3.989961 0.774120 -0.445735
v -4.022622 0.606557 -0.445735
v -4.033782 0.429776 -0.445735
v -4.022622 0.254009 -0.445735
v -3.989961 0.087107 -0.445735
v -3.937022 -0.069706 -0.445735
v -3.865027 -0.215206 -0.445735
v -3.775201 -0.348170 -0.445735
v -3.668765 -0.467375 -0.445735
v -3.546947 -0.571598 -0.445735
v -3.410966 -0.659614 -0.445735
v -3.262048 -0.730201 -0.445735
v -3.101415 -0.782134 -0.445735
v -2.930289 -0.814192 -0.445735
v -2.749896 -0.825150 -0.445735
v -2.570613 -0.814192 -0.445735
v -2.400412 -0.782135 -0.445735
v -2.240535 -0.730201 -0.445735
v -2.092222 -0.659614 -0.445735
v -1.956713 -0.571598 -0.445735
v -1.835248 -0.467375 -0.445736
v -1.729068 -0.348170 -0.445736
v -1.639412 -0.215206 -0.445736
v -1.567520 -0.069706 -0.445736
v -1.514633 0.087107 -0.445736
v -1.481993 0.254009 -0.445736
v 0.759069 2.075659 -0.445736
v 2.626977 2.075659 -0.445736
v 2.626977 -1.216107 -0.445736
v 0.715630 -1.216107 -0.445736
v 0.715630 -0.791363 -0.445736
v 2.153966 -0.791363 -0.445736
v 2.153966 0.231884 -0.445736
v 0.807335 0.231884 -0.445736
v 0.807335 0.656628 -0.445736
v 2.153966 0.656628 -0.445736
v 2.153966 1.650915 -0.445736
v 0.759069 1.650915 -0.445736
v 3.336493 2.075659 -0.445736
v 3.775717 2.075659 -0.445736
v 4.871364 0.724200 -0.445736
v 5.962183 2.075659 -0.445736
v 6.406234 2.075659 -0.445736
v 6.406234 -1.216107 -0.445736
v 5.933223 -1.216107 -0.445736
v 5.933223 1.346836 -0.445736
v 5.923570 1.346836 -0.445736
v 4.909976 0.072605 -0.445736
v 4.832750 0.072605 -0.445736
v 3.819157 1.346836 -0.445736
v 3.809504 1.346836 -0.445736
v 3.809504 -1.216107 -0.445736
v 3.336493 -1.216107 -0.445736
v 8.230702 2.094965 -0.445736
v 8.563740 2.094965 -0.445737
v 9.977944 -1.216107 -0.445737
v 9.495281 -1.216107 -0.445736
v 9.080191 -0.245953 -0.445736
v 7.680465 -0.245953 -0.445736
v 7.241242 -1.216107 -0.445736
v 6.758578 -1.216107 -0.445736
v 8.404461 1.370970 -0.445736
v 7.873531 0.178791 -0.445736
v 8.896778 0.178791 -0.445736
v 10.301329 0.405642 -0.445737
v 11.406629 0.405642 -0.445737
v 11.406629 -0.019102 -0.445737
v 10.774340 -0.019102 -0.445737
v 10.774340 -0.694831 -0.445737
v 10.831163 -0.712604 -0.445737
v 10.888257 -0.729623 -0.445737
v 10.945684 -0.745736 -0.445737
v 11.003515 -0.760795 -0.445737
v 11.061815 -0.774646 -0.445737
v 11.120650 -0.787140 -0.445737
v 11.180090 -0.798126 -0.445737
v 11.240199 -0.807452 -0.445737
v 11.301046 -0.814968 -0.445737
v 11.362698 -0.820524 -0.445737
v 11.425220 -0.823968 -0.445737
v 11.488682 -0.825150 -0.445737
v 11.679150 -0.814564 -0.445737
v 11.858858 -0.783498 -0.445737
v 12.026701 -0.732991 -0.445737
v 12.181572 -0.664083 -0.445737
v 12.322366 -0.577813 -0.445737
v 12.447975 -0.475219 -0.445737
v 12.557296 -0.357340 -0.445737
v 12.649220 -0.225217 -0.445737
v 12.722641 -0.079887 -0.445737
v 12.776455 0.077610 -0.445737
v 12.809554 0.246235 -0.445737
v 12.820833 0.424949 -0.445737
v 12.809498 0.599797 -0.445737
v 12.776410 0.766299 -0.445737
v 12.722942 0.923149 -0.445737
v 12.650471 1.069037 -0.445737
v 12.560368 1.202658 -0.445737
v 12.454008 1.322703 -0.445737
v 12.332767 1.427867 -0.445737
v 12.198018 1.516842 -0.445737
v 12.051135 1.588319 -0.445737
v 11.893494 1.640993 -0.445737
v 11.726466 1.673556 -0.445737
v 11.551428 1.684701 -0.445737
v 11.452393 1.682394 -0.445737
v 11.353223 1.675495 -0.445737
v 11.253986 1.664037 -0.445737
v 11.154750 1.648054 -0.445737
v 11.055580 1.627580 -0.445737
v 10.956545 1.602648 -0.445737
v 10.857710 1.573292 -0.445737
v 10.759144 1.539544 -0.445737
v 10.660913 1.501440 -0.445737
v 10.563085 1.459011 -0.445737
v 10.465725 1.412292 -0.445737
v 10.368902 1.361317 -0.445737
v 10.368902 1.839153 -0.445737
v 10.493095 1.890288 -0.445737
v 10.608290 1.935306 -0.445737
v 10.715740 1.974526 -0.445737
v 10.816707 2.008265 -0.445737
v 10.912443 2.036842 -0.445737
v 11.004208 2.060575 -0.445737
v 11.093258 2.079784 -0.445737
v 11.180849 2.094787 -0.445737
v 11.268240 2.105901 -0.445737
v 11.356686 2.113445 -0.445737
v 11.447445 2.117738 -0.445737
v 11.541775 2.119098 -0.445737
v 11.787430 2.104007 -0.445737
v 12.021220 2.059905 -0.445737
v 12.241335 1.988553 -0.445737
v 12.445964 1.891710 -0.445737
v 12.633298 1.771136 -0.445737
v 12.801526 1.628592 -0.445737
v 12.948839 1.465835 -0.445737
v 13.073427 1.284627 -0.445737
v 13.173479 1.086726 -0.445737
v 13.247186 0.873893 -0.445737
v 13.292737 0.647888 -0.445737
v 13.308323 0.410469 -0.445737
v 13.293115 0.174824 -0.445737
v 13.248593 -0.048419 -0.445737
v 13.176420 -0.257718 -0.445737
v 13.078254 -0.451532 -0.445737
v 12.955752 -0.628319 -0.445737
v 12.810576 -0.786536 -0.445737
v 12.644384 -0.924643 -0.445737
v 12.458836 -1.041097 -0.445737
v 12.255589 -1.134356 -0.445737
v 12.036304 -1.202878 -0.445737
v 11.802639 -1.245123 -0.445737
v 11.556254 -1.259547 -0.445737
v 11.443627 -1.257916 -0.445737
v 11.334586 -1.252933 -0.445737
v 11.228496 -1.244464 -0.445737
v 11.124718 -1.232375 -0.445737
v 11.022615 -1.216532 -0.445737
v 10.921552 -1.196801 -0.445737
v 10.820890 -1.173047 -0.445737
v 10.719995 -1.145138 -0.445737
v 10.618228 -1.112938 -0.445737
v 10.514953 -1.076313 -0.445737
v 10.409532 -1.035131 -0.445737
v 10.301329 -0.989255 -0.445737
vn -0.0000 -0.0000 1.0000
vn -0.0000 -0.0000 -1.0000
vn -0.0000 -0.0002 -1.0000
vn 0.4326 -0.9016 -0.0000
vn -0.3582 0.9337 -0.0000
vn 0.1533 0.9882 -0.0000
vn -0.0000 1.0000 -0.0000
vn -0.9814 0.1919 -0.0000
vn -0.0597 0.9982 -0.0000
vn 0.4659 -0.8849 -0.0000
vn -0.4746 0.8802 -0.0000
vn -0.0000 -1.0000 -0.0000
vn 0.9814 0.1920 -0.0000
vn 0.1226 0.9925 -0.0000
vn -0.6829 0.7306 -0.0000
vn -1.0000 -0.0000 -0.0000
vn -0.1832 0.9831 -0.0000
vn 0.6465 0.7629 -0.0000
vn -0.5915 0.8063 -0.0000
vn 1.0000 -0.0000 -0.0000
vn 0.1863 0.9825 -0.0000
vn -0.9823 -0.1873 -0.0000
vn -0.0555 0.9985 -0.0000
vn 0.1173 -0.9931 -0.0000
vn -0.7030 0.7112 -0.0000
vn 0.9819 -0.1895 -0.0000
vn 0.0897 0.9960 -0.0000
vn 0.0233 -0.9997 -0.0000
vn -0.3087 0.9512 -0.0000
vn 0.2278 -0.9737 -0.0000
vn 0.3123 0.9500 -0.0000
vn 0.0550 0.9985 -0.0000
vn 0.0694 -0.9976 -0.0000
vn -0.9476 0.3196 -0.0000
vn 0.3501 -0.9367 -0.0000
vn -0.8025 0.5966 -0.0000
vn 0.9475 0.3199 -0.0000
vn 0.0186 0.9998 -0.0000
vn -0.0635 -0.9980 -0.0000
vn -0.4322 0.9018 -0.0000
vn -0.7782 0.6281 -0.0000
vn 0.4351 0.9004 -0.0000
vn -0.7242 0.6895 -0.0000
vn -0.1914 -0.9815 -0.0000
vn 0.0356 -0.9994 -0.0000
vn 0.7768 0.6298 -0.0000
vn -0.9506 -0.3105 -0.0000
vn 0.5316 -0.8470 -0.0000
vn 0.4681 -0.8837 -0.0000
vn 0.9497 -0.3132 -0.0000
vn -0.3169 -0.9485 -0.0000
vn 0.1167 -0.9932 -0.0000
vn -0.5498 0.8353 -0.0000
vn 0.5698 -0.8218 -0.0000
vn 0.7414 0.6711 -0.0000
vn 0.8963 0.4435 -0.0000
vn 0.5514 0.8342 -0.0000
vn -0.3903 -0.9207 -0.0000
vn 0.2118 -0.9773 -0.0000
vn -0.3639 -0.9314 -0.0000
vn -0.7587 0.6514 -0.0000
vn -0.4376 -0.8992 -0.0000
vn -0.8965 0.4430 -0.0000
vn -0.6581 0.7530 -0.0000
vn 0.4170 -0.9089 -0.0000
vn 0.6506 -0.7595 -0.0000
vn -0.8840 0.4675 -0.0000
vn 0.6581 0.7529 -0.0000
vn -0.5510 -0.8345 -0.0000
vn 0.3215 -0.9469 -0.0000
vn -0.9027 -0.4302 -0.0000
vn 0.8240 0.5666 -0.0000
vn 0.9016 -0.4325 -0.0000
vn -0.3342 -0.9425 -0.0000
vn -0.7867 0.6174 -0.0000
vn 0.4438 -0.8961 -0.0000
vn 0.7117 -0.7025 -0.0000
vn 0.7826 -0.6225 -0.0000
vn 0.8286 0.5598 -0.0000
vn -0.3017 -0.9534 -0.0000
vn -0.6552 -0.7554 -0.0000
vn 0.5726 -0.8198 -0.0000
vn -0.0605 -0.9982 -0.0000
vn 0.2983 -0.9545 -0.0000
vn 0.0601 -0.9982 -0.0000
vn -0.8086 0.5883 -0.0000
vn -0.7485 -0.6632 -0.0000
vn -0.7826 -0.6225 -0.0000
vn -0.8291 0.5591 -0.0000
vn 0.7570 -0.6534 -0.0000
vn 0.8924 0.4512 -0.0000
vn -0.9438 0.3306 -0.0000
vn 0.7459 0.6660 -0.0000
vn 0.1828 -0.9832 -0.0000
vn -0.2666 -0.9638 -0.0000
vn 0.6980 -0.7161 -0.0000
vn -0.2297 -0.9733 -0.0000
vn -0.8253 0.5647 -0.0000
vn -0.8291 -0.5591 -0.0000
vn 0.8078 -0.5894 -0.0000
vn 0.9196 0.3928 -0.0000
vn -0.7467 0.6651 -0.0000
vn -0.1837 -0.9830 -0.0000
vn 0.7904 -0.6125 -0.0000
vn 0.9449 0.3272 -0.0000
vn 0.3058 -0.9521 -0.0000
vn -0.1916 -0.9815 -0.0000
vn 0.8930 -0.4500 -0.0000
vn -0.8387 -0.5446 -0.0000
vn 0.1779 -0.9840 -0.0000
vn 0.8379 -0.5459 -0.0000
vn -0.8375 0.5465 -0.0000
vn -0.8956 -0.4449 -0.0000
vn -0.3071 -0.9517 -0.0000
vn 0.8152 -0.5792 -0.0000
vn -0.9811 0.1934 -0.0000
vn 0.6501 0.7599 -0.0000
vn -0.1533 -0.9882 -0.0000
vn -0.9465 -0.3227 -0.0000
vn 0.9506 -0.3104 -0.0000
vn -0.9138 0.4063 -0.0000
vn -0.7539 0.6570 -0.0000
vn 0.9803 0.1976 -0.0000
vn 0.7526 0.6584 -0.0000
vn -0.1157 -0.9933 -0.0000
vn -0.8458 0.5335 -0.0000
vn 0.9835 -0.1808 -0.0000
vn -0.9243 -0.3817 -0.0000
vn -0.6512 0.7589 -0.0000
vn 0.9135 -0.4068 -0.0000
vn 0.5434 0.8395 -0.0000
vn 0.4264 -0.9046 -0.0000
vn -0.0796 -0.9968 -0.0000
vn -0.8507 0.5256 -0.0000
vn -0.9808 -0.1949 -0.0000
vn 0.0584 -0.9983 -0.0000
vn 0.8337 -0.5522 -0.0000
vn 0.9979 0.0655 -0.0000
vn -0.9981 0.0620 -0.0000
vn 0.9978 -0.0666 -0.0000
vn -0.5447 0.8386 -0.0000
vn -0.4278 -0.9039 -0.0000
vn -0.0145 -0.9999 -0.0000
vn 0.5417 -0.8406 -0.0000
vn -0.0456 -0.9990 -0.0000
vn -0.8528 0.5222 -0.0000
vn -0.9979 -0.0647 -0.0000
vn 0.9996 0.0298 -0.0000
vn -0.7588 -0.6513 -0.0000
vn 0.8412 -0.5408 -0.0000
vn 0.7589 -0.6513 -0.0000
vn -0.9980 0.0630 -0.0000
vn -0.5430 -0.8397 -0.0000
vn 0.9979 -0.0644 -0.0000
vn -0.9990 -0.0439 -0.0000
vn 0.4283 0.9036 -0.0000
vn -0.8490 0.5284 -0.0000
vn 0.9911 0.1334 -0.0000
vn -0.8353 0.5498 -0.0000
vn -0.9194 -0.3934 -0.0000
vn 0.8333 0.5529 -0.0000
vn -0.8445 0.5356 -0.0000
vn 0.9110 -0.4124 -0.0000
vn -0.4297 0.9030 -0.0000
vn -0.9908 -0.1356 -0.0000
vn 0.3076 0.9515 -0.0000
vn 0.6489 -0.7609 -0.0000
vn -0.8393 0.5436 -0.0000
vn 0.9681 0.2506 -0.0000
vn 0.0613 0.9981 -0.0000
vn -0.8338 0.5521 -0.0000
vn 0.9253 0.3792 -0.0000
vn -0.0144 0.9999 -0.0000
vn -0.3089 0.9511 -0.0000
vn -0.6499 -0.7600 -0.0000
vn 0.7453 -0.6668 -0.0000
vn -0.8282 0.5604 -0.0000
vn -0.0472 0.9989 -0.0000
vn -0.6639 -0.7478 -0.0000
vn -0.9813 0.1926 -0.0000
vn -0.9729 -0.2312 -0.0000
vn 0.6654 -0.7465 -0.0000
vn -0.8230 0.5680 -0.0000
vn 0.9807 -0.1956 -0.0000
vn 0.8580 0.5136 -0.0000
vn -0.0850 0.9964 -0.0000
vn -0.7460 -0.6659 -0.0000
vn 0.1841 0.9829 -0.0000
vn -0.8186 0.5743 -0.0000
vn -0.1262 0.9920 -0.0000
vn -0.9008 0.4342 -0.0000
vn -0.9463 0.3233 -0.0000
vn -0.9444 -0.3288 -0.0000
vn 0.1854 0.9827 -0.0000
vn 0.8988 0.4384 -0.0000
vn -0.8151 0.5793 -0.0000
vn 0.7645 0.6446 -0.0000
vn -0.1851 0.9827 -0.0000
vn 0.0606 0.9982 -0.0000
vn 0.8284 -0.5601 -0.0000
vn -0.8126 0.5828 -0.0000
vn 0.9454 -0.3260 -0.0000
vn -0.1688 0.9856 -0.0000
vn -0.9047 -0.4261 -0.0000
vn -0.8111 0.5849 -0.0000
vn 0.6483 0.7614 -0.0000
vn -0.2109 0.9775 -0.0000
vn -0.0610 0.9981 -0.0000
vn -0.8289 -0.5593 -0.0000
vn -0.8926 0.4509 -0.0000
vn -0.8104 0.5859 -0.0000
vn 0.5182 0.8553 -0.0000
vn -0.2504 0.9681 -0.0000
vn -0.9498 0.3128 -0.0000
vn -0.8209 0.5711 -0.0000
vn 0.3084 0.9513 -0.0000
vn -0.5560 -0.8312 -0.0000
vn 0.9483 0.3173 -0.0000
vn -0.8102 0.5861 -0.0000
vn 0.8921 -0.4518 -0.0000
vn 0.5591 -0.8291 -0.0000
vn -0.8539 -0.5204 -0.0000
vn 0.8964 -0.4432 -0.0000
vn 0.3851 0.9229 -0.0000
vn -0.2860 0.9582 -0.0000
vn -0.7332 0.6800 -0.0000
vn -0.4377 -0.8991 -0.0000
vn 0.8220 -0.5696 -0.0000
vn 0.2585 0.9660 -0.0000
vn -0.3169 0.9484 -0.0000
vn 0.4420 -0.8970 -0.0000
vn -0.8967 -0.4427 -0.0000
vn 0.4278 0.9039 -0.0000
vn 0.9477 -0.3192 -0.0000
vn -0.6326 0.7745 -0.0000
vn -0.7931 -0.6091 -0.0000
vn -0.3128 -0.9498 -0.0000
vn 0.1442 0.9895 -0.0000
vn -0.3429 0.9394 -0.0000
vn 0.3176 -0.9482 -0.0000
vn -0.9478 -0.3189 -0.0000
vn -0.5225 0.8527 -0.0000
vn 0.7368 -0.6761 -0.0000
vn 0.0443 0.9990 -0.0000
vn -0.3640 0.9314 -0.0000
vn -0.9822 0.1881 -0.0000
vn 0.5412 0.8409 -0.0000
vn -0.1856 -0.9826 -0.0000
vn 0.9814 0.1917 -0.0000
vn 0.1895 -0.9819 -0.0000
vn -0.4065 0.9136 -0.0000
vn 0.9815 -0.1913 -0.0000
vn 0.2985 0.9544 -0.0000
vn -0.3807 0.9247 -0.0000
vn 0.0620 -0.9981 -0.0000
vn -0.0603 -0.9982 -0.0000
vn 0.2857 0.9583 -0.0000
vn -0.9816 -0.1912 -0.0000
vn 0.1147 -0.9934 -0.0000
vn 0.2702 0.9628 -0.0000
vn -0.7239 -0.6899 -0.0000
vn -0.9981 0.0624 -0.0000
vn 0.1590 -0.9873 -0.0000
vn 0.9980 0.0638 -0.0000
vn -0.6486 -0.7611 -0.0000
vn -0.2882 0.9576 -0.0000
vn 0.2022 -0.9793 -0.0000
vn 0.9980 -0.0630 -0.0000
vn 0.9191 -0.3941 -0.0000
vn 0.2520 0.9677 -0.0000
vn -0.5695 -0.8220 -0.0000
vn 0.2441 -0.9697 -0.0000
vn 0.2312 0.9729 -0.0000
vn -0.4888 -0.8724 -0.0000
vn -0.9980 -0.0630 -0.0000
vn 0.2847 -0.9586 -0.0000
vn 0.9980 -0.0633 -0.0000
vn -0.9193 0.3935 -0.0000
vn 0.2077 0.9782 -0.0000
vn -0.4086 -0.9127 -0.0000
vn 0.9200 0.3918 -0.0000
vn 0.3239 -0.9461 -0.0000
vn -0.0450 0.9990 -0.0000
vn -0.5804 0.8143 -0.0000
vn -0.9980 0.0633 -0.0000
vn -0.1703 0.9854 -0.0000
vn 0.3617 -0.9323 -0.0000
vn -0.1416 0.9899 -0.0000
vn 0.9980 0.0634 -0.0000
vn 0.6391 -0.7691 -0.0000
vn -0.6347 0.7728 -0.0000
vn -0.9220 -0.3873 -0.0000
vn 0.3979 -0.9174 -0.0000
vn -0.2463 0.9692 -0.0000
vn 0.1817 0.9833 -0.0000
vn -0.9980 -0.0624 -0.0000
vn 0.0610 0.9981 -0.0000
vn 0.0320 -0.9995 -0.0000
vn 0.0898 0.9960 -0.0000
vn -0.0457 -0.9990 -0.0000
vn -0.0473 0.9989 -0.0000
vt 0.010753 0.000000
vt 0.000000 0.000000
vt 0.720430 0.000000
vt 0.709677 0.000000
vt 0.698925 0.000000
vt 0.688172 0.000000
vt 0.677419 0.000000
vt 0.666667 0.000000
vt 0.655914 0.000000
vt 0.645161 0.000000
vt 0.634409 0.000000
vt 0.731183 0.000000
vt 0.623656 0.000000
vt 1.000000 0.000000
vt 0.741935 0.000000
vt 0.752688 0.000000
vt 0.763441 0.000000
vt 0.612903 0.000000
vt 0.774194 0.000000
vt 0.784946 0.000000
vt 0.795699 0.000000
vt 0.602151 0.000000
vt 0.806452 0.000000
vt 0.817204 0.000000
vt 0.827957 0.000000
vt 0.591398 0.000000
vt 0.838710 0.000000
vt 0.849462 0.000000
vt 0.580645 0.000000
vt 0.860215 0.000000
vt 0.870968 0.000000
vt 0.569892 0.000000
vt 0.881720 0.000000
vt 0.559140 0.000000
vt 0.892473 0.000000
vt 0.903226 0.000000
vt 0.548387 0.000000
vt 0.913979 0.000000
vt 0.537634 0.000000
vt 0.924731 0.000000
vt 0.526882 0.000000
vt 0.935484 0.000000
vt 0.946237 0.000000
vt 0.516129 0.000000
vt 0.956989 0.000000
vt 0.967742 0.000000
vt 0.505376 0.000000
vt 0.978495 0.000000
vt 0.989247 0.000000
vt 0.032258 0.000000
vt 0.494624 0.000000
vt 0.483871 0.000000
vt 0.473118 0.000000
vt 0.462366 0.000000
vt 0.451613 0.000000
vt 0.440860 0.000000
vt 0.430108 0.000000
vt 0.043011 0.000000
vt 0.053763 0.000000
vt 0.419355 0.000000
vt 0.021505 0.000000
vt 0.064516 0.000000
vt 0.075269 0.000000
vt 0.086022 0.000000
vt 0.408602 0.000000
vt 0.096774 0.000000
vt 0.107527 0.000000
vt 0.397849 0.000000
vt 0.118280 0.000000
vt 0.387097 0.000000
vt 0.129032 0.000000
vt 0.376344 0.000000
vt 0.139785 0.000000
vt 0.365591 0.000000
vt 0.150538 0.000000
vt 0.354839 0.000000
vt 0.161290 0.000000
vt 0.344086 0.000000
vt 0.333333 0.000000
vt 0.172043 0.000000
vt 0.322581 0.000000
vt 0.182796 0.000000
vt 0.311828 0.000000
vt 0.301075 0.000000
vt 0.290323 0.000000
vt 0.279570 0.000000
vt 0.268817 0.000000
vt 0.258065 0.000000
vt 0.247312 0.000000
vt 0.236559 0.000000
vt 0.225806 0.000000
vt 0.215054 0.000000
vt 0.204301 0.000000
vt 0.193548 0.000000
vt 0.181818 0.000000
vt 0.090909 0.000000
vt 0.909091 0.000000
vt 0.818182 0.000000
vt 0.545455 0.000000
vt 0.727273 0.000000
vt 0.636364 0.000000
vt 0.454545 0.000000
vt 0.363636 0.000000
vt 0.272727 0.000000
vt 0.833333 0.000000
vt 0.500000 0.000000
vt 0.166667 0.000000
vt 0.389474 0.000000
vt 0.378947 0.000000
vt 0.368421 0.000000
vt 0.357895 0.000000
vt 0.400000 0.000000
vt 0.347368 0.000000
vt 0.410526 0.000000
vt 0.336842 0.000000
vt 0.421053 0.000000
vt 0.326316 0.000000
vt 0.431579 0.000000
vt 0.315789 0.000000
vt 0.442105 0.000000
vt 0.631579 0.000000
vt 0.621053 0.000000
vt 0.642105 0.000000
vt 0.652632 0.000000
vt 0.610526 0.000000
vt 0.663158 0.000000
vt 0.600000 0.000000
vt 0.305263 0.000000
vt 0.452632 0.000000
vt 0.673684 0.000000
vt 0.589474 0.000000
vt 0.684211 0.000000
vt 0.578947 0.000000
vt 0.294737 0.000000
vt 0.463158 0.000000
vt 0.694737 0.000000
vt 0.568421 0.000000
vt 0.705263 0.000000
vt 0.557895 0.000000
vt 0.284211 0.000000
vt 0.473684 0.000000
vt 0.715789 0.000000
vt 0.547368 0.000000
vt 0.273684 0.000000
vt 0.484211 0.000000
vt 0.726316 0.000000
vt 0.536842 0.000000
vt 0.736842 0.000000
vt 0.526316 0.000000
vt 0.263158 0.000000
vt 0.494737 0.000000
vt 0.747368 0.000000
vt 0.515789 0.000000
vt 0.252632 0.000000
vt 0.757895 0.000000
vt 0.505263 0.000000
vt 0.010526 0.000000
vt 0.768421 0.000000
vt 0.242105 0.000000
vt 0.989474 0.000000
vt 0.778947 0.000000
vt 0.231579 0.000000
vt 0.021053 0.000000
vt 0.978947 0.000000
vt 0.789474 0.000000
vt 0.221053 0.000000
vt 0.031579 0.000000
vt 0.800000 0.000000
vt 0.968421 0.000000
vt 0.210526 0.000000
vt 0.042105 0.000000
vt 0.810526 0.000000
vt 0.957895 0.000000
vt 0.821053 0.000000
vt 0.947368 0.000000
vt 0.200000 0.000000
vt 0.052632 0.000000
vt 0.831579 0.000000
vt 0.936842 0.000000
vt 0.842105 0.000000
vt 0.926316 0.000000
vt 0.189474 0.000000
vt 0.063158 0.000000
vt 0.852632 0.000000
vt 0.915789 0.000000
vt 0.863158 0.000000
vt 0.905263 0.000000
vt 0.178947 0.000000
vt 0.073684 0.000000
vt 0.873684 0.000000
vt 0.894737 0.000000
vt 0.884211 0.000000
vt 0.168421 0.000000
vt 0.084211 0.000000
vt 0.157895 0.000000
vt 0.094737 0.000000
vt 0.147368 0.000000
vt 0.105263 0.000000
vt 0.136842 0.000000
vt 0.115789 0.000000
vt 0.126316 0.000000
vt 0.357143 0.000000
vt 0.285714 0.000000
vt 0.214286 0.000000
vt 0.571429 0.000000
vt 0.142857 0.000000
vt 0.071429 0.000000
vt 0.785714 0.000000
vt 0.857143 0.000000
vt 0.428571 0.000000
vt 0.642857 0.000000
vt 0.714286 0.000000
vt 0.928571 0.000000
vt 0.100000 0.000000
vt 0.700000 0.000000
vt 0.900000 0.000000
vt 0.300000 0.000000
vt 0.653465 0.000000
vt 0.643564 0.000000
vt 0.633663 0.000000
vt 0.623762 0.000000
vt 0.613861 0.000000
vt 0.603960 0.000000
vt 0.663366 0.000000
vt 0.594059 0.000000
vt 0.584158 0.000000
vt 0.574257 0.000000
vt 0.673267 0.000000
vt 0.564356 0.000000
vt 0.554455 0.000000
vt 0.683168 0.000000
vt 0.544554 0.000000
vt 0.534653 0.000000
vt 0.693069 0.000000
vt 0.524752 0.000000
vt 0.415842 0.000000
vt 0.425743 0.000000
vt 0.435644 0.000000
vt 0.445545 0.000000
vt 0.455446 0.000000
vt 0.465347 0.000000
vt 0.475248 0.000000
vt 0.485149 0.000000
vt 0.495050 0.000000
vt 0.504951 0.000000
vt 0.514852 0.000000
vt 0.702970 0.000000
vt 0.396040 0.000000
vt 0.405941 0.000000
vt 0.386139 0.000000
vt 0.376238 0.000000
vt 0.366337 0.000000
vt 0.712871 0.000000
vt 0.356436 0.000000
vt 0.346535 0.000000
vt 0.722772 0.000000
vt 0.336634 0.000000
vt 0.326733 0.000000
vt 0.732673 0.000000
vt 0.316832 0.000000
vt 0.742574 0.000000
vt 0.306931 0.000000
vt 0.297030 0.000000
vt 0.752475 0.000000
vt 0.287129 0.000000
vt 0.762376 0.000000
vt 0.277228 0.000000
vt 0.267327 0.000000
vt 0.772277 0.000000
vt 0.019802 0.000000
vt 0.009901 0.000000
vt 0.029703 0.000000
vt 0.257426 0.000000
vt 0.782178 0.000000
vt 0.247525 0.000000
vt 0.039604 0.000000
vt 0.792079 0.000000
vt 0.237624 0.000000
vt 0.227723 0.000000
vt 0.801980 0.000000
vt 0.217822 0.000000
vt 0.811881 0.000000
vt 0.207921 0.000000
vt 0.198020 0.000000
vt 0.821782 0.000000
vt 0.188119 0.000000
vt 0.049505 0.000000
vt 0.059406 0.000000
vt 0.069307 0.000000
vt 0.178218 0.000000
vt 0.079208 0.000000
vt 0.089109 0.000000
vt 0.099010 0.000000
vt 0.168317 0.000000
vt 0.831683 0.000000
vt 0.108911 0.000000
vt 0.118812 0.000000
vt 0.128713 0.000000
vt 0.158416 0.000000
vt 0.138614 0.000000
vt 0.148515 0.000000
vt 0.841584 0.000000
vt 0.990099 0.000000
vt 0.980198 0.000000
vt 0.851485 0.000000
vt 0.970297 0.000000
vt 0.960396 0.000000
vt 0.861386 0.000000
vt 0.950495 0.000000
vt 0.940594 0.000000
vt 0.930693 0.000000
vt 0.871287 0.000000
vt 0.920792 0.000000
vt 0.910891 0.000000
vt 0.900990 0.000000
vt 0.881188 0.000000
vt 0.891089 0.000000
s 0
usemtl マテリアル.002
f 2/1/1 1/2/1 68/3/1
f 68/3/1 1/2/1 67/4/1
f 68/3/1 67/4/1 66/5/1
f 68/3/1 66/5/1 65/6/1
f 68/3/1 65/6/1 64/7/1
f 68/3/1 64/7/1 63/8/1
f 68/3/1 63/8/1 62/9/1
f 68/3/1 62/9/1 61/10/1
f 68/3/1 61/10/1 60/11/1
f 68/3/1 60/11/1 69/12/1
f 69/12/1 60/11/1 59/13/1
f 2/1/1 68/3/1 94/14/1
f 70/15/1 69/12/1 59/13/1
f 71/16/1 70/15/1 59/13/1
f 72/17/1 71/16/1 59/13/1
f 72/17/1 59/13/1 58/18/1
f 73/19/1 72/17/1 58/18/1
f 74/20/1 73/19/1 58/18/1
f 75/21/1 74/20/1 58/18/1
f 75/21/1 58/18/1 57/22/1
f 76/23/1 75/21/1 57/22/1
f 77/24/1 76/23/1 57/22/1
f 78/25/1 77/24/1 57/22/1
f 78/25/1 57/22/1 56/26/1
f 79/27/1 78/25/1 56/26/1
f 80/28/1 79/27/1 56/26/1
f 80/28/1 56/26/1 55/29/1
f 81/30/1 80/28/1 55/29/1
f 82/31/1 81/30/1 55/29/1
f 82/31/1 55/29/1 54/32/1
f 83/33/1 82/31/1 54/32/1
f 83/33/1 54/32/1 53/34/1
f 84/35/1 83/33/1 53/34/1
f 85/36/1 84/35/1 53/34/1
f 85/36/1 53/34/1 52/37/1
f 86/38/1 85/36/1 52/37/1
f 86/38/1 52/37/1 51/39/1
f 87/40/1 86/38/1 51/39/1
f 87/40/1 51/39/1 50/41/1
f 88/42/1 87/40/1 50/41/1
f 89/43/1 88/42/1 50/41/1
f 89/43/1 50/41/1 49/44/1
f 90/45/1 89/43/1 49/44/1
f 91/46/1 90/45/1 49/44/1
f 91/46/1 49/44/1 48/47/1
f 92/48/1 91/46/1 48/47/1
f 93/49/1 92/48/1 48/47/1
f 2/1/1 94/14/1 4/50/1
f 4/50/1 94/14/1 93/49/1
f 4/50/1 93/49/1 48/47/1
f 4/50/1 48/47/1 47/51/1
f 4/50/1 47/51/1 46/52/1
f 4/50/1 46/52/1 45/53/1
f 4/50/1 45/53/1 44/54/1
f 4/50/1 44/54/1 43/55/1
f 4/50/1 43/55/1 42/56/1
f 4/50/1 42/56/1 41/57/1
f 4/50/1 41/57/1 5/58/1
f 5/58/1 41/57/1 6/59/1
f 6/59/1 41/57/1 40/60/1
f 2/1/1 4/50/1 3/61/1
f 7/62/1 6/59/1 40/60/1
f 8/63/1 7/62/1 40/60/1
f 9/64/1 8/63/1 40/60/1
f 9/64/1 40/60/1 39/65/1
f 10/66/1 9/64/1 39/65/1
f 11/67/1 10/66/1 39/65/1
f 11/67/1 39/65/1 38/68/1
f 12/69/1 11/67/1 38/68/1
f 12/69/1 38/68/1 37/70/1
f 13/71/1 12/69/1 37/70/1
f 13/71/1 37/70/1 36/72/1
f 14/73/1 13/71/1 36/72/1
f 14/73/1 36/72/1 35/74/1
f 15/75/1 14/73/1 35/74/1
f 15/75/1 35/74/1 34/76/1
f 16/77/1 15/75/1 34/76/1
f 16/77/1 34/76/1 33/78/1
f 16/77/1 33/78/1 32/79/1
f 17/80/1 16/77/1 32/79/1
f 17/80/1 32/79/1 31/81/1
f 18/82/1 17/80/1 31/81/1
f 18/82/1 31/81/1 30/83/1
f 18/82/1 30/83/1 29/84/1
f 18/82/1 29/84/1 28/85/1
f 18/82/1 28/85/1 27/86/1
f 18/82/1 27/86/1 26/87/1
f 18/82/1 26/87/1 25/88/1
f 18/82/1 25/88/1 24/89/1
f 18/82/1 24/89/1 23/90/1
f 18/82/1 23/90/1 22/91/1
f 18/82/1 22/91/1 21/92/1
f 18/82/1 21/92/1 20/93/1
f 18/82/1 20/93/1 19/94/1
f 97/95/1 96/96/1 105/97/1
f 105/97/1 96/96/1 95/2/1
f 105/97/1 95/2/1 106/14/1
f 97/95/1 105/97/1 104/98/1
f 97/95/1 104/98/1 101/99/1
f 101/99/1 104/98/1 103/100/1
f 101/99/1 103/100/1 102/101/1
f 97/95/1 101/99/1 100/102/1
f 97/95/1 100/102/1 99/103/1
f 97/95/1 99/103/1 98/104/1
f 112/105/1 111/8/1 110/106/1
f 112/105/1 110/106/1 109/79/1
f 109/79/1 108/107/1 107/2/1
f 109/79/1 107/2/1 113/14/1
f 112/105/1 109/79/1 113/14/1
f 151/108/1 150/109/1 149/110/1
f 151/108/1 149/110/1 148/111/1
f 152/112/1 151/108/1 148/111/1
f 152/112/1 148/111/1 147/113/1
f 153/114/1 152/112/1 147/113/1
f 153/114/1 147/113/1 146/115/1
f 154/116/1 153/114/1 146/115/1
f 154/116/1 146/115/1 145/117/1
f 155/118/1 154/116/1 145/117/1
f 155/118/1 145/117/1 144/119/1
f 156/120/1 155/118/1 174/121/1
f 174/121/1 155/118/1 144/119/1
f 156/120/1 174/121/1 173/122/1
f 175/123/1 174/121/1 144/119/1
f 176/124/1 175/123/1 144/119/1
f 156/120/1 173/122/1 172/125/1
f 177/126/1 176/124/1 144/119/1
f 156/120/1 172/125/1 171/127/1
f 177/126/1 144/119/1 143/128/1
f 157/129/1 156/120/1 171/127/1
f 178/130/1 177/126/1 143/128/1
f 157/129/1 171/127/1 170/131/1
f 179/132/1 178/130/1 143/128/1
f 157/129/1 170/131/1 169/133/1
f 179/132/1 143/128/1 142/134/1
f 158/135/1 157/129/1 169/133/1
f 180/136/1 179/132/1 142/134/1
f 158/135/1 169/133/1 168/137/1
f 181/138/1 180/136/1 142/134/1
f 158/135/1 168/137/1 167/139/1
f 181/138/1 142/134/1 141/140/1
f 159/141/1 158/135/1 167/139/1
f 182/142/1 181/138/1 141/140/1
f 159/141/1 167/139/1 166/143/1
f 182/142/1 141/140/1 140/144/1
f 160/145/1 159/141/1 166/143/1
f 183/146/1 182/142/1 140/144/1
f 160/145/1 166/143/1 165/147/1
f 184/148/1 183/146/1 140/144/1
f 160/145/1 165/147/1 164/149/1
f 184/148/1 140/144/1 139/150/1
f 161/151/1 160/145/1 164/149/1
f 185/152/1 184/148/1 139/150/1
f 161/151/1 164/149/1 163/153/1
f 185/152/1 139/150/1 138/154/1
f 114/2/1 161/151/1 163/153/1
f 186/155/1 185/152/1 138/154/1
f 114/2/1 163/153/1 162/156/1
f 115/157/1 114/2/1 162/156/1
f 115/157/1 162/156/1 209/14/1
f 187/158/1 186/155/1 138/154/1
f 187/158/1 138/154/1 137/159/1
f 115/157/1 209/14/1 208/160/1
f 188/161/1 187/158/1 137/159/1
f 188/161/1 137/159/1 136/162/1
f 116/163/1 115/157/1 208/160/1
f 116/163/1 208/160/1 207/164/1
f 189/165/1 188/161/1 136/162/1
f 189/165/1 136/162/1 135/166/1
f 117/167/1 116/163/1 207/164/1
f 190/168/1 189/165/1 135/166/1
f 117/167/1 207/164/1 206/169/1
f 190/168/1 135/166/1 134/170/1
f 118/171/1 117/167/1 206/169/1
f 191/172/1 190/168/1 134/170/1
f 118/171/1 206/169/1 205/173/1
f 192/174/1 191/172/1 134/170/1
f 118/171/1 205/173/1 204/175/1
f 192/174/1 134/170/1 133/176/1
f 119/177/1 118/171/1 204/175/1
f 193/178/1 192/174/1 133/176/1
f 119/177/1 204/175/1 203/179/1
f 194/180/1 193/178/1 133/176/1
f 119/177/1 203/179/1 202/181/1
f 194/180/1 133/176/1 132/182/1
f 120/183/1 119/177/1 202/181/1
f 195/184/1 194/180/1 132/182/1
f 120/183/1 202/181/1 201/185/1
f 196/186/1 195/184/1 132/182/1
f 120/183/1 201/185/1 200/187/1
f 196/186/1 132/182/1 131/188/1
f 121/189/1 120/183/1 200/187/1
f 197/190/1 196/186/1 131/188/1
f 121/189/1 200/187/1 199/191/1
f 198/192/1 197/190/1 131/188/1
f 121/189/1 199/191/1 198/192/1
f 121/189/1 198/192/1 131/188/1
f 121/189/1 131/188/1 130/193/1
f 122/194/1 121/189/1 130/193/1
f 122/194/1 130/193/1 129/195/1
f 123/196/1 122/194/1 129/195/1
f 123/196/1 129/195/1 128/197/1
f 124/198/1 123/196/1 128/197/1
f 124/198/1 128/197/1 127/199/1
f 125/200/1 124/198/1 127/199/1
f 125/200/1 127/199/1 126/201/1
f 212/95/1 211/96/1 220/97/1
f 220/97/1 211/96/1 210/2/1
f 220/97/1 210/2/1 221/14/1
f 212/95/1 220/97/1 219/98/1
f 212/95/1 219/98/1 216/99/1
f 216/99/1 219/98/1 218/100/1
f 216/99/1 218/100/1 217/101/1
f 212/95/1 216/99/1 215/102/1
f 212/95/1 215/102/1 214/103/1
f 212/95/1 214/103/1 213/104/1
f 227/202/1 226/203/1 225/204/1
f 227/202/1 225/204/1 229/106/1
f 229/106/1 225/204/1 230/205/1
f 230/205/1 225/204/1 224/206/1
f 224/206/1 223/207/1 222/2/1
f 224/206/1 222/2/1 233/208/1
f 233/208/1 222/2/1 234/209/1
f 234/209/1 222/2/1 236/14/1
f 227/202/1 229/106/1 228/210/1
f 231/211/1 230/205/1 224/206/1
f 224/206/1 233/208/1 232/212/1
f 235/213/1 234/209/1 236/14/1
f 231/211/1 224/206/1 232/212/1
f 239/176/1 238/214/1 237/2/1
f 239/176/1 237/2/1 245/168/1
f 245/168/1 237/2/1 244/215/1
f 239/176/1 245/168/1 247/14/1
f 246/216/1 245/168/1 244/215/1
f 239/176/1 247/14/1 241/112/1
f 241/112/1 247/14/1 246/216/1
f 241/112/1 246/216/1 242/106/1
f 242/106/1 246/216/1 244/215/1
f 239/176/1 241/112/1 240/217/1
f 243/127/1 242/106/1 244/215/1
f 314/218/1 313/219/1 312/220/1
f 314/218/1 312/220/1 311/221/1
f 314/218/1 311/221/1 310/222/1
f 314/218/1 310/222/1 309/223/1
f 315/224/1 314/218/1 309/223/1
f 315/224/1 309/223/1 308/225/1
f 315/224/1 308/225/1 307/226/1
f 315/224/1 307/226/1 306/227/1
f 316/228/1 315/224/1 306/227/1
f 316/228/1 306/227/1 305/229/1
f 316/228/1 305/229/1 304/230/1
f 317/231/1 316/228/1 304/230/1
f 317/231/1 304/230/1 303/232/1
f 317/231/1 303/232/1 302/233/1
f 318/234/1 317/231/1 302/233/1
f 318/234/1 302/233/1 301/235/1
f 318/234/1 301/235/1 290/236/1
f 290/236/1 301/235/1 291/237/1
f 291/237/1 301/235/1 292/238/1
f 292/238/1 301/235/1 293/239/1
f 293/239/1 301/235/1 294/240/1
f 294/240/1 301/235/1 295/241/1
f 295/241/1 301/235/1 296/242/1
f 296/242/1 301/235/1 297/243/1
f 297/243/1 301/235/1 298/244/1
f 298/244/1 301/235/1 299/245/1
f 299/245/1 301/235/1 300/246/1
f 319/247/1 318/234/1 288/248/1
f 288/248/1 318/234/1 289/249/1
f 289/249/1 318/234/1 290/236/1
f 319/247/1 288/248/1 287/250/1
f 319/247/1 287/250/1 286/251/1
f 319/247/1 286/251/1 285/252/1
f 320/253/1 319/247/1 285/252/1
f 320/253/1 285/252/1 284/254/1
f 320/253/1 284/254/1 283/255/1
f 321/256/1 320/253/1 283/255/1
f 321/256/1 283/255/1 282/257/1
f 321/256/1 282/257/1 281/258/1
f 322/259/1 321/256/1 281/258/1
f 322/259/1 281/258/1 280/260/1
f 323/261/1 322/259/1 280/260/1
f 323/261/1 280/260/1 279/262/1
f 323/261/1 279/262/1 278/263/1
f 324/264/1 323/261/1 278/263/1
f 324/264/1 278/263/1 277/265/1
f 325/266/1 324/264/1 277/265/1
f 325/266/1 277/265/1 276/267/1
f 325/266/1 276/267/1 275/268/1
f 326/269/1 325/266/1 275/268/1
f 250/270/1 249/271/1 248/2/1
f 250/270/1 248/2/1 251/272/1
f 251/272/1 248/2/1 349/14/1
f 326/269/1 275/268/1 274/273/1
f 327/274/1 326/269/1 274/273/1
f 327/274/1 274/273/1 273/275/1
f 252/276/1 251/272/1 349/14/1
f 328/277/1 327/274/1 273/275/1
f 328/277/1 273/275/1 272/278/1
f 328/277/1 272/278/1 271/279/1
f 329/280/1 328/277/1 271/279/1
f 329/280/1 271/279/1 270/281/1
f 330/282/1 329/280/1 270/281/1
f 330/282/1 270/281/1 269/283/1
f 330/282/1 269/283/1 268/284/1
f 331/285/1 330/282/1 268/284/1
f 331/285/1 268/284/1 267/286/1
f 253/287/1 252/276/1 349/14/1
f 254/288/1 253/287/1 349/14/1
f 255/289/1 254/288/1 349/14/1
f 331/285/1 267/286/1 266/290/1
f 256/291/1 255/289/1 349/14/1
f 257/292/1 256/291/1 349/14/1
f 258/293/1 257/292/1 349/14/1
f 331/285/1 266/290/1 265/294/1
f 332/295/1 331/285/1 265/294/1
f 259/296/1 258/293/1 349/14/1
f 260/297/1 259/296/1 349/14/1
f 261/298/1 260/297/1 349/14/1
f 332/295/1 265/294/1 264/299/1
f 262/300/1 261/298/1 349/14/1
f 263/301/1 262/300/1 349/14/1
f 264/299/1 263/301/1 349/14/1
f 332/295/1 264/299/1 349/14/1
f 333/302/1 332/295/1 349/14/1
f 333/302/1 349/14/1 348/303/1
f 333/302/1 348/303/1 347/304/1
f 334/305/1 333/302/1 347/304/1
f 334/305/1 347/304/1 346/306/1
f 334/305/1 346/306/1 345/307/1
f 335/308/1 334/305/1 345/307/1
f 335/308/1 345/307/1 344/309/1
f 335/308/1 344/309/1 343/310/1
f 335/308/1 343/310/1 342/311/1
f 336/312/1 335/308/1 342/311/1
f 336/312/1 342/311/1 341/313/1
f 336/312/1 341/313/1 340/314/1
f 336/312/1 340/314/1 339/315/1
f 337/316/1 336/312/1 339/315/1
f 337/316/1 339/315/1 338/317/1
f 351/1/2 417/3/2 350/2/2
f 417/3/2 416/4/2 350/2/2
f 417/3/2 415/5/2 416/4/2
f 417/3/2 414/6/2 415/5/2
f 417/3/2 413/7/2 414/6/2
f 417/3/2 412/8/2 413/7/2
f 417/3/2 411/9/2 412/8/2
f 417/3/2 410/10/2 411/9/2
f 417/3/2 409/11/2 410/10/2
f 417/3/2 418/12/2 409/11/2
f 418/12/2 408/13/2 409/11/2
f 351/1/2 443/14/2 417/3/2
f 419/15/2 408/13/2 418/12/2
f 420/16/2 408/13/2 419/15/2
f 421/17/2 408/13/2 420/16/2
f 421/17/2 407/18/2 408/13/2
f 422/19/2 407/18/2 421/17/2
f 423/20/2 407/18/2 422/19/2
f 424/21/2 407/18/2 423/20/2
f 424/21/2 406/22/2 407/18/2
f 425/23/2 406/22/2 424/21/2
f 426/24/2 406/22/2 425/23/2
f 427/25/2 406/22/2 426/24/2
f 427/25/2 405/26/2 406/22/2
f 428/27/2 405/26/2 427/25/2
f 429/28/2 405/26/2 428/27/2
f 429/28/2 404/29/2 405/26/2
f 430/30/2 404/29/2 429/28/2
f 431/31/2 404/29/2 430/30/2
f 431/31/2 403/32/2 404/29/2
f 432/33/2 403/32/2 431/31/2
f 432/33/2 402/34/2 403/32/2
f 433/35/2 402/34/2 432/33/2
f 434/36/2 402/34/2 433/35/2
f 434/36/2 401/37/2 402/34/2
f 435/38/2 401/37/2 434/36/2
f 435/38/2 400/39/2 401/37/2
f 436/40/2 400/39/2 435/38/2
f 436/40/2 399/41/2 400/39/2
f 437/42/2 399/41/2 436/40/2
f 438/43/2 399/41/2 437/42/2
f 438/43/2 398/44/2 399/41/2
f 439/45/2 398/44/2 438/43/2
f 440/46/2 398/44/2 439/45/2
f 440/46/2 397/47/2 398/44/2
f 441/48/2 397/47/2 440/46/2
f 442/49/2 397/47/2 441/48/2
f 351/1/2 353/50/2 443/14/2
f 353/50/2 442/49/2 443/14/2
f 353/50/2 397/47/2 442/49/2
f 353/50/2 396/51/2 397/47/2
f 353/50/2 395/52/2 396/51/2
f 353/50/2 394/53/2 395/52/2
f 353/50/2 393/54/2 394/53/2
f 353/50/2 392/55/2 393/54/2
f 353/50/2 391/56/2 392/55/2
f 353/50/2 390/57/2 391/56/2
f 353/50/2 354/58/2 390/57/2
f 354/58/2 355/59/2 390/57/2
f 355/59/2 389/60/2 390/57/2
f 351/1/2 352/61/2 353/50/2
f 356/62/2 389/60/2 355/59/2
f 357/63/2 389/60/2 356/62/2
f 358/64/2 389/60/2 357/63/2
f 358/64/2 388/65/2 389/60/2
f 359/66/2 388/65/2 358/64/2
f 360/67/2 388/65/2 359/66/2
f 360/67/2 387/68/2 388/65/2
f 361/69/2 387/68/2 360/67/2
f 361/69/2 386/70/2 387/68/2
f 362/71/2 386/70/2 361/69/2
f 362/71/2 385/72/2 386/70/2
f 363/73/2 385/72/2 362/71/2
f 363/73/2 384/74/2 385/72/2
f 364/75/2 384/74/2 363/73/2
f 364/75/2 383/76/2 384/74/2
f 365/77/2 383/76/2 364/75/2
f 365/77/2 382/78/2 383/76/2
f 365/77/2 381/79/2 382/78/2
f 366/80/2 381/79/2 365/77/2
f 366/80/2 380/81/2 381/79/2
f 367/82/2 380/81/2 366/80/2
f 367/82/2 379/83/2 380/81/2
f 367/82/2 378/84/2 379/83/2
f 367/82/2 377/85/2 378/84/2
f 367/82/2 376/86/2 377/85/2
f 367/82/2 375/87/2 376/86/2
f 367/82/2 374/88/2 375/87/2
f 367/82/2 373/89/2 374/88/2
f 367/82/2 372/90/2 373/89/2
f 367/82/2 371/91/2 372/90/2
f 367/82/2 370/92/2 371/91/2
f 367/82/2 369/93/2 370/92/2
f 367/82/2 368/94/2 369/93/2
f 446/95/2 454/97/2 445/96/2
f 454/97/2 444/2/2 445/96/2
f 454/97/2 455/14/2 444/2/2
f 446/95/2 453/98/2 454/97/2
f 446/95/2 450/99/2 453/98/2
f 450/99/2 452/100/2 453/98/2
f 450/99/2 451/101/2 452/100/2
f 446/95/2 449/102/2 450/99/2
f 446/95/2 448/103/2 449/102/2
f 446/95/2 447/104/2 448/103/2
f 461/105/2 459/106/2 460/8/2
f 461/105/2 458/79/2 459/106/2
f 458/79/2 456/2/2 457/107/2
f 458/79/2 462/14/2 456/2/2
f 461/105/2 462/14/2 458/79/2
f 500/108/2 498/110/2 499/109/2
f 500/108/2 497/111/2 498/110/2
f 501/112/2 497/111/2 500/108/2
f 501/112/2 496/113/2 497/111/2
f 502/114/2 496/113/2 501/112/2
f 502/114/2 495/115/2 496/113/2
f 503/116/2 495/115/2 502/114/2
f 503/116/2 494/117/2 495/115/2
f 504/118/2 494/117/2 503/116/2
f 504/118/2 493/119/2 494/117/2
f 505/120/2 523/121/2 504/118/2
f 523/121/2 493/119/2 504/118/2
f 505/120/2 522/122/2 523/121/2
f 524/123/2 493/119/2 523/121/2
f 525/124/2 493/119/2 524/123/2
f 505/120/2 521/125/2 522/122/2
f 526/126/2 493/119/2 525/124/2
f 505/120/2 520/127/2 521/125/2
f 526/126/2 492/128/2 493/119/2
f 506/129/2 520/127/2 505/120/2
f 527/130/2 492/128/2 526/126/2
f 506/129/2 519/131/2 520/127/2
f 528/132/2 492/128/2 527/130/2
f 506/129/2 518/133/2 519/131/2
f 528/132/2 491/134/2 492/128/2
f 507/135/2 518/133/2 506/129/2
f 529/136/2 491/134/2 528/132/2
f 507/135/2 517/137/2 518/133/2
f 530/138/2 491/134/2 529/136/2
f 507/135/2 516/139/2 517/137/2
f 530/138/2 490/140/2 491/134/2
f 508/141/2 516/139/2 507/135/2
f 531/142/2 490/140/2 530/138/2
f 508/141/2 515/143/2 516/139/2
f 531/142/2 489/144/2 490/140/2
f 509/145/2 515/143/2 508/141/2
f 532/146/2 489/144/2 531/142/2
f 509/145/2 514/147/2 515/143/2
f 533/148/2 489/144/2 532/146/2
f 509/145/2 513/149/2 514/147/2
f 533/148/2 488/150/2 489/144/2
f 510/151/2 513/149/2 509/145/2
f 534/152/2 488/150/2 533/148/2
f 510/151/2 512/153/2 513/149/2
f 534/152/2 487/154/2 488/150/2
f 463/2/2 512/153/2 510/151/2
f 535/155/2 487/154/2 534/152/2
f 463/2/2 511/156/2 512/153/2
f 464/157/2 511/156/2 463/2/2
f 464/157/2 558/14/2 511/156/2
f 536/158/2 487/154/2 535/155/2
f 536/158/2 486/159/2 487/154/2
f 464/157/2 557/160/2 558/14/2
f 537/161/2 486/159/2 536/158/2
f 537/161/2 485/162/2 486/159/2
f 465/163/2 557/160/2 464/157/2
f 465/163/2 556/164/2 557/160/2
f 538/165/2 485/162/2 537/161/2
f 538/165/2 484/166/2 485/162/2
f 466/167/2 556/164/2 465/163/2
f 539/168/2 484/166/2 538/165/2
f 466/167/2 555/169/2 556/164/2
f 539/168/2 483/170/2 484/166/2
f 467/171/2 555/169/2 466/167/2
f 540/172/2 483/170/2 539/168/2
f 467/171/2 554/173/2 555/169/2
f 541/174/2 483/170/2 540/172/2
f 467/171/2 553/175/2 554/173/2
f 541/174/2 482/176/2 483/170/2
f 468/177/2 553/175/2 467/171/2
f 542/178/2 482/176/2 541/174/2
f 468/177/2 552/179/2 553/175/2
f 543/180/2 482/176/2 542/178/2
f 468/177/2 551/181/2 552/179/2
f 543/180/2 481/182/2 482/176/2
f 469/183/2 551/181/2 468/177/2
f 544/184/2 481/182/2 543/180/2
f 469/183/2 550/185/2 551/181/2
f 545/186/2 481/182/2 544/184/2
f 469/183/2 549/187/2 550/185/2
f 545/186/2 480/188/2 481/182/2
f 470/189/2 549/187/2 469/183/2
f 546/190/2 480/188/2 545/186/2
f 470/189/2 548/191/2 549/187/2
f 547/192/2 480/188/2 546/190/2
f 470/189/2 547/192/2 548/191/2
f 470/189/2 480/188/2 547/192/2
f 470/189/2 479/193/2 480/188/2
f 471/194/2 479/193/2 470/189/2
f 471/194/2 478/195/2 479/193/2
f 472/196/2 478/195/2 471/194/2
f 472/196/2 477/197/2 478/195/2
f 473/198/2 477/197/2 472/196/2
f 473/198/2 476/199/2 477/197/2
f 474/200/2 476/199/2 473/198/2
f 474/200/2 475/201/2 476/199/2
f 561/95/2 569/97/2 560/96/2
f 569/97/2 559/2/2 560/96/2
f 569/97/2 570/14/2 559/2/2
f 561/95/2 568/98/2 569/97/2
f 561/95/2 565/99/2 568/98/2
f 565/99/2 567/100/2 568/98/2
f 565/99/2 566/101/2 567/100/2
f 561/95/2 564/102/2 565/99/2
f 561/95/2 563/103/2 564/102/2
f 561/95/2 562/104/2 563/103/2
f 576/202/2 574/204/2 575/203/2
f 576/202/2 578/106/2 574/204/2
f 578/106/2 579/205/2 574/204/2
f 579/205/2 573/206/2 574/204/2
f 573/206/2 571/2/2 572/207/2
f 573/206/2 582/208/2 571/2/2
f 582/208/2 583/209/2 571/2/2
f 583/209/2 585/14/2 571/2/2
f 576/202/2 577/210/2 578/106/2
f 580/211/2 573/206/2 579/205/2
f 573/206/2 581/212/2 582/208/2
f 584/213/2 585/14/2 583/209/2
f 580/211/2 581/212/2 573/206/2
f 588/176/2 586/2/2 587/214/2
f 588/176/2 594/168/2 586/2/2
f 594/168/2 593/215/2 586/2/2
f 588/176/2 596/14/2 594/168/2
f 595/216/2 593/215/2 594/168/2
f 588/176/2 590/112/2 596/14/2
f 590/112/2 595/216/2 596/14/2
f 590/112/2 591/106/2 595/216/2
f 591/106/2 593/215/2 595/216/2
f 588/176/2 589/217/2 590/112/2
f 592/127/2 593/215/2 591/106/2
f 663/218/2 661/220/2 662/219/2
f 663/218/2 660/221/2 661/220/2
f 663/218/2 659/222/2 660/221/2
f 663/218/2 658/223/2 659/222/2
f 664/224/2 658/223/2 663/218/2
f 664/224/2 657/225/2 658/223/2
f 664/224/2 656/226/2 657/225/2
f 664/224/2 655/227/2 656/226/2
f 665/228/2 655/227/2 664/224/2
f 665/228/2 654/229/2 655/227/2
f 665/228/2 653/230/2 654/229/2
f 666/231/2 653/230/2 665/228/2
f 666/231/2 652/232/2 653/230/2
f 666/231/2 651/233/2 652/232/2
f 667/234/2 651/233/2 666/231/2
f 667/234/2 650/235/2 651/233/2
f 667/234/2 639/236/2 650/235/2
f 639/236/2 640/237/2 650/235/2
f 640/237/2 641/238/2 650/235/2
f 641/238/2 642/239/2 650/235/2
f 642/239/2 643/240/2 650/235/2
f 643/240/2 644/241/2 650/235/2
f 644/241/2 645/242/2 650/235/2
f 645/242/2 646/243/2 650/235/2
f 646/243/2 647/244/2 650/235/2
f 647/244/2 648/245/2 650/235/2
f 648/245/2 649/246/2 650/235/2
f 668/247/2 637/248/2 667/234/2
f 637/248/2 638/249/2 667/234/2
f 638/249/3 639/236/3 667/234/3
f 668/247/2 636/250/2 637/248/2
f 668/247/2 635/251/2 636/250/2
f 668/247/2 634/252/2 635/251/2
f 669/253/2 634/252/2 668/247/2
f 669/253/2 633/254/2 634/252/2
f 669/253/2 632/255/2 633/254/2
f 670/256/2 632/255/2 669/253/2
f 670/256/2 631/257/2 632/255/2
f 670/256/2 630/258/2 631/257/2
f 671/259/2 630/258/2 670/256/2
f 671/259/2 629/260/2 630/258/2
f 672/261/2 629/260/2 671/259/2
f 672/261/2 628/262/2 629/260/2
f 672/261/2 627/263/2 628/262/2
f 673/264/2 627/263/2 672/261/2
f 673/264/2 626/265/2 627/263/2
f 674/266/2 626/265/2 673/264/2
f 674/266/2 625/267/2 626/265/2
f 674/266/2 624/268/2 625/267/2
f 675/269/2 624/268/2 674/266/2
f 599/270/2 597/2/2 598/271/2
f 599/270/2 600/272/2 597/2/2
f 600/272/2 698/14/2 597/2/2
f 675/269/2 623/273/2 624/268/2
f 676/274/2 623/273/2 675/269/2
f 676/274/2 622/275/2 623/273/2
f 601/276/2 698/14/2 600/272/2
f 677/277/2 622/275/2 676/274/2
f 677/277/2 621/278/2 622/275/2
f 677/277/2 620/279/2 621/278/2
f 678/280/2 620/279/2 677/277/2
f 678/280/2 619/281/2 620/279/2
f 679/282/2 619/281/2 678/280/2
f 679/282/2 618/283/2 619/281/2
f 679/282/2 617/284/2 618/283/2
f 680/285/2 617/284/2 679/282/2
f 680/285/2 616/286/2 617/284/2
f 602/287/2 698/14/2 601/276/2
f 603/288/2 698/14/2 602/287/2
f 604/289/2 698/14/2 603/288/2
f 680/285/2 615/290/2 616/286/2
f 605/291/2 698/14/2 604/289/2
f 606/292/2 698/14/2 605/291/2
f 607/293/2 698/14/2 606/292/2
f 680/285/2 614/294/2 615/290/2
f 681/295/2 614/294/2 680/285/2
f 608/296/2 698/14/2 607/293/2
f 609/297/2 698/14/2 608/296/2
f 610/298/2 698/14/2 609/297/2
f 681/295/2 613/299/2 614/294/2
f 611/300/2 698/14/2 610/298/2
f 612/301/2 698/14/2 611/300/2
f 613/299/2 698/14/2 612/301/2
f 681/295/2 698/14/2 613/299/2
f 682/302/2 698/14/2 681/295/2
f 682/302/2 697/303/2 698/14/2
f 682/302/2 696/304/2 697/303/2
f 683/305/2 696/304/2 682/302/2
f 683/305/2 695/306/2 696/304/2
f 683/305/2 694/307/2 695/306/2
f 684/308/2 694/307/2 683/305/2
f 684/308/2 693/309/2 694/307/2
f 684/308/2 692/310/2 693/309/2
f 684/308/2 691/311/2 692/310/2
f 685/312/2 691/311/2 684/308/2
f 685/312/2 690/313/2 691/311/2
f 685/312/2 689/314/2 690/313/2
f 685/312/2 688/315/2 689/314/2
f 686/316/2 688/315/2 685/312/2
f 686/316/2 687/317/2 688/315/2
f 299/245/4 647/244/4 298/244/4
f 64/7/5 412/8/5 63/8/5
f 260/297/6 608/296/6 259/296/6
f 215/102/7 563/103/7 214/103/7
f 209/14/8 557/160/8 208/160/8
f 150/109/9 498/110/9 149/110/9
f 300/246/10 648/245/10 299/245/10
f 63/8/11 411/9/11 62/9/11
f 213/104/12 561/95/12 212/95/12
f 188/161/13 536/158/13 187/158/13
f 261/298/14 609/297/14 260/297/14
f 41/57/15 389/60/15 40/60/15
f 301/235/16 649/246/16 300/246/16
f 214/103/16 562/104/16 213/104/16
f 149/110/17 497/111/17 148/111/17
f 3/61/12 351/1/12 2/1/12
f 319/247/18 667/234/18 318/234/18
f 62/9/19 410/10/19 61/10/19
f 227/202/20 575/203/20 226/203/20
f 152/112/21 500/108/21 151/108/21
f 3/61/16 353/50/16 352/61/16
f 137/159/22 485/162/22 136/162/22
f 265/294/23 613/299/23 264/299/23
f 6/59/24 356/62/24 355/59/24
f 61/10/25 409/11/25 60/11/25
f 226/203/7 574/204/7 225/204/7
f 116/163/26 464/157/26 115/157/26
f 262/300/27 610/298/27 261/298/27
f 289/249/28 637/248/28 288/248/28
f 69/12/12 417/3/12 68/3/12
f 148/111/29 496/113/29 147/113/29
f 8/63/30 356/62/30 7/62/30
f 153/114/31 501/112/31 152/112/31
f 263/301/32 611/300/32 262/300/32
f 290/236/33 638/249/33 289/249/33
f 230/205/12 578/106/12 229/106/12
f 208/160/34 556/164/34 207/164/34
f 9/64/35 357/63/35 8/63/35
f 60/11/36 408/13/36 59/13/36
f 189/165/37 537/161/37 188/161/37
f 264/299/38 612/301/38 263/301/38
f 287/250/39 637/248/39 636/250/39
f 147/113/40 495/115/40 146/115/40
f 68/3/16 443/14/16 94/14/16
f 225/204/41 573/206/41 224/206/41
f 154/116/42 502/114/42 153/114/42
f 40/60/43 388/65/43 39/65/43
f 287/250/44 635/251/44 286/251/44
f 70/15/45 418/12/45 69/12/45
f 224/206/46 572/207/46 223/207/46
f 136/162/47 484/166/47 135/166/47
f 333/302/48 681/295/48 332/295/48
f 10/66/49 358/64/49 9/64/49
f 117/167/50 465/163/50 116/163/50
f 286/251/51 634/252/51 285/252/51
f 71/16/52 419/15/52 70/15/52
f 223/207/7 571/2/7 222/2/7
f 146/115/53 494/117/53 145/117/53
f 11/67/54 359/66/54 10/66/54
f 320/253/55 668/247/55 319/247/55
f 190/168/56 538/165/56 189/165/56
f 155/118/57 503/116/57 154/116/57
f 349/14/58 697/303/58 348/303/58
f 72/17/59 420/16/59 71/16/59
f 234/209/12 582/208/12 233/208/12
f 348/303/60 696/304/60 347/304/60
f 39/65/61 387/68/61 38/68/61
f 285/252/62 633/254/62 284/254/62
f 207/164/63 555/169/63 206/169/63
f 145/117/64 493/119/64 144/119/64
f 333/302/65 683/305/65 682/302/65
f 12/69/66 360/67/66 11/67/66
f 59/13/67 407/18/67 58/18/67
f 156/120/68 504/118/68 155/118/68
f 284/254/69 632/255/69 283/255/69
f 73/19/70 421/17/70 72/17/70
f 222/2/16 585/14/16 236/14/16
f 135/166/71 483/170/71 134/170/71
f 321/256/72 669/253/72 320/253/72
f 228/210/12 576/202/12 227/202/12
f 118/171/73 466/167/73 117/167/73
f 347/304/74 695/306/74 346/306/74
f 38/68/75 386/70/75 37/70/75
f 74/20/76 422/19/76 73/19/76
f 229/106/16 577/210/16 228/210/16
f 13/71/77 361/69/77 12/69/77
f 231/211/78 579/205/78 230/205/78
f 190/168/79 540/172/79 539/168/79
f 346/306/80 694/307/80 345/307/80
f 283/255/81 631/257/81 282/257/81
f 75/21/82 423/20/82 74/20/82
f 173/122/83 523/121/83 522/122/83
f 335/308/84 683/305/84 334/305/84
f 175/123/85 523/121/85 174/121/85
f 37/70/86 385/72/86 36/72/86
f 282/257/87 630/258/87 281/258/87
f 233/208/88 581/212/88 232/212/88
f 206/169/89 554/173/89 205/173/89
f 14/73/90 362/71/90 13/71/90
f 322/259/91 670/256/91 321/256/91
f 58/18/92 406/22/92 57/22/92
f 235/213/20 583/209/20 234/209/20
f 192/174/93 540/172/93 191/172/93
f 175/123/94 525/124/94 524/123/94
f 345/307/95 693/309/95 344/309/95
f 76/23/96 424/21/96 75/21/96
f 235/213/12 585/14/12 584/213/12
f 232/212/12 580/211/12 231/211/12
f 344/309/97 692/310/97 343/310/97
f 36/72/98 384/74/98 35/74/98
f 281/258/99 629/260/99 280/260/99
f 77/24/100 425/23/100 76/23/100
f 238/214/101 588/176/101 587/214/101
f 204/175/102 554/173/102 553/175/102
f 173/122/103 521/125/103 172/125/103
f 15/75/104 363/73/104 14/73/104
f 323/261/105 671/259/105 322/259/105
f 177/126/106 525/124/106 176/124/106
f 342/311/107 692/310/107 691/311/107
f 78/25/108 426/24/108 77/24/108
f 238/214/7 586/2/7 237/2/7
f 134/170/109 482/176/109 133/176/109
f 336/312/110 684/308/110 335/308/110
f 119/177/111 467/171/111 118/171/111
f 35/74/112 383/76/112 34/76/112
f 280/260/113 628/262/113 279/262/113
f 172/125/114 520/127/114 171/127/114
f 16/77/115 364/75/115 15/75/115
f 57/22/116 405/26/116 56/26/116
f 193/178/117 541/174/117 192/174/117
f 342/311/118 690/313/118 341/313/118
f 279/262/119 627/263/119 278/263/119
f 79/27/120 427/25/120 78/25/120
f 237/2/121 593/215/121 244/215/121
f 144/119/122 492/128/122 143/128/122
f 324/264/123 672/261/123 323/261/123
f 157/129/124 505/120/124 156/120/124
f 341/313/125 689/314/125 340/314/125
f 33/78/126 383/76/126 382/78/126
f 80/28/127 428/27/127 79/27/127
f 247/14/128 594/168/128 596/14/128
f 204/175/129 552/179/129 203/179/129
f 246/216/130 594/168/130 245/168/130
f 194/180/131 542/178/131 193/178/131
f 177/126/132 527/130/132 526/126/132
f 340/314/133 688/315/133 339/315/133
f 33/78/134 381/79/134 32/79/134
f 278/263/135 626/265/135 277/265/135
f 337/316/136 685/312/136 336/312/136
f 16/77/137 366/80/137 365/77/137
f 325/266/138 673/264/138 324/264/138
f 56/26/139 404/29/139 55/29/139
f 81/30/140 429/28/140 80/28/140
f 203/179/141 551/181/141 202/181/141
f 171/127/142 519/131/142 170/131/142
f 338/317/143 686/316/143 337/316/143
f 179/132/144 527/130/144 178/130/144
f 339/315/145 687/317/145 338/317/145
f 32/79/146 380/81/146 31/81/146
f 277/265/147 625/267/147 276/267/147
f 82/31/148 430/30/148 81/30/148
f 247/14/7 595/216/7 246/216/7
f 133/176/149 481/182/149 132/182/149
f 17/80/150 367/82/150 366/80/150
f 242/106/12 590/112/12 241/112/12
f 120/183/151 468/177/151 119/177/151
f 276/267/152 624/268/152 275/268/152
f 170/131/153 518/133/153 169/133/153
f 326/269/154 674/266/154 325/266/154
f 55/29/155 403/32/155 54/32/155
f 195/184/156 543/180/156 194/180/156
f 31/81/157 379/83/157 30/83/157
f 83/33/158 431/31/158 82/31/158
f 240/217/12 588/176/12 239/176/12
f 143/128/159 491/134/159 142/134/159
f 250/270/20 598/271/20 249/271/20
f 241/112/160 589/217/160 240/217/160
f 158/135/161 506/129/161 157/129/161
f 30/83/162 378/84/162 29/84/162
f 243/127/163 591/106/163 242/106/163
f 202/181/164 550/185/164 201/185/164
f 249/271/7 597/2/7 248/2/7
f 54/32/165 402/34/165 53/34/165
f 244/215/12 592/127/12 243/127/12
f 195/184/166 545/186/166 544/184/166
f 180/136/167 528/132/167 179/132/167
f 29/84/168 377/85/168 28/85/168
f 250/270/12 600/272/12 599/270/12
f 84/35/169 432/33/169 83/33/169
f 314/218/170 662/219/170 313/219/170
f 28/85/171 376/86/171 27/86/171
f 85/36/172 433/35/172 84/35/172
f 313/219/173 661/220/173 312/220/173
f 201/185/174 549/187/174 200/187/174
f 168/137/175 518/133/175 517/137/175
f 248/2/16 698/14/16 349/14/16
f 181/138/176 529/136/176 180/136/176
f 27/86/177 375/87/177 26/87/177
f 312/220/178 660/221/178 311/221/178
f 132/182/179 480/188/179 131/188/179
f 275/268/180 623/273/180 274/273/180
f 53/34/181 401/37/181 52/37/181
f 121/189/182 469/183/182 120/183/182
f 26/87/183 374/88/183 25/88/183
f 327/274/184 675/269/184 326/269/184
f 86/38/185 434/36/185 85/36/185
f 311/221/186 659/222/186 310/222/186
f 168/137/187 516/139/187 167/139/187
f 197/190/188 545/186/188 196/186/188
f 25/88/189 373/89/189 24/89/189
f 310/222/190 658/223/190 309/223/190
f 142/134/191 490/140/191 141/140/191
f 274/273/192 622/275/192 273/275/192
f 52/37/193 400/39/193 51/39/193
f 315/224/194 663/218/194 314/218/194
f 159/141/195 507/135/195 158/135/195
f 24/89/196 372/90/196 23/90/196
f 252/276/20 600/272/20 251/272/20
f 87/40/197 435/38/197 86/38/197
f 200/187/198 548/191/198 199/191/198
f 198/192/199 546/190/199 197/190/199
f 182/142/200 530/138/200 181/138/200
f 23/90/201 371/91/201 22/91/201
f 328/277/202 676/274/202 327/274/202
f 309/223/203 657/225/203 308/225/203
f 51/39/204 399/41/204 50/41/204
f 22/91/205 370/92/205 21/92/205
f 88/42/206 436/40/206 87/40/206
f 308/225/207 656/226/207 307/226/207
f 199/191/208 547/192/208 198/192/208
f 167/139/209 515/143/209 166/143/209
f 273/275/210 621/278/210 272/278/210
f 21/92/211 369/93/211 20/93/211
f 89/43/212 437/42/212 88/42/212
f 307/226/213 655/227/213 306/227/213
f 140/144/214 490/140/214 489/144/214
f 19/94/12 367/82/12 18/82/12
f 272/278/215 620/279/215 271/279/215
f 316/228/216 664/224/216 315/224/216
f 131/188/217 479/193/217 130/193/217
f 160/145/218 508/141/218 159/141/218
f 20/93/219 368/94/219 19/94/219
f 328/277/220 678/280/220 677/277/220
f 122/194/221 470/189/221 121/189/221
f 97/95/20 445/96/20 96/96/20
f 50/41/222 398/44/222 49/44/222
f 183/146/223 531/142/223 182/142/223
f 90/45/224 438/43/224 89/43/224
f 306/227/225 654/229/225 305/229/225
f 271/279/226 619/281/226 270/281/226
f 130/193/227 478/195/227 129/195/227
f 329/280/228 679/282/228 678/280/228
f 91/46/229 439/45/229 90/45/229
f 305/229/230 653/230/230 304/230/230
f 123/196/231 471/194/231 122/194/231
f 166/143/232 514/147/232 165/147/232
f 96/96/7 444/2/7 95/2/7
f 317/231/233 665/228/233 316/228/233
f 183/146/234 533/148/234 532/146/234
f 105/97/12 455/14/12 454/97/12
f 95/2/16 455/14/16 106/14/16
f 269/283/235 619/281/235 618/283/235
f 49/44/236 397/47/236 48/47/236
f 128/197/237 478/195/237 477/197/237
f 91/46/238 441/48/238 440/46/238
f 304/230/239 652/232/239 303/232/239
f 124/198/240 472/196/240 123/196/240
f 165/147/241 513/149/241 164/149/241
f 105/97/16 453/98/16 104/98/16
f 269/283/242 617/284/242 268/284/242
f 330/282/243 680/285/243 679/282/243
f 93/49/244 441/48/244 92/48/244
f 303/232/245 651/233/245 302/233/245
f 140/144/246 488/150/246 139/150/246
f 317/231/247 667/234/247 666/231/247
f 128/197/248 476/199/248 127/199/248
f 161/151/249 509/145/249 160/145/249
f 124/198/250 474/200/250 473/198/250
f 104/98/7 452/100/7 103/100/7
f 268/284/251 616/286/251 267/286/251
f 185/152/252 533/148/252 184/148/252
f 101/99/12 451/101/12 450/99/12
f 253/287/253 601/276/253 252/276/253
f 302/233/254 650/235/254 301/235/254
f 126/201/255 474/200/255 125/200/255
f 103/100/16 451/101/16 102/101/16
f 94/14/7 442/49/7 93/49/7
f 126/201/256 476/199/256 475/201/256
f 254/288/257 602/287/257 253/287/257
f 212/95/20 560/96/20 211/96/20
f 164/149/258 512/153/258 163/153/258
f 101/99/16 449/102/16 100/102/16
f 291/237/259 639/236/259 290/236/259
f 255/289/260 603/288/260 254/288/260
f 48/47/261 396/51/261 47/51/261
f 139/150/262 487/154/262 138/154/262
f 100/102/7 448/103/7 99/103/7
f 292/238/263 640/237/263 291/237/263
f 114/2/264 510/151/264 161/151/264
f 98/104/12 446/95/12 97/95/12
f 47/51/265 395/52/265 46/52/265
f 211/96/7 559/2/7 210/2/7
f 99/103/16 447/104/16 98/104/16
f 267/286/266 615/290/266 266/290/266
f 293/239/267 641/238/267 292/238/267
f 2/1/20 350/2/20 1/2/20
f 221/14/12 569/97/12 220/97/12
f 186/155/268 534/152/268 185/152/268
f 112/105/269 460/8/269 111/8/269
f 256/291/270 604/289/270 255/289/270
f 46/52/271 394/53/271 45/53/271
f 210/2/16 570/14/16 221/14/16
f 294/240/272 642/239/272 293/239/272
f 111/8/7 459/106/7 110/106/7
f 257/292/273 605/291/273 256/291/273
f 44/54/274 394/53/274 393/54/274
f 220/97/16 568/98/16 219/98/16
f 163/153/275 511/156/275 162/156/275
f 295/241/276 643/240/276 294/240/276
f 1/2/7 416/4/7 67/4/7
f 115/157/277 463/2/277 114/2/277
f 110/106/278 458/79/278 109/79/278
f 258/293/279 606/292/279 257/292/279
f 44/54/280 392/55/280 43/55/280
f 109/79/281 457/107/281 108/107/281
f 296/242/282 644/241/282 295/241/282
f 67/4/283 415/5/283 66/5/283
f 43/55/284 391/56/284 42/56/284
f 219/98/7 567/100/7 218/100/7
f 209/14/285 511/156/285 558/14/285
f 108/107/7 456/2/7 107/2/7
f 266/290/286 614/294/286 265/294/286
f 297/243/287 645/242/287 296/242/287
f 66/5/288 414/6/288 65/6/288
f 216/99/12 566/101/12 565/99/12
f 187/158/289 535/155/289 186/155/289
f 332/295/290 680/285/290 331/285/290
f 42/56/291 390/57/291 41/57/291
f 218/100/16 566/101/16 217/101/16
f 107/2/292 462/14/292 113/14/292
f 5/58/12 353/50/12 4/50/12
f 298/244/293 646/243/293 297/243/293
f 65/6/294 413/7/294 64/7/294
f 113/14/12 461/105/12 112/105/12
f 259/296/295 607/293/295 258/293/295
f 216/99/16 564/102/16 215/102/16
f 138/154/296 486/159/296 137/159/296
f 151/108/297 499/109/297 150/109/297
f 5/58/298 355/59/298 354/58/298
f 299/245/4 648/245/4 647/244/4
f 64/7/5 413/7/5 412/8/5
f 260/297/6 609/297/6 608/296/6
f 215/102/7 564/102/7 563/103/7
f 209/14/8 558/14/8 557/160/8
f 150/109/9 499/109/9 498/110/9
f 300/246/10 649/246/10 648/245/10
f 63/8/11 412/8/11 411/9/11
f 213/104/12 562/104/12 561/95/12
f 188/161/13 537/161/13 536/158/13
f 261/298/14 610/298/14 609/297/14
f 41/57/15 390/57/15 389/60/15
f 301/235/16 650/235/16 649/246/16
f 214/103/16 563/103/16 562/104/16
f 149/110/17 498/110/17 497/111/17
f 3/61/12 352/61/12 351/1/12
f 319/247/18 668/247/18 667/234/18
f 62/9/19 411/9/19 410/10/19
f 227/202/20 576/202/20 575/203/20
f 152/112/21 501/112/21 500/108/21
f 3/61/16 4/50/16 353/50/16
f 137/159/22 486/159/22 485/162/22
f 265/294/23 614/294/23 613/299/23
f 6/59/24 7/62/24 356/62/24
f 61/10/25 410/10/25 409/11/25
f 226/203/7 575/203/7 574/204/7
f 116/163/26 465/163/26 464/157/26
f 262/300/299 611/300/299 610/298/299
f 289/249/28 638/249/28 637/248/28
f 69/12/12 418/12/12 417/3/12
f 148/111/29 497/111/29 496/113/29
f 8/63/30 357/63/30 356/62/30
f 153/114/31 502/114/31 501/112/31
f 263/301/32 612/301/32 611/300/32
f 290/236/33 639/236/33 638/249/33
f 230/205/12 579/205/12 578/106/12
f 208/160/34 557/160/34 556/164/34
f 9/64/35 358/64/35 357/63/35
f 60/11/36 409/11/36 408/13/36
f 189/165/37 538/165/37 537/161/37
f 264/299/38 613/299/38 612/301/38
f 287/250/39 288/248/39 637/248/39
f 147/113/40 496/113/40 495/115/40
f 68/3/16 417/3/16 443/14/16
f 225/204/41 574/204/41 573/206/41
f 154/116/42 503/116/42 502/114/42
f 40/60/43 389/60/43 388/65/43
f 287/250/44 636/250/44 635/251/44
f 70/15/45 419/15/45 418/12/45
f 224/206/46 573/206/46 572/207/46
f 136/162/47 485/162/47 484/166/47
f 333/302/48 682/302/48 681/295/48
f 10/66/49 359/66/49 358/64/49
f 117/167/50 466/167/50 465/163/50
f 286/251/51 635/251/51 634/252/51
f 71/16/52 420/16/52 419/15/52
f 223/207/7 572/207/7 571/2/7
f 146/115/53 495/115/53 494/117/53
f 11/67/54 360/67/54 359/66/54
f 320/253/55 669/253/55 668/247/55
f 190/168/56 539/168/56 538/165/56
f 155/118/57 504/118/57 503/116/57
f 349/14/58 698/14/58 697/303/58
f 72/17/59 421/17/59 420/16/59
f 234/209/12 583/209/12 582/208/12
f 348/303/60 697/303/60 696/304/60
f 39/65/61 388/65/61 387/68/61
f 285/252/62 634/252/62 633/254/62
f 207/164/63 556/164/63 555/169/63
f 145/117/64 494/117/64 493/119/64
f 333/302/65 334/305/65 683/305/65
f 12/69/66 361/69/66 360/67/66
f 59/13/67 408/13/67 407/18/67
f 156/120/68 505/120/68 504/118/68
f 284/254/69 633/254/69 632/255/69
f 73/19/70 422/19/70 421/17/70
f 222/2/16 571/2/16 585/14/16
f 135/166/71 484/166/71 483/170/71
f 321/256/72 670/256/72 669/253/72
f 228/210/12 577/210/12 576/202/12
f 118/171/73 467/171/73 466/167/73
f 347/304/74 696/304/74 695/306/74
f 38/68/75 387/68/75 386/70/75
f 74/20/76 423/20/76 422/19/76
f 229/106/16 578/106/16 577/210/16
f 13/71/77 362/71/77 361/69/77
f 231/211/78 580/211/78 579/205/78
f 190/168/79 191/172/79 540/172/79
f 346/306/80 695/306/80 694/307/80
f 283/255/81 632/255/81 631/257/81
f 75/21/82 424/21/82 423/20/82
f 173/122/83 174/121/83 523/121/83
f 335/308/84 684/308/84 683/305/84
f 175/123/85 524/123/85 523/121/85
f 37/70/86 386/70/86 385/72/86
f 282/257/87 631/257/87 630/258/87
f 233/208/88 582/208/88 581/212/88
f 206/169/89 555/169/89 554/173/89
f 14/73/90 363/73/90 362/71/90
f 322/259/91 671/259/91 670/256/91
f 58/18/92 407/18/92 406/22/92
f 235/213/20 584/213/20 583/209/20
f 192/174/93 541/174/93 540/172/93
f 175/123/94 176/124/94 525/124/94
f 345/307/95 694/307/95 693/309/95
f 76/23/96 425/23/96 424/21/96
f 235/213/12 236/14/12 585/14/12
f 232/212/12 581/212/12 580/211/12
f 344/309/97 693/309/97 692/310/97
f 36/72/98 385/72/98 384/74/98
f 281/258/99 630/258/99 629/260/99
f 77/24/100 426/24/100 425/23/100
f 238/214/101 239/176/101 588/176/101
f 204/175/102 205/173/102 554/173/102
f 173/122/103 522/122/103 521/125/103
f 15/75/104 364/75/104 363/73/104
f 323/261/105 672/261/105 671/259/105
f 177/126/106 526/126/106 525/124/106
f 342/311/107 343/310/107 692/310/107
f 78/25/108 427/25/108 426/24/108
f 238/214/7 587/214/7 586/2/7
f 134/170/109 483/170/109 482/176/109
f 336/312/110 685/312/110 684/308/110
f 119/177/111 468/177/111 467/171/111
f 35/74/112 384/74/112 383/76/112
f 280/260/113 629/260/113 628/262/113
f 172/125/114 521/125/114 520/127/114
f 16/77/115 365/77/115 364/75/115
f 57/22/116 406/22/116 405/26/116
f 193/178/117 542/178/117 541/174/117
f 342/311/118 691/311/118 690/313/118
f 279/262/119 628/262/119 627/263/119
f 79/27/120 428/27/120 427/25/120
f 237/2/121 586/2/121 593/215/121
f 144/119/122 493/119/122 492/128/122
f 324/264/123 673/264/123 672/261/123
f 157/129/124 506/129/124 505/120/124
f 341/313/125 690/313/125 689/314/125
f 33/78/126 34/76/126 383/76/126
f 80/28/127 429/28/127 428/27/127
f 247/14/128 245/168/128 594/168/128
f 204/175/129 553/175/129 552/179/129
f 246/216/130 595/216/130 594/168/130
f 194/180/131 543/180/131 542/178/131
f 177/126/132 178/130/132 527/130/132
f 340/314/133 689/314/133 688/315/133
f 33/78/134 382/78/134 381/79/134
f 278/263/135 627/263/135 626/265/135
f 337/316/136 686/316/136 685/312/136
f 16/77/137 17/80/137 366/80/137
f 325/266/138 674/266/138 673/264/138
f 56/26/139 405/26/139 404/29/139
f 81/30/140 430/30/140 429/28/140
f 203/179/141 552/179/141 551/181/141
f 171/127/142 520/127/142 519/131/142
f 338/317/143 687/317/143 686/316/143
f 179/132/144 528/132/144 527/130/144
f 339/315/300 688/315/300 687/317/300
f 32/79/146 381/79/146 380/81/146
f 277/265/147 626/265/147 625/267/147
f 82/31/148 431/31/148 430/30/148
f 247/14/7 596/14/7 595/216/7
f 133/176/149 482/176/149 481/182/149
f 17/80/150 18/82/150 367/82/150
f 242/106/12 591/106/12 590/112/12
f 120/183/151 469/183/151 468/177/151
f 276/267/152 625/267/152 624/268/152
f 170/131/153 519/131/153 518/133/153
f 326/269/154 675/269/154 674/266/154
f 55/29/155 404/29/155 403/32/155
f 195/184/156 544/184/156 543/180/156
f 31/81/157 380/81/157 379/83/157
f 83/33/158 432/33/158 431/31/158
f 240/217/12 589/217/12 588/176/12
f 143/128/159 492/128/159 491/134/159
f 250/270/20 599/270/20 598/271/20
f 241/112/160 590/112/160 589/217/160
f 158/135/161 507/135/161 506/129/161
f 30/83/162 379/83/162 378/84/162
f 243/127/163 592/127/163 591/106/163
f 202/181/164 551/181/164 550/185/164
f 249/271/7 598/271/7 597/2/7
f 54/32/165 403/32/165 402/34/165
f 244/215/12 593/215/12 592/127/12
f 195/184/166 196/186/166 545/186/166
f 180/136/167 529/136/167 528/132/167
f 29/84/168 378/84/168 377/85/168
f 250/270/12 251/272/12 600/272/12
f 84/35/169 433/35/169 432/33/169
f 314/218/170 663/218/170 662/219/170
f 28/85/171 377/85/171 376/86/171
f 85/36/172 434/36/172 433/35/172
f 313/219/173 662/219/173 661/220/173
f 201/185/174 550/185/174 549/187/174
f 168/137/175 169/133/175 518/133/175
f 248/2/16 597/2/16 698/14/16
f 181/138/176 530/138/176 529/136/176
f 27/86/177 376/86/177 375/87/177
f 312/220/301 661/220/301 660/221/301
f 132/182/179 481/182/179 480/188/179
f 275/268/180 624/268/180 623/273/180
f 53/34/181 402/34/181 401/37/181
f 121/189/182 470/189/182 469/183/182
f 26/87/183 375/87/183 374/88/183
f 327/274/184 676/274/184 675/269/184
f 86/38/185 435/38/185 434/36/185
f 311/221/186 660/221/186 659/222/186
f 168/137/187 517/137/187 516/139/187
f 197/190/188 546/190/188 545/186/188
f 25/88/189 374/88/189 373/89/189
f 310/222/190 659/222/190 658/223/190
f 142/134/191 491/134/191 490/140/191
f 274/273/192 623/273/192 622/275/192
f 52/37/193 401/37/193 400/39/193
f 315/224/194 664/224/194 663/218/194
f 159/141/195 508/141/195 507/135/195
f 24/89/196 373/89/196 372/90/196
f 252/276/20 601/276/20 600/272/20
f 87/40/197 436/40/197 435/38/197
f 200/187/198 549/187/198 548/191/198
f 198/192/199 547/192/199 546/190/199
f 182/142/200 531/142/200 530/138/200
f 23/90/201 372/90/201 371/91/201
f 328/277/202 677/277/202 676/274/202
f 309/223/203 658/223/203 657/225/203
f 51/39/204 400/39/204 399/41/204
f 22/91/205 371/91/205 370/92/205
f 88/42/206 437/42/206 436/40/206
f 308/225/207 657/225/207 656/226/207
f 199/191/208 548/191/208 547/192/208
f 167/139/209 516/139/209 515/143/209
f 273/275/210 622/275/210 621/278/210
f 21/92/211 370/92/211 369/93/211
f 89/43/212 438/43/212 437/42/212
f 307/226/213 656/226/213 655/227/213
f 140/144/214 141/140/214 490/140/214
f 19/94/12 368/94/12 367/82/12
f 272/278/215 621/278/215 620/279/215
f 316/228/216 665/228/216 664/224/216
f 131/188/217 480/188/217 479/193/217
f 160/145/218 509/145/218 508/141/218
f 20/93/219 369/93/219 368/94/219
f 328/277/220 329/280/220 678/280/220
f 122/194/221 471/194/221 470/189/221
f 97/95/20 446/95/20 445/96/20
f 50/41/222 399/41/222 398/44/222
f 183/146/223 532/146/223 531/142/223
f 90/45/224 439/45/224 438/43/224
f 306/227/225 655/227/225 654/229/225
f 271/279/226 620/279/226 619/281/226
f 130/193/227 479/193/227 478/195/227
f 329/280/228 330/282/228 679/282/228
f 91/46/229 440/46/229 439/45/229
f 305/229/230 654/229/230 653/230/230
f 123/196/231 472/196/231 471/194/231
f 166/143/232 515/143/232 514/147/232
f 96/96/7 445/96/7 444/2/7
f 317/231/233 666/231/233 665/228/233
f 183/146/234 184/148/234 533/148/234
f 105/97/12 106/14/12 455/14/12
f 95/2/16 444/2/16 455/14/16
f 269/283/235 270/281/235 619/281/235
f 49/44/236 398/44/236 397/47/236
f 128/197/237 129/195/237 478/195/237
f 91/46/238 92/48/238 441/48/238
f 304/230/239 653/230/239 652/232/239
f 124/198/240 473/198/240 472/196/240
f 165/147/241 514/147/241 513/149/241
f 105/97/16 454/97/16 453/98/16
f 269/283/242 618/283/242 617/284/242
f 330/282/243 331/285/243 680/285/243
f 93/49/244 442/49/244 441/48/244
f 303/232/245 652/232/245 651/233/245
f 140/144/246 489/144/246 488/150/246
f 317/231/247 318/234/247 667/234/247
f 128/197/248 477/197/248 476/199/248
f 161/151/249 510/151/249 509/145/249
f 124/198/250 125/200/250 474/200/250
f 104/98/7 453/98/7 452/100/7
f 268/284/251 617/284/251 616/286/251
f 185/152/252 534/152/252 533/148/252
f 101/99/12 102/101/12 451/101/12
f 253/287/253 602/287/253 601/276/253
f 302/233/254 651/233/254 650/235/254
f 126/201/255 475/201/255 474/200/255
f 103/100/16 452/100/16 451/101/16
f 94/14/7 443/14/7 442/49/7
f 126/201/256 127/199/256 476/199/256
f 254/288/257 603/288/257 602/287/257
f 212/95/20 561/95/20 560/96/20
f 164/149/258 513/149/258 512/153/258
f 101/99/16 450/99/16 449/102/16
f 291/237/259 640/237/259 639/236/259
f 255/289/260 604/289/260 603/288/260
f 48/47/261 397/47/261 396/51/261
f 139/150/262 488/150/262 487/154/262
f 100/102/7 449/102/7 448/103/7
f 292/238/263 641/238/263 640/237/263
f 114/2/264 463/2/264 510/151/264
f 98/104/12 447/104/12 446/95/12
f 47/51/265 396/51/265 395/52/265
f 211/96/7 560/96/7 559/2/7
f 99/103/16 448/103/16 447/104/16
f 267/286/266 616/286/266 615/290/266
f 293/239/267 642/239/267 641/238/267
f 2/1/20 351/1/20 350/2/20
f 221/14/12 570/14/12 569/97/12
f 186/155/268 535/155/268 534/152/268
f 112/105/269 461/105/269 460/8/269
f 256/291/270 605/291/270 604/289/270
f 46/52/271 395/52/271 394/53/271
f 210/2/16 559/2/16 570/14/16
f 294/240/272 643/240/272 642/239/272
f 111/8/7 460/8/7 459/106/7
f 257/292/273 606/292/273 605/291/273
f 44/54/274 45/53/274 394/53/274
f 220/97/16 569/97/16 568/98/16
f 163/153/275 512/153/275 511/156/275
f 295/241/276 644/241/276 643/240/276
f 1/2/7 350/2/7 416/4/7
f 115/157/277 464/157/277 463/2/277
f 110/106/278 459/106/278 458/79/278
f 258/293/279 607/293/279 606/292/279
f 44/54/280 393/54/280 392/55/280
f 109/79/281 458/79/281 457/107/281
f 296/242/282 645/242/282 644/241/282
f 67/4/283 416/4/283 415/5/283
f 43/55/284 392/55/284 391/56/284
f 219/98/7 568/98/7 567/100/7
f 209/14/285 162/156/285 511/156/285
f 108/107/7 457/107/7 456/2/7
f 266/290/286 615/290/286 614/294/286
f 297/243/287 646/243/287 645/242/287
f 66/5/288 415/5/288 414/6/288
f 216/99/12 217/101/12 566/101/12
f 187/158/289 536/158/289 535/155/289
f 332/295/290 681/295/290 680/285/290
f 42/56/291 391/56/291 390/57/291
f 218/100/16 567/100/16 566/101/16
f 107/2/292 456/2/292 462/14/292
f 5/58/12 354/58/12 353/50/12
f 298/244/293 647/244/293 646/243/293
f 65/6/294 414/6/294 413/7/294
f 113/14/12 462/14/12 461/105/12
f 259/296/295 608/296/295 607/293/295
f 216/99/16 565/99/16 564/102/16
f 138/154/296 487/154/296 486/159/296
f 151/108/297 500/108/297 499/109/297
f 5/58/298 6/59/298 355/59/298
