# Blender 4.4.1
# www.blender.org
mtllib GameClear.mtl
o テキスト
v -11.709297 1.940524 0.000002
v -11.709297 -1.186734 0.000002
v -12.158669 -1.186734 0.000002
v -12.158669 0.170551 0.000002
v -12.346670 0.170551 0.000002
v -12.403282 0.168736 0.000002
v -12.459097 0.162144 0.000002
v -12.515039 0.149057 0.000002
v -12.572033 0.127753 0.000002
v -12.631001 0.096515 0.000002
v -12.692869 0.053622 0.000002
v -12.758554 -0.002645 0.000002
v -12.828987 -0.074005 0.000002
v -12.905085 -0.162179 0.000002
v -12.987776 -0.268886 0.000002
v -13.077984 -0.395845 0.000002
v -13.176632 -0.544775 0.000002
v -13.589319 -1.186734 0.000002
v -14.125814 -1.186734 0.000002
v -14.074690 -1.116058 0.000002
v -14.028629 -1.052356 0.000002
v -13.986963 -0.994576 0.000002
v -13.949022 -0.941669 0.000002
v -13.914141 -0.892583 0.000002
v -13.881643 -0.846267 0.000002
v -13.850866 -0.801670 0.000002
v -13.821142 -0.757743 0.000002
v -13.791798 -0.713433 0.000002
v -13.762169 -0.667690 0.000002
v -13.731585 -0.619464 0.000002
v -13.699371 -0.567702 0.000002
v -13.640997 -0.472364 0.000002
v -13.584694 -0.381228 0.000002
v -13.529854 -0.294296 0.000002
v -13.475874 -0.211568 0.000002
v -13.422150 -0.133042 0.000002
v -13.368074 -0.058720 0.000002
v -13.313046 0.011398 0.000002
v -13.256454 0.077314 0.000002
v -13.197699 0.139026 0.000002
v -13.136171 0.196535 0.000002
v -13.071270 0.249840 0.000002
v -13.002386 0.298942 0.000002
v -13.082991 0.335026 0.000002
v -13.157335 0.376682 0.000002
v -13.225281 0.423752 0.000002
v -13.286682 0.476076 0.000002
v -13.341396 0.533494 0.000002
v -13.389282 0.595849 0.000002
v -13.430191 0.662979 0.000002
v -13.463985 0.734728 0.000002
v -13.490519 0.810934 0.000002
v -13.509647 0.891439 0.000002
v -13.521231 0.976083 0.000002
v -13.525124 1.064708 0.000002
v -13.517000 1.195605 0.000002
v -13.492985 1.317458 0.000002
v -13.453621 1.429822 0.000002
v -13.399450 1.532251 0.000002
v -13.331017 1.624300 0.000002
v -13.248856 1.705521 0.000002
v -13.153511 1.775470 0.000002
v -13.045527 1.833700 0.000002
v -12.925440 1.879767 0.000002
v -12.793795 1.913224 0.000002
v -12.651133 1.933624 0.000002
v -12.497990 1.940524 0.000002
v -12.158669 1.555348 0.000002
v -12.447550 1.555348 0.000002
v -12.551060 1.551660 0.000002
v -12.643999 1.540743 0.000002
v -12.726686 1.522820 0.000002
v -12.799438 1.498115 0.000002
v -12.862574 1.466851 0.000002
v -12.916409 1.429249 0.000002
v -12.961266 1.385533 0.000002
v -12.997461 1.335927 0.000002
v -13.025312 1.280653 0.000002
v -13.045139 1.219933 0.000002
v -13.057262 1.153991 0.000002
v -13.061998 1.083050 0.000002
v -13.060064 1.018129 0.000002
v -13.051508 0.954594 0.000002
v -13.035631 0.893256 0.000002
v -13.011728 0.834927 0.000002
v -12.979099 0.780420 0.000002
v -12.937044 0.730545 0.000002
v -12.884863 0.686116 0.000002
v -12.821856 0.647944 0.000002
v -12.747322 0.616841 0.000002
v -12.660561 0.593619 0.000002
v -12.560869 0.579091 0.000002
v -12.447550 0.574068 0.000002
v -12.158669 0.574068 0.000002
v -9.957666 1.958866 0.000002
v -9.641273 1.958866 0.000002
v -8.297745 -1.186734 0.000002
v -8.756285 -1.186734 0.000002
v -9.150631 -0.265064 0.000002
v -10.480404 -0.265064 0.000002
v -10.897678 -1.186734 0.000002
v -11.356220 -1.186734 0.000002
v -9.792593 1.271052 0.000002
v -10.296988 0.138453 0.000002
v -9.324879 0.138453 0.000002
v -8.123497 1.940524 0.000002
v -6.348938 1.940524 0.000002
v -6.348938 -1.186734 0.000002
v -8.164768 -1.186734 0.000002
v -8.164768 -0.783217 0.000002
v -6.798309 -0.783217 0.000002
v -6.798309 0.188892 0.000002
v -8.077644 0.188892 0.000002
v -8.077644 0.592409 0.000002
v -6.798309 0.592409 0.000002
v -6.798309 1.537006 0.000002
v -8.123497 1.537006 0.000002
v -4.546867 1.940524 0.000001
v -4.097496 1.940524 0.000001
v -4.097496 -1.186734 0.000002
v -5.959177 -1.186734 0.000002
v -5.959177 -0.783217 0.000002
v -4.546867 -0.783217 0.000002
v -3.519733 1.725009 0.000001
v -3.415167 1.767628 0.000001
v -3.314472 1.806124 0.000001
v -3.217310 1.840576 0.000001
v -3.123348 1.871063 0.000001
v -3.032253 1.897665 0.000001
v -2.943689 1.920462 0.000001
v -2.857323 1.939534 0.000001
v -2.772819 1.954959 0.000001
v -2.689843 1.966818 0.000001
v -2.608062 1.975190 0.000001
v -2.527141 1.980155 0.000001
v -2.446744 1.981793 0.000001
v -2.203974 1.967527 0.000001
v -1.974212 1.925748 0.000001
v -1.759003 1.857986 0.000001
v -1.559890 1.765768 0.000001
v -1.378418 1.650623 0.000001
v -1.216132 1.514079 0.000001
v -1.074575 1.357665 0.000001
v -0.955294 1.182910 0.000001
v -0.859830 0.991341 0.000001
v -0.789729 0.784488 0.000001
v -0.746537 0.563878 0.000001
v -0.731797 0.331041 0.000001
v -0.742580 0.162619 0.000001
v -0.775273 -0.012123 0.000001
v -0.830383 -0.189190 0.000001
v -0.908421 -0.364585 0.000001
v -1.009893 -0.534312 0.000001
v -1.135313 -0.694375 0.000001
v -1.285189 -0.840777 0.000001
v -1.460030 -0.969521 0.000001
v -1.660344 -1.076613 0.000001
v -1.886643 -1.158055 0.000001
v -2.139436 -1.209850 0.000001
v -2.419232 -1.228003 0.000001
v -2.538718 -1.225655 0.000001
v -2.652154 -1.218769 0.000001
v -2.759985 -1.207584 0.000001
v -2.862658 -1.192339 0.000001
v -2.960619 -1.173273 0.000001
v -3.054312 -1.150624 0.000001
v -3.144184 -1.124632 0.000001
v -3.230680 -1.095535 0.000001
v -3.314247 -1.063573 0.000001
v -3.395330 -1.028983 0.000001
v -3.474377 -0.992005 0.000001
v -3.551832 -0.952878 0.000001
v -3.551832 -0.462238 0.000001
v -3.462931 -0.517348 0.000001
v -3.372915 -0.567999 0.000001
v -3.282007 -0.614130 0.000001
v -3.190432 -0.655674 0.000001
v -3.098410 -0.692570 0.000001
v -3.006165 -0.724753 0.000001
v -2.913921 -0.752159 0.000001
v -2.821899 -0.774726 0.000001
v -2.730323 -0.792388 0.000001
v -2.639417 -0.805083 0.000001
v -2.549400 -0.812746 0.000001
v -2.460501 -0.815315 0.000001
v -2.277625 -0.805346 0.000001
v -2.105639 -0.776063 0.000001
v -1.945500 -0.728407 0.000001
v -1.798162 -0.663317 0.000001
v -1.664579 -0.581732 0.000001
v -1.545709 -0.484592 0.000001
v -1.442505 -0.372835 0.000001
v -1.355923 -0.247402 0.000001
v -1.286919 -0.109232 0.000001
v -1.236447 0.040737 0.000001
v -1.205464 0.201563 0.000001
v -1.194923 0.372309 0.000001
v -1.205804 0.540346 0.000001
v -1.237636 0.699785 0.000001
v -1.289211 0.849480 0.000001
v -1.359319 0.988284 0.000001
v -1.446750 1.115052 0.000001
v -1.550294 1.228637 0.000001
v -1.668739 1.327892 0.000001
v -1.800879 1.411672 0.000001
v -1.945500 1.478829 0.000001
v -2.101394 1.528218 0.000001
v -2.267350 1.558692 0.000001
v -2.442159 1.569104 0.000001
v -2.532103 1.566990 0.000001
v -2.621012 1.560592 0.000001
v -2.709188 1.549832 0.000001
v -2.796934 1.534629 0.000001
v -2.884554 1.514905 0.000001
v -2.972347 1.490579 0.000001
v -3.060619 1.461573 0.000001
v -3.149672 1.427806 0.000001
v -3.239807 1.389199 0.000001
v -3.331327 1.345672 0.000001
v -3.424534 1.297145 0.000001
v -3.519733 1.243539 0.000001
v 0.937298 1.940524 0.000001
v 2.711856 1.940524 0.000001
v 2.711856 -1.186734 0.000001
v 0.896029 -1.186734 0.000001
v 0.896029 -0.783217 0.000001
v 2.262485 -0.783217 0.000001
v 2.262485 0.188892 0.000001
v 0.983151 0.188892 0.000001
v 0.983151 0.592409 0.000001
v 2.262485 0.592409 0.000001
v 2.262485 1.537006 0.000001
v 0.937298 1.537006 0.000001
v 3.385913 1.940524 0.000001
v 3.803186 1.940524 0.000001
v 4.844078 0.656605 0.000001
v 5.880383 1.940524 0.000000
v 6.302242 1.940524 0.000000
v 6.302242 -1.186734 0.000001
v 5.852870 -1.186734 0.000001
v 5.852870 1.248125 0.000001
v 5.843700 1.248125 0.000001
v 4.880761 0.037573 0.000001
v 4.807394 0.037573 0.000001
v 3.844456 1.248125 0.000001
v 3.835284 1.248125 0.000001
v 3.835284 -1.186734 0.000001
v 3.385913 -1.186734 0.000001
v 8.035532 1.958866 0.000000
v 8.351926 1.958866 0.000000
v 9.695455 -1.186734 0.000000
v 9.236912 -1.186734 0.000000
v 8.842566 -0.265064 0.000000
v 7.512794 -0.265064 0.000000
v 7.095520 -1.186734 0.000001
v 6.636978 -1.186734 0.000001
v 8.200607 1.271052 0.000000
v 7.696210 0.138453 0.000000
v 8.668320 0.138453 0.000000
v 10.002678 0.353968 0.000000
v 11.052739 0.353968 0.000000
v 11.052739 -0.049550 0.000000
v 10.452049 -0.049550 0.000000
v 10.452049 -0.691509 0.000000
v 10.506034 -0.708394 0.000000
v 10.560274 -0.724562 0.000000
v 10.614832 -0.739871 0.000000
v 10.669772 -0.754176 0.000000
v 10.725158 -0.767335 0.000000
v 10.781054 -0.779205 0.000000
v 10.837523 -0.789641 0.000000
v 10.894628 -0.798502 0.000000
v 10.952434 -0.805643 0.000000
v 11.011003 -0.810921 0.000000
v 11.070402 -0.814193 0.000000
v 11.130692 -0.815315 0.000000
v 11.311641 -0.805258 0.000000
v 11.482368 -0.775745 0.000000
v 11.641823 -0.727762 0.000000
v 11.788955 -0.662298 0.000000
v 11.922712 -0.580339 0.000000
v 12.042045 -0.482872 0.000000
v 12.145901 -0.370885 0.000000
v 12.233232 -0.245364 0.000000
v 12.302984 -0.107297 0.000000
v 12.354108 0.042329 0.000000
v 12.385553 0.202526 0.000000
v 12.396268 0.372309 -0.000000
v 12.385500 0.538419 -0.000000
v 12.354065 0.696601 -0.000000
v 12.303270 0.845611 -0.000000
v 12.234420 0.984208 -0.000000
v 12.148820 1.111152 -0.000000
v 12.047776 1.225198 -0.000000
v 11.932594 1.325106 -0.000000
v 11.804579 1.409634 -0.000000
v 11.665036 1.477539 0.000000
v 11.515273 1.527581 0.000000
v 11.356592 1.558517 0.000000
v 11.190302 1.569104 0.000000
v 11.096216 1.566912 0.000000
v 11.002003 1.560358 0.000000
v 10.907725 1.549473 0.000000
v 10.813448 1.534289 0.000000
v 10.719234 1.514839 0.000000
v 10.625149 1.491152 0.000000
v 10.531254 1.463263 0.000000
v 10.437613 1.431202 0.000000
v 10.344292 1.395002 0.000000
v 10.251352 1.354694 0.000000
v 10.158858 1.310310 0.000000
v 10.066874 1.261881 0.000000
v 10.066874 1.715838 0.000000
v 10.184860 1.764417 0.000000
v 10.294298 1.807186 0.000000
v 10.396379 1.844445 0.000000
v 10.492299 1.876498 0.000000
v 10.583251 1.903647 0.000000
v 10.670429 1.926195 0.000000
v 10.755030 1.944443 0.000000
v 10.838243 1.958696 0.000000
v 10.921267 1.969254 0.000000
v 11.005293 1.976422 0.000000
v 11.091516 1.980500 0.000000
v 11.181131 1.981793 0.000000
v 11.414511 1.967455 0.000000
v 11.636617 1.925557 -0.000000
v 11.845731 1.857771 -0.000000
v 12.040133 1.765768 -0.000000
v 12.218105 1.651220 -0.000000
v 12.377927 1.515799 -0.000000
v 12.517878 1.361176 -0.000000
v 12.636239 1.189024 -0.000000
v 12.731291 1.001014 -0.000000
v 12.801313 0.798817 -0.000000
v 12.844589 0.584106 -0.000000
v 12.859396 0.358553 -0.000000
v 12.844947 0.134685 -0.000000
v 12.802651 -0.077402 -0.000000
v 12.734085 -0.276241 -0.000000
v 12.640824 -0.460369 0.000000
v 12.524445 -0.628321 0.000000
v 12.386524 -0.778632 0.000000
v 12.228638 -0.909836 0.000000
v 12.052361 -1.020470 0.000000
v 11.859272 -1.109068 0.000000
v 11.650946 -1.174167 0.000000
v 11.428959 -1.214300 0.000000
v 11.194887 -1.228003 0.000000
v 11.087889 -1.226453 0.000000
v 10.984298 -1.221719 0.000000
v 10.883509 -1.213674 0.000000
v 10.784917 -1.202189 0.000000
v 10.687918 -1.187138 0.000000
v 10.591905 -1.168393 0.000000
v 10.496274 -1.145826 0.000000
v 10.400421 -1.119312 0.000000
v 10.303740 -1.088721 0.000000
v 10.205626 -1.053927 0.000000
v 10.105474 -1.014802 0.000000
v 10.002678 -0.971219 0.000000
v -11.709297 1.940524 -0.406767
v -11.709297 -1.186734 -0.406767
v -12.158669 -1.186734 -0.406767
v -12.158669 0.170551 -0.406767
v -12.346670 0.170551 -0.406767
v -12.403282 0.168735 -0.406767
v -12.459097 0.162144 -0.406767
v -12.515039 0.149057 -0.406767
v -12.572033 0.127753 -0.406767
v -12.631001 0.096515 -0.406767
v -12.692869 0.053622 -0.406767
v -12.758554 -0.002645 -0.406767
v -12.828987 -0.074005 -0.406767
v -12.905085 -0.162179 -0.406767
v -12.987776 -0.268886 -0.406767
v -13.077984 -0.395845 -0.406767
v -13.176632 -0.544775 -0.406767
v -13.589319 -1.186734 -0.406766
v -14.125814 -1.186734 -0.406766
v -14.074690 -1.116058 -0.406766
v -14.028629 -1.052356 -0.406766
v -13.986963 -0.994576 -0.406766
v -13.949022 -0.941669 -0.406766
v -13.914141 -0.892583 -0.406766
v -13.881643 -0.846267 -0.406766
v -13.850866 -0.801670 -0.406766
v -13.821142 -0.757743 -0.406766
v -13.791798 -0.713433 -0.406766
v -13.762169 -0.667690 -0.406766
v -13.731585 -0.619464 -0.406766
v -13.699371 -0.567702 -0.406766
v -13.640997 -0.472364 -0.406767
v -13.584694 -0.381228 -0.406767
v -13.529854 -0.294296 -0.406767
v -13.475874 -0.211568 -0.406767
v -13.422150 -0.133042 -0.406767
v -13.368074 -0.058720 -0.406767
v -13.313046 0.011398 -0.406767
v -13.256454 0.077314 -0.406767
v -13.197699 0.139026 -0.406767
v -13.136171 0.196535 -0.406767
v -13.071270 0.249840 -0.406767
v -13.002386 0.298942 -0.406767
v -13.082991 0.335026 -0.406767
v -13.157335 0.376682 -0.406767
v -13.225281 0.423752 -0.406767
v -13.286682 0.476076 -0.406767
v -13.341396 0.533494 -0.406767
v -13.389282 0.595849 -0.406767
v -13.430191 0.662979 -0.406767
v -13.463985 0.734728 -0.406767
v -13.490519 0.810934 -0.406767
v -13.509647 0.891439 -0.406767
v -13.521231 0.976083 -0.406767
v -13.525124 1.064708 -0.406767
v -13.517000 1.195605 -0.406767
v -13.492985 1.317458 -0.406767
v -13.453621 1.429822 -0.406767
v -13.399450 1.532251 -0.406767
v -13.331017 1.624300 -0.406767
v -13.248856 1.705521 -0.406767
v -13.153511 1.775470 -0.406767
v -13.045527 1.833700 -0.406767
v -12.925440 1.879767 -0.406767
v -12.793795 1.913224 -0.406767
v -12.651133 1.933624 -0.406767
v -12.497990 1.940524 -0.406767
v -12.158669 1.555348 -0.406767
v -12.447550 1.555348 -0.406767
v -12.551060 1.551660 -0.406767
v -12.643999 1.540743 -0.406767
v -12.726686 1.522820 -0.406767
v -12.799438 1.498115 -0.406767
v -12.862574 1.466851 -0.406767
v -12.916409 1.429249 -0.406767
v -12.961266 1.385533 -0.406767
v -12.997461 1.335927 -0.406767
v -13.025312 1.280653 -0.406767
v -13.045139 1.219933 -0.406767
v -13.057262 1.153991 -0.406767
v -13.061998 1.083050 -0.406767
v -13.060064 1.018129 -0.406767
v -13.051508 0.954594 -0.406767
v -13.035631 0.893256 -0.406767
v -13.011728 0.834927 -0.406767
v -12.979099 0.780420 -0.406767
v -12.937044 0.730545 -0.406767
v -12.884863 0.686116 -0.406767
v -12.821856 0.647944 -0.406767
v -12.747322 0.616841 -0.406767
v -12.660561 0.593619 -0.406767
v -12.560869 0.579091 -0.406767
v -12.447550 0.574068 -0.406767
v -12.158669 0.574068 -0.406767
v -9.957666 1.958866 -0.406767
v -9.641273 1.958866 -0.406767
v -8.297745 -1.186734 -0.406767
v -8.756285 -1.186734 -0.406767
v -9.150631 -0.265065 -0.406767
v -10.480404 -0.265065 -0.406767
v -10.897678 -1.186734 -0.406767
v -11.356220 -1.186734 -0.406767
v -9.792593 1.271052 -0.406767
v -10.296988 0.138453 -0.406767
v -9.324879 0.138453 -0.406767
v -8.123497 1.940524 -0.406767
v -6.348938 1.940524 -0.406767
v -6.348938 -1.186734 -0.406767
v -8.164768 -1.186734 -0.406767
v -8.164768 -0.783217 -0.406767
v -6.798309 -0.783217 -0.406767
v -6.798309 0.188892 -0.406767
v -8.077644 0.188892 -0.406767
v -8.077644 0.592409 -0.406767
v -6.798309 0.592409 -0.406767
v -6.798309 1.537006 -0.406767
v -8.123497 1.537006 -0.406767
v -4.546867 1.940524 -0.406767
v -4.097496 1.940524 -0.406767
v -4.097496 -1.186734 -0.406767
v -5.959177 -1.186734 -0.406767
v -5.959177 -0.783217 -0.406767
v -4.546867 -0.783217 -0.406767
v -3.519733 1.725009 -0.406767
v -3.415167 1.767628 -0.406767
v -3.314472 1.806124 -0.406767
v -3.217310 1.840576 -0.406768
v -3.123348 1.871063 -0.406768
v -3.032253 1.897665 -0.406768
v -2.943689 1.920462 -0.406768
v -2.857323 1.939534 -0.406768
v -2.772819 1.954959 -0.406768
v -2.689843 1.966818 -0.406768
v -2.608062 1.975190 -0.406768
v -2.527141 1.980155 -0.406768
v -2.446744 1.981793 -0.406768
v -2.203974 1.967527 -0.406768
v -1.974212 1.925748 -0.406768
v -1.759003 1.857986 -0.406768
v -1.559890 1.765768 -0.406768
v -1.378418 1.650623 -0.406768
v -1.216132 1.514079 -0.406768
v -1.074575 1.357665 -0.406768
v -0.955294 1.182910 -0.406768
v -0.859830 0.991341 -0.406768
v -0.789729 0.784488 -0.406768
v -0.746537 0.563878 -0.406768
v -0.731797 0.331040 -0.406768
v -0.742580 0.162619 -0.406768
v -0.775273 -0.012123 -0.406768
v -0.830383 -0.189190 -0.406768
v -0.908421 -0.364585 -0.406768
v -1.009893 -0.534312 -0.406768
v -1.135313 -0.694375 -0.406768
v -1.285189 -0.840777 -0.406768
v -1.460030 -0.969521 -0.406768
v -1.660344 -1.076613 -0.406768
v -1.886643 -1.158055 -0.406767
v -2.139436 -1.209850 -0.406767
v -2.419232 -1.228003 -0.406767
v -2.538718 -1.225655 -0.406767
v -2.652154 -1.218769 -0.406767
v -2.759985 -1.207584 -0.406767
v -2.862658 -1.192339 -0.406767
v -2.960619 -1.173273 -0.406767
v -3.054312 -1.150624 -0.406767
v -3.144184 -1.124632 -0.406767
v -3.230680 -1.095535 -0.406767
v -3.314247 -1.063573 -0.406767
v -3.395330 -1.028983 -0.406767
v -3.474377 -0.992005 -0.406767
v -3.551832 -0.952878 -0.406767
v -3.551832 -0.462238 -0.406767
v -3.462931 -0.517348 -0.406767
v -3.372915 -0.567999 -0.406767
v -3.282007 -0.614130 -0.406767
v -3.190432 -0.655674 -0.406767
v -3.098410 -0.692570 -0.406767
v -3.006165 -0.724753 -0.406767
v -2.913921 -0.752159 -0.406767
v -2.821899 -0.774726 -0.406767
v -2.730323 -0.792388 -0.406767
v -2.639417 -0.805083 -0.406767
v -2.549400 -0.812746 -0.406767
v -2.460501 -0.815315 -0.406767
v -2.277625 -0.805346 -0.406767
v -2.105639 -0.776063 -0.406767
v -1.945500 -0.728407 -0.406768
v -1.798162 -0.663317 -0.406768
v -1.664579 -0.581732 -0.406768
v -1.545709 -0.484592 -0.406768
v -1.442505 -0.372835 -0.406768
v -1.355923 -0.247402 -0.406768
v -1.286919 -0.109232 -0.406768
v -1.236447 0.040737 -0.406768
v -1.205464 0.201563 -0.406768
v -1.194923 0.372309 -0.406768
v -1.205804 0.540346 -0.406768
v -1.237636 0.699785 -0.406768
v -1.289211 0.849480 -0.406768
v -1.359319 0.988284 -0.406768
v -1.446750 1.115052 -0.406768
v -1.550294 1.228637 -0.406768
v -1.668739 1.327892 -0.406768
v -1.800879 1.411672 -0.406768
v -1.945500 1.478829 -0.406768
v -2.101394 1.528218 -0.406768
v -2.267350 1.558692 -0.406768
v -2.442159 1.569104 -0.406768
v -2.532103 1.566990 -0.406768
v -2.621012 1.560592 -0.406768
v -2.709188 1.549832 -0.406768
v -2.796934 1.534629 -0.406768
v -2.884554 1.514905 -0.406768
v -2.972347 1.490579 -0.406768
v -3.060619 1.461573 -0.406768
v -3.149672 1.427806 -0.406767
v -3.239807 1.389199 -0.406767
v -3.331327 1.345672 -0.406767
v -3.424534 1.297145 -0.406767
v -3.519733 1.243539 -0.406767
v 0.937298 1.940524 -0.406768
v 2.711856 1.940524 -0.406768
v 2.711856 -1.186734 -0.406768
v 0.896028 -1.186734 -0.406768
v 0.896028 -0.783217 -0.406768
v 2.262485 -0.783217 -0.406768
v 2.262485 0.188892 -0.406768
v 0.983151 0.188892 -0.406768
v 0.983151 0.592409 -0.406768
v 2.262485 0.592409 -0.406768
v 2.262485 1.537006 -0.406768
v 0.937298 1.537006 -0.406768
v 3.385913 1.940524 -0.406768
v 3.803186 1.940524 -0.406768
v 4.844078 0.656605 -0.406768
v 5.880383 1.940524 -0.406768
v 6.302242 1.940524 -0.406768
v 6.302242 -1.186734 -0.406768
v 5.852870 -1.186734 -0.406768
v 5.852870 1.248125 -0.406768
v 5.843700 1.248125 -0.406768
v 4.880761 0.037573 -0.406768
v 4.807394 0.037573 -0.406768
v 3.844456 1.248125 -0.406768
v 3.835284 1.248125 -0.406768
v 3.835284 -1.186734 -0.406768
v 3.385913 -1.186734 -0.406768
v 8.035532 1.958866 -0.406769
v 8.351926 1.958866 -0.406769
v 9.695455 -1.186734 -0.406769
v 9.236912 -1.186734 -0.406768
v 8.842566 -0.265065 -0.406768
v 7.512794 -0.265065 -0.406768
v 7.095520 -1.186734 -0.406768
v 6.636978 -1.186734 -0.406768
v 8.200607 1.271052 -0.406768
v 7.696210 0.138453 -0.406768
v 8.668320 0.138453 -0.406768
v 10.002678 0.353968 -0.406769
v 11.052739 0.353968 -0.406769
v 11.052739 -0.049550 -0.406769
v 10.452049 -0.049550 -0.406769
v 10.452049 -0.691509 -0.406769
v 10.506034 -0.708394 -0.406769
v 10.560274 -0.724562 -0.406769
v 10.614832 -0.739871 -0.406769
v 10.669772 -0.754176 -0.406769
v 10.725158 -0.767335 -0.406769
v 10.781054 -0.779205 -0.406769
v 10.837523 -0.789641 -0.406769
v 10.894628 -0.798502 -0.406769
v 10.952434 -0.805643 -0.406769
v 11.011003 -0.810921 -0.406769
v 11.070402 -0.814193 -0.406769
v 11.130692 -0.815315 -0.406769
v 11.311641 -0.805258 -0.406769
v 11.482368 -0.775745 -0.406769
v 11.641823 -0.727762 -0.406769
v 11.788955 -0.662298 -0.406769
v 11.922712 -0.580339 -0.406769
v 12.042045 -0.482872 -0.406769
v 12.145901 -0.370885 -0.406769
v 12.233232 -0.245364 -0.406769
v 12.302984 -0.107297 -0.406769
v 12.354108 0.042329 -0.406769
v 12.385553 0.202526 -0.406769
v 12.396268 0.372309 -0.406769
v 12.385500 0.538419 -0.406769
v 12.354065 0.696601 -0.406769
v 12.303270 0.845611 -0.406769
v 12.234420 0.984208 -0.406769
v 12.148820 1.111152 -0.406769
v 12.047776 1.225198 -0.406769
v 11.932594 1.325106 -0.406769
v 11.804579 1.409634 -0.406769
v 11.665036 1.477539 -0.406769
v 11.515273 1.527581 -0.406769
v 11.356592 1.558517 -0.406769
v 11.190302 1.569104 -0.406769
v 11.096216 1.566912 -0.406769
v 11.002003 1.560358 -0.406769
v 10.907725 1.549473 -0.406769
v 10.813448 1.534289 -0.406769
v 10.719234 1.514839 -0.406769
v 10.625149 1.491152 -0.406769
v 10.531254 1.463263 -0.406769
v 10.437613 1.431202 -0.406769
v 10.344292 1.395002 -0.406769
v 10.251352 1.354694 -0.406769
v 10.158858 1.310310 -0.406769
v 10.066874 1.261881 -0.406769
v 10.066874 1.715838 -0.406769
v 10.184860 1.764417 -0.406769
v 10.294298 1.807186 -0.406769
v 10.396379 1.844445 -0.406769
v 10.492299 1.876498 -0.406769
v 10.583251 1.903647 -0.406769
v 10.670429 1.926195 -0.406769
v 10.755030 1.944443 -0.406769
v 10.838243 1.958696 -0.406769
v 10.921267 1.969254 -0.406769
v 11.005293 1.976422 -0.406769
v 11.091516 1.980500 -0.406769
v 11.181131 1.981793 -0.406769
v 11.414511 1.967455 -0.406769
v 11.636617 1.925557 -0.406769
v 11.845731 1.857771 -0.406769
v 12.040133 1.765768 -0.406769
v 12.218105 1.651220 -0.406769
v 12.377927 1.515799 -0.406769
v 12.517878 1.361176 -0.406769
v 12.636239 1.189024 -0.406769
v 12.731291 1.001014 -0.406769
v 12.801313 0.798817 -0.406769
v 12.844589 0.584106 -0.406769
v 12.859396 0.358553 -0.406769
v 12.844947 0.134685 -0.406769
v 12.802651 -0.077402 -0.406769
v 12.734085 -0.276241 -0.406769
v 12.640824 -0.460369 -0.406769
v 12.524445 -0.628321 -0.406769
v 12.386524 -0.778632 -0.406769
v 12.228638 -0.909836 -0.406769
v 12.052361 -1.020470 -0.406769
v 11.859272 -1.109068 -0.406769
v 11.650946 -1.174167 -0.406769
v 11.428959 -1.214300 -0.406769
v 11.194887 -1.228003 -0.406769
v 11.087889 -1.226453 -0.406769
v 10.984298 -1.221719 -0.406769
v 10.883509 -1.213674 -0.406769
v 10.784917 -1.202189 -0.406769
v 10.687918 -1.187138 -0.406769
v 10.591905 -1.168393 -0.406769
v 10.496274 -1.145826 -0.406769
v 10.400421 -1.119312 -0.406769
v 10.303740 -1.088721 -0.406769
v 10.205626 -1.053927 -0.406769
v 10.105474 -1.014802 -0.406769
v 10.002678 -0.971219 -0.406769
vn -0.0000 -0.0000 1.0000
vn -0.0000 -0.0000 -1.0000
vn -0.0612 0.9981 -0.0000
vn 0.1226 0.9925 -0.0000
vn 0.7117 -0.7025 -0.0000
vn -1.0000 -0.0000 -0.0000
vn 0.6465 0.7629 -0.0000
vn 0.5726 -0.8198 -0.0000
vn 1.0000 -0.0000 -0.0000
vn -0.8946 0.4468 -0.0000
vn -0.1018 0.9948 -0.0000
vn 0.9136 -0.4065 -0.0000
vn 0.1789 0.9839 -0.0000
vn -0.0555 0.9985 -0.0000
vn -0.8086 0.5883 -0.0000
vn -0.0000 1.0000 -0.0000
vn 0.0897 0.9960 -0.0000
vn 0.7570 -0.6534 -0.0000
vn 0.0233 -0.9997 -0.0000
vn -0.9438 0.3306 -0.0000
vn 0.6979 -0.7162 -0.0000
vn -0.8230 0.5681 -0.0000
vn -0.1415 0.9899 -0.0000
vn 0.0550 0.9985 -0.0000
vn 0.0694 -0.9976 -0.0000
vn -0.0000 -1.0000 -0.0000
vn 0.8583 -0.5131 -0.0000
vn -0.8253 0.5647 -0.0000
vn 0.8078 -0.5894 -0.0000
vn -0.1796 0.9837 -0.0000
vn 0.0186 0.9998 -0.0000
vn 0.7904 -0.6125 -0.0000
vn -0.0635 -0.9980 -0.0000
vn 0.8930 -0.4500 -0.0000
vn -0.7782 0.6281 -0.0000
vn -0.7347 0.6784 -0.0000
vn -0.2156 0.9765 -0.0000
vn -0.1914 -0.9815 -0.0000
vn 0.7768 0.6298 -0.0000
vn 0.5269 0.8499 -0.0000
vn 0.3003 0.9538 -0.0000
vn 0.5316 -0.8470 -0.0000
vn -0.8375 0.5465 -0.0000
vn 0.8152 -0.5792 -0.0000
vn -0.3169 -0.9485 -0.0000
vn -0.9811 0.1934 -0.0000
vn 0.7414 0.6711 -0.0000
vn 0.9506 -0.3104 -0.0000
vn -0.2493 0.9684 -0.0000
vn -0.3903 -0.9207 -0.0000
vn -0.6328 0.7743 -0.0000
vn -0.8458 0.5335 -0.0000
vn 0.9835 -0.1808 -0.0000
vn 0.4904 0.8715 -0.0000
vn -0.2803 0.9599 -0.0000
vn -0.3639 -0.9314 -0.0000
vn -0.4376 -0.8992 -0.0000
vn 0.4170 -0.9089 -0.0000
vn -0.8507 0.5256 -0.0000
vn 0.7871 -0.6168 -0.0000
vn -0.3086 0.9512 -0.0000
vn 0.8337 -0.5522 -0.0000
vn -0.5510 -0.8345 -0.0000
vn -0.9981 0.0619 -0.0000
vn 0.4203 0.9074 -0.0000
vn 0.8240 0.5666 -0.0000
vn 0.9978 -0.0666 -0.0000
vn 0.4525 0.8918 -0.0000
vn -0.3342 -0.9425 -0.0000
vn -0.8528 0.5222 -0.0000
vn 0.9996 0.0298 -0.0000
vn 0.7826 -0.6225 -0.0000
vn -0.3342 0.9425 -0.0000
vn -0.3017 -0.9534 -0.0000
vn 0.8412 -0.5408 -0.0000
vn -0.6552 -0.7554 -0.0000
vn -0.5212 0.8534 -0.0000
vn 0.2983 -0.9545 -0.0000
vn 0.4131 0.9107 -0.0000
vn -0.3571 0.9341 -0.0000
vn -0.7485 -0.6631 -0.0000
vn -0.9990 -0.0439 -0.0000
vn -0.7826 -0.6225 -0.0000
vn -0.8490 0.5284 -0.0000
vn 0.8924 0.4512 -0.0000
vn 0.9911 0.1335 -0.0000
vn 0.3721 0.9282 -0.0000
vn -0.3774 0.9260 -0.0000
vn -0.2666 -0.9638 -0.0000
vn 0.5358 0.8444 -0.0000
vn -0.8445 0.5356 -0.0000
vn -0.2297 -0.9733 -0.0000
vn -0.8291 -0.5591 -0.0000
vn -0.9908 -0.1356 -0.0000
vn 0.9196 0.3928 -0.0000
vn -0.4041 0.9147 -0.0000
vn -0.8393 0.5436 -0.0000
vn 0.9449 0.3272 -0.0000
vn 0.9681 0.2506 -0.0000
vn 0.3294 0.9442 -0.0000
vn -0.1916 -0.9815 -0.0000
vn 0.1211 -0.9926 -0.0000
vn 0.1779 -0.9840 -0.0000
vn -0.8337 0.5522 -0.0000
vn 0.9253 0.3792 -0.0000
vn 0.6988 -0.7153 -0.0000
vn -0.8956 -0.4449 -0.0000
vn 0.1707 -0.9853 -0.0000
vn -0.8282 0.5604 -0.0000
vn 0.2848 0.9586 -0.0000
vn -0.1533 -0.9882 -0.0000
vn -0.9465 -0.3226 -0.0000
vn -0.9729 -0.2312 -0.0000
vn -0.9138 0.4063 -0.0000
vn 0.2196 -0.9756 -0.0000
vn -0.8230 0.5680 -0.0000
vn 0.9803 0.1976 -0.0000
vn 0.8580 0.5136 -0.0000
vn -0.1157 -0.9933 -0.0000
vn -0.9243 -0.3817 -0.0000
vn -0.2852 0.9585 -0.0000
vn 0.2670 -0.9637 -0.0000
vn -0.8186 0.5744 -0.0000
vn 0.9135 -0.4068 -0.0000
vn 0.2382 0.9712 -0.0000
vn -0.0796 -0.9968 -0.0000
vn -0.9808 -0.1949 -0.0000
vn -0.9444 -0.3288 -0.0000
vn 0.3122 -0.9500 -0.0000
vn 0.0584 -0.9983 -0.0000
vn -0.8151 0.5793 -0.0000
vn 0.9979 0.0655 -0.0000
vn 0.7645 0.6446 -0.0000
vn 0.1894 0.9819 -0.0000
vn 0.3545 -0.9350 -0.0000
vn -0.0145 -0.9999 -0.0000
vn -0.8126 0.5828 -0.0000
vn -0.0457 -0.9990 -0.0000
vn -0.9979 -0.0647 -0.0000
vn -0.9047 -0.4261 -0.0000
vn -0.1678 0.9858 -0.0000
vn 0.3937 -0.9192 -0.0000
vn -0.8111 0.5849 -0.0000
vn 0.6483 0.7614 -0.0000
vn 0.1383 0.9904 -0.0000
vn -0.9980 0.0630 -0.0000
vn 0.4295 -0.9031 -0.0000
vn -0.8104 0.5859 -0.0000
vn 0.9979 -0.0644 -0.0000
vn 0.5182 0.8553 -0.0000
vn 0.0848 0.9964 -0.0000
vn 0.4618 -0.8870 -0.0000
vn -0.8102 0.5861 -0.0000
vn -0.9194 -0.3934 -0.0000
vn -0.8539 -0.5204 -0.0000
vn 0.9110 -0.4124 -0.0000
vn -0.0544 0.9985 -0.0000
vn 0.4907 -0.8714 -0.0000
vn 0.3851 0.9229 -0.0000
vn 0.0289 0.9996 -0.0000
vn 0.0613 0.9981 -0.0000
vn 0.6438 0.7652 -0.0000
vn 0.2585 0.9660 -0.0000
vn -0.0144 0.9999 -0.0000
vn 0.5929 -0.8052 -0.0000
vn 0.0235 -0.9997 -0.0000
vn -0.7931 -0.6091 -0.0000
vn -0.0472 0.9989 -0.0000
vn -0.9813 0.1926 -0.0000
vn 0.1442 0.9895 -0.0000
vn -0.4509 -0.8926 -0.0000
vn 0.0718 -0.9974 -0.0000
vn 0.9807 -0.1956 -0.0000
vn -0.0850 0.9964 -0.0000
vn 0.4715 -0.8819 -0.0000
vn 0.0443 0.9990 -0.0000
vn -0.0595 -0.9982 -0.0000
vn -0.1262 0.9920 -0.0000
vn -0.9463 0.3233 -0.0000
vn 0.1854 0.9827 -0.0000
vn -0.4237 -0.9058 -0.0000
vn -0.1806 -0.9836 -0.0000
vn -0.3924 -0.9198 -0.0000
vn -0.3020 -0.9533 -0.0000
vn 0.9454 -0.3260 -0.0000
vn -0.1688 0.9856 -0.0000
vn 0.7414 0.6710 -0.0000
vn -0.3572 -0.9340 -0.0000
vn -0.2109 0.9775 -0.0000
vn 0.3386 -0.9409 -0.0000
vn -0.8926 0.4509 -0.0000
vn -0.7239 -0.6899 -0.0000
vn -0.4212 -0.9070 -0.0000
vn -0.2504 0.9681 -0.0000
vn -0.8209 0.5711 -0.0000
vn -0.6486 -0.7611 -0.0000
vn 0.3084 0.9513 -0.0000
vn -0.3188 -0.9478 -0.0000
vn -0.5355 -0.8446 -0.0000
vn 0.8921 -0.4518 -0.0000
vn 0.8259 0.5638 -0.0000
vn -0.5695 -0.8220 -0.0000
vn -0.2778 -0.9606 -0.0000
vn -0.2860 0.9582 -0.0000
vn -0.7332 0.6800 -0.0000
vn -0.4888 -0.8724 -0.0000
vn -0.2350 -0.9720 -0.0000
vn -0.6423 -0.7665 -0.0000
vn 0.8220 -0.5696 -0.0000
vn -0.3169 0.9484 -0.0000
vn 0.2007 -0.9796 -0.0000
vn -0.4086 -0.9127 -0.0000
vn 0.4278 0.9039 -0.0000
vn -0.7390 -0.6737 -0.0000
vn -0.0450 0.9990 -0.0000
vn 0.8950 0.4460 -0.0000
vn -0.6326 0.7745 -0.0000
vn -0.5804 0.8143 -0.0000
vn -0.1910 -0.9816 -0.0000
vn -0.3429 0.9394 -0.0000
vn -0.1416 0.9899 -0.0000
vn -0.5225 0.8527 -0.0000
vn -0.6347 0.7728 -0.0000
vn -0.1469 -0.9892 -0.0000
vn -0.8232 -0.5678 -0.0000
vn 0.7368 -0.6761 -0.0000
vn -0.3640 0.9314 -0.0000
vn -0.2463 0.9692 -0.0000
vn 0.9471 0.3210 -0.0000
vn 0.5412 0.8409 -0.0000
vn -0.1032 -0.9947 -0.0000
vn 0.0320 -0.9995 -0.0000
vn -0.3582 0.9337 -0.0000
vn 0.0647 -0.9979 -0.0000
vn -0.4065 0.9136 -0.0000
vn -0.8926 -0.4508 -0.0000
vn 0.2985 0.9544 -0.0000
vn -0.3807 0.9247 -0.0000
vn -0.4746 0.8802 -0.0000
vn -0.0196 -0.9998 -0.0000
vn -0.6828 0.7306 -0.0000
vn -0.0606 -0.9982 -0.0000
vn -0.9455 -0.3257 -0.0000
vn 0.2857 0.9583 -0.0000
vn -0.5915 0.8063 -0.0000
vn 0.9814 0.1921 -0.0000
vn 0.1147 -0.9934 -0.0000
vn 0.2702 0.9628 -0.0000
vn 0.1173 -0.9931 -0.0000
vn -0.7030 0.7112 -0.0000
vn 0.1590 -0.9873 -0.0000
vn -0.9806 -0.1958 -0.0000
vn 0.2278 -0.9737 -0.0000
vn 0.9980 0.0632 -0.0000
vn -0.2882 0.9576 -0.0000
vn 0.2022 -0.9793 -0.0000
vn 0.2520 0.9677 -0.0000
vn 0.3501 -0.9367 -0.0000
vn -0.8025 0.5966 -0.0000
vn 0.2441 -0.9697 -0.0000
vn -0.9979 -0.0646 -0.0000
vn 0.2312 0.9729 -0.0000
vn -0.7242 0.6895 -0.0000
vn 0.2847 -0.9586 -0.0000
vn 0.0356 -0.9994 -0.0000
vn -0.9981 0.0616 -0.0000
vn 0.2077 0.9782 -0.0000
vn 0.4681 -0.8837 -0.0000
vn 0.9980 -0.0639 -0.0000
vn 0.3239 -0.9461 -0.0000
vn 0.1167 -0.9932 -0.0000
vn 0.5698 -0.8218 -0.0000
vn -0.1703 0.9854 -0.0000
vn 0.3617 -0.9323 -0.0000
vn 0.2118 -0.9773 -0.0000
vn -0.9819 0.1892 -0.0000
vn 0.6391 -0.7691 -0.0000
vn 0.9829 -0.1839 -0.0000
vn -0.7587 0.6514 -0.0000
vn 0.3979 -0.9174 -0.0000
vn 0.0587 0.9983 -0.0000
vn 0.1817 0.9833 -0.0000
vn 0.6506 -0.7595 -0.0000
vn -0.8840 0.4675 -0.0000
vn 0.4326 -0.9016 -0.0000
vn 0.3215 -0.9469 -0.0000
vn -0.9478 0.3190 -0.0000
vn -0.0204 0.9998 -0.0000
vn 0.1533 0.9882 -0.0000
vn 0.9548 -0.2972 -0.0000
vn -0.7867 0.6174 -0.0000
vn 0.4659 -0.8849 -0.0000
vn 0.4438 -0.8961 -0.0000
vn 0.0898 0.9960 -0.0000
vn -0.0473 0.9989 -0.0000
vn -0.7240 -0.6899 -0.0000
vn -0.0197 -0.9998 -0.0000
vt 0.010753 0.000000
vt 0.000000 0.000000
vt 0.720430 0.000000
vt 0.709677 0.000000
vt 0.698925 0.000000
vt 0.688172 0.000000
vt 0.677419 0.000000
vt 0.666667 0.000000
vt 0.655914 0.000000
vt 0.645161 0.000000
vt 0.634409 0.000000
vt 0.731183 0.000000
vt 0.623656 0.000000
vt 1.000000 0.000000
vt 0.741935 0.000000
vt 0.752688 0.000000
vt 0.763441 0.000000
vt 0.612903 0.000000
vt 0.774194 0.000000
vt 0.784946 0.000000
vt 0.795699 0.000000
vt 0.602151 0.000000
vt 0.806452 0.000000
vt 0.817204 0.000000
vt 0.827957 0.000000
vt 0.591398 0.000000
vt 0.838710 0.000000
vt 0.849462 0.000000
vt 0.580645 0.000000
vt 0.860215 0.000000
vt 0.870968 0.000000
vt 0.569892 0.000000
vt 0.881720 0.000000
vt 0.559140 0.000000
vt 0.892473 0.000000
vt 0.903226 0.000000
vt 0.548387 0.000000
vt 0.913979 0.000000
vt 0.537634 0.000000
vt 0.924731 0.000000
vt 0.526882 0.000000
vt 0.935484 0.000000
vt 0.946237 0.000000
vt 0.516129 0.000000
vt 0.956989 0.000000
vt 0.967742 0.000000
vt 0.505376 0.000000
vt 0.978495 0.000000
vt 0.989247 0.000000
vt 0.032258 0.000000
vt 0.494624 0.000000
vt 0.483871 0.000000
vt 0.473118 0.000000
vt 0.462366 0.000000
vt 0.451613 0.000000
vt 0.440860 0.000000
vt 0.430108 0.000000
vt 0.043011 0.000000
vt 0.053763 0.000000
vt 0.419355 0.000000
vt 0.021505 0.000000
vt 0.064516 0.000000
vt 0.075269 0.000000
vt 0.086022 0.000000
vt 0.408602 0.000000
vt 0.096774 0.000000
vt 0.107527 0.000000
vt 0.397849 0.000000
vt 0.118280 0.000000
vt 0.387097 0.000000
vt 0.129032 0.000000
vt 0.376344 0.000000
vt 0.139785 0.000000
vt 0.365591 0.000000
vt 0.150538 0.000000
vt 0.354839 0.000000
vt 0.161290 0.000000
vt 0.344086 0.000000
vt 0.333333 0.000000
vt 0.172043 0.000000
vt 0.322581 0.000000
vt 0.182796 0.000000
vt 0.311828 0.000000
vt 0.301075 0.000000
vt 0.290323 0.000000
vt 0.279570 0.000000
vt 0.268817 0.000000
vt 0.258065 0.000000
vt 0.247312 0.000000
vt 0.236559 0.000000
vt 0.225806 0.000000
vt 0.215054 0.000000
vt 0.204301 0.000000
vt 0.193548 0.000000
vt 0.200000 0.000000
vt 0.100000 0.000000
vt 0.800000 0.000000
vt 0.700000 0.000000
vt 0.900000 0.000000
vt 0.400000 0.000000
vt 0.500000 0.000000
vt 0.300000 0.000000
vt 0.600000 0.000000
vt 0.181818 0.000000
vt 0.090909 0.000000
vt 0.909091 0.000000
vt 0.818182 0.000000
vt 0.545455 0.000000
vt 0.727273 0.000000
vt 0.636364 0.000000
vt 0.454545 0.000000
vt 0.363636 0.000000
vt 0.272727 0.000000
vt 0.134021 0.000000
vt 0.123711 0.000000
vt 0.113402 0.000000
vt 0.103093 0.000000
vt 0.092784 0.000000
vt 0.144330 0.000000
vt 0.082474 0.000000
vt 0.072165 0.000000
vt 0.061856 0.000000
vt 0.154639 0.000000
vt 0.051546 0.000000
vt 0.041237 0.000000
vt 0.030928 0.000000
vt 0.164948 0.000000
vt 0.020619 0.000000
vt 0.010309 0.000000
vt 0.175258 0.000000
vt 0.896907 0.000000
vt 0.907216 0.000000
vt 0.917526 0.000000
vt 0.927835 0.000000
vt 0.938144 0.000000
vt 0.948454 0.000000
vt 0.958763 0.000000
vt 0.969072 0.000000
vt 0.979381 0.000000
vt 0.989691 0.000000
vt 0.185567 0.000000
vt 0.876289 0.000000
vt 0.886598 0.000000
vt 0.865979 0.000000
vt 0.855670 0.000000
vt 0.845361 0.000000
vt 0.195876 0.000000
vt 0.835052 0.000000
vt 0.824742 0.000000
vt 0.206186 0.000000
vt 0.814433 0.000000
vt 0.804124 0.000000
vt 0.216495 0.000000
vt 0.793814 0.000000
vt 0.226804 0.000000
vt 0.783505 0.000000
vt 0.773196 0.000000
vt 0.237113 0.000000
vt 0.762887 0.000000
vt 0.247423 0.000000
vt 0.752577 0.000000
vt 0.742268 0.000000
vt 0.257732 0.000000
vt 0.731959 0.000000
vt 0.268041 0.000000
vt 0.721649 0.000000
vt 0.278351 0.000000
vt 0.711340 0.000000
vt 0.288660 0.000000
vt 0.701031 0.000000
vt 0.298969 0.000000
vt 0.690722 0.000000
vt 0.515464 0.000000
vt 0.505155 0.000000
vt 0.494845 0.000000
vt 0.680412 0.000000
vt 0.525773 0.000000
vt 0.309278 0.000000
vt 0.536082 0.000000
vt 0.670103 0.000000
vt 0.546392 0.000000
vt 0.556701 0.000000
vt 0.659794 0.000000
vt 0.567010 0.000000
vt 0.319588 0.000000
vt 0.577320 0.000000
vt 0.649485 0.000000
vt 0.587629 0.000000
vt 0.597938 0.000000
vt 0.639175 0.000000
vt 0.608247 0.000000
vt 0.618557 0.000000
vt 0.628866 0.000000
vt 0.329897 0.000000
vt 0.484536 0.000000
vt 0.340206 0.000000
vt 0.474227 0.000000
vt 0.463918 0.000000
vt 0.453608 0.000000
vt 0.350515 0.000000
vt 0.443299 0.000000
vt 0.432990 0.000000
vt 0.422680 0.000000
vt 0.360825 0.000000
vt 0.412371 0.000000
vt 0.402062 0.000000
vt 0.391753 0.000000
vt 0.371134 0.000000
vt 0.381443 0.000000
vt 0.357143 0.000000
vt 0.285714 0.000000
vt 0.214286 0.000000
vt 0.571429 0.000000
vt 0.142857 0.000000
vt 0.071429 0.000000
vt 0.785714 0.000000
vt 0.857143 0.000000
vt 0.428571 0.000000
vt 0.642857 0.000000
vt 0.714286 0.000000
vt 0.928571 0.000000
vt 0.653465 0.000000
vt 0.643564 0.000000
vt 0.633663 0.000000
vt 0.623762 0.000000
vt 0.613861 0.000000
vt 0.603960 0.000000
vt 0.663366 0.000000
vt 0.594059 0.000000
vt 0.584158 0.000000
vt 0.574257 0.000000
vt 0.673267 0.000000
vt 0.564356 0.000000
vt 0.554455 0.000000
vt 0.683168 0.000000
vt 0.544554 0.000000
vt 0.534653 0.000000
vt 0.693069 0.000000
vt 0.524752 0.000000
vt 0.415842 0.000000
vt 0.425743 0.000000
vt 0.435644 0.000000
vt 0.445545 0.000000
vt 0.455446 0.000000
vt 0.465347 0.000000
vt 0.475248 0.000000
vt 0.485149 0.000000
vt 0.495050 0.000000
vt 0.504951 0.000000
vt 0.514852 0.000000
vt 0.702970 0.000000
vt 0.396040 0.000000
vt 0.405941 0.000000
vt 0.386139 0.000000
vt 0.376238 0.000000
vt 0.366337 0.000000
vt 0.712871 0.000000
vt 0.356436 0.000000
vt 0.346535 0.000000
vt 0.722772 0.000000
vt 0.336634 0.000000
vt 0.326733 0.000000
vt 0.732673 0.000000
vt 0.316832 0.000000
vt 0.742574 0.000000
vt 0.306931 0.000000
vt 0.297030 0.000000
vt 0.752475 0.000000
vt 0.287129 0.000000
vt 0.762376 0.000000
vt 0.277228 0.000000
vt 0.267327 0.000000
vt 0.772277 0.000000
vt 0.019802 0.000000
vt 0.009901 0.000000
vt 0.029703 0.000000
vt 0.257426 0.000000
vt 0.782178 0.000000
vt 0.247525 0.000000
vt 0.039604 0.000000
vt 0.792079 0.000000
vt 0.237624 0.000000
vt 0.227723 0.000000
vt 0.801980 0.000000
vt 0.217822 0.000000
vt 0.811881 0.000000
vt 0.207921 0.000000
vt 0.198020 0.000000
vt 0.821782 0.000000
vt 0.188119 0.000000
vt 0.049505 0.000000
vt 0.059406 0.000000
vt 0.069307 0.000000
vt 0.178218 0.000000
vt 0.079208 0.000000
vt 0.089109 0.000000
vt 0.099010 0.000000
vt 0.168317 0.000000
vt 0.831683 0.000000
vt 0.108911 0.000000
vt 0.118812 0.000000
vt 0.128713 0.000000
vt 0.158416 0.000000
vt 0.138614 0.000000
vt 0.148515 0.000000
vt 0.841584 0.000000
vt 0.990099 0.000000
vt 0.980198 0.000000
vt 0.851485 0.000000
vt 0.970297 0.000000
vt 0.960396 0.000000
vt 0.861386 0.000000
vt 0.950495 0.000000
vt 0.940594 0.000000
vt 0.930693 0.000000
vt 0.871287 0.000000
vt 0.920792 0.000000
vt 0.910891 0.000000
vt 0.900990 0.000000
vt 0.881188 0.000000
vt 0.891089 0.000000
s 0
usemtl マテリアル.004
f 2/1/1 1/2/1 68/3/1
f 68/3/1 1/2/1 67/4/1
f 68/3/1 67/4/1 66/5/1
f 68/3/1 66/5/1 65/6/1
f 68/3/1 65/6/1 64/7/1
f 68/3/1 64/7/1 63/8/1
f 68/3/1 63/8/1 62/9/1
f 68/3/1 62/9/1 61/10/1
f 68/3/1 61/10/1 60/11/1
f 68/3/1 60/11/1 69/12/1
f 69/12/1 60/11/1 59/13/1
f 2/1/1 68/3/1 94/14/1
f 70/15/1 69/12/1 59/13/1
f 71/16/1 70/15/1 59/13/1
f 72/17/1 71/16/1 59/13/1
f 72/17/1 59/13/1 58/18/1
f 73/19/1 72/17/1 58/18/1
f 74/20/1 73/19/1 58/18/1
f 75/21/1 74/20/1 58/18/1
f 75/21/1 58/18/1 57/22/1
f 76/23/1 75/21/1 57/22/1
f 77/24/1 76/23/1 57/22/1
f 78/25/1 77/24/1 57/22/1
f 78/25/1 57/22/1 56/26/1
f 79/27/1 78/25/1 56/26/1
f 80/28/1 79/27/1 56/26/1
f 80/28/1 56/26/1 55/29/1
f 81/30/1 80/28/1 55/29/1
f 82/31/1 81/30/1 55/29/1
f 82/31/1 55/29/1 54/32/1
f 83/33/1 82/31/1 54/32/1
f 83/33/1 54/32/1 53/34/1
f 84/35/1 83/33/1 53/34/1
f 85/36/1 84/35/1 53/34/1
f 85/36/1 53/34/1 52/37/1
f 86/38/1 85/36/1 52/37/1
f 86/38/1 52/37/1 51/39/1
f 87/40/1 86/38/1 51/39/1
f 87/40/1 51/39/1 50/41/1
f 88/42/1 87/40/1 50/41/1
f 89/43/1 88/42/1 50/41/1
f 89/43/1 50/41/1 49/44/1
f 90/45/1 89/43/1 49/44/1
f 91/46/1 90/45/1 49/44/1
f 91/46/1 49/44/1 48/47/1
f 92/48/1 91/46/1 48/47/1
f 93/49/1 92/48/1 48/47/1
f 2/1/1 94/14/1 4/50/1
f 4/50/1 94/14/1 93/49/1
f 4/50/1 93/49/1 48/47/1
f 4/50/1 48/47/1 47/51/1
f 4/50/1 47/51/1 46/52/1
f 4/50/1 46/52/1 45/53/1
f 4/50/1 45/53/1 44/54/1
f 4/50/1 44/54/1 43/55/1
f 4/50/1 43/55/1 42/56/1
f 4/50/1 42/56/1 41/57/1
f 4/50/1 41/57/1 5/58/1
f 5/58/1 41/57/1 6/59/1
f 6/59/1 41/57/1 40/60/1
f 2/1/1 4/50/1 3/61/1
f 7/62/1 6/59/1 40/60/1
f 8/63/1 7/62/1 40/60/1
f 9/64/1 8/63/1 40/60/1
f 9/64/1 40/60/1 39/65/1
f 10/66/1 9/64/1 39/65/1
f 11/67/1 10/66/1 39/65/1
f 11/67/1 39/65/1 38/68/1
f 12/69/1 11/67/1 38/68/1
f 12/69/1 38/68/1 37/70/1
f 13/71/1 12/69/1 37/70/1
f 13/71/1 37/70/1 36/72/1
f 14/73/1 13/71/1 36/72/1
f 14/73/1 36/72/1 35/74/1
f 15/75/1 14/73/1 35/74/1
f 15/75/1 35/74/1 34/76/1
f 16/77/1 15/75/1 34/76/1
f 16/77/1 34/76/1 33/78/1
f 16/77/1 33/78/1 32/79/1
f 17/80/1 16/77/1 32/79/1
f 17/80/1 32/79/1 31/81/1
f 18/82/1 17/80/1 31/81/1
f 18/82/1 31/81/1 30/83/1
f 18/82/1 30/83/1 29/84/1
f 18/82/1 29/84/1 28/85/1
f 18/82/1 28/85/1 27/86/1
f 18/82/1 27/86/1 26/87/1
f 18/82/1 26/87/1 25/88/1
f 18/82/1 25/88/1 24/89/1
f 18/82/1 24/89/1 23/90/1
f 18/82/1 23/90/1 22/91/1
f 18/82/1 22/91/1 21/92/1
f 18/82/1 21/92/1 20/93/1
f 18/82/1 20/93/1 19/94/1
f 97/95/1 96/96/1 95/2/1
f 97/95/1 95/2/1 103/97/1
f 103/97/1 95/2/1 102/98/1
f 97/95/1 103/97/1 105/14/1
f 104/99/1 103/97/1 102/98/1
f 97/95/1 105/14/1 99/100/1
f 99/100/1 105/14/1 104/99/1
f 99/100/1 104/99/1 100/101/1
f 100/101/1 104/99/1 102/98/1
f 97/95/1 99/100/1 98/102/1
f 101/103/1 100/101/1 102/98/1
f 108/104/1 107/105/1 116/106/1
f 116/106/1 107/105/1 106/2/1
f 116/106/1 106/2/1 117/14/1
f 108/104/1 116/106/1 115/107/1
f 108/104/1 115/107/1 112/108/1
f 112/108/1 115/107/1 114/109/1
f 112/108/1 114/109/1 113/110/1
f 108/104/1 112/108/1 111/111/1
f 108/104/1 111/111/1 110/112/1
f 108/104/1 110/112/1 109/113/1
f 120/100/1 119/95/1 118/2/1
f 120/100/1 118/2/1 123/14/1
f 120/100/1 123/14/1 122/97/1
f 120/100/1 122/97/1 121/103/1
f 137/114/1 136/115/1 135/116/1
f 137/114/1 135/116/1 134/117/1
f 137/114/1 134/117/1 133/118/1
f 138/119/1 137/114/1 133/118/1
f 138/119/1 133/118/1 132/120/1
f 138/119/1 132/120/1 131/121/1
f 138/119/1 131/121/1 130/122/1
f 139/123/1 138/119/1 130/122/1
f 139/123/1 130/122/1 129/124/1
f 139/123/1 129/124/1 128/125/1
f 139/123/1 128/125/1 127/126/1
f 140/127/1 139/123/1 127/126/1
f 140/127/1 127/126/1 126/128/1
f 140/127/1 126/128/1 125/129/1
f 140/127/1 125/129/1 124/2/1
f 141/130/1 140/127/1 124/2/1
f 141/130/1 124/2/1 211/131/1
f 211/131/1 124/2/1 212/132/1
f 212/132/1 124/2/1 213/133/1
f 213/133/1 124/2/1 214/134/1
f 214/134/1 124/2/1 215/135/1
f 215/135/1 124/2/1 216/136/1
f 216/136/1 124/2/1 217/137/1
f 217/137/1 124/2/1 218/138/1
f 218/138/1 124/2/1 219/139/1
f 219/139/1 124/2/1 220/140/1
f 220/140/1 124/2/1 221/14/1
f 142/141/1 141/130/1 209/142/1
f 209/142/1 141/130/1 210/143/1
f 210/143/1 141/130/1 211/131/1
f 142/141/1 209/142/1 208/144/1
f 142/141/1 208/144/1 207/145/1
f 142/141/1 207/145/1 206/146/1
f 143/147/1 142/141/1 206/146/1
f 143/147/1 206/146/1 205/148/1
f 143/147/1 205/148/1 204/149/1
f 144/150/1 143/147/1 204/149/1
f 144/150/1 204/149/1 203/151/1
f 144/150/1 203/151/1 202/152/1
f 145/153/1 144/150/1 202/152/1
f 145/153/1 202/152/1 201/154/1
f 146/155/1 145/153/1 201/154/1
f 146/155/1 201/154/1 200/156/1
f 146/155/1 200/156/1 199/157/1
f 147/158/1 146/155/1 199/157/1
f 147/158/1 199/157/1 198/159/1
f 148/160/1 147/158/1 198/159/1
f 148/160/1 198/159/1 197/161/1
f 148/160/1 197/161/1 196/162/1
f 149/163/1 148/160/1 196/162/1
f 149/163/1 196/162/1 195/164/1
f 150/165/1 149/163/1 195/164/1
f 150/165/1 195/164/1 194/166/1
f 151/167/1 150/165/1 194/166/1
f 151/167/1 194/166/1 193/168/1
f 152/169/1 151/167/1 193/168/1
f 152/169/1 193/168/1 192/170/1
f 153/171/1 152/169/1 192/170/1
f 153/171/1 192/170/1 191/172/1
f 174/173/1 173/174/1 172/175/1
f 153/171/1 191/172/1 190/176/1
f 175/177/1 174/173/1 172/175/1
f 154/178/1 153/171/1 190/176/1
f 176/179/1 175/177/1 172/175/1
f 154/178/1 190/176/1 189/180/1
f 177/181/1 176/179/1 172/175/1
f 178/182/1 177/181/1 172/175/1
f 154/178/1 189/180/1 188/183/1
f 179/184/1 178/182/1 172/175/1
f 155/185/1 154/178/1 188/183/1
f 180/186/1 179/184/1 172/175/1
f 155/185/1 188/183/1 187/187/1
f 181/188/1 180/186/1 172/175/1
f 182/189/1 181/188/1 172/175/1
f 155/185/1 187/187/1 186/190/1
f 183/191/1 182/189/1 172/175/1
f 184/192/1 183/191/1 172/175/1
f 155/185/1 186/190/1 185/193/1
f 185/193/1 184/192/1 172/175/1
f 155/185/1 185/193/1 172/175/1
f 156/194/1 155/185/1 172/175/1
f 156/194/1 172/175/1 171/195/1
f 157/196/1 156/194/1 171/195/1
f 157/196/1 171/195/1 170/197/1
f 157/196/1 170/197/1 169/198/1
f 157/196/1 169/198/1 168/199/1
f 158/200/1 157/196/1 168/199/1
f 158/200/1 168/199/1 167/201/1
f 158/200/1 167/201/1 166/202/1
f 158/200/1 166/202/1 165/203/1
f 159/204/1 158/200/1 165/203/1
f 159/204/1 165/203/1 164/205/1
f 159/204/1 164/205/1 163/206/1
f 159/204/1 163/206/1 162/207/1
f 160/208/1 159/204/1 162/207/1
f 160/208/1 162/207/1 161/209/1
f 224/104/1 223/105/1 232/106/1
f 232/106/1 223/105/1 222/2/1
f 232/106/1 222/2/1 233/14/1
f 224/104/1 232/106/1 231/107/1
f 224/104/1 231/107/1 228/108/1
f 228/108/1 231/107/1 230/109/1
f 228/108/1 230/109/1 229/110/1
f 224/104/1 228/108/1 227/111/1
f 224/104/1 227/111/1 226/112/1
f 224/104/1 226/112/1 225/113/1
f 239/210/1 238/211/1 237/212/1
f 239/210/1 237/212/1 241/101/1
f 241/101/1 237/212/1 242/213/1
f 242/213/1 237/212/1 236/214/1
f 236/214/1 235/215/1 234/2/1
f 236/214/1 234/2/1 245/216/1
f 245/216/1 234/2/1 246/217/1
f 246/217/1 234/2/1 248/14/1
f 239/210/1 241/101/1 240/218/1
f 243/219/1 242/213/1 236/214/1
f 236/214/1 245/216/1 244/220/1
f 247/221/1 246/217/1 248/14/1
f 243/219/1 236/214/1 244/220/1
f 251/95/1 250/96/1 249/2/1
f 251/95/1 249/2/1 257/97/1
f 257/97/1 249/2/1 256/98/1
f 251/95/1 257/97/1 259/14/1
f 258/99/1 257/97/1 256/98/1
f 251/95/1 259/14/1 253/100/1
f 253/100/1 259/14/1 258/99/1
f 253/100/1 258/99/1 254/101/1
f 254/101/1 258/99/1 256/98/1
f 251/95/1 253/100/1 252/102/1
f 255/103/1 254/101/1 256/98/1
f 326/222/1 325/223/1 324/224/1
f 326/222/1 324/224/1 323/225/1
f 326/222/1 323/225/1 322/226/1
f 326/222/1 322/226/1 321/227/1
f 327/228/1 326/222/1 321/227/1
f 327/228/1 321/227/1 320/229/1
f 327/228/1 320/229/1 319/230/1
f 327/228/1 319/230/1 318/231/1
f 328/232/1 327/228/1 318/231/1
f 328/232/1 318/231/1 317/233/1
f 328/232/1 317/233/1 316/234/1
f 329/235/1 328/232/1 316/234/1
f 329/235/1 316/234/1 315/236/1
f 329/235/1 315/236/1 314/237/1
f 330/238/1 329/235/1 314/237/1
f 330/238/1 314/237/1 313/239/1
f 330/238/1 313/239/1 302/240/1
f 302/240/1 313/239/1 303/241/1
f 303/241/1 313/239/1 304/242/1
f 304/242/1 313/239/1 305/243/1
f 305/243/1 313/239/1 306/244/1
f 306/244/1 313/239/1 307/245/1
f 307/245/1 313/239/1 308/246/1
f 308/246/1 313/239/1 309/247/1
f 309/247/1 313/239/1 310/248/1
f 310/248/1 313/239/1 311/249/1
f 311/249/1 313/239/1 312/250/1
f 331/251/1 330/238/1 300/252/1
f 300/252/1 330/238/1 301/253/1
f 301/253/1 330/238/1 302/240/1
f 331/251/1 300/252/1 299/254/1
f 331/251/1 299/254/1 298/255/1
f 331/251/1 298/255/1 297/256/1
f 332/257/1 331/251/1 297/256/1
f 332/257/1 297/256/1 296/258/1
f 332/257/1 296/258/1 295/259/1
f 333/260/1 332/257/1 295/259/1
f 333/260/1 295/259/1 294/261/1
f 333/260/1 294/261/1 293/262/1
f 334/263/1 333/260/1 293/262/1
f 334/263/1 293/262/1 292/264/1
f 335/265/1 334/263/1 292/264/1
f 335/265/1 292/264/1 291/266/1
f 335/265/1 291/266/1 290/267/1
f 336/268/1 335/265/1 290/267/1
f 336/268/1 290/267/1 289/269/1
f 337/270/1 336/268/1 289/269/1
f 337/270/1 289/269/1 288/271/1
f 337/270/1 288/271/1 287/272/1
f 338/273/1 337/270/1 287/272/1
f 262/274/1 261/275/1 260/2/1
f 262/274/1 260/2/1 263/276/1
f 263/276/1 260/2/1 361/14/1
f 338/273/1 287/272/1 286/277/1
f 339/278/1 338/273/1 286/277/1
f 339/278/1 286/277/1 285/279/1
f 264/280/1 263/276/1 361/14/1
f 340/281/1 339/278/1 285/279/1
f 340/281/1 285/279/1 284/282/1
f 340/281/1 284/282/1 283/283/1
f 341/284/1 340/281/1 283/283/1
f 341/284/1 283/283/1 282/285/1
f 342/286/1 341/284/1 282/285/1
f 342/286/1 282/285/1 281/287/1
f 342/286/1 281/287/1 280/288/1
f 343/289/1 342/286/1 280/288/1
f 343/289/1 280/288/1 279/290/1
f 265/291/1 264/280/1 361/14/1
f 266/292/1 265/291/1 361/14/1
f 267/293/1 266/292/1 361/14/1
f 343/289/1 279/290/1 278/294/1
f 268/295/1 267/293/1 361/14/1
f 269/296/1 268/295/1 361/14/1
f 270/297/1 269/296/1 361/14/1
f 343/289/1 278/294/1 277/298/1
f 344/299/1 343/289/1 277/298/1
f 271/300/1 270/297/1 361/14/1
f 272/301/1 271/300/1 361/14/1
f 273/302/1 272/301/1 361/14/1
f 344/299/1 277/298/1 276/303/1
f 274/304/1 273/302/1 361/14/1
f 275/305/1 274/304/1 361/14/1
f 276/303/1 275/305/1 361/14/1
f 344/299/1 276/303/1 361/14/1
f 345/306/1 344/299/1 361/14/1
f 345/306/1 361/14/1 360/307/1
f 345/306/1 360/307/1 359/308/1
f 346/309/1 345/306/1 359/308/1
f 346/309/1 359/308/1 358/310/1
f 346/309/1 358/310/1 357/311/1
f 347/312/1 346/309/1 357/311/1
f 347/312/1 357/311/1 356/313/1
f 347/312/1 356/313/1 355/314/1
f 347/312/1 355/314/1 354/315/1
f 348/316/1 347/312/1 354/315/1
f 348/316/1 354/315/1 353/317/1
f 348/316/1 353/317/1 352/318/1
f 348/316/1 352/318/1 351/319/1
f 349/320/1 348/316/1 351/319/1
f 349/320/1 351/319/1 350/321/1
f 363/1/2 429/3/2 362/2/2
f 429/3/2 428/4/2 362/2/2
f 429/3/2 427/5/2 428/4/2
f 429/3/2 426/6/2 427/5/2
f 429/3/2 425/7/2 426/6/2
f 429/3/2 424/8/2 425/7/2
f 429/3/2 423/9/2 424/8/2
f 429/3/2 422/10/2 423/9/2
f 429/3/2 421/11/2 422/10/2
f 429/3/2 430/12/2 421/11/2
f 430/12/2 420/13/2 421/11/2
f 363/1/2 455/14/2 429/3/2
f 431/15/2 420/13/2 430/12/2
f 432/16/2 420/13/2 431/15/2
f 433/17/2 420/13/2 432/16/2
f 433/17/2 419/18/2 420/13/2
f 434/19/2 419/18/2 433/17/2
f 435/20/2 419/18/2 434/19/2
f 436/21/2 419/18/2 435/20/2
f 436/21/2 418/22/2 419/18/2
f 437/23/2 418/22/2 436/21/2
f 438/24/2 418/22/2 437/23/2
f 439/25/2 418/22/2 438/24/2
f 439/25/2 417/26/2 418/22/2
f 440/27/2 417/26/2 439/25/2
f 441/28/2 417/26/2 440/27/2
f 441/28/2 416/29/2 417/26/2
f 442/30/2 416/29/2 441/28/2
f 443/31/2 416/29/2 442/30/2
f 443/31/2 415/32/2 416/29/2
f 444/33/2 415/32/2 443/31/2
f 444/33/2 414/34/2 415/32/2
f 445/35/2 414/34/2 444/33/2
f 446/36/2 414/34/2 445/35/2
f 446/36/2 413/37/2 414/34/2
f 447/38/2 413/37/2 446/36/2
f 447/38/2 412/39/2 413/37/2
f 448/40/2 412/39/2 447/38/2
f 448/40/2 411/41/2 412/39/2
f 449/42/2 411/41/2 448/40/2
f 450/43/2 411/41/2 449/42/2
f 450/43/2 410/44/2 411/41/2
f 451/45/2 410/44/2 450/43/2
f 452/46/2 410/44/2 451/45/2
f 452/46/2 409/47/2 410/44/2
f 453/48/2 409/47/2 452/46/2
f 454/49/2 409/47/2 453/48/2
f 363/1/2 365/50/2 455/14/2
f 365/50/2 454/49/2 455/14/2
f 365/50/2 409/47/2 454/49/2
f 365/50/2 408/51/2 409/47/2
f 365/50/2 407/52/2 408/51/2
f 365/50/2 406/53/2 407/52/2
f 365/50/2 405/54/2 406/53/2
f 365/50/2 404/55/2 405/54/2
f 365/50/2 403/56/2 404/55/2
f 365/50/2 402/57/2 403/56/2
f 365/50/2 366/58/2 402/57/2
f 366/58/2 367/59/2 402/57/2
f 367/59/2 401/60/2 402/57/2
f 363/1/2 364/61/2 365/50/2
f 368/62/2 401/60/2 367/59/2
f 369/63/2 401/60/2 368/62/2
f 370/64/2 401/60/2 369/63/2
f 370/64/2 400/65/2 401/60/2
f 371/66/2 400/65/2 370/64/2
f 372/67/2 400/65/2 371/66/2
f 372/67/2 399/68/2 400/65/2
f 373/69/2 399/68/2 372/67/2
f 373/69/2 398/70/2 399/68/2
f 374/71/2 398/70/2 373/69/2
f 374/71/2 397/72/2 398/70/2
f 375/73/2 397/72/2 374/71/2
f 375/73/2 396/74/2 397/72/2
f 376/75/2 396/74/2 375/73/2
f 376/75/2 395/76/2 396/74/2
f 377/77/2 395/76/2 376/75/2
f 377/77/2 394/78/2 395/76/2
f 377/77/2 393/79/2 394/78/2
f 378/80/2 393/79/2 377/77/2
f 378/80/2 392/81/2 393/79/2
f 379/82/2 392/81/2 378/80/2
f 379/82/2 391/83/2 392/81/2
f 379/82/2 390/84/2 391/83/2
f 379/82/2 389/85/2 390/84/2
f 379/82/2 388/86/2 389/85/2
f 379/82/2 387/87/2 388/86/2
f 379/82/2 386/88/2 387/87/2
f 379/82/2 385/89/2 386/88/2
f 379/82/2 384/90/2 385/89/2
f 379/82/2 383/91/2 384/90/2
f 379/82/2 382/92/2 383/91/2
f 379/82/2 381/93/2 382/92/2
f 379/82/2 380/94/2 381/93/2
f 458/95/2 456/2/2 457/96/2
f 458/95/2 464/97/2 456/2/2
f 464/97/2 463/98/2 456/2/2
f 458/95/2 466/14/2 464/97/2
f 465/99/2 463/98/2 464/97/2
f 458/95/2 460/100/2 466/14/2
f 460/100/2 465/99/2 466/14/2
f 460/100/2 461/101/2 465/99/2
f 461/101/2 463/98/2 465/99/2
f 458/95/2 459/102/2 460/100/2
f 462/103/2 463/98/2 461/101/2
f 469/104/2 477/106/2 468/105/2
f 477/106/2 467/2/2 468/105/2
f 477/106/2 478/14/2 467/2/2
f 469/104/2 476/107/2 477/106/2
f 469/104/2 473/108/2 476/107/2
f 473/108/2 475/109/2 476/107/2
f 473/108/2 474/110/2 475/109/2
f 469/104/2 472/111/2 473/108/2
f 469/104/2 471/112/2 472/111/2
f 469/104/2 470/113/2 471/112/2
f 481/100/2 479/2/2 480/95/2
f 481/100/2 484/14/2 479/2/2
f 481/100/2 483/97/2 484/14/2
f 481/100/2 482/103/2 483/97/2
f 498/114/2 496/116/2 497/115/2
f 498/114/2 495/117/2 496/116/2
f 498/114/2 494/118/2 495/117/2
f 499/119/2 494/118/2 498/114/2
f 499/119/2 493/120/2 494/118/2
f 499/119/2 492/121/2 493/120/2
f 499/119/2 491/122/2 492/121/2
f 500/123/2 491/122/2 499/119/2
f 500/123/2 490/124/2 491/122/2
f 500/123/2 489/125/2 490/124/2
f 500/123/2 488/126/2 489/125/2
f 501/127/2 488/126/2 500/123/2
f 501/127/2 487/128/2 488/126/2
f 501/127/2 486/129/2 487/128/2
f 501/127/2 485/2/2 486/129/2
f 502/130/2 485/2/2 501/127/2
f 502/130/2 572/131/2 485/2/2
f 572/131/2 573/132/2 485/2/2
f 573/132/2 574/133/2 485/2/2
f 574/133/2 575/134/2 485/2/2
f 575/134/2 576/135/2 485/2/2
f 576/135/2 577/136/2 485/2/2
f 577/136/2 578/137/2 485/2/2
f 578/137/2 579/138/2 485/2/2
f 579/138/2 580/139/2 485/2/2
f 580/139/2 581/140/2 485/2/2
f 581/140/2 582/14/2 485/2/2
f 503/141/2 570/142/2 502/130/2
f 570/142/2 571/143/2 502/130/2
f 571/143/2 572/131/2 502/130/2
f 503/141/2 569/144/2 570/142/2
f 503/141/2 568/145/2 569/144/2
f 503/141/2 567/146/2 568/145/2
f 504/147/2 567/146/2 503/141/2
f 504/147/2 566/148/2 567/146/2
f 504/147/2 565/149/2 566/148/2
f 505/150/2 565/149/2 504/147/2
f 505/150/2 564/151/2 565/149/2
f 505/150/2 563/152/2 564/151/2
f 506/153/2 563/152/2 505/150/2
f 506/153/2 562/154/2 563/152/2
f 507/155/2 562/154/2 506/153/2
f 507/155/2 561/156/2 562/154/2
f 507/155/2 560/157/2 561/156/2
f 508/158/2 560/157/2 507/155/2
f 508/158/2 559/159/2 560/157/2
f 509/160/2 559/159/2 508/158/2
f 509/160/2 558/161/2 559/159/2
f 509/160/2 557/162/2 558/161/2
f 510/163/2 557/162/2 509/160/2
f 510/163/2 556/164/2 557/162/2
f 511/165/2 556/164/2 510/163/2
f 511/165/2 555/166/2 556/164/2
f 512/167/2 555/166/2 511/165/2
f 512/167/2 554/168/2 555/166/2
f 513/169/2 554/168/2 512/167/2
f 513/169/2 553/170/2 554/168/2
f 514/171/2 553/170/2 513/169/2
f 514/171/2 552/172/2 553/170/2
f 535/173/2 533/175/2 534/174/2
f 514/171/2 551/176/2 552/172/2
f 536/177/2 533/175/2 535/173/2
f 515/178/2 551/176/2 514/171/2
f 537/179/2 533/175/2 536/177/2
f 515/178/2 550/180/2 551/176/2
f 538/181/2 533/175/2 537/179/2
f 539/182/2 533/175/2 538/181/2
f 515/178/2 549/183/2 550/180/2
f 540/184/2 533/175/2 539/182/2
f 516/185/2 549/183/2 515/178/2
f 541/186/2 533/175/2 540/184/2
f 516/185/2 548/187/2 549/183/2
f 542/188/2 533/175/2 541/186/2
f 543/189/2 533/175/2 542/188/2
f 516/185/2 547/190/2 548/187/2
f 544/191/2 533/175/2 543/189/2
f 545/192/2 533/175/2 544/191/2
f 516/185/2 546/193/2 547/190/2
f 546/193/2 533/175/2 545/192/2
f 516/185/2 533/175/2 546/193/2
f 517/194/2 533/175/2 516/185/2
f 517/194/2 532/195/2 533/175/2
f 518/196/2 532/195/2 517/194/2
f 518/196/2 531/197/2 532/195/2
f 518/196/2 530/198/2 531/197/2
f 518/196/2 529/199/2 530/198/2
f 519/200/2 529/199/2 518/196/2
f 519/200/2 528/201/2 529/199/2
f 519/200/2 527/202/2 528/201/2
f 519/200/2 526/203/2 527/202/2
f 520/204/2 526/203/2 519/200/2
f 520/204/2 525/205/2 526/203/2
f 520/204/2 524/206/2 525/205/2
f 520/204/2 523/207/2 524/206/2
f 521/208/2 523/207/2 520/204/2
f 521/208/2 522/209/2 523/207/2
f 585/104/2 593/106/2 584/105/2
f 593/106/2 583/2/2 584/105/2
f 593/106/2 594/14/2 583/2/2
f 585/104/2 592/107/2 593/106/2
f 585/104/2 589/108/2 592/107/2
f 589/108/2 591/109/2 592/107/2
f 589/108/2 590/110/2 591/109/2
f 585/104/2 588/111/2 589/108/2
f 585/104/2 587/112/2 588/111/2
f 585/104/2 586/113/2 587/112/2
f 600/210/2 598/212/2 599/211/2
f 600/210/2 602/101/2 598/212/2
f 602/101/2 603/213/2 598/212/2
f 603/213/2 597/214/2 598/212/2
f 597/214/2 595/2/2 596/215/2
f 597/214/2 606/216/2 595/2/2
f 606/216/2 607/217/2 595/2/2
f 607/217/2 609/14/2 595/2/2
f 600/210/2 601/218/2 602/101/2
f 604/219/2 597/214/2 603/213/2
f 597/214/2 605/220/2 606/216/2
f 608/221/2 609/14/2 607/217/2
f 604/219/2 605/220/2 597/214/2
f 612/95/2 610/2/2 611/96/2
f 612/95/2 618/97/2 610/2/2
f 618/97/2 617/98/2 610/2/2
f 612/95/2 620/14/2 618/97/2
f 619/99/2 617/98/2 618/97/2
f 612/95/2 614/100/2 620/14/2
f 614/100/2 619/99/2 620/14/2
f 614/100/2 615/101/2 619/99/2
f 615/101/2 617/98/2 619/99/2
f 612/95/2 613/102/2 614/100/2
f 616/103/2 617/98/2 615/101/2
f 687/222/2 685/224/2 686/223/2
f 687/222/2 684/225/2 685/224/2
f 687/222/2 683/226/2 684/225/2
f 687/222/2 682/227/2 683/226/2
f 688/228/2 682/227/2 687/222/2
f 688/228/2 681/229/2 682/227/2
f 688/228/2 680/230/2 681/229/2
f 688/228/2 679/231/2 680/230/2
f 689/232/2 679/231/2 688/228/2
f 689/232/2 678/233/2 679/231/2
f 689/232/2 677/234/2 678/233/2
f 690/235/2 677/234/2 689/232/2
f 690/235/2 676/236/2 677/234/2
f 690/235/2 675/237/2 676/236/2
f 691/238/2 675/237/2 690/235/2
f 691/238/2 674/239/2 675/237/2
f 691/238/2 663/240/2 674/239/2
f 663/240/2 664/241/2 674/239/2
f 664/241/2 665/242/2 674/239/2
f 665/242/2 666/243/2 674/239/2
f 666/243/2 667/244/2 674/239/2
f 667/244/2 668/245/2 674/239/2
f 668/245/2 669/246/2 674/239/2
f 669/246/2 670/247/2 674/239/2
f 670/247/2 671/248/2 674/239/2
f 671/248/2 672/249/2 674/239/2
f 672/249/2 673/250/2 674/239/2
f 692/251/2 661/252/2 691/238/2
f 661/252/2 662/253/2 691/238/2
f 662/253/2 663/240/2 691/238/2
f 692/251/2 660/254/2 661/252/2
f 692/251/2 659/255/2 660/254/2
f 692/251/2 658/256/2 659/255/2
f 693/257/2 658/256/2 692/251/2
f 693/257/2 657/258/2 658/256/2
f 693/257/2 656/259/2 657/258/2
f 694/260/2 656/259/2 693/257/2
f 694/260/2 655/261/2 656/259/2
f 694/260/2 654/262/2 655/261/2
f 695/263/2 654/262/2 694/260/2
f 695/263/2 653/264/2 654/262/2
f 696/265/2 653/264/2 695/263/2
f 696/265/2 652/266/2 653/264/2
f 696/265/2 651/267/2 652/266/2
f 697/268/2 651/267/2 696/265/2
f 697/268/2 650/269/2 651/267/2
f 698/270/2 650/269/2 697/268/2
f 698/270/2 649/271/2 650/269/2
f 698/270/2 648/272/2 649/271/2
f 699/273/2 648/272/2 698/270/2
f 623/274/2 621/2/2 622/275/2
f 623/274/2 624/276/2 621/2/2
f 624/276/2 722/14/2 621/2/2
f 699/273/2 647/277/2 648/272/2
f 700/278/2 647/277/2 699/273/2
f 700/278/2 646/279/2 647/277/2
f 625/280/2 722/14/2 624/276/2
f 701/281/2 646/279/2 700/278/2
f 701/281/2 645/282/2 646/279/2
f 701/281/2 644/283/2 645/282/2
f 702/284/2 644/283/2 701/281/2
f 702/284/2 643/285/2 644/283/2
f 703/286/2 643/285/2 702/284/2
f 703/286/2 642/287/2 643/285/2
f 703/286/2 641/288/2 642/287/2
f 704/289/2 641/288/2 703/286/2
f 704/289/2 640/290/2 641/288/2
f 626/291/2 722/14/2 625/280/2
f 627/292/2 722/14/2 626/291/2
f 628/293/2 722/14/2 627/292/2
f 704/289/2 639/294/2 640/290/2
f 629/295/2 722/14/2 628/293/2
f 630/296/2 722/14/2 629/295/2
f 631/297/2 722/14/2 630/296/2
f 704/289/2 638/298/2 639/294/2
f 705/299/2 638/298/2 704/289/2
f 632/300/2 722/14/2 631/297/2
f 633/301/2 722/14/2 632/300/2
f 634/302/2 722/14/2 633/301/2
f 705/299/2 637/303/2 638/298/2
f 635/304/2 722/14/2 634/302/2
f 636/305/2 722/14/2 635/304/2
f 637/303/2 722/14/2 636/305/2
f 705/299/2 722/14/2 637/303/2
f 706/306/2 722/14/2 705/299/2
f 706/306/2 721/307/2 722/14/2
f 706/306/2 720/308/2 721/307/2
f 707/309/2 720/308/2 706/306/2
f 707/309/2 719/310/2 720/308/2
f 707/309/2 718/311/2 719/310/2
f 708/312/2 718/311/2 707/309/2
f 708/312/2 717/313/2 718/311/2
f 708/312/2 716/314/2 717/313/2
f 708/312/2 715/315/2 716/314/2
f 709/316/2 715/315/2 708/312/2
f 709/316/2 714/317/2 715/315/2
f 709/316/2 713/318/2 714/317/2
f 709/316/2 712/319/2 713/318/2
f 710/320/2 712/319/2 709/316/2
f 710/320/2 711/321/2 712/319/2
f 135/116/3 495/117/3 134/117/3
f 273/302/4 633/301/4 272/301/4
f 13/71/5 373/69/5 12/69/5
f 313/239/6 673/250/6 312/250/6
f 226/112/6 586/113/6 225/113/6
f 331/251/7 691/238/7 330/238/7
f 75/21/8 435/20/8 74/20/8
f 239/210/9 599/211/9 238/211/9
f 194/166/10 554/168/10 193/168/10
f 134/117/11 494/118/11 133/118/11
f 152/169/12 512/167/12 151/167/12
f 138/119/13 498/114/13 137/114/13
f 277/298/14 637/303/14 276/303/14
f 37/70/15 397/72/15 36/72/15
f 238/211/16 598/212/16 237/212/16
f 274/304/17 634/302/17 273/302/17
f 14/73/18 374/71/18 13/71/18
f 301/253/19 661/252/19 300/252/19
f 58/18/20 418/22/20 57/22/20
f 75/21/21 437/23/21 436/21/21
f 193/168/22 553/170/22 192/170/22
f 133/118/23 493/120/23 132/120/23
f 275/305/24 635/304/24 274/304/24
f 302/240/25 662/253/25 301/253/25
f 242/213/26 602/101/26 241/101/26
f 153/171/27 513/169/27 152/169/27
f 36/72/28 396/74/28 35/74/28
f 77/24/29 437/23/29 76/23/29
f 132/120/30 492/121/30 131/121/30
f 276/303/31 636/305/31 275/305/31
f 15/75/32 375/73/32 14/73/32
f 300/252/33 660/254/33 299/254/33
f 78/25/34 438/24/34 77/24/34
f 237/212/35 597/214/35 236/214/35
f 192/170/36 552/172/36 191/172/36
f 131/121/37 491/122/37 130/122/37
f 299/254/38 659/255/38 298/255/38
f 236/214/39 596/215/39 235/215/39
f 174/173/40 534/174/40 173/174/40
f 139/123/41 499/119/41 138/119/41
f 344/299/42 706/306/42 705/299/42
f 34/76/43 396/74/43 395/76/43
f 15/75/44 377/77/44 376/75/44
f 298/255/45 658/256/45 297/256/45
f 57/22/46 417/26/46 56/26/46
f 235/215/16 595/2/16 234/2/16
f 172/175/6 534/174/6 533/175/6
f 332/257/47 692/251/47 331/251/47
f 79/27/48 439/25/48 78/25/48
f 129/124/49 491/122/49 490/124/49
f 361/14/50 721/307/50 360/307/50
f 191/172/51 551/176/51 190/176/51
f 34/76/52 394/78/52 33/78/52
f 80/28/53 440/27/53 79/27/53
f 246/217/26 606/216/26 245/216/26
f 175/177/54 535/173/54 174/173/54
f 129/124/55 489/125/55 128/125/55
f 360/307/56 720/308/56 359/308/56
f 297/256/57 657/258/57 296/258/57
f 346/309/58 706/306/58 345/306/58
f 33/78/59 393/79/59 32/79/59
f 153/171/60 515/178/60 514/171/60
f 128/125/61 488/126/61 127/126/61
f 16/77/62 378/80/62 377/77/62
f 296/258/63 656/259/63 295/259/63
f 56/26/64 416/29/64 55/29/64
f 234/2/6 609/14/6 248/14/6
f 140/127/65 500/123/65 139/123/65
f 333/260/66 693/257/66 332/257/66
f 81/30/67 441/28/67 80/28/67
f 239/210/26 601/218/26 600/210/26
f 176/179/68 536/177/68 175/177/68
f 359/308/69 719/310/69 358/310/69
f 241/101/6 601/218/6 240/218/6
f 32/79/70 392/81/70 31/81/70
f 82/31/71 442/30/71 81/30/71
f 242/213/72 604/219/72 603/213/72
f 127/126/73 487/128/73 126/128/73
f 358/310/74 718/311/74 357/311/74
f 18/82/75 378/80/75 17/80/75
f 295/259/76 655/261/76 294/261/76
f 189/180/77 551/176/77 550/180/77
f 347/312/78 707/309/78 346/309/78
f 177/181/79 537/179/79 176/179/79
f 126/128/80 486/129/80 125/129/80
f 294/261/81 654/262/81 293/262/81
f 55/29/82 415/32/82 54/32/82
f 245/216/83 605/220/83 244/220/83
f 31/81/84 391/83/84 30/83/84
f 334/263/85 694/260/85 333/260/85
f 83/33/86 443/31/86 82/31/86
f 247/221/9 607/217/9 246/217/9
f 178/182/87 538/181/87 177/181/87
f 125/129/88 485/2/88 124/2/88
f 357/311/89 717/313/89 356/313/89
f 248/14/26 608/221/26 247/221/26
f 141/130/90 501/127/90 140/127/90
f 30/83/91 390/84/91 29/84/91
f 244/220/26 604/219/26 243/219/26
f 355/314/92 717/313/92 716/314/92
f 293/262/93 653/264/93 292/264/93
f 54/32/94 414/34/94 53/34/94
f 250/96/95 612/95/95 611/96/95
f 189/180/96 549/183/96 188/183/96
f 29/84/97 389/85/97 28/85/97
f 335/265/98 695/263/98 334/263/98
f 84/35/99 444/33/99 83/33/99
f 179/184/100 539/182/100 178/182/100
f 355/314/101 715/315/101 354/315/101
f 250/96/16 610/2/16 249/2/16
f 212/132/102 572/131/102 211/131/102
f 347/312/103 709/316/103 708/312/103
f 28/85/104 388/86/104 27/86/104
f 85/36/105 445/35/105 84/35/105
f 154/178/106 516/185/106 515/178/106
f 292/264/107 652/266/107 291/266/107
f 212/132/108 574/133/108 573/132/108
f 27/86/109 387/87/109 26/87/109
f 180/186/110 540/184/110 179/184/110
f 354/315/111 714/317/111 353/317/111
f 291/266/112 651/267/112 290/267/112
f 53/34/113 413/37/113 52/37/113
f 249/2/114 617/98/114 256/98/114
f 214/134/115 574/133/115 213/133/115
f 26/87/116 386/88/116 25/88/116
f 336/268/117 696/265/117 335/265/117
f 86/38/118 446/36/118 85/36/118
f 353/317/119 713/318/119 352/318/119
f 257/97/120 620/14/120 259/14/120
f 188/183/121 548/187/121 187/187/121
f 215/135/122 575/134/122 214/134/122
f 25/88/123 385/89/123 24/89/123
f 257/97/124 619/99/124 618/97/124
f 181/188/125 541/186/125 180/186/125
f 352/318/126 712/319/126 351/319/126
f 290/267/127 650/269/127 289/269/127
f 52/37/128 412/39/128 51/39/128
f 216/136/129 576/135/129 215/135/129
f 348/316/130 710/320/130 709/316/130
f 24/89/131 384/90/131 23/90/131
f 336/268/132 698/270/132 697/268/132
f 87/40/133 447/38/133 86/38/133
f 182/189/134 542/188/134 181/188/134
f 216/136/135 578/137/135 577/136/135
f 350/321/136 710/320/136 349/320/136
f 23/90/137 383/91/137 22/91/137
f 351/319/138 711/321/138 350/321/138
f 289/269/139 649/271/139 288/271/139
f 51/39/140 411/41/140 50/41/140
f 259/14/16 619/99/16 258/99/16
f 187/187/141 547/190/141 186/190/141
f 218/138/142 578/137/142 217/137/142
f 22/91/143 382/92/143 21/92/143
f 88/42/144 448/40/144 87/40/144
f 254/101/26 614/100/26 253/100/26
f 183/191/145 543/189/145 182/189/145
f 287/272/146 649/271/146 648/272/146
f 219/139/147 579/138/147 218/138/147
f 20/93/148 382/92/148 381/93/148
f 338/273/149 698/270/149 337/270/149
f 89/43/150 449/42/150 88/42/150
f 184/192/151 544/191/151 183/191/151
f 19/94/26 379/82/26 18/82/26
f 252/102/26 612/95/26 251/95/26
f 220/140/152 580/139/152 219/139/152
f 20/93/153 380/94/153 19/94/153
f 262/274/9 622/275/9 261/275/9
f 252/102/154 614/100/154 613/102/154
f 96/96/95 458/95/95 457/96/95
f 50/41/155 410/44/155 49/44/155
f 255/103/156 615/101/156 254/101/156
f 186/190/157 546/193/157 185/193/157
f 221/14/158 581/140/158 220/140/158
f 260/2/16 622/275/16 621/2/16
f 90/45/159 450/43/159 89/43/159
f 255/103/26 617/98/26 616/103/26
f 185/193/160 545/192/160 184/192/160
f 124/2/6 582/14/6 221/14/6
f 96/96/16 456/2/16 95/2/16
f 263/276/26 623/274/26 262/274/26
f 326/222/161 686/223/161 325/223/161
f 142/141/162 502/130/162 141/130/162
f 91/46/163 451/45/163 90/45/163
f 325/223/164 685/224/164 324/224/164
f 156/194/165 516/185/165 155/185/165
f 260/2/6 722/14/6 361/14/6
f 210/143/166 570/142/166 209/142/166
f 95/2/114 463/98/114 102/98/114
f 49/44/167 409/47/167 48/47/167
f 324/224/168 684/225/168 323/225/168
f 287/272/169 647/277/169 286/277/169
f 92/48/170 452/46/170 91/46/170
f 172/175/171 532/195/171 171/195/171
f 211/131/172 571/143/172 210/143/172
f 103/97/120 466/14/120 105/14/120
f 339/278/173 699/273/173 338/273/173
f 323/225/174 683/226/174 322/226/174
f 156/194/175 518/196/175 517/194/175
f 104/99/124 464/97/124 103/97/124
f 93/49/176 453/48/176 92/48/176
f 209/142/177 569/144/177 208/144/177
f 322/226/178 682/227/178 321/227/178
f 286/277/179 646/279/179 285/279/179
f 327/228/180 687/222/180 326/222/180
f 171/195/181 531/197/181 170/197/181
f 208/144/182 568/145/182 207/145/182
f 263/276/9 625/280/9 624/276/9
f 170/197/183 530/198/183 169/198/183
f 207/145/184 567/146/184 206/146/184
f 105/14/16 465/99/16 104/99/16
f 340/281/185 700/278/185 339/278/185
f 94/14/16 454/49/16 93/49/16
f 321/227/186 681/229/186 320/229/186
f 143/147/187 503/141/187 142/141/187
f 100/101/26 460/100/26 99/100/26
f 169/198/188 529/199/188 168/199/188
f 320/229/189 680/230/189 319/230/189
f 158/200/190 518/196/190 157/196/190
f 285/279/191 645/282/191 284/282/191
f 48/47/192 408/51/192 47/51/192
f 206/146/193 566/148/193 205/148/193
f 98/102/26 458/95/26 97/95/26
f 319/230/194 679/231/194 318/231/194
f 99/100/154 459/102/154 98/102/154
f 284/282/195 644/283/195 283/283/195
f 47/51/196 407/52/196 46/52/196
f 327/228/197 689/232/197 688/228/197
f 168/199/198 528/201/198 167/201/198
f 205/148/199 565/149/199 204/149/199
f 101/103/156 461/101/156 100/101/156
f 341/284/200 701/281/200 340/281/200
f 2/1/9 362/2/9 1/2/9
f 144/150/201 504/147/201 143/147/201
f 102/98/26 462/103/26 101/103/26
f 46/52/202 406/53/202 45/53/202
f 167/201/203 527/202/203 166/202/203
f 108/104/9 468/105/9 107/105/9
f 318/231/204 678/233/204 317/233/204
f 283/283/205 643/285/205 282/285/205
f 45/53/206 405/54/206 44/54/206
f 166/202/207 526/203/207 165/203/207
f 203/151/208 565/149/208 564/151/208
f 342/286/209 702/284/209 341/284/209
f 317/233/210 677/234/210 316/234/210
f 1/2/16 428/4/16 67/4/16
f 158/200/211 520/204/211 519/200/211
f 44/54/212 404/55/212 43/55/212
f 329/235/213 689/232/213 328/232/213
f 203/151/214 563/152/214 202/152/214
f 107/105/16 467/2/16 106/2/16
f 67/4/215 427/5/215 66/5/215
f 145/153/216 505/150/216 144/150/216
f 116/106/26 478/14/26 477/106/26
f 282/285/217 642/287/217 281/287/217
f 43/55/218 403/56/218 42/56/218
f 165/203/219 525/205/219 164/205/219
f 106/2/6 478/14/6 117/14/6
f 316/234/220 676/236/220 315/236/220
f 66/5/221 426/6/221 65/6/221
f 281/287/222 641/288/222 280/288/222
f 42/56/223 402/57/223 41/57/223
f 164/205/224 524/206/224 163/206/224
f 202/152/225 562/154/225 201/154/225
f 116/106/6 476/107/6 115/107/6
f 343/289/226 703/286/226 342/286/226
f 5/58/26 365/50/26 4/50/26
f 315/236/227 675/237/227 314/237/227
f 65/6/228 425/7/228 64/7/228
f 146/155/229 506/153/229 145/153/229
f 330/238/230 690/235/230 329/235/230
f 163/206/231 523/207/231 162/207/231
f 5/58/232 367/59/232 366/58/232
f 64/7/233 424/8/233 63/8/233
f 160/208/234 520/204/234 159/204/234
f 280/288/235 640/290/235 279/290/235
f 201/154/236 561/156/236 200/156/236
f 115/107/16 475/109/16 114/109/16
f 265/291/237 625/280/237 264/280/237
f 314/237/238 674/239/238 313/239/238
f 63/8/239 423/9/239 62/9/239
f 161/209/240 521/208/240 160/208/240
f 113/110/26 473/108/26 112/108/26
f 41/57/241 401/60/241 40/60/241
f 162/207/242 522/209/242 161/209/242
f 200/156/243 560/157/243 199/157/243
f 114/109/6 474/110/6 113/110/6
f 266/292/244 626/291/244 265/291/244
f 3/61/26 363/1/26 2/1/26
f 62/9/245 422/10/245 61/10/245
f 223/105/9 585/104/9 584/105/9
f 147/158/246 507/155/246 146/155/246
f 3/61/6 365/50/6 364/61/6
f 303/241/247 663/240/247 302/240/247
f 112/108/6 472/111/6 111/111/6
f 267/293/248 627/292/248 266/292/248
f 6/59/249 368/62/249 367/59/249
f 61/10/250 421/11/250 60/11/250
f 303/241/251 665/242/251 664/241/251
f 69/12/26 429/3/26 68/3/26
f 199/157/252 559/159/252 198/159/252
f 111/111/16 471/112/16 110/112/16
f 8/63/253 368/62/253 7/62/253
f 223/105/16 583/2/16 222/2/16
f 147/158/254 509/160/254 508/158/254
f 109/113/26 469/104/26 108/104/26
f 279/290/255 639/294/255 278/294/255
f 305/243/256 665/242/256 304/242/256
f 233/14/26 593/106/26 232/106/26
f 110/112/6 470/113/6 109/113/6
f 268/295/257 628/293/257 267/293/257
f 9/64/258 369/63/258 8/63/258
f 60/11/259 420/13/259 59/13/259
f 222/2/6 594/14/6 233/14/6
f 119/95/9 481/100/9 480/95/9
f 306/244/260 666/243/260 305/243/260
f 198/159/261 558/161/261 197/161/261
f 269/296/262 629/295/262 268/295/262
f 68/3/6 455/14/6 94/14/6
f 232/106/6 592/107/6 231/107/6
f 119/95/16 479/2/16 118/2/16
f 40/60/263 400/65/263 39/65/263
f 306/244/264 668/245/264 667/244/264
f 70/15/265 430/12/265 69/12/265
f 197/161/266 557/162/266 196/162/266
f 270/297/267 630/296/267 269/296/267
f 9/64/268 371/66/268 370/64/268
f 149/163/269 509/160/269 148/160/269
f 118/2/6 484/14/6 123/14/6
f 308/246/270 668/245/270 307/245/270
f 71/16/271 431/15/271 70/15/271
f 11/67/272 371/66/272 10/66/272
f 231/107/16 591/109/16 230/109/16
f 123/14/16 483/97/16 122/97/16
f 278/294/273 638/298/273 277/298/273
f 309/247/274 669/246/274 308/246/274
f 72/17/275 432/16/275 71/16/275
f 229/110/26 589/108/26 228/108/26
f 196/162/276 556/164/276 195/164/276
f 121/103/26 481/100/26 120/100/26
f 344/299/277 704/289/277 343/289/277
f 230/109/6 590/110/6 229/110/6
f 150/165/278 510/163/278 149/163/278
f 122/97/6 482/103/6 121/103/6
f 38/68/279 400/65/279 399/68/279
f 310/248/280 670/247/280 309/247/280
f 137/114/281 497/115/281 136/115/281
f 271/300/282 631/297/282 270/297/282
f 12/69/283 372/67/283 11/67/283
f 59/13/284 419/18/284 58/18/284
f 228/108/6 588/111/6 227/111/6
f 311/249/285 671/248/285 310/248/285
f 73/19/286 433/17/286 72/17/286
f 195/164/287 555/166/287 194/166/287
f 136/115/288 496/116/288 135/116/288
f 272/301/289 632/300/289 271/300/289
f 227/111/16 587/112/16 226/112/16
f 151/167/290 511/165/290 150/165/290
f 38/68/291 398/70/291 37/70/291
f 312/250/292 672/249/292 311/249/292
f 74/20/293 434/19/293 73/19/293
f 225/113/26 585/104/26 224/104/26
f 135/116/3 496/116/3 495/117/3
f 273/302/4 634/302/4 633/301/4
f 13/71/5 374/71/5 373/69/5
f 313/239/6 674/239/6 673/250/6
f 226/112/6 587/112/6 586/113/6
f 331/251/7 692/251/7 691/238/7
f 75/21/8 436/21/8 435/20/8
f 239/210/9 600/210/9 599/211/9
f 194/166/10 555/166/10 554/168/10
f 134/117/11 495/117/11 494/118/11
f 152/169/12 513/169/12 512/167/12
f 138/119/13 499/119/13 498/114/13
f 277/298/14 638/298/14 637/303/14
f 37/70/15 398/70/15 397/72/15
f 238/211/16 599/211/16 598/212/16
f 274/304/294 635/304/294 634/302/294
f 14/73/18 375/73/18 374/71/18
f 301/253/19 662/253/19 661/252/19
f 58/18/20 419/18/20 418/22/20
f 75/21/21 76/23/21 437/23/21
f 193/168/22 554/168/22 553/170/22
f 133/118/23 494/118/23 493/120/23
f 275/305/24 636/305/24 635/304/24
f 302/240/25 663/240/25 662/253/25
f 242/213/26 603/213/26 602/101/26
f 153/171/27 514/171/27 513/169/27
f 36/72/28 397/72/28 396/74/28
f 77/24/29 438/24/29 437/23/29
f 132/120/30 493/120/30 492/121/30
f 276/303/31 637/303/31 636/305/31
f 15/75/32 376/75/32 375/73/32
f 300/252/33 661/252/33 660/254/33
f 78/25/34 439/25/34 438/24/34
f 237/212/35 598/212/35 597/214/35
f 192/170/36 553/170/36 552/172/36
f 131/121/37 492/121/37 491/122/37
f 299/254/38 660/254/38 659/255/38
f 236/214/39 597/214/39 596/215/39
f 174/173/40 535/173/40 534/174/40
f 139/123/41 500/123/41 499/119/41
f 344/299/42 345/306/42 706/306/42
f 34/76/43 35/74/43 396/74/43
f 15/75/44 16/77/44 377/77/44
f 298/255/45 659/255/45 658/256/45
f 57/22/46 418/22/46 417/26/46
f 235/215/16 596/215/16 595/2/16
f 172/175/6 173/174/6 534/174/6
f 332/257/47 693/257/47 692/251/47
f 79/27/48 440/27/48 439/25/48
f 129/124/49 130/122/49 491/122/49
f 361/14/50 722/14/50 721/307/50
f 191/172/51 552/172/51 551/176/51
f 34/76/52 395/76/52 394/78/52
f 80/28/53 441/28/53 440/27/53
f 246/217/26 607/217/26 606/216/26
f 175/177/54 536/177/54 535/173/54
f 129/124/55 490/124/55 489/125/55
f 360/307/56 721/307/56 720/308/56
f 297/256/57 658/256/57 657/258/57
f 346/309/58 707/309/58 706/306/58
f 33/78/59 394/78/59 393/79/59
f 153/171/60 154/178/60 515/178/60
f 128/125/61 489/125/61 488/126/61
f 16/77/62 17/80/62 378/80/62
f 296/258/63 657/258/63 656/259/63
f 56/26/64 417/26/64 416/29/64
f 234/2/6 595/2/6 609/14/6
f 140/127/65 501/127/65 500/123/65
f 333/260/66 694/260/66 693/257/66
f 81/30/67 442/30/67 441/28/67
f 239/210/26 240/218/26 601/218/26
f 176/179/68 537/179/68 536/177/68
f 359/308/69 720/308/69 719/310/69
f 241/101/6 602/101/6 601/218/6
f 32/79/70 393/79/70 392/81/70
f 82/31/71 443/31/71 442/30/71
f 242/213/72 243/219/72 604/219/72
f 127/126/73 488/126/73 487/128/73
f 358/310/74 719/310/74 718/311/74
f 18/82/75 379/82/75 378/80/75
f 295/259/76 656/259/76 655/261/76
f 189/180/77 190/176/77 551/176/77
f 347/312/78 708/312/78 707/309/78
f 177/181/79 538/181/79 537/179/79
f 126/128/80 487/128/80 486/129/80
f 294/261/81 655/261/81 654/262/81
f 55/29/82 416/29/82 415/32/82
f 245/216/83 606/216/83 605/220/83
f 31/81/84 392/81/84 391/83/84
f 334/263/85 695/263/85 694/260/85
f 83/33/86 444/33/86 443/31/86
f 247/221/9 608/221/9 607/217/9
f 178/182/87 539/182/87 538/181/87
f 125/129/88 486/129/88 485/2/88
f 357/311/89 718/311/89 717/313/89
f 248/14/26 609/14/26 608/221/26
f 141/130/90 502/130/90 501/127/90
f 30/83/91 391/83/91 390/84/91
f 244/220/26 605/220/26 604/219/26
f 355/314/92 356/313/92 717/313/92
f 293/262/93 654/262/93 653/264/93
f 54/32/94 415/32/94 414/34/94
f 250/96/95 251/95/95 612/95/95
f 189/180/96 550/180/96 549/183/96
f 29/84/97 390/84/97 389/85/97
f 335/265/98 696/265/98 695/263/98
f 84/35/99 445/35/99 444/33/99
f 179/184/100 540/184/100 539/182/100
f 355/314/101 716/314/101 715/315/101
f 250/96/16 611/96/16 610/2/16
f 212/132/102 573/132/102 572/131/102
f 347/312/103 348/316/103 709/316/103
f 28/85/104 389/85/104 388/86/104
f 85/36/105 446/36/105 445/35/105
f 154/178/106 155/185/106 516/185/106
f 292/264/107 653/264/107 652/266/107
f 212/132/108 213/133/108 574/133/108
f 27/86/109 388/86/109 387/87/109
f 180/186/110 541/186/110 540/184/110
f 354/315/111 715/315/111 714/317/111
f 291/266/112 652/266/112 651/267/112
f 53/34/113 414/34/113 413/37/113
f 249/2/114 610/2/114 617/98/114
f 214/134/115 575/134/115 574/133/115
f 26/87/116 387/87/116 386/88/116
f 336/268/117 697/268/117 696/265/117
f 86/38/118 447/38/118 446/36/118
f 353/317/119 714/317/119 713/318/119
f 257/97/120 618/97/120 620/14/120
f 188/183/121 549/183/121 548/187/121
f 215/135/122 576/135/122 575/134/122
f 25/88/123 386/88/123 385/89/123
f 257/97/124 258/99/124 619/99/124
f 181/188/125 542/188/125 541/186/125
f 352/318/126 713/318/126 712/319/126
f 290/267/127 651/267/127 650/269/127
f 52/37/128 413/37/128 412/39/128
f 216/136/129 577/136/129 576/135/129
f 348/316/130 349/320/130 710/320/130
f 24/89/131 385/89/131 384/90/131
f 336/268/132 337/270/132 698/270/132
f 87/40/133 448/40/133 447/38/133
f 182/189/134 543/189/134 542/188/134
f 216/136/135 217/137/135 578/137/135
f 350/321/136 711/321/136 710/320/136
f 23/90/137 384/90/137 383/91/137
f 351/319/138 712/319/138 711/321/138
f 289/269/139 650/269/139 649/271/139
f 51/39/140 412/39/140 411/41/140
f 259/14/16 620/14/16 619/99/16
f 187/187/141 548/187/141 547/190/141
f 218/138/142 579/138/142 578/137/142
f 22/91/143 383/91/143 382/92/143
f 88/42/144 449/42/144 448/40/144
f 254/101/26 615/101/26 614/100/26
f 183/191/145 544/191/145 543/189/145
f 287/272/146 288/271/146 649/271/146
f 219/139/147 580/139/147 579/138/147
f 20/93/148 21/92/148 382/92/148
f 338/273/149 699/273/149 698/270/149
f 89/43/150 450/43/150 449/42/150
f 184/192/151 545/192/151 544/191/151
f 19/94/26 380/94/26 379/82/26
f 252/102/26 613/102/26 612/95/26
f 220/140/152 581/140/152 580/139/152
f 20/93/153 381/93/153 380/94/153
f 262/274/9 623/274/9 622/275/9
f 252/102/154 253/100/154 614/100/154
f 96/96/95 97/95/95 458/95/95
f 50/41/155 411/41/155 410/44/155
f 255/103/156 616/103/156 615/101/156
f 186/190/157 547/190/157 546/193/157
f 221/14/158 582/14/158 581/140/158
f 260/2/16 261/275/16 622/275/16
f 90/45/159 451/45/159 450/43/159
f 255/103/26 256/98/26 617/98/26
f 185/193/160 546/193/160 545/192/160
f 124/2/6 485/2/6 582/14/6
f 96/96/16 457/96/16 456/2/16
f 263/276/26 624/276/26 623/274/26
f 326/222/161 687/222/161 686/223/161
f 142/141/162 503/141/162 502/130/162
f 91/46/163 452/46/163 451/45/163
f 325/223/164 686/223/164 685/224/164
f 156/194/165 517/194/165 516/185/165
f 260/2/6 621/2/6 722/14/6
f 210/143/166 571/143/166 570/142/166
f 95/2/114 456/2/114 463/98/114
f 49/44/167 410/44/167 409/47/167
f 324/224/295 685/224/295 684/225/295
f 287/272/169 648/272/169 647/277/169
f 92/48/170 453/48/170 452/46/170
f 172/175/171 533/175/171 532/195/171
f 211/131/172 572/131/172 571/143/172
f 103/97/120 464/97/120 466/14/120
f 339/278/173 700/278/173 699/273/173
f 323/225/174 684/225/174 683/226/174
f 156/194/175 157/196/175 518/196/175
f 104/99/124 465/99/124 464/97/124
f 93/49/176 454/49/176 453/48/176
f 209/142/177 570/142/177 569/144/177
f 322/226/178 683/226/178 682/227/178
f 286/277/179 647/277/179 646/279/179
f 327/228/180 688/228/180 687/222/180
f 171/195/181 532/195/181 531/197/181
f 208/144/182 569/144/182 568/145/182
f 263/276/9 264/280/9 625/280/9
f 170/197/183 531/197/183 530/198/183
f 207/145/184 568/145/184 567/146/184
f 105/14/16 466/14/16 465/99/16
f 340/281/185 701/281/185 700/278/185
f 94/14/16 455/14/16 454/49/16
f 321/227/186 682/227/186 681/229/186
f 143/147/187 504/147/187 503/141/187
f 100/101/26 461/101/26 460/100/26
f 169/198/188 530/198/188 529/199/188
f 320/229/189 681/229/189 680/230/189
f 158/200/190 519/200/190 518/196/190
f 285/279/191 646/279/191 645/282/191
f 48/47/296 409/47/296 408/51/296
f 206/146/193 567/146/193 566/148/193
f 98/102/26 459/102/26 458/95/26
f 319/230/194 680/230/194 679/231/194
f 99/100/154 460/100/154 459/102/154
f 284/282/195 645/282/195 644/283/195
f 47/51/196 408/51/196 407/52/196
f 327/228/197 328/232/197 689/232/197
f 168/199/198 529/199/198 528/201/198
f 205/148/199 566/148/199 565/149/199
f 101/103/156 462/103/156 461/101/156
f 341/284/200 702/284/200 701/281/200
f 2/1/9 363/1/9 362/2/9
f 144/150/201 505/150/201 504/147/201
f 102/98/26 463/98/26 462/103/26
f 46/52/202 407/52/202 406/53/202
f 167/201/203 528/201/203 527/202/203
f 108/104/9 469/104/9 468/105/9
f 318/231/204 679/231/204 678/233/204
f 283/283/205 644/283/205 643/285/205
f 45/53/206 406/53/206 405/54/206
f 166/202/207 527/202/207 526/203/207
f 203/151/208 204/149/208 565/149/208
f 342/286/209 703/286/209 702/284/209
f 317/233/210 678/233/210 677/234/210
f 1/2/16 362/2/16 428/4/16
f 158/200/211 159/204/211 520/204/211
f 44/54/212 405/54/212 404/55/212
f 329/235/213 690/235/213 689/232/213
f 203/151/214 564/151/214 563/152/214
f 107/105/16 468/105/16 467/2/16
f 67/4/215 428/4/215 427/5/215
f 145/153/216 506/153/216 505/150/216
f 116/106/26 117/14/26 478/14/26
f 282/285/217 643/285/217 642/287/217
f 43/55/218 404/55/218 403/56/218
f 165/203/219 526/203/219 525/205/219
f 106/2/6 467/2/6 478/14/6
f 316/234/220 677/234/220 676/236/220
f 66/5/221 427/5/221 426/6/221
f 281/287/222 642/287/222 641/288/222
f 42/56/223 403/56/223 402/57/223
f 164/205/224 525/205/224 524/206/224
f 202/152/225 563/152/225 562/154/225
f 116/106/6 477/106/6 476/107/6
f 343/289/226 704/289/226 703/286/226
f 5/58/26 366/58/26 365/50/26
f 315/236/227 676/236/227 675/237/227
f 65/6/228 426/6/228 425/7/228
f 146/155/229 507/155/229 506/153/229
f 330/238/230 691/238/230 690/235/230
f 163/206/231 524/206/231 523/207/231
f 5/58/232 6/59/232 367/59/232
f 64/7/233 425/7/233 424/8/233
f 160/208/234 521/208/234 520/204/234
f 280/288/235 641/288/235 640/290/235
f 201/154/236 562/154/236 561/156/236
f 115/107/16 476/107/16 475/109/16
f 265/291/237 626/291/237 625/280/237
f 314/237/238 675/237/238 674/239/238
f 63/8/239 424/8/239 423/9/239
f 161/209/297 522/209/297 521/208/297
f 113/110/26 474/110/26 473/108/26
f 41/57/241 402/57/241 401/60/241
f 162/207/242 523/207/242 522/209/242
f 200/156/243 561/156/243 560/157/243
f 114/109/6 475/109/6 474/110/6
f 266/292/244 627/292/244 626/291/244
f 3/61/26 364/61/26 363/1/26
f 62/9/245 423/9/245 422/10/245
f 223/105/9 224/104/9 585/104/9
f 147/158/246 508/158/246 507/155/246
f 3/61/6 4/50/6 365/50/6
f 303/241/247 664/241/247 663/240/247
f 112/108/6 473/108/6 472/111/6
f 267/293/248 628/293/248 627/292/248
f 6/59/249 7/62/249 368/62/249
f 61/10/250 422/10/250 421/11/250
f 303/241/251 304/242/251 665/242/251
f 69/12/26 430/12/26 429/3/26
f 199/157/252 560/157/252 559/159/252
f 111/111/16 472/111/16 471/112/16
f 8/63/253 369/63/253 368/62/253
f 223/105/16 584/105/16 583/2/16
f 147/158/254 148/160/254 509/160/254
f 109/113/26 470/113/26 469/104/26
f 279/290/255 640/290/255 639/294/255
f 305/243/256 666/243/256 665/242/256
f 233/14/26 594/14/26 593/106/26
f 110/112/6 471/112/6 470/113/6
f 268/295/257 629/295/257 628/293/257
f 9/64/258 370/64/258 369/63/258
f 60/11/259 421/11/259 420/13/259
f 222/2/6 583/2/6 594/14/6
f 119/95/9 120/100/9 481/100/9
f 306/244/260 667/244/260 666/243/260
f 198/159/261 559/159/261 558/161/261
f 269/296/262 630/296/262 629/295/262
f 68/3/6 429/3/6 455/14/6
f 232/106/6 593/106/6 592/107/6
f 119/95/16 480/95/16 479/2/16
f 40/60/263 401/60/263 400/65/263
f 306/244/264 307/245/264 668/245/264
f 70/15/265 431/15/265 430/12/265
f 197/161/266 558/161/266 557/162/266
f 270/297/267 631/297/267 630/296/267
f 9/64/268 10/66/268 371/66/268
f 149/163/269 510/163/269 509/160/269
f 118/2/6 479/2/6 484/14/6
f 308/246/270 669/246/270 668/245/270
f 71/16/271 432/16/271 431/15/271
f 11/67/272 372/67/272 371/66/272
f 231/107/16 592/107/16 591/109/16
f 123/14/16 484/14/16 483/97/16
f 278/294/273 639/294/273 638/298/273
f 309/247/274 670/247/274 669/246/274
f 72/17/275 433/17/275 432/16/275
f 229/110/26 590/110/26 589/108/26
f 196/162/276 557/162/276 556/164/276
f 121/103/26 482/103/26 481/100/26
f 344/299/277 705/299/277 704/289/277
f 230/109/6 591/109/6 590/110/6
f 150/165/278 511/165/278 510/163/278
f 122/97/6 483/97/6 482/103/6
f 38/68/279 39/65/279 400/65/279
f 310/248/280 671/248/280 670/247/280
f 137/114/281 498/114/281 497/115/281
f 271/300/282 632/300/282 631/297/282
f 12/69/283 373/69/283 372/67/283
f 59/13/284 420/13/284 419/18/284
f 228/108/6 589/108/6 588/111/6
f 311/249/285 672/249/285 671/248/285
f 73/19/286 434/19/286 433/17/286
f 195/164/287 556/164/287 555/166/287
f 136/115/288 497/115/288 496/116/288
f 272/301/289 633/301/289 632/300/289
f 227/111/16 588/111/16 587/112/16
f 151/167/290 512/167/290 511/165/290
f 38/68/291 399/68/291 398/70/291
f 312/250/292 673/250/292 672/249/292
f 74/20/293 435/20/293 434/19/293
f 225/113/26 586/113/26 585/104/26
